  0
SECTION
  2
HEADER
  9
$ACADVER
  1
AC1009
  9
$INSBASE
 10
0.000000
 20
0.000000
  9
$LIMMIN
 10
-513.334000
 20
-323.850000
  9
$LIMMAX
 10
350.266000
 20
234.950000
  9
$EXTMIN
 10
-513.334000
 20
-323.850000
  9
$EXTMAX
 10
350.266000
 20
234.950000
  9
$ATTMODE
 70
0
  9
$LUNITS
 70
2
  9
$LUPREC
 70
4
  9
$THICKNESS
 40
0.264160
  0
ENDSEC
  0
SECTION
  2
TABLES
  0
TABLE
  2
LTYPE
 70
1
  0
LTYPE
  3
Solid Line
  2
CONTINUOUS
 70
0
 72
65
 73
0
 40
0.000000
  0
ENDTAB
  0
TABLE
  2
LAYER
 70
2
  0
LAYER
  2
OUTLINE
 70
0
 62
1
  6
CONTINUOUS
  0
LAYER
  2
TOP
 70
0
 62
2
  6
CONTINUOUS
  0
ENDTAB
  0
TABLE
  2
STYLE
 70
1
  0
STYLE
  2
STANDARD
 70
0
 40
0.000000
 41
1.000000
 50
0.000000
 71
0
 42
0.200000
  3
txt
  0
ENDTAB
  0
ENDSEC
  0
SECTION
  2
BLOCKS
  0
BLOCK
  8
0
  2
FIGURE_CIRCLE
 70
0
 10
0.000000
 20
0.000000
  0
CIRCLE
  8
0
 10
0.000000
 20
0.000000
 40
0.500000
  0
ENDBLK
  0
BLOCK
  8
0
  2
FIGURE_SQUARE
 70
0
 10
0.000000
 20
0.000000
  0
POLYLINE
  8
0
 66
1
 70
1
 40
0.000000
 41
0.000000
 39
0.000000
  0
VERTEX
  8
0
 10
-0.500000
 20
-0.500000
 40
0.000000
 41
0.000000
 42
0.000000
  0
VERTEX
  8
0
 10
-0.500000
 20
0.500000
 40
0.000000
 41
0.000000
 42
0.000000
  0
VERTEX
  8
0
 10
0.500000
 20
0.500000
 40
0.000000
 41
0.000000
 42
0.000000
  0
VERTEX
  8
0
 10
0.500000
 20
-0.500000
 40
0.000000
 41
0.000000
 42
0.000000
  0
SEQEND
  0
ENDBLK
  0
BLOCK
  8
0
  2
FIGURE_HEX
 70
0
 10
0.000000
 20
0.000000
  0
POLYLINE
  8
0
 66
1
 70
1
 40
0.000000
 41
0.000000
 39
0.000000
  0
VERTEX
  8
0
 10
-0.500000
 20
0.000000
 40
0.000000
 41
0.000000
 42
0.000000
  0
VERTEX
  8
0
 10
-0.250000
 20
0.500000
 40
0.000000
 41
0.000000
 42
0.000000
  0
VERTEX
  8
0
 10
0.250000
 20
0.500000
 40
0.000000
 41
0.000000
 42
0.000000
  0
VERTEX
  8
0
 10
0.500000
 20
0.000000
 40
0.000000
 41
0.000000
 42
0.000000
  0
VERTEX
  8
0
 10
0.250000
 20
-0.500000
 40
0.000000
 41
0.000000
 42
0.000000
  0
VERTEX
  8
0
 10
-0.250000
 20
-0.500000
 40
0.000000
 41
0.000000
 42
0.000000
  0
SEQEND
  0
ENDBLK
  0
BLOCK
  8
0
  2
FIGURE_OCT
 70
0
 10
0.000000
 20
0.000000
  0
POLYLINE
  8
0
 66
1
 70
1
 40
0.000000
 41
0.000000
 39
0.000000
  0
VERTEX
  8
0
 10
-0.500000
 20
-0.207100
 40
0.000000
 41
0.000000
 42
0.000000
  0
VERTEX
  8
0
 10
-0.500000
 20
0.207100
 40
0.000000
 41
0.000000
 42
0.000000
  0
VERTEX
  8
0
 10
-0.207100
 20
0.500000
 40
0.000000
 41
0.000000
 42
0.000000
  0
VERTEX
  8
0
 10
0.207100
 20
0.500000
 40
0.000000
 41
0.000000
 42
0.000000
  0
VERTEX
  8
0
 10
0.500000
 20
0.207100
 40
0.000000
 41
0.000000
 42
0.000000
  0
VERTEX
  8
0
 10
0.500000
 20
-0.207100
 40
0.000000
 41
0.000000
 42
0.000000
  0
VERTEX
  8
0
 10
0.207100
 20
-0.500000
 40
0.000000
 41
0.000000
 42
0.000000
  0
VERTEX
  8
0
 10
-0.207100
 20
-0.500000
 40
0.000000
 41
0.000000
 42
0.000000
  0
SEQEND
  0
ENDBLK
  0
BLOCK
  8
0
  2
FIGURE_OBLONG
 70
0
 10
0.000000
 20
0.000000
  0
POLYLINE
  8
0
 66
1
 70
1
 40
0.000000
 41
0.000000
 39
0.000000
  0
VERTEX
  8
0
 10
-0.500000
 20
-0.125000
 40
0.000000
 41
0.000000
 42
0.000000
  0
VERTEX
  8
0
 10
-0.500000
 20
0.125000
 40
0.000000
 41
0.000000
 42
0.000000
  0
VERTEX
  8
0
 10
-0.416000
 20
0.375000
 40
0.000000
 41
0.000000
 42
0.000000
  0
VERTEX
  8
0
 10
-0.250000
 20
0.500000
 40
0.000000
 41
0.000000
 42
0.000000
  0
VERTEX
  8
0
 10
0.250000
 20
0.500000
 40
0.000000
 41
0.000000
 42
0.000000
  0
VERTEX
  8
0
 10
0.416000
 20
0.375000
 40
0.000000
 41
0.000000
 42
0.000000
  0
VERTEX
  8
0
 10
0.500000
 20
0.125000
 40
0.000000
 41
0.000000
 42
0.000000
  0
VERTEX
  8
0
 10
0.500000
 20
-0.125000
 40
0.000000
 41
0.000000
 42
0.000000
  0
VERTEX
  8
0
 10
0.416000
 20
-0.375000
 40
0.000000
 41
0.000000
 42
0.000000
  0
VERTEX
  8
0
 10
0.250000
 20
-0.500000
 40
0.000000
 41
0.000000
 42
0.000000
  0
VERTEX
  8
0
 10
-0.250000
 20
-0.500000
 40
0.000000
 41
0.000000
 42
0.000000
  0
VERTEX
  8
0
 10
-0.416000
 20
-0.375000
 40
0.000000
 41
0.000000
 42
0.000000
  0
SEQEND
  0
ENDBLK
  0
BLOCK
  8
0
  2
FIGURE_TRI
 70
0
 10
0.000000
 20
0.000000
  0
POLYLINE
  8
0
 66
1
 70
1
 40
0.000000
 41
0.000000
 39
0.000000
  0
VERTEX
  8
0
 10
-0.500000
 20
-0.500000
 40
0.000000
 41
0.000000
 42
0.000000
  0
VERTEX
  8
0
 10
0.000000
 20
0.500000
 40
0.000000
 41
0.000000
 42
0.000000
  0
VERTEX
  8
0
 10
0.500000
 20
-0.500000
 40
0.000000
 41
0.000000
 42
0.000000
  0
SEQEND
  0
ENDBLK
  0
BLOCK
  8
0
  2
FIGURE_CROSS
 70
0
 10
0.000000
 20
0.000000
  0
POLYLINE
  8
0
 66
1
 70
0
 40
0.000000
 41
0.000000
 39
0.000000
  0
VERTEX
  8
0
 10
-0.500000
 20
0.000000
 40
0.000000
 41
0.000000
 42
0.000000
  0
VERTEX
  8
0
 10
0.500000
 20
0.000000
 40
0.000000
 41
0.000000
 42
0.000000
  0
SEQEND
  0
POLYLINE
  8
0
 66
1
 70
0
 40
0.000000
 41
0.000000
 39
0.000000
  0
VERTEX
  8
0
 10
0.000000
 20
0.500000
 40
0.000000
 41
0.000000
 42
0.000000
  0
VERTEX
  8
0
 10
0.000000
 20
-0.500000
 40
0.000000
 41
0.000000
 42
0.000000
  0
SEQEND
  0
ENDBLK
  0
BLOCK
  8
0
  2
FIGURE_DIAMOND
 70
0
 10
0.000000
 20
0.000000
  0
POLYLINE
  8
0
 66
1
 70
1
 40
0.000000
 41
0.000000
 39
0.000000
  0
VERTEX
  8
0
 10
-0.500000
 20
0.000000
 40
0.000000
 41
0.000000
 42
0.000000
  0
VERTEX
  8
0
 10
0.000000
 20
0.500000
 40
0.000000
 41
0.000000
 42
0.000000
  0
VERTEX
  8
0
 10
0.500000
 20
0.000000
 40
0.000000
 41
0.000000
 42
0.000000
  0
VERTEX
  8
0
 10
0.000000
 20
-0.500000
 40
0.000000
 41
0.000000
 42
0.000000
  0
SEQEND
  0
ENDBLK
  0
ENDSEC
  0
SECTION
  2
ENTITIES
  0
POLYLINE
  8
TOP
 66
1
 70
1
 40
0.000000
 41
0.000000
 39
0.000000
  0
VERTEX
  8
TOP
 10
-57.678000
 20
33.548000
 40
0.000000
 41
0.000000
 42
0.000000
  0
VERTEX
  8
TOP
 10
-60.178000
 20
33.548000
 40
0.000000
 41
0.000000
 42
0.000000
  0
VERTEX
  8
TOP
 10
-60.178000
 20
36.048000
 40
0.000000
 41
0.000000
 42
0.000000
  0
VERTEX
  8
TOP
 10
-57.678000
 20
36.048000
 40
0.000000
 41
0.000000
 42
0.000000
  0
SEQEND
  0
CIRCLE
  8
TOP
 10
-58.928000
 20
38.758000
 40
1.250000
  0
POLYLINE
  8
TOP
 66
1
 70
1
 40
0.000000
 41
0.000000
 39
0.000000
  0
VERTEX
  8
TOP
 10
-58.654000
 20
7.092000
 40
0.000000
 41
0.000000
 42
0.000000
  0
VERTEX
  8
TOP
 10
-56.154000
 20
7.092000
 40
0.000000
 41
0.000000
 42
0.000000
  0
VERTEX
  8
TOP
 10
-56.154000
 20
4.592000
 40
0.000000
 41
0.000000
 42
0.000000
  0
VERTEX
  8
TOP
 10
-58.654000
 20
4.592000
 40
0.000000
 41
0.000000
 42
0.000000
  0
SEQEND
  0
CIRCLE
  8
TOP
 10
-57.404000
 20
1.882000
 40
1.250000
  0
CIRCLE
  8
TOP
 10
-88.000000
 20
40.000000
 40
2.000000
  0
CIRCLE
  8
TOP
 10
-88.000000
 20
0.000000
 40
2.000000
  0
CIRCLE
  8
TOP
 10
2.000000
 20
0.000000
 40
2.000000
  0
CIRCLE
  8
TOP
 10
2.000000
 20
40.000000
 40
2.000000
  0
POLYLINE
  8
TOP
 66
1
 70
1
 40
0.000000
 41
0.000000
 39
0.000000
  0
VERTEX
  8
TOP
 10
-8.362000
 20
31.222000
 40
0.000000
 41
0.000000
 42
0.000000
  0
VERTEX
  8
TOP
 10
-5.862000
 20
31.222000
 40
0.000000
 41
0.000000
 42
0.000000
  0
VERTEX
  8
TOP
 10
-5.862000
 20
28.722000
 40
0.000000
 41
0.000000
 42
0.000000
  0
VERTEX
  8
TOP
 10
-8.362000
 20
28.722000
 40
0.000000
 41
0.000000
 42
0.000000
  0
SEQEND
  0
CIRCLE
  8
TOP
 10
-7.112000
 20
26.012000
 40
1.250000
  0
CIRCLE
  8
TOP
 10
-7.112000
 20
22.052000
 40
1.250000
  0
CIRCLE
  8
TOP
 10
-7.112000
 20
18.092000
 40
1.250000
  0
CIRCLE
  8
TOP
 10
-7.112000
 20
14.132000
 40
1.250000
  0
CIRCLE
  8
TOP
 10
-7.112000
 20
10.172000
 40
1.250000
  0
POLYLINE
  8
TOP
 66
1
 70
1
 40
0.000000
 41
0.000000
 39
0.000000
  0
VERTEX
  8
TOP
 10
-19.792000
 20
31.222000
 40
0.000000
 41
0.000000
 42
0.000000
  0
VERTEX
  8
TOP
 10
-17.292000
 20
31.222000
 40
0.000000
 41
0.000000
 42
0.000000
  0
VERTEX
  8
TOP
 10
-17.292000
 20
28.722000
 40
0.000000
 41
0.000000
 42
0.000000
  0
VERTEX
  8
TOP
 10
-19.792000
 20
28.722000
 40
0.000000
 41
0.000000
 42
0.000000
  0
SEQEND
  0
CIRCLE
  8
TOP
 10
-18.542000
 20
26.012000
 40
1.250000
  0
CIRCLE
  8
TOP
 10
-18.542000
 20
22.052000
 40
1.250000
  0
CIRCLE
  8
TOP
 10
-18.542000
 20
18.092000
 40
1.250000
  0
CIRCLE
  8
TOP
 10
-18.542000
 20
14.132000
 40
1.250000
  0
CIRCLE
  8
TOP
 10
-18.542000
 20
10.172000
 40
1.250000
  0
POLYLINE
  8
TOP
 66
1
 70
1
 40
0.000000
 41
0.000000
 39
0.000000
  0
VERTEX
  8
TOP
 10
-31.222000
 20
31.222000
 40
0.000000
 41
0.000000
 42
0.000000
  0
VERTEX
  8
TOP
 10
-28.722000
 20
31.222000
 40
0.000000
 41
0.000000
 42
0.000000
  0
VERTEX
  8
TOP
 10
-28.722000
 20
28.722000
 40
0.000000
 41
0.000000
 42
0.000000
  0
VERTEX
  8
TOP
 10
-31.222000
 20
28.722000
 40
0.000000
 41
0.000000
 42
0.000000
  0
SEQEND
  0
CIRCLE
  8
TOP
 10
-29.972000
 20
26.012000
 40
1.250000
  0
CIRCLE
  8
TOP
 10
-29.972000
 20
22.052000
 40
1.250000
  0
CIRCLE
  8
TOP
 10
-29.972000
 20
18.092000
 40
1.250000
  0
CIRCLE
  8
TOP
 10
-29.972000
 20
14.132000
 40
1.250000
  0
CIRCLE
  8
TOP
 10
-29.972000
 20
10.172000
 40
1.250000
  0
POLYLINE
  8
TOP
 66
1
 70
1
 40
0.000000
 41
0.000000
 39
0.000000
  0
VERTEX
  8
TOP
 10
-23.510000
 20
5.690000
 40
0.000000
 41
0.000000
 42
0.000000
  0
VERTEX
  8
TOP
 10
-22.210000
 20
5.690000
 40
0.000000
 41
0.000000
 42
0.000000
  0
VERTEX
  8
TOP
 10
-22.210000
 20
4.390000
 40
0.000000
 41
0.000000
 42
0.000000
  0
VERTEX
  8
TOP
 10
-23.510000
 20
4.390000
 40
0.000000
 41
0.000000
 42
0.000000
  0
SEQEND
  0
CIRCLE
  8
TOP
 10
-22.860000
 20
0.040000
 40
0.650000
  0
POLYLINE
  8
TOP
 66
1
 70
1
 40
0.000000
 41
0.000000
 39
0.000000
  0
VERTEX
  8
TOP
 10
-49.418000
 20
39.980000
 40
0.000000
 41
0.000000
 42
0.000000
  0
VERTEX
  8
TOP
 10
-48.118000
 20
39.980000
 40
0.000000
 41
0.000000
 42
0.000000
  0
VERTEX
  8
TOP
 10
-48.118000
 20
38.680000
 40
0.000000
 41
0.000000
 42
0.000000
  0
VERTEX
  8
TOP
 10
-49.418000
 20
38.680000
 40
0.000000
 41
0.000000
 42
0.000000
  0
SEQEND
  0
CIRCLE
  8
TOP
 10
-48.768000
 20
34.330000
 40
0.650000
  0
POLYLINE
  8
TOP
 66
1
 70
1
 40
0.000000
 41
0.000000
 39
0.000000
  0
VERTEX
  8
TOP
 10
-12.588000
 20
5.690000
 40
0.000000
 41
0.000000
 42
0.000000
  0
VERTEX
  8
TOP
 10
-11.288000
 20
5.690000
 40
0.000000
 41
0.000000
 42
0.000000
  0
VERTEX
  8
TOP
 10
-11.288000
 20
4.390000
 40
0.000000
 41
0.000000
 42
0.000000
  0
VERTEX
  8
TOP
 10
-12.588000
 20
4.390000
 40
0.000000
 41
0.000000
 42
0.000000
  0
SEQEND
  0
CIRCLE
  8
TOP
 10
-11.938000
 20
0.040000
 40
0.650000
  0
POLYLINE
  8
TOP
 66
1
 70
1
 40
0.000000
 41
0.000000
 39
0.000000
  0
VERTEX
  8
TOP
 10
-9.794000
 20
40.742000
 40
0.000000
 41
0.000000
 42
0.000000
  0
VERTEX
  8
TOP
 10
-8.494000
 20
40.742000
 40
0.000000
 41
0.000000
 42
0.000000
  0
VERTEX
  8
TOP
 10
-8.494000
 20
39.442000
 40
0.000000
 41
0.000000
 42
0.000000
  0
VERTEX
  8
TOP
 10
-9.794000
 20
39.442000
 40
0.000000
 41
0.000000
 42
0.000000
  0
SEQEND
  0
CIRCLE
  8
TOP
 10
-9.144000
 20
35.092000
 40
0.650000
  0
POLYLINE
  8
TOP
 66
1
 70
1
 40
0.000000
 41
0.000000
 39
0.000000
  0
VERTEX
  8
TOP
 10
-39.258000
 20
2.652000
 40
0.000000
 41
0.000000
 42
0.000000
  0
VERTEX
  8
TOP
 10
-39.258000
 20
3.952000
 40
0.000000
 41
0.000000
 42
0.000000
  0
VERTEX
  8
TOP
 10
-37.958000
 20
3.952000
 40
0.000000
 41
0.000000
 42
0.000000
  0
VERTEX
  8
TOP
 10
-37.958000
 20
2.652000
 40
0.000000
 41
0.000000
 42
0.000000
  0
SEQEND
  0
CIRCLE
  8
TOP
 10
-36.068000
 20
3.302000
 40
0.650000
  0
CIRCLE
  8
TOP
 10
-33.528000
 20
3.302000
 40
0.650000
  0
POLYLINE
  8
TOP
 66
1
 70
1
 40
0.000000
 41
0.000000
 39
0.000000
  0
VERTEX
  8
TOP
 10
-24.780000
 20
36.434000
 40
0.000000
 41
0.000000
 42
0.000000
  0
VERTEX
  8
TOP
 10
-24.780000
 20
37.734000
 40
0.000000
 41
0.000000
 42
0.000000
  0
VERTEX
  8
TOP
 10
-23.480000
 20
37.734000
 40
0.000000
 41
0.000000
 42
0.000000
  0
VERTEX
  8
TOP
 10
-23.480000
 20
36.434000
 40
0.000000
 41
0.000000
 42
0.000000
  0
SEQEND
  0
CIRCLE
  8
TOP
 10
-21.590000
 20
37.084000
 40
0.650000
  0
CIRCLE
  8
TOP
 10
-19.050000
 20
37.084000
 40
0.650000
  0
POLYLINE
  8
TOP
 66
1
 70
1
 40
0.000000
 41
0.000000
 39
0.000000
  0
VERTEX
  8
TOP
 10
-39.512000
 20
36.434000
 40
0.000000
 41
0.000000
 42
0.000000
  0
VERTEX
  8
TOP
 10
-39.512000
 20
37.734000
 40
0.000000
 41
0.000000
 42
0.000000
  0
VERTEX
  8
TOP
 10
-38.212000
 20
37.734000
 40
0.000000
 41
0.000000
 42
0.000000
  0
VERTEX
  8
TOP
 10
-38.212000
 20
36.434000
 40
0.000000
 41
0.000000
 42
0.000000
  0
SEQEND
  0
CIRCLE
  8
TOP
 10
-36.322000
 20
37.084000
 40
0.650000
  0
CIRCLE
  8
TOP
 10
-33.782000
 20
37.084000
 40
0.650000
  0
CIRCLE
  8
TOP
 10
-63.492000
 20
14.478000
 40
1.200000
  0
CIRCLE
  8
TOP
 10
-37.092000
 20
14.478000
 40
1.200000
  0
CIRCLE
  8
TOP
 10
-63.492000
 20
25.908000
 40
1.200000
  0
CIRCLE
  8
TOP
 10
-37.092000
 20
25.908000
 40
1.200000
  0
POLYLINE
  8
TOP
 66
1
 70
1
 40
0.000000
 41
0.000000
 39
0.000000
  0
VERTEX
  8
TOP
 10
-72.148000
 20
22.086000
 40
0.000000
 41
0.000000
 42
0.000000
  0
VERTEX
  8
TOP
 10
-72.148000
 20
20.586000
 40
0.000000
 41
0.000000
 42
0.000000
  0
VERTEX
  8
TOP
 10
-73.648000
 20
20.586000
 40
0.000000
 41
0.000000
 42
0.000000
  0
VERTEX
  8
TOP
 10
-73.648000
 20
22.086000
 40
0.000000
 41
0.000000
 42
0.000000
  0
SEQEND
  0
CIRCLE
  8
TOP
 10
-75.398000
 20
21.336000
 40
0.750000
  0
POLYLINE
  8
TOP
 66
1
 70
1
 40
0.000000
 41
0.000000
 39
0.000000
  0
VERTEX
  8
TOP
 10
-72.148000
 20
38.342000
 40
0.000000
 41
0.000000
 42
0.000000
  0
VERTEX
  8
TOP
 10
-72.148000
 20
36.842000
 40
0.000000
 41
0.000000
 42
0.000000
  0
VERTEX
  8
TOP
 10
-73.648000
 20
36.842000
 40
0.000000
 41
0.000000
 42
0.000000
  0
VERTEX
  8
TOP
 10
-73.648000
 20
38.342000
 40
0.000000
 41
0.000000
 42
0.000000
  0
SEQEND
  0
CIRCLE
  8
TOP
 10
-75.398000
 20
37.592000
 40
0.750000
  0
POLYLINE
  8
TOP
 66
1
 70
1
 40
0.000000
 41
0.000000
 39
0.000000
  0
VERTEX
  8
TOP
 10
-82.115000
 20
0.689000
 40
0.000000
 41
0.000000
 42
0.000000
  0
VERTEX
  8
TOP
 10
-82.115000
 20
7.439000
 40
0.000000
 41
0.000000
 42
0.000000
  0
VERTEX
  8
TOP
 10
-75.365000
 20
7.439000
 40
0.000000
 41
0.000000
 42
0.000000
  0
VERTEX
  8
TOP
 10
-75.365000
 20
0.689000
 40
0.000000
 41
0.000000
 42
0.000000
  0
SEQEND
  0
CIRCLE
  8
TOP
 10
-71.440000
 20
4.064000
 40
3.375000
  0
POLYLINE
  8
TOP
 66
1
 70
1
 40
0.000000
 41
0.000000
 39
0.000000
  0
VERTEX
  8
TOP
 10
-81.861000
 20
10.595000
 40
0.000000
 41
0.000000
 42
0.000000
  0
VERTEX
  8
TOP
 10
-81.861000
 20
17.345000
 40
0.000000
 41
0.000000
 42
0.000000
  0
VERTEX
  8
TOP
 10
-75.111000
 20
17.345000
 40
0.000000
 41
0.000000
 42
0.000000
  0
VERTEX
  8
TOP
 10
-75.111000
 20
10.595000
 40
0.000000
 41
0.000000
 42
0.000000
  0
SEQEND
  0
CIRCLE
  8
TOP
 10
-71.186000
 20
13.970000
 40
3.375000
  0
POLYLINE
  8
TOP
 66
1
 70
1
 40
0.000000
 41
0.000000
 39
0.000000
  0
VERTEX
  8
TOP
 10
-81.607000
 20
26.851000
 40
0.000000
 41
0.000000
 42
0.000000
  0
VERTEX
  8
TOP
 10
-81.607000
 20
33.601000
 40
0.000000
 41
0.000000
 42
0.000000
  0
VERTEX
  8
TOP
 10
-74.857000
 20
33.601000
 40
0.000000
 41
0.000000
 42
0.000000
  0
VERTEX
  8
TOP
 10
-74.857000
 20
26.851000
 40
0.000000
 41
0.000000
 42
0.000000
  0
SEQEND
  0
CIRCLE
  8
TOP
 10
-70.932000
 20
30.226000
 40
3.375000
  0
POLYLINE
  8
TOP
 66
1
 70
1
 40
0.000000
 41
0.000000
 39
0.000000
  0
VERTEX
  8
TOP
 10
1.341000
 20
18.534000
 40
0.000000
 41
0.000000
 42
0.000000
  0
VERTEX
  8
TOP
 10
2.291000
 20
18.534000
 40
0.000000
 41
0.000000
 42
0.000000
  0
VERTEX
  8
TOP
 10
2.291000
 20
17.534000
 40
0.000000
 41
0.000000
 42
0.000000
  0
VERTEX
  8
TOP
 10
1.341000
 20
17.534000
 40
0.000000
 41
0.000000
 42
0.000000
  0
SEQEND
  0
POLYLINE
  8
TOP
 66
1
 70
1
 40
0.000000
 41
0.000000
 39
0.000000
  0
VERTEX
  8
TOP
 10
-0.259000
 20
18.534000
 40
0.000000
 41
0.000000
 42
0.000000
  0
VERTEX
  8
TOP
 10
0.691000
 20
18.534000
 40
0.000000
 41
0.000000
 42
0.000000
  0
VERTEX
  8
TOP
 10
0.691000
 20
17.534000
 40
0.000000
 41
0.000000
 42
0.000000
  0
VERTEX
  8
TOP
 10
-0.259000
 20
17.534000
 40
0.000000
 41
0.000000
 42
0.000000
  0
SEQEND
  0
POLYLINE
  8
TOP
 66
1
 70
1
 40
0.000000
 41
0.000000
 39
0.000000
  0
VERTEX
  8
TOP
 10
1.341000
 20
30.472000
 40
0.000000
 41
0.000000
 42
0.000000
  0
VERTEX
  8
TOP
 10
2.291000
 20
30.472000
 40
0.000000
 41
0.000000
 42
0.000000
  0
VERTEX
  8
TOP
 10
2.291000
 20
29.472000
 40
0.000000
 41
0.000000
 42
0.000000
  0
VERTEX
  8
TOP
 10
1.341000
 20
29.472000
 40
0.000000
 41
0.000000
 42
0.000000
  0
SEQEND
  0
POLYLINE
  8
TOP
 66
1
 70
1
 40
0.000000
 41
0.000000
 39
0.000000
  0
VERTEX
  8
TOP
 10
-0.259000
 20
30.472000
 40
0.000000
 41
0.000000
 42
0.000000
  0
VERTEX
  8
TOP
 10
0.691000
 20
30.472000
 40
0.000000
 41
0.000000
 42
0.000000
  0
VERTEX
  8
TOP
 10
0.691000
 20
29.472000
 40
0.000000
 41
0.000000
 42
0.000000
  0
VERTEX
  8
TOP
 10
-0.259000
 20
29.472000
 40
0.000000
 41
0.000000
 42
0.000000
  0
SEQEND
  0
POLYLINE
  8
TOP
 66
1
 70
1
 40
0.000000
 41
0.000000
 39
0.000000
  0
VERTEX
  8
TOP
 10
1.341000
 20
22.598000
 40
0.000000
 41
0.000000
 42
0.000000
  0
VERTEX
  8
TOP
 10
2.291000
 20
22.598000
 40
0.000000
 41
0.000000
 42
0.000000
  0
VERTEX
  8
TOP
 10
2.291000
 20
21.598000
 40
0.000000
 41
0.000000
 42
0.000000
  0
VERTEX
  8
TOP
 10
1.341000
 20
21.598000
 40
0.000000
 41
0.000000
 42
0.000000
  0
SEQEND
  0
POLYLINE
  8
TOP
 66
1
 70
1
 40
0.000000
 41
0.000000
 39
0.000000
  0
VERTEX
  8
TOP
 10
-0.259000
 20
22.598000
 40
0.000000
 41
0.000000
 42
0.000000
  0
VERTEX
  8
TOP
 10
0.691000
 20
22.598000
 40
0.000000
 41
0.000000
 42
0.000000
  0
VERTEX
  8
TOP
 10
0.691000
 20
21.598000
 40
0.000000
 41
0.000000
 42
0.000000
  0
VERTEX
  8
TOP
 10
-0.259000
 20
21.598000
 40
0.000000
 41
0.000000
 42
0.000000
  0
SEQEND
  0
POLYLINE
  8
TOP
 66
1
 70
1
 40
0.000000
 41
0.000000
 39
0.000000
  0
VERTEX
  8
TOP
 10
1.341000
 20
14.470000
 40
0.000000
 41
0.000000
 42
0.000000
  0
VERTEX
  8
TOP
 10
2.291000
 20
14.470000
 40
0.000000
 41
0.000000
 42
0.000000
  0
VERTEX
  8
TOP
 10
2.291000
 20
13.470000
 40
0.000000
 41
0.000000
 42
0.000000
  0
VERTEX
  8
TOP
 10
1.341000
 20
13.470000
 40
0.000000
 41
0.000000
 42
0.000000
  0
SEQEND
  0
POLYLINE
  8
TOP
 66
1
 70
1
 40
0.000000
 41
0.000000
 39
0.000000
  0
VERTEX
  8
TOP
 10
-0.259000
 20
14.470000
 40
0.000000
 41
0.000000
 42
0.000000
  0
VERTEX
  8
TOP
 10
0.691000
 20
14.470000
 40
0.000000
 41
0.000000
 42
0.000000
  0
VERTEX
  8
TOP
 10
0.691000
 20
13.470000
 40
0.000000
 41
0.000000
 42
0.000000
  0
VERTEX
  8
TOP
 10
-0.259000
 20
13.470000
 40
0.000000
 41
0.000000
 42
0.000000
  0
SEQEND
  0
POLYLINE
  8
TOP
 66
1
 70
1
 40
0.000000
 41
0.000000
 39
0.000000
  0
VERTEX
  8
TOP
 10
1.341000
 20
10.660000
 40
0.000000
 41
0.000000
 42
0.000000
  0
VERTEX
  8
TOP
 10
2.291000
 20
10.660000
 40
0.000000
 41
0.000000
 42
0.000000
  0
VERTEX
  8
TOP
 10
2.291000
 20
9.660000
 40
0.000000
 41
0.000000
 42
0.000000
  0
VERTEX
  8
TOP
 10
1.341000
 20
9.660000
 40
0.000000
 41
0.000000
 42
0.000000
  0
SEQEND
  0
POLYLINE
  8
TOP
 66
1
 70
1
 40
0.000000
 41
0.000000
 39
0.000000
  0
VERTEX
  8
TOP
 10
-0.259000
 20
10.660000
 40
0.000000
 41
0.000000
 42
0.000000
  0
VERTEX
  8
TOP
 10
0.691000
 20
10.660000
 40
0.000000
 41
0.000000
 42
0.000000
  0
VERTEX
  8
TOP
 10
0.691000
 20
9.660000
 40
0.000000
 41
0.000000
 42
0.000000
  0
VERTEX
  8
TOP
 10
-0.259000
 20
9.660000
 40
0.000000
 41
0.000000
 42
0.000000
  0
SEQEND
  0
POLYLINE
  8
TOP
 66
1
 70
1
 40
0.000000
 41
0.000000
 39
0.000000
  0
VERTEX
  8
TOP
 10
1.341000
 20
20.312000
 40
0.000000
 41
0.000000
 42
0.000000
  0
VERTEX
  8
TOP
 10
2.291000
 20
20.312000
 40
0.000000
 41
0.000000
 42
0.000000
  0
VERTEX
  8
TOP
 10
2.291000
 20
19.312000
 40
0.000000
 41
0.000000
 42
0.000000
  0
VERTEX
  8
TOP
 10
1.341000
 20
19.312000
 40
0.000000
 41
0.000000
 42
0.000000
  0
SEQEND
  0
POLYLINE
  8
TOP
 66
1
 70
1
 40
0.000000
 41
0.000000
 39
0.000000
  0
VERTEX
  8
TOP
 10
-0.259000
 20
20.312000
 40
0.000000
 41
0.000000
 42
0.000000
  0
VERTEX
  8
TOP
 10
0.691000
 20
20.312000
 40
0.000000
 41
0.000000
 42
0.000000
  0
VERTEX
  8
TOP
 10
0.691000
 20
19.312000
 40
0.000000
 41
0.000000
 42
0.000000
  0
VERTEX
  8
TOP
 10
-0.259000
 20
19.312000
 40
0.000000
 41
0.000000
 42
0.000000
  0
SEQEND
  0
POLYLINE
  8
TOP
 66
1
 70
1
 40
0.000000
 41
0.000000
 39
0.000000
  0
VERTEX
  8
TOP
 10
1.341000
 20
32.250000
 40
0.000000
 41
0.000000
 42
0.000000
  0
VERTEX
  8
TOP
 10
2.291000
 20
32.250000
 40
0.000000
 41
0.000000
 42
0.000000
  0
VERTEX
  8
TOP
 10
2.291000
 20
31.250000
 40
0.000000
 41
0.000000
 42
0.000000
  0
VERTEX
  8
TOP
 10
1.341000
 20
31.250000
 40
0.000000
 41
0.000000
 42
0.000000
  0
SEQEND
  0
POLYLINE
  8
TOP
 66
1
 70
1
 40
0.000000
 41
0.000000
 39
0.000000
  0
VERTEX
  8
TOP
 10
-0.259000
 20
32.250000
 40
0.000000
 41
0.000000
 42
0.000000
  0
VERTEX
  8
TOP
 10
0.691000
 20
32.250000
 40
0.000000
 41
0.000000
 42
0.000000
  0
VERTEX
  8
TOP
 10
0.691000
 20
31.250000
 40
0.000000
 41
0.000000
 42
0.000000
  0
VERTEX
  8
TOP
 10
-0.259000
 20
31.250000
 40
0.000000
 41
0.000000
 42
0.000000
  0
SEQEND
  0
POLYLINE
  8
TOP
 66
1
 70
1
 40
0.000000
 41
0.000000
 39
0.000000
  0
VERTEX
  8
TOP
 10
1.341000
 20
24.376000
 40
0.000000
 41
0.000000
 42
0.000000
  0
VERTEX
  8
TOP
 10
2.291000
 20
24.376000
 40
0.000000
 41
0.000000
 42
0.000000
  0
VERTEX
  8
TOP
 10
2.291000
 20
23.376000
 40
0.000000
 41
0.000000
 42
0.000000
  0
VERTEX
  8
TOP
 10
1.341000
 20
23.376000
 40
0.000000
 41
0.000000
 42
0.000000
  0
SEQEND
  0
POLYLINE
  8
TOP
 66
1
 70
1
 40
0.000000
 41
0.000000
 39
0.000000
  0
VERTEX
  8
TOP
 10
-0.259000
 20
24.376000
 40
0.000000
 41
0.000000
 42
0.000000
  0
VERTEX
  8
TOP
 10
0.691000
 20
24.376000
 40
0.000000
 41
0.000000
 42
0.000000
  0
VERTEX
  8
TOP
 10
0.691000
 20
23.376000
 40
0.000000
 41
0.000000
 42
0.000000
  0
VERTEX
  8
TOP
 10
-0.259000
 20
23.376000
 40
0.000000
 41
0.000000
 42
0.000000
  0
SEQEND
  0
POLYLINE
  8
TOP
 66
1
 70
1
 40
0.000000
 41
0.000000
 39
0.000000
  0
VERTEX
  8
TOP
 10
1.341000
 20
16.248000
 40
0.000000
 41
0.000000
 42
0.000000
  0
VERTEX
  8
TOP
 10
2.291000
 20
16.248000
 40
0.000000
 41
0.000000
 42
0.000000
  0
VERTEX
  8
TOP
 10
2.291000
 20
15.248000
 40
0.000000
 41
0.000000
 42
0.000000
  0
VERTEX
  8
TOP
 10
1.341000
 20
15.248000
 40
0.000000
 41
0.000000
 42
0.000000
  0
SEQEND
  0
POLYLINE
  8
TOP
 66
1
 70
1
 40
0.000000
 41
0.000000
 39
0.000000
  0
VERTEX
  8
TOP
 10
-0.259000
 20
16.248000
 40
0.000000
 41
0.000000
 42
0.000000
  0
VERTEX
  8
TOP
 10
0.691000
 20
16.248000
 40
0.000000
 41
0.000000
 42
0.000000
  0
VERTEX
  8
TOP
 10
0.691000
 20
15.248000
 40
0.000000
 41
0.000000
 42
0.000000
  0
VERTEX
  8
TOP
 10
-0.259000
 20
15.248000
 40
0.000000
 41
0.000000
 42
0.000000
  0
SEQEND
  0
POLYLINE
  8
TOP
 66
1
 70
1
 40
0.000000
 41
0.000000
 39
0.000000
  0
VERTEX
  8
TOP
 10
1.341000
 20
12.438000
 40
0.000000
 41
0.000000
 42
0.000000
  0
VERTEX
  8
TOP
 10
2.291000
 20
12.438000
 40
0.000000
 41
0.000000
 42
0.000000
  0
VERTEX
  8
TOP
 10
2.291000
 20
11.438000
 40
0.000000
 41
0.000000
 42
0.000000
  0
VERTEX
  8
TOP
 10
1.341000
 20
11.438000
 40
0.000000
 41
0.000000
 42
0.000000
  0
SEQEND
  0
POLYLINE
  8
TOP
 66
1
 70
1
 40
0.000000
 41
0.000000
 39
0.000000
  0
VERTEX
  8
TOP
 10
-0.259000
 20
12.438000
 40
0.000000
 41
0.000000
 42
0.000000
  0
VERTEX
  8
TOP
 10
0.691000
 20
12.438000
 40
0.000000
 41
0.000000
 42
0.000000
  0
VERTEX
  8
TOP
 10
0.691000
 20
11.438000
 40
0.000000
 41
0.000000
 42
0.000000
  0
VERTEX
  8
TOP
 10
-0.259000
 20
11.438000
 40
0.000000
 41
0.000000
 42
0.000000
  0
SEQEND
  0
POLYLINE
  8
OUTLINE
 66
1
 70
1
 40
0.000000
 41
0.000000
 39
0.000000
  0
VERTEX
  8
OUTLINE
 10
-91.000000
 20
-3.000000
 40
0.000000
 41
0.000000
 42
0.000000
  0
VERTEX
  8
OUTLINE
 10
-91.000000
 20
43.000000
 40
0.000000
 41
0.000000
 42
0.000000
  0
VERTEX
  8
OUTLINE
 10
5.000000
 20
43.000000
 40
0.000000
 41
0.000000
 42
0.000000
  0
VERTEX
  8
OUTLINE
 10
5.000000
 20
-3.000000
 40
0.000000
 41
0.000000
 42
0.000000
  0
SEQEND
  0
ENDSEC
  0
EOF
