  0
SECTION
  2
HEADER
  9
$ACADVER
  1
AC1009
  9
$INSBASE
 10
0.000000
 20
0.000000
  9
$LIMMIN
 10
-261.920000
 20
-263.720000
  9
$LIMMAX
 10
601.680000
 20
295.080000
  9
$EXTMIN
 10
-261.920000
 20
-263.720000
  9
$EXTMAX
 10
601.680000
 20
295.080000
  9
$ATTMODE
 70
0
  9
$LUNITS
 70
2
  9
$LUPREC
 70
4
  9
$THICKNESS
 40
1.536000
  0
ENDSEC
  0
SECTION
  2
TABLES
  0
TABLE
  2
LTYPE
 70
1
  0
LTYPE
  3
Solid Line
  2
CONTINUOUS
 70
0
 72
65
 73
0
 40
0.000000
  0
ENDTAB
  0
TABLE
  2
LAYER
 70
1
  0
LAYER
  2
PIN_SOLDERMASK_BOTTOM
 70
0
 62
85
  6
CONTINUOUS
  0
ENDTAB
  0
TABLE
  2
STYLE
 70
1
  0
STYLE
  2
STANDARD
 70
0
 40
0.000000
 41
1.000000
 50
0.000000
 71
0
 42
0.200000
  3
txt
  0
ENDTAB
  0
ENDSEC
  0
SECTION
  2
BLOCKS
  0
BLOCK
  8
0
  2
FIGURE_CIRCLE
 70
0
 10
0.000000
 20
0.000000
  0
CIRCLE
  8
0
 10
0.000000
 20
0.000000
 40
0.500000
  0
ENDBLK
  0
BLOCK
  8
0
  2
FIGURE_SQUARE
 70
0
 10
0.000000
 20
0.000000
  0
POLYLINE
  8
0
 66
1
 70
1
 40
0.000000
 41
0.000000
 39
0.000000
  0
VERTEX
  8
0
 10
-0.500000
 20
-0.500000
 40
0.000000
 41
0.000000
 42
0.000000
  0
VERTEX
  8
0
 10
-0.500000
 20
0.500000
 40
0.000000
 41
0.000000
 42
0.000000
  0
VERTEX
  8
0
 10
0.500000
 20
0.500000
 40
0.000000
 41
0.000000
 42
0.000000
  0
VERTEX
  8
0
 10
0.500000
 20
-0.500000
 40
0.000000
 41
0.000000
 42
0.000000
  0
SEQEND
  0
ENDBLK
  0
BLOCK
  8
0
  2
FIGURE_HEX
 70
0
 10
0.000000
 20
0.000000
  0
POLYLINE
  8
0
 66
1
 70
1
 40
0.000000
 41
0.000000
 39
0.000000
  0
VERTEX
  8
0
 10
-0.500000
 20
0.000000
 40
0.000000
 41
0.000000
 42
0.000000
  0
VERTEX
  8
0
 10
-0.250000
 20
0.500000
 40
0.000000
 41
0.000000
 42
0.000000
  0
VERTEX
  8
0
 10
0.250000
 20
0.500000
 40
0.000000
 41
0.000000
 42
0.000000
  0
VERTEX
  8
0
 10
0.500000
 20
0.000000
 40
0.000000
 41
0.000000
 42
0.000000
  0
VERTEX
  8
0
 10
0.250000
 20
-0.500000
 40
0.000000
 41
0.000000
 42
0.000000
  0
VERTEX
  8
0
 10
-0.250000
 20
-0.500000
 40
0.000000
 41
0.000000
 42
0.000000
  0
SEQEND
  0
ENDBLK
  0
BLOCK
  8
0
  2
FIGURE_OCT
 70
0
 10
0.000000
 20
0.000000
  0
POLYLINE
  8
0
 66
1
 70
1
 40
0.000000
 41
0.000000
 39
0.000000
  0
VERTEX
  8
0
 10
-0.500000
 20
-0.207100
 40
0.000000
 41
0.000000
 42
0.000000
  0
VERTEX
  8
0
 10
-0.500000
 20
0.207100
 40
0.000000
 41
0.000000
 42
0.000000
  0
VERTEX
  8
0
 10
-0.207100
 20
0.500000
 40
0.000000
 41
0.000000
 42
0.000000
  0
VERTEX
  8
0
 10
0.207100
 20
0.500000
 40
0.000000
 41
0.000000
 42
0.000000
  0
VERTEX
  8
0
 10
0.500000
 20
0.207100
 40
0.000000
 41
0.000000
 42
0.000000
  0
VERTEX
  8
0
 10
0.500000
 20
-0.207100
 40
0.000000
 41
0.000000
 42
0.000000
  0
VERTEX
  8
0
 10
0.207100
 20
-0.500000
 40
0.000000
 41
0.000000
 42
0.000000
  0
VERTEX
  8
0
 10
-0.207100
 20
-0.500000
 40
0.000000
 41
0.000000
 42
0.000000
  0
SEQEND
  0
ENDBLK
  0
BLOCK
  8
0
  2
FIGURE_OBLONG
 70
0
 10
0.000000
 20
0.000000
  0
POLYLINE
  8
0
 66
1
 70
1
 40
0.000000
 41
0.000000
 39
0.000000
  0
VERTEX
  8
0
 10
-0.500000
 20
-0.125000
 40
0.000000
 41
0.000000
 42
0.000000
  0
VERTEX
  8
0
 10
-0.500000
 20
0.125000
 40
0.000000
 41
0.000000
 42
0.000000
  0
VERTEX
  8
0
 10
-0.416000
 20
0.375000
 40
0.000000
 41
0.000000
 42
0.000000
  0
VERTEX
  8
0
 10
-0.250000
 20
0.500000
 40
0.000000
 41
0.000000
 42
0.000000
  0
VERTEX
  8
0
 10
0.250000
 20
0.500000
 40
0.000000
 41
0.000000
 42
0.000000
  0
VERTEX
  8
0
 10
0.416000
 20
0.375000
 40
0.000000
 41
0.000000
 42
0.000000
  0
VERTEX
  8
0
 10
0.500000
 20
0.125000
 40
0.000000
 41
0.000000
 42
0.000000
  0
VERTEX
  8
0
 10
0.500000
 20
-0.125000
 40
0.000000
 41
0.000000
 42
0.000000
  0
VERTEX
  8
0
 10
0.416000
 20
-0.375000
 40
0.000000
 41
0.000000
 42
0.000000
  0
VERTEX
  8
0
 10
0.250000
 20
-0.500000
 40
0.000000
 41
0.000000
 42
0.000000
  0
VERTEX
  8
0
 10
-0.250000
 20
-0.500000
 40
0.000000
 41
0.000000
 42
0.000000
  0
VERTEX
  8
0
 10
-0.416000
 20
-0.375000
 40
0.000000
 41
0.000000
 42
0.000000
  0
SEQEND
  0
ENDBLK
  0
BLOCK
  8
0
  2
FIGURE_TRI
 70
0
 10
0.000000
 20
0.000000
  0
POLYLINE
  8
0
 66
1
 70
1
 40
0.000000
 41
0.000000
 39
0.000000
  0
VERTEX
  8
0
 10
-0.500000
 20
-0.500000
 40
0.000000
 41
0.000000
 42
0.000000
  0
VERTEX
  8
0
 10
0.000000
 20
0.500000
 40
0.000000
 41
0.000000
 42
0.000000
  0
VERTEX
  8
0
 10
0.500000
 20
-0.500000
 40
0.000000
 41
0.000000
 42
0.000000
  0
SEQEND
  0
ENDBLK
  0
BLOCK
  8
0
  2
FIGURE_CROSS
 70
0
 10
0.000000
 20
0.000000
  0
POLYLINE
  8
0
 66
1
 70
0
 40
0.000000
 41
0.000000
 39
0.000000
  0
VERTEX
  8
0
 10
-0.500000
 20
0.000000
 40
0.000000
 41
0.000000
 42
0.000000
  0
VERTEX
  8
0
 10
0.500000
 20
0.000000
 40
0.000000
 41
0.000000
 42
0.000000
  0
SEQEND
  0
POLYLINE
  8
0
 66
1
 70
0
 40
0.000000
 41
0.000000
 39
0.000000
  0
VERTEX
  8
0
 10
0.000000
 20
0.500000
 40
0.000000
 41
0.000000
 42
0.000000
  0
VERTEX
  8
0
 10
0.000000
 20
-0.500000
 40
0.000000
 41
0.000000
 42
0.000000
  0
SEQEND
  0
ENDBLK
  0
BLOCK
  8
0
  2
FIGURE_DIAMOND
 70
0
 10
0.000000
 20
0.000000
  0
POLYLINE
  8
0
 66
1
 70
1
 40
0.000000
 41
0.000000
 39
0.000000
  0
VERTEX
  8
0
 10
-0.500000
 20
0.000000
 40
0.000000
 41
0.000000
 42
0.000000
  0
VERTEX
  8
0
 10
0.000000
 20
0.500000
 40
0.000000
 41
0.000000
 42
0.000000
  0
VERTEX
  8
0
 10
0.500000
 20
0.000000
 40
0.000000
 41
0.000000
 42
0.000000
  0
VERTEX
  8
0
 10
0.000000
 20
-0.500000
 40
0.000000
 41
0.000000
 42
0.000000
  0
SEQEND
  0
ENDBLK
  0
ENDSEC
  0
SECTION
  2
ENTITIES
  0
POLYLINE
  8
PIN_SOLDERMASK_BOTTOM
 66
1
 70
1
 40
0.000000
 41
0.000000
 39
0.000000
  0
VERTEX
  8
PIN_SOLDERMASK_BOTTOM
 10
-113.835100
 20
36.690600
 40
0.000000
 41
0.000000
 42
0.000000
  0
VERTEX
  8
PIN_SOLDERMASK_BOTTOM
 10
-110.964900
 20
36.690600
 40
0.000000
 41
0.000000
 42
0.000000
  0
VERTEX
  8
PIN_SOLDERMASK_BOTTOM
 10
-110.964900
 20
34.709400
 40
0.000000
 41
0.000000
 42
0.000000
  0
VERTEX
  8
PIN_SOLDERMASK_BOTTOM
 10
-113.835100
 20
34.709400
 40
0.000000
 41
0.000000
 42
0.000000
  0
SEQEND
  0
POLYLINE
  8
PIN_SOLDERMASK_BOTTOM
 66
1
 70
1
 40
0.000000
 41
0.000000
 39
0.000000
  0
VERTEX
  8
PIN_SOLDERMASK_BOTTOM
 10
-111.955500
 20
32.169400
 40
0.000000
 41
0.000000
 42
0.000000
  0
VERTEX
  8
PIN_SOLDERMASK_BOTTOM
 10
-112.844500
 20
32.169400
 40
0.000000
 41
0.000000
 42
-1.000000
  0
VERTEX
  8
PIN_SOLDERMASK_BOTTOM
 10
-112.844500
 20
34.150600
 40
0.000000
 41
0.000000
 42
0.000000
  0
VERTEX
  8
PIN_SOLDERMASK_BOTTOM
 10
-111.955500
 20
34.150600
 40
0.000000
 41
0.000000
 42
-1.000000
  0
SEQEND
  0
POLYLINE
  8
PIN_SOLDERMASK_BOTTOM
 66
1
 70
1
 40
0.000000
 41
0.000000
 39
0.000000
  0
VERTEX
  8
PIN_SOLDERMASK_BOTTOM
 10
-111.955500
 20
29.629400
 40
0.000000
 41
0.000000
 42
0.000000
  0
VERTEX
  8
PIN_SOLDERMASK_BOTTOM
 10
-112.844500
 20
29.629400
 40
0.000000
 41
0.000000
 42
-1.000000
  0
VERTEX
  8
PIN_SOLDERMASK_BOTTOM
 10
-112.844500
 20
31.610600
 40
0.000000
 41
0.000000
 42
0.000000
  0
VERTEX
  8
PIN_SOLDERMASK_BOTTOM
 10
-111.955500
 20
31.610600
 40
0.000000
 41
0.000000
 42
-1.000000
  0
SEQEND
  0
POLYLINE
  8
PIN_SOLDERMASK_BOTTOM
 66
1
 70
1
 40
0.000000
 41
0.000000
 39
0.000000
  0
VERTEX
  8
PIN_SOLDERMASK_BOTTOM
 10
-111.955500
 20
27.089400
 40
0.000000
 41
0.000000
 42
0.000000
  0
VERTEX
  8
PIN_SOLDERMASK_BOTTOM
 10
-112.844500
 20
27.089400
 40
0.000000
 41
0.000000
 42
-1.000000
  0
VERTEX
  8
PIN_SOLDERMASK_BOTTOM
 10
-112.844500
 20
29.070600
 40
0.000000
 41
0.000000
 42
0.000000
  0
VERTEX
  8
PIN_SOLDERMASK_BOTTOM
 10
-111.955500
 20
29.070600
 40
0.000000
 41
0.000000
 42
-1.000000
  0
SEQEND
  0
POLYLINE
  8
PIN_SOLDERMASK_BOTTOM
 66
1
 70
1
 40
0.000000
 41
0.000000
 39
0.000000
  0
VERTEX
  8
PIN_SOLDERMASK_BOTTOM
 10
-111.955500
 20
24.549400
 40
0.000000
 41
0.000000
 42
0.000000
  0
VERTEX
  8
PIN_SOLDERMASK_BOTTOM
 10
-112.844500
 20
24.549400
 40
0.000000
 41
0.000000
 42
-1.000000
  0
VERTEX
  8
PIN_SOLDERMASK_BOTTOM
 10
-112.844500
 20
26.530600
 40
0.000000
 41
0.000000
 42
0.000000
  0
VERTEX
  8
PIN_SOLDERMASK_BOTTOM
 10
-111.955500
 20
26.530600
 40
0.000000
 41
0.000000
 42
-1.000000
  0
SEQEND
  0
POLYLINE
  8
PIN_SOLDERMASK_BOTTOM
 66
1
 70
1
 40
0.000000
 41
0.000000
 39
0.000000
  0
VERTEX
  8
PIN_SOLDERMASK_BOTTOM
 10
-111.955500
 20
22.009400
 40
0.000000
 41
0.000000
 42
0.000000
  0
VERTEX
  8
PIN_SOLDERMASK_BOTTOM
 10
-112.844500
 20
22.009400
 40
0.000000
 41
0.000000
 42
-1.000000
  0
VERTEX
  8
PIN_SOLDERMASK_BOTTOM
 10
-112.844500
 20
23.990600
 40
0.000000
 41
0.000000
 42
0.000000
  0
VERTEX
  8
PIN_SOLDERMASK_BOTTOM
 10
-111.955500
 20
23.990600
 40
0.000000
 41
0.000000
 42
-1.000000
  0
SEQEND
  0
POLYLINE
  8
PIN_SOLDERMASK_BOTTOM
 66
1
 70
1
 40
0.000000
 41
0.000000
 39
0.000000
  0
VERTEX
  8
PIN_SOLDERMASK_BOTTOM
 10
-111.955500
 20
19.469400
 40
0.000000
 41
0.000000
 42
0.000000
  0
VERTEX
  8
PIN_SOLDERMASK_BOTTOM
 10
-112.844500
 20
19.469400
 40
0.000000
 41
0.000000
 42
-1.000000
  0
VERTEX
  8
PIN_SOLDERMASK_BOTTOM
 10
-112.844500
 20
21.450600
 40
0.000000
 41
0.000000
 42
0.000000
  0
VERTEX
  8
PIN_SOLDERMASK_BOTTOM
 10
-111.955500
 20
21.450600
 40
0.000000
 41
0.000000
 42
-1.000000
  0
SEQEND
  0
POLYLINE
  8
PIN_SOLDERMASK_BOTTOM
 66
1
 70
1
 40
0.000000
 41
0.000000
 39
0.000000
  0
VERTEX
  8
PIN_SOLDERMASK_BOTTOM
 10
-111.955500
 20
16.929400
 40
0.000000
 41
0.000000
 42
0.000000
  0
VERTEX
  8
PIN_SOLDERMASK_BOTTOM
 10
-112.844500
 20
16.929400
 40
0.000000
 41
0.000000
 42
-1.000000
  0
VERTEX
  8
PIN_SOLDERMASK_BOTTOM
 10
-112.844500
 20
18.910600
 40
0.000000
 41
0.000000
 42
0.000000
  0
VERTEX
  8
PIN_SOLDERMASK_BOTTOM
 10
-111.955500
 20
18.910600
 40
0.000000
 41
0.000000
 42
-1.000000
  0
SEQEND
  0
POLYLINE
  8
PIN_SOLDERMASK_BOTTOM
 66
1
 70
1
 40
0.000000
 41
0.000000
 39
0.000000
  0
VERTEX
  8
PIN_SOLDERMASK_BOTTOM
 10
-111.955500
 20
14.389400
 40
0.000000
 41
0.000000
 42
0.000000
  0
VERTEX
  8
PIN_SOLDERMASK_BOTTOM
 10
-112.844500
 20
14.389400
 40
0.000000
 41
0.000000
 42
-1.000000
  0
VERTEX
  8
PIN_SOLDERMASK_BOTTOM
 10
-112.844500
 20
16.370600
 40
0.000000
 41
0.000000
 42
0.000000
  0
VERTEX
  8
PIN_SOLDERMASK_BOTTOM
 10
-111.955500
 20
16.370600
 40
0.000000
 41
0.000000
 42
-1.000000
  0
SEQEND
  0
POLYLINE
  8
PIN_SOLDERMASK_BOTTOM
 66
1
 70
1
 40
0.000000
 41
0.000000
 39
0.000000
  0
VERTEX
  8
PIN_SOLDERMASK_BOTTOM
 10
-99.757800
 20
60.946800
 40
0.000000
 41
0.000000
 42
0.000000
  0
VERTEX
  8
PIN_SOLDERMASK_BOTTOM
 10
-99.757800
 20
62.154800
 40
0.000000
 41
0.000000
 42
-1.000000
  0
VERTEX
  8
PIN_SOLDERMASK_BOTTOM
 10
-98.349800
 20
62.154800
 40
0.000000
 41
0.000000
 42
0.000000
  0
VERTEX
  8
PIN_SOLDERMASK_BOTTOM
 10
-98.349800
 20
60.946800
 40
0.000000
 41
0.000000
 42
-1.000000
  0
SEQEND
  0
POLYLINE
  8
PIN_SOLDERMASK_BOTTOM
 66
1
 70
1
 40
0.000000
 41
0.000000
 39
0.000000
  0
VERTEX
  8
PIN_SOLDERMASK_BOTTOM
 10
-107.657800
 20
60.946800
 40
0.000000
 41
0.000000
 42
0.000000
  0
VERTEX
  8
PIN_SOLDERMASK_BOTTOM
 10
-107.657800
 20
62.154800
 40
0.000000
 41
0.000000
 42
-1.000000
  0
VERTEX
  8
PIN_SOLDERMASK_BOTTOM
 10
-106.249800
 20
62.154800
 40
0.000000
 41
0.000000
 42
0.000000
  0
VERTEX
  8
PIN_SOLDERMASK_BOTTOM
 10
-106.249800
 20
60.946800
 40
0.000000
 41
0.000000
 42
-1.000000
  0
SEQEND
  0
POLYLINE
  8
PIN_SOLDERMASK_BOTTOM
 66
1
 70
1
 40
0.000000
 41
0.000000
 39
0.000000
  0
VERTEX
  8
PIN_SOLDERMASK_BOTTOM
 10
-74.700000
 20
52.400000
 40
0.000000
 41
0.000000
 42
0.000000
  0
VERTEX
  8
PIN_SOLDERMASK_BOTTOM
 10
-74.700000
 20
53.800000
 40
0.000000
 41
0.000000
 42
0.000000
  0
VERTEX
  8
PIN_SOLDERMASK_BOTTOM
 10
-73.300000
 20
53.800000
 40
0.000000
 41
0.000000
 42
0.000000
  0
VERTEX
  8
PIN_SOLDERMASK_BOTTOM
 10
-73.300000
 20
52.400000
 40
0.000000
 41
0.000000
 42
0.000000
  0
SEQEND
  0
CIRCLE
  8
PIN_SOLDERMASK_BOTTOM
 10
-71.500000
 20
53.100000
 40
0.700000
  0
CIRCLE
  8
PIN_SOLDERMASK_BOTTOM
 10
-69.000000
 20
53.100000
 40
0.700000
  0
CIRCLE
  8
PIN_SOLDERMASK_BOTTOM
 10
-66.500000
 20
53.100000
 40
0.700000
  0
CIRCLE
  8
PIN_SOLDERMASK_BOTTOM
 10
-64.000000
 20
53.100000
 40
0.700000
  0
CIRCLE
  8
PIN_SOLDERMASK_BOTTOM
 10
-61.500000
 20
53.100000
 40
0.700000
  0
CIRCLE
  8
PIN_SOLDERMASK_BOTTOM
 10
-59.000000
 20
53.100000
 40
0.700000
  0
CIRCLE
  8
PIN_SOLDERMASK_BOTTOM
 10
-56.500000
 20
53.100000
 40
0.700000
  0
POLYLINE
  8
PIN_SOLDERMASK_BOTTOM
 66
1
 70
1
 40
0.000000
 41
0.000000
 39
0.000000
  0
VERTEX
  8
PIN_SOLDERMASK_BOTTOM
 10
-30.910000
 20
23.040000
 40
0.000000
 41
0.000000
 42
0.000000
  0
VERTEX
  8
PIN_SOLDERMASK_BOTTOM
 10
-30.490000
 20
23.040000
 40
0.000000
 41
0.000000
 42
0.000000
  0
VERTEX
  8
PIN_SOLDERMASK_BOTTOM
 10
-30.490000
 20
23.920000
 40
0.000000
 41
0.000000
 42
0.000000
  0
VERTEX
  8
PIN_SOLDERMASK_BOTTOM
 10
-30.910000
 20
23.920000
 40
0.000000
 41
0.000000
 42
0.000000
  0
SEQEND
  0
POLYLINE
  8
PIN_SOLDERMASK_BOTTOM
 66
1
 70
1
 40
0.000000
 41
0.000000
 39
0.000000
  0
VERTEX
  8
PIN_SOLDERMASK_BOTTOM
 10
-30.910000
 20
24.280000
 40
0.000000
 41
0.000000
 42
0.000000
  0
VERTEX
  8
PIN_SOLDERMASK_BOTTOM
 10
-30.490000
 20
24.280000
 40
0.000000
 41
0.000000
 42
0.000000
  0
VERTEX
  8
PIN_SOLDERMASK_BOTTOM
 10
-30.490000
 20
25.160000
 40
0.000000
 41
0.000000
 42
0.000000
  0
VERTEX
  8
PIN_SOLDERMASK_BOTTOM
 10
-30.910000
 20
25.160000
 40
0.000000
 41
0.000000
 42
0.000000
  0
SEQEND
  0
POLYLINE
  8
PIN_SOLDERMASK_BOTTOM
 66
1
 70
1
 40
0.000000
 41
0.000000
 39
0.000000
  0
VERTEX
  8
PIN_SOLDERMASK_BOTTOM
 10
-27.010000
 20
22.840000
 40
0.000000
 41
0.000000
 42
0.000000
  0
VERTEX
  8
PIN_SOLDERMASK_BOTTOM
 10
-26.590000
 20
22.840000
 40
0.000000
 41
0.000000
 42
0.000000
  0
VERTEX
  8
PIN_SOLDERMASK_BOTTOM
 10
-26.590000
 20
23.720000
 40
0.000000
 41
0.000000
 42
0.000000
  0
VERTEX
  8
PIN_SOLDERMASK_BOTTOM
 10
-27.010000
 20
23.720000
 40
0.000000
 41
0.000000
 42
0.000000
  0
SEQEND
  0
POLYLINE
  8
PIN_SOLDERMASK_BOTTOM
 66
1
 70
1
 40
0.000000
 41
0.000000
 39
0.000000
  0
VERTEX
  8
PIN_SOLDERMASK_BOTTOM
 10
-27.010000
 20
24.080000
 40
0.000000
 41
0.000000
 42
0.000000
  0
VERTEX
  8
PIN_SOLDERMASK_BOTTOM
 10
-26.590000
 20
24.080000
 40
0.000000
 41
0.000000
 42
0.000000
  0
VERTEX
  8
PIN_SOLDERMASK_BOTTOM
 10
-26.590000
 20
24.960000
 40
0.000000
 41
0.000000
 42
0.000000
  0
VERTEX
  8
PIN_SOLDERMASK_BOTTOM
 10
-27.010000
 20
24.960000
 40
0.000000
 41
0.000000
 42
0.000000
  0
SEQEND
  0
POLYLINE
  8
PIN_SOLDERMASK_BOTTOM
 66
1
 70
1
 40
0.000000
 41
0.000000
 39
0.000000
  0
VERTEX
  8
PIN_SOLDERMASK_BOTTOM
 10
-44.090000
 20
52.065000
 40
0.000000
 41
0.000000
 42
0.000000
  0
VERTEX
  8
PIN_SOLDERMASK_BOTTOM
 10
-44.090000
 20
52.435000
 40
0.000000
 41
0.000000
 42
0.000000
  0
VERTEX
  8
PIN_SOLDERMASK_BOTTOM
 10
-46.310000
 20
52.435000
 40
0.000000
 41
0.000000
 42
0.000000
  0
VERTEX
  8
PIN_SOLDERMASK_BOTTOM
 10
-46.310000
 20
52.065000
 40
0.000000
 41
0.000000
 42
0.000000
  0
SEQEND
  0
POLYLINE
  8
PIN_SOLDERMASK_BOTTOM
 66
1
 70
1
 40
0.000000
 41
0.000000
 39
0.000000
  0
VERTEX
  8
PIN_SOLDERMASK_BOTTOM
 10
-44.090000
 20
51.565000
 40
0.000000
 41
0.000000
 42
0.000000
  0
VERTEX
  8
PIN_SOLDERMASK_BOTTOM
 10
-44.090000
 20
51.935000
 40
0.000000
 41
0.000000
 42
0.000000
  0
VERTEX
  8
PIN_SOLDERMASK_BOTTOM
 10
-46.310000
 20
51.935000
 40
0.000000
 41
0.000000
 42
0.000000
  0
VERTEX
  8
PIN_SOLDERMASK_BOTTOM
 10
-46.310000
 20
51.565000
 40
0.000000
 41
0.000000
 42
0.000000
  0
SEQEND
  0
POLYLINE
  8
PIN_SOLDERMASK_BOTTOM
 66
1
 70
1
 40
0.000000
 41
0.000000
 39
0.000000
  0
VERTEX
  8
PIN_SOLDERMASK_BOTTOM
 10
-44.090000
 20
51.065000
 40
0.000000
 41
0.000000
 42
0.000000
  0
VERTEX
  8
PIN_SOLDERMASK_BOTTOM
 10
-44.090000
 20
51.435000
 40
0.000000
 41
0.000000
 42
0.000000
  0
VERTEX
  8
PIN_SOLDERMASK_BOTTOM
 10
-46.310000
 20
51.435000
 40
0.000000
 41
0.000000
 42
0.000000
  0
VERTEX
  8
PIN_SOLDERMASK_BOTTOM
 10
-46.310000
 20
51.065000
 40
0.000000
 41
0.000000
 42
0.000000
  0
SEQEND
  0
POLYLINE
  8
PIN_SOLDERMASK_BOTTOM
 66
1
 70
1
 40
0.000000
 41
0.000000
 39
0.000000
  0
VERTEX
  8
PIN_SOLDERMASK_BOTTOM
 10
-44.090000
 20
50.565000
 40
0.000000
 41
0.000000
 42
0.000000
  0
VERTEX
  8
PIN_SOLDERMASK_BOTTOM
 10
-44.090000
 20
50.935000
 40
0.000000
 41
0.000000
 42
0.000000
  0
VERTEX
  8
PIN_SOLDERMASK_BOTTOM
 10
-46.310000
 20
50.935000
 40
0.000000
 41
0.000000
 42
0.000000
  0
VERTEX
  8
PIN_SOLDERMASK_BOTTOM
 10
-46.310000
 20
50.565000
 40
0.000000
 41
0.000000
 42
0.000000
  0
SEQEND
  0
POLYLINE
  8
PIN_SOLDERMASK_BOTTOM
 66
1
 70
1
 40
0.000000
 41
0.000000
 39
0.000000
  0
VERTEX
  8
PIN_SOLDERMASK_BOTTOM
 10
-44.090000
 20
50.065000
 40
0.000000
 41
0.000000
 42
0.000000
  0
VERTEX
  8
PIN_SOLDERMASK_BOTTOM
 10
-44.090000
 20
50.435000
 40
0.000000
 41
0.000000
 42
0.000000
  0
VERTEX
  8
PIN_SOLDERMASK_BOTTOM
 10
-46.310000
 20
50.435000
 40
0.000000
 41
0.000000
 42
0.000000
  0
VERTEX
  8
PIN_SOLDERMASK_BOTTOM
 10
-46.310000
 20
50.065000
 40
0.000000
 41
0.000000
 42
0.000000
  0
SEQEND
  0
POLYLINE
  8
PIN_SOLDERMASK_BOTTOM
 66
1
 70
1
 40
0.000000
 41
0.000000
 39
0.000000
  0
VERTEX
  8
PIN_SOLDERMASK_BOTTOM
 10
-44.090000
 20
49.565000
 40
0.000000
 41
0.000000
 42
0.000000
  0
VERTEX
  8
PIN_SOLDERMASK_BOTTOM
 10
-44.090000
 20
49.935000
 40
0.000000
 41
0.000000
 42
0.000000
  0
VERTEX
  8
PIN_SOLDERMASK_BOTTOM
 10
-46.310000
 20
49.935000
 40
0.000000
 41
0.000000
 42
0.000000
  0
VERTEX
  8
PIN_SOLDERMASK_BOTTOM
 10
-46.310000
 20
49.565000
 40
0.000000
 41
0.000000
 42
0.000000
  0
SEQEND
  0
POLYLINE
  8
PIN_SOLDERMASK_BOTTOM
 66
1
 70
1
 40
0.000000
 41
0.000000
 39
0.000000
  0
VERTEX
  8
PIN_SOLDERMASK_BOTTOM
 10
-44.090000
 20
49.065000
 40
0.000000
 41
0.000000
 42
0.000000
  0
VERTEX
  8
PIN_SOLDERMASK_BOTTOM
 10
-44.090000
 20
49.435000
 40
0.000000
 41
0.000000
 42
0.000000
  0
VERTEX
  8
PIN_SOLDERMASK_BOTTOM
 10
-46.310000
 20
49.435000
 40
0.000000
 41
0.000000
 42
0.000000
  0
VERTEX
  8
PIN_SOLDERMASK_BOTTOM
 10
-46.310000
 20
49.065000
 40
0.000000
 41
0.000000
 42
0.000000
  0
SEQEND
  0
POLYLINE
  8
PIN_SOLDERMASK_BOTTOM
 66
1
 70
1
 40
0.000000
 41
0.000000
 39
0.000000
  0
VERTEX
  8
PIN_SOLDERMASK_BOTTOM
 10
-44.090000
 20
48.565000
 40
0.000000
 41
0.000000
 42
0.000000
  0
VERTEX
  8
PIN_SOLDERMASK_BOTTOM
 10
-44.090000
 20
48.935000
 40
0.000000
 41
0.000000
 42
0.000000
  0
VERTEX
  8
PIN_SOLDERMASK_BOTTOM
 10
-46.310000
 20
48.935000
 40
0.000000
 41
0.000000
 42
0.000000
  0
VERTEX
  8
PIN_SOLDERMASK_BOTTOM
 10
-46.310000
 20
48.565000
 40
0.000000
 41
0.000000
 42
0.000000
  0
SEQEND
  0
POLYLINE
  8
PIN_SOLDERMASK_BOTTOM
 66
1
 70
1
 40
0.000000
 41
0.000000
 39
0.000000
  0
VERTEX
  8
PIN_SOLDERMASK_BOTTOM
 10
-44.090000
 20
48.065000
 40
0.000000
 41
0.000000
 42
0.000000
  0
VERTEX
  8
PIN_SOLDERMASK_BOTTOM
 10
-44.090000
 20
48.435000
 40
0.000000
 41
0.000000
 42
0.000000
  0
VERTEX
  8
PIN_SOLDERMASK_BOTTOM
 10
-46.310000
 20
48.435000
 40
0.000000
 41
0.000000
 42
0.000000
  0
VERTEX
  8
PIN_SOLDERMASK_BOTTOM
 10
-46.310000
 20
48.065000
 40
0.000000
 41
0.000000
 42
0.000000
  0
SEQEND
  0
POLYLINE
  8
PIN_SOLDERMASK_BOTTOM
 66
1
 70
1
 40
0.000000
 41
0.000000
 39
0.000000
  0
VERTEX
  8
PIN_SOLDERMASK_BOTTOM
 10
-44.090000
 20
47.565000
 40
0.000000
 41
0.000000
 42
0.000000
  0
VERTEX
  8
PIN_SOLDERMASK_BOTTOM
 10
-44.090000
 20
47.935000
 40
0.000000
 41
0.000000
 42
0.000000
  0
VERTEX
  8
PIN_SOLDERMASK_BOTTOM
 10
-46.310000
 20
47.935000
 40
0.000000
 41
0.000000
 42
0.000000
  0
VERTEX
  8
PIN_SOLDERMASK_BOTTOM
 10
-46.310000
 20
47.565000
 40
0.000000
 41
0.000000
 42
0.000000
  0
SEQEND
  0
POLYLINE
  8
PIN_SOLDERMASK_BOTTOM
 66
1
 70
1
 40
0.000000
 41
0.000000
 39
0.000000
  0
VERTEX
  8
PIN_SOLDERMASK_BOTTOM
 10
-44.090000
 20
47.065000
 40
0.000000
 41
0.000000
 42
0.000000
  0
VERTEX
  8
PIN_SOLDERMASK_BOTTOM
 10
-44.090000
 20
47.435000
 40
0.000000
 41
0.000000
 42
0.000000
  0
VERTEX
  8
PIN_SOLDERMASK_BOTTOM
 10
-46.310000
 20
47.435000
 40
0.000000
 41
0.000000
 42
0.000000
  0
VERTEX
  8
PIN_SOLDERMASK_BOTTOM
 10
-46.310000
 20
47.065000
 40
0.000000
 41
0.000000
 42
0.000000
  0
SEQEND
  0
POLYLINE
  8
PIN_SOLDERMASK_BOTTOM
 66
1
 70
1
 40
0.000000
 41
0.000000
 39
0.000000
  0
VERTEX
  8
PIN_SOLDERMASK_BOTTOM
 10
-44.090000
 20
46.565000
 40
0.000000
 41
0.000000
 42
0.000000
  0
VERTEX
  8
PIN_SOLDERMASK_BOTTOM
 10
-44.090000
 20
46.935000
 40
0.000000
 41
0.000000
 42
0.000000
  0
VERTEX
  8
PIN_SOLDERMASK_BOTTOM
 10
-46.310000
 20
46.935000
 40
0.000000
 41
0.000000
 42
0.000000
  0
VERTEX
  8
PIN_SOLDERMASK_BOTTOM
 10
-46.310000
 20
46.565000
 40
0.000000
 41
0.000000
 42
0.000000
  0
SEQEND
  0
POLYLINE
  8
PIN_SOLDERMASK_BOTTOM
 66
1
 70
1
 40
0.000000
 41
0.000000
 39
0.000000
  0
VERTEX
  8
PIN_SOLDERMASK_BOTTOM
 10
-44.090000
 20
46.065000
 40
0.000000
 41
0.000000
 42
0.000000
  0
VERTEX
  8
PIN_SOLDERMASK_BOTTOM
 10
-44.090000
 20
46.435000
 40
0.000000
 41
0.000000
 42
0.000000
  0
VERTEX
  8
PIN_SOLDERMASK_BOTTOM
 10
-46.310000
 20
46.435000
 40
0.000000
 41
0.000000
 42
0.000000
  0
VERTEX
  8
PIN_SOLDERMASK_BOTTOM
 10
-46.310000
 20
46.065000
 40
0.000000
 41
0.000000
 42
0.000000
  0
SEQEND
  0
POLYLINE
  8
PIN_SOLDERMASK_BOTTOM
 66
1
 70
1
 40
0.000000
 41
0.000000
 39
0.000000
  0
VERTEX
  8
PIN_SOLDERMASK_BOTTOM
 10
-44.090000
 20
45.565000
 40
0.000000
 41
0.000000
 42
0.000000
  0
VERTEX
  8
PIN_SOLDERMASK_BOTTOM
 10
-44.090000
 20
45.935000
 40
0.000000
 41
0.000000
 42
0.000000
  0
VERTEX
  8
PIN_SOLDERMASK_BOTTOM
 10
-46.310000
 20
45.935000
 40
0.000000
 41
0.000000
 42
0.000000
  0
VERTEX
  8
PIN_SOLDERMASK_BOTTOM
 10
-46.310000
 20
45.565000
 40
0.000000
 41
0.000000
 42
0.000000
  0
SEQEND
  0
POLYLINE
  8
PIN_SOLDERMASK_BOTTOM
 66
1
 70
1
 40
0.000000
 41
0.000000
 39
0.000000
  0
VERTEX
  8
PIN_SOLDERMASK_BOTTOM
 10
-44.090000
 20
45.065000
 40
0.000000
 41
0.000000
 42
0.000000
  0
VERTEX
  8
PIN_SOLDERMASK_BOTTOM
 10
-44.090000
 20
45.435000
 40
0.000000
 41
0.000000
 42
0.000000
  0
VERTEX
  8
PIN_SOLDERMASK_BOTTOM
 10
-46.310000
 20
45.435000
 40
0.000000
 41
0.000000
 42
0.000000
  0
VERTEX
  8
PIN_SOLDERMASK_BOTTOM
 10
-46.310000
 20
45.065000
 40
0.000000
 41
0.000000
 42
0.000000
  0
SEQEND
  0
POLYLINE
  8
PIN_SOLDERMASK_BOTTOM
 66
1
 70
1
 40
0.000000
 41
0.000000
 39
0.000000
  0
VERTEX
  8
PIN_SOLDERMASK_BOTTOM
 10
-44.090000
 20
44.565000
 40
0.000000
 41
0.000000
 42
0.000000
  0
VERTEX
  8
PIN_SOLDERMASK_BOTTOM
 10
-44.090000
 20
44.935000
 40
0.000000
 41
0.000000
 42
0.000000
  0
VERTEX
  8
PIN_SOLDERMASK_BOTTOM
 10
-46.310000
 20
44.935000
 40
0.000000
 41
0.000000
 42
0.000000
  0
VERTEX
  8
PIN_SOLDERMASK_BOTTOM
 10
-46.310000
 20
44.565000
 40
0.000000
 41
0.000000
 42
0.000000
  0
SEQEND
  0
POLYLINE
  8
PIN_SOLDERMASK_BOTTOM
 66
1
 70
1
 40
0.000000
 41
0.000000
 39
0.000000
  0
VERTEX
  8
PIN_SOLDERMASK_BOTTOM
 10
-44.090000
 20
44.065000
 40
0.000000
 41
0.000000
 42
0.000000
  0
VERTEX
  8
PIN_SOLDERMASK_BOTTOM
 10
-44.090000
 20
44.435000
 40
0.000000
 41
0.000000
 42
0.000000
  0
VERTEX
  8
PIN_SOLDERMASK_BOTTOM
 10
-46.310000
 20
44.435000
 40
0.000000
 41
0.000000
 42
0.000000
  0
VERTEX
  8
PIN_SOLDERMASK_BOTTOM
 10
-46.310000
 20
44.065000
 40
0.000000
 41
0.000000
 42
0.000000
  0
SEQEND
  0
POLYLINE
  8
PIN_SOLDERMASK_BOTTOM
 66
1
 70
1
 40
0.000000
 41
0.000000
 39
0.000000
  0
VERTEX
  8
PIN_SOLDERMASK_BOTTOM
 10
-44.090000
 20
43.565000
 40
0.000000
 41
0.000000
 42
0.000000
  0
VERTEX
  8
PIN_SOLDERMASK_BOTTOM
 10
-44.090000
 20
43.935000
 40
0.000000
 41
0.000000
 42
0.000000
  0
VERTEX
  8
PIN_SOLDERMASK_BOTTOM
 10
-46.310000
 20
43.935000
 40
0.000000
 41
0.000000
 42
0.000000
  0
VERTEX
  8
PIN_SOLDERMASK_BOTTOM
 10
-46.310000
 20
43.565000
 40
0.000000
 41
0.000000
 42
0.000000
  0
SEQEND
  0
POLYLINE
  8
PIN_SOLDERMASK_BOTTOM
 66
1
 70
1
 40
0.000000
 41
0.000000
 39
0.000000
  0
VERTEX
  8
PIN_SOLDERMASK_BOTTOM
 10
-44.090000
 20
43.065000
 40
0.000000
 41
0.000000
 42
0.000000
  0
VERTEX
  8
PIN_SOLDERMASK_BOTTOM
 10
-44.090000
 20
43.435000
 40
0.000000
 41
0.000000
 42
0.000000
  0
VERTEX
  8
PIN_SOLDERMASK_BOTTOM
 10
-46.310000
 20
43.435000
 40
0.000000
 41
0.000000
 42
0.000000
  0
VERTEX
  8
PIN_SOLDERMASK_BOTTOM
 10
-46.310000
 20
43.065000
 40
0.000000
 41
0.000000
 42
0.000000
  0
SEQEND
  0
POLYLINE
  8
PIN_SOLDERMASK_BOTTOM
 66
1
 70
1
 40
0.000000
 41
0.000000
 39
0.000000
  0
VERTEX
  8
PIN_SOLDERMASK_BOTTOM
 10
-44.090000
 20
42.565000
 40
0.000000
 41
0.000000
 42
0.000000
  0
VERTEX
  8
PIN_SOLDERMASK_BOTTOM
 10
-44.090000
 20
42.935000
 40
0.000000
 41
0.000000
 42
0.000000
  0
VERTEX
  8
PIN_SOLDERMASK_BOTTOM
 10
-46.310000
 20
42.935000
 40
0.000000
 41
0.000000
 42
0.000000
  0
VERTEX
  8
PIN_SOLDERMASK_BOTTOM
 10
-46.310000
 20
42.565000
 40
0.000000
 41
0.000000
 42
0.000000
  0
SEQEND
  0
POLYLINE
  8
PIN_SOLDERMASK_BOTTOM
 66
1
 70
1
 40
0.000000
 41
0.000000
 39
0.000000
  0
VERTEX
  8
PIN_SOLDERMASK_BOTTOM
 10
-44.090000
 20
42.065000
 40
0.000000
 41
0.000000
 42
0.000000
  0
VERTEX
  8
PIN_SOLDERMASK_BOTTOM
 10
-44.090000
 20
42.435000
 40
0.000000
 41
0.000000
 42
0.000000
  0
VERTEX
  8
PIN_SOLDERMASK_BOTTOM
 10
-46.310000
 20
42.435000
 40
0.000000
 41
0.000000
 42
0.000000
  0
VERTEX
  8
PIN_SOLDERMASK_BOTTOM
 10
-46.310000
 20
42.065000
 40
0.000000
 41
0.000000
 42
0.000000
  0
SEQEND
  0
POLYLINE
  8
PIN_SOLDERMASK_BOTTOM
 66
1
 70
1
 40
0.000000
 41
0.000000
 39
0.000000
  0
VERTEX
  8
PIN_SOLDERMASK_BOTTOM
 10
-44.090000
 20
41.565000
 40
0.000000
 41
0.000000
 42
0.000000
  0
VERTEX
  8
PIN_SOLDERMASK_BOTTOM
 10
-44.090000
 20
41.935000
 40
0.000000
 41
0.000000
 42
0.000000
  0
VERTEX
  8
PIN_SOLDERMASK_BOTTOM
 10
-46.310000
 20
41.935000
 40
0.000000
 41
0.000000
 42
0.000000
  0
VERTEX
  8
PIN_SOLDERMASK_BOTTOM
 10
-46.310000
 20
41.565000
 40
0.000000
 41
0.000000
 42
0.000000
  0
SEQEND
  0
POLYLINE
  8
PIN_SOLDERMASK_BOTTOM
 66
1
 70
1
 40
0.000000
 41
0.000000
 39
0.000000
  0
VERTEX
  8
PIN_SOLDERMASK_BOTTOM
 10
-44.090000
 20
41.065000
 40
0.000000
 41
0.000000
 42
0.000000
  0
VERTEX
  8
PIN_SOLDERMASK_BOTTOM
 10
-44.090000
 20
41.435000
 40
0.000000
 41
0.000000
 42
0.000000
  0
VERTEX
  8
PIN_SOLDERMASK_BOTTOM
 10
-46.310000
 20
41.435000
 40
0.000000
 41
0.000000
 42
0.000000
  0
VERTEX
  8
PIN_SOLDERMASK_BOTTOM
 10
-46.310000
 20
41.065000
 40
0.000000
 41
0.000000
 42
0.000000
  0
SEQEND
  0
POLYLINE
  8
PIN_SOLDERMASK_BOTTOM
 66
1
 70
1
 40
0.000000
 41
0.000000
 39
0.000000
  0
VERTEX
  8
PIN_SOLDERMASK_BOTTOM
 10
-44.090000
 20
40.565000
 40
0.000000
 41
0.000000
 42
0.000000
  0
VERTEX
  8
PIN_SOLDERMASK_BOTTOM
 10
-44.090000
 20
40.935000
 40
0.000000
 41
0.000000
 42
0.000000
  0
VERTEX
  8
PIN_SOLDERMASK_BOTTOM
 10
-46.310000
 20
40.935000
 40
0.000000
 41
0.000000
 42
0.000000
  0
VERTEX
  8
PIN_SOLDERMASK_BOTTOM
 10
-46.310000
 20
40.565000
 40
0.000000
 41
0.000000
 42
0.000000
  0
SEQEND
  0
POLYLINE
  8
PIN_SOLDERMASK_BOTTOM
 66
1
 70
1
 40
0.000000
 41
0.000000
 39
0.000000
  0
VERTEX
  8
PIN_SOLDERMASK_BOTTOM
 10
-44.090000
 20
40.065000
 40
0.000000
 41
0.000000
 42
0.000000
  0
VERTEX
  8
PIN_SOLDERMASK_BOTTOM
 10
-44.090000
 20
40.435000
 40
0.000000
 41
0.000000
 42
0.000000
  0
VERTEX
  8
PIN_SOLDERMASK_BOTTOM
 10
-46.310000
 20
40.435000
 40
0.000000
 41
0.000000
 42
0.000000
  0
VERTEX
  8
PIN_SOLDERMASK_BOTTOM
 10
-46.310000
 20
40.065000
 40
0.000000
 41
0.000000
 42
0.000000
  0
SEQEND
  0
POLYLINE
  8
PIN_SOLDERMASK_BOTTOM
 66
1
 70
1
 40
0.000000
 41
0.000000
 39
0.000000
  0
VERTEX
  8
PIN_SOLDERMASK_BOTTOM
 10
-44.090000
 20
39.565000
 40
0.000000
 41
0.000000
 42
0.000000
  0
VERTEX
  8
PIN_SOLDERMASK_BOTTOM
 10
-44.090000
 20
39.935000
 40
0.000000
 41
0.000000
 42
0.000000
  0
VERTEX
  8
PIN_SOLDERMASK_BOTTOM
 10
-46.310000
 20
39.935000
 40
0.000000
 41
0.000000
 42
0.000000
  0
VERTEX
  8
PIN_SOLDERMASK_BOTTOM
 10
-46.310000
 20
39.565000
 40
0.000000
 41
0.000000
 42
0.000000
  0
SEQEND
  0
POLYLINE
  8
PIN_SOLDERMASK_BOTTOM
 66
1
 70
1
 40
0.000000
 41
0.000000
 39
0.000000
  0
VERTEX
  8
PIN_SOLDERMASK_BOTTOM
 10
-44.090000
 20
39.065000
 40
0.000000
 41
0.000000
 42
0.000000
  0
VERTEX
  8
PIN_SOLDERMASK_BOTTOM
 10
-44.090000
 20
39.435000
 40
0.000000
 41
0.000000
 42
0.000000
  0
VERTEX
  8
PIN_SOLDERMASK_BOTTOM
 10
-46.310000
 20
39.435000
 40
0.000000
 41
0.000000
 42
0.000000
  0
VERTEX
  8
PIN_SOLDERMASK_BOTTOM
 10
-46.310000
 20
39.065000
 40
0.000000
 41
0.000000
 42
0.000000
  0
SEQEND
  0
POLYLINE
  8
PIN_SOLDERMASK_BOTTOM
 66
1
 70
1
 40
0.000000
 41
0.000000
 39
0.000000
  0
VERTEX
  8
PIN_SOLDERMASK_BOTTOM
 10
-44.090000
 20
38.565000
 40
0.000000
 41
0.000000
 42
0.000000
  0
VERTEX
  8
PIN_SOLDERMASK_BOTTOM
 10
-44.090000
 20
38.935000
 40
0.000000
 41
0.000000
 42
0.000000
  0
VERTEX
  8
PIN_SOLDERMASK_BOTTOM
 10
-46.310000
 20
38.935000
 40
0.000000
 41
0.000000
 42
0.000000
  0
VERTEX
  8
PIN_SOLDERMASK_BOTTOM
 10
-46.310000
 20
38.565000
 40
0.000000
 41
0.000000
 42
0.000000
  0
SEQEND
  0
POLYLINE
  8
PIN_SOLDERMASK_BOTTOM
 66
1
 70
1
 40
0.000000
 41
0.000000
 39
0.000000
  0
VERTEX
  8
PIN_SOLDERMASK_BOTTOM
 10
-44.090000
 20
38.065000
 40
0.000000
 41
0.000000
 42
0.000000
  0
VERTEX
  8
PIN_SOLDERMASK_BOTTOM
 10
-44.090000
 20
38.435000
 40
0.000000
 41
0.000000
 42
0.000000
  0
VERTEX
  8
PIN_SOLDERMASK_BOTTOM
 10
-46.310000
 20
38.435000
 40
0.000000
 41
0.000000
 42
0.000000
  0
VERTEX
  8
PIN_SOLDERMASK_BOTTOM
 10
-46.310000
 20
38.065000
 40
0.000000
 41
0.000000
 42
0.000000
  0
SEQEND
  0
POLYLINE
  8
PIN_SOLDERMASK_BOTTOM
 66
1
 70
1
 40
0.000000
 41
0.000000
 39
0.000000
  0
VERTEX
  8
PIN_SOLDERMASK_BOTTOM
 10
-44.090000
 20
37.565000
 40
0.000000
 41
0.000000
 42
0.000000
  0
VERTEX
  8
PIN_SOLDERMASK_BOTTOM
 10
-44.090000
 20
37.935000
 40
0.000000
 41
0.000000
 42
0.000000
  0
VERTEX
  8
PIN_SOLDERMASK_BOTTOM
 10
-46.310000
 20
37.935000
 40
0.000000
 41
0.000000
 42
0.000000
  0
VERTEX
  8
PIN_SOLDERMASK_BOTTOM
 10
-46.310000
 20
37.565000
 40
0.000000
 41
0.000000
 42
0.000000
  0
SEQEND
  0
POLYLINE
  8
PIN_SOLDERMASK_BOTTOM
 66
1
 70
1
 40
0.000000
 41
0.000000
 39
0.000000
  0
VERTEX
  8
PIN_SOLDERMASK_BOTTOM
 10
-44.090000
 20
37.065000
 40
0.000000
 41
0.000000
 42
0.000000
  0
VERTEX
  8
PIN_SOLDERMASK_BOTTOM
 10
-44.090000
 20
37.435000
 40
0.000000
 41
0.000000
 42
0.000000
  0
VERTEX
  8
PIN_SOLDERMASK_BOTTOM
 10
-46.310000
 20
37.435000
 40
0.000000
 41
0.000000
 42
0.000000
  0
VERTEX
  8
PIN_SOLDERMASK_BOTTOM
 10
-46.310000
 20
37.065000
 40
0.000000
 41
0.000000
 42
0.000000
  0
SEQEND
  0
POLYLINE
  8
PIN_SOLDERMASK_BOTTOM
 66
1
 70
1
 40
0.000000
 41
0.000000
 39
0.000000
  0
VERTEX
  8
PIN_SOLDERMASK_BOTTOM
 10
-44.090000
 20
36.565000
 40
0.000000
 41
0.000000
 42
0.000000
  0
VERTEX
  8
PIN_SOLDERMASK_BOTTOM
 10
-44.090000
 20
36.935000
 40
0.000000
 41
0.000000
 42
0.000000
  0
VERTEX
  8
PIN_SOLDERMASK_BOTTOM
 10
-46.310000
 20
36.935000
 40
0.000000
 41
0.000000
 42
0.000000
  0
VERTEX
  8
PIN_SOLDERMASK_BOTTOM
 10
-46.310000
 20
36.565000
 40
0.000000
 41
0.000000
 42
0.000000
  0
SEQEND
  0
POLYLINE
  8
PIN_SOLDERMASK_BOTTOM
 66
1
 70
1
 40
0.000000
 41
0.000000
 39
0.000000
  0
VERTEX
  8
PIN_SOLDERMASK_BOTTOM
 10
-44.090000
 20
36.065000
 40
0.000000
 41
0.000000
 42
0.000000
  0
VERTEX
  8
PIN_SOLDERMASK_BOTTOM
 10
-44.090000
 20
36.435000
 40
0.000000
 41
0.000000
 42
0.000000
  0
VERTEX
  8
PIN_SOLDERMASK_BOTTOM
 10
-46.310000
 20
36.435000
 40
0.000000
 41
0.000000
 42
0.000000
  0
VERTEX
  8
PIN_SOLDERMASK_BOTTOM
 10
-46.310000
 20
36.065000
 40
0.000000
 41
0.000000
 42
0.000000
  0
SEQEND
  0
POLYLINE
  8
PIN_SOLDERMASK_BOTTOM
 66
1
 70
1
 40
0.000000
 41
0.000000
 39
0.000000
  0
VERTEX
  8
PIN_SOLDERMASK_BOTTOM
 10
-44.090000
 20
35.565000
 40
0.000000
 41
0.000000
 42
0.000000
  0
VERTEX
  8
PIN_SOLDERMASK_BOTTOM
 10
-44.090000
 20
35.935000
 40
0.000000
 41
0.000000
 42
0.000000
  0
VERTEX
  8
PIN_SOLDERMASK_BOTTOM
 10
-46.310000
 20
35.935000
 40
0.000000
 41
0.000000
 42
0.000000
  0
VERTEX
  8
PIN_SOLDERMASK_BOTTOM
 10
-46.310000
 20
35.565000
 40
0.000000
 41
0.000000
 42
0.000000
  0
SEQEND
  0
POLYLINE
  8
PIN_SOLDERMASK_BOTTOM
 66
1
 70
1
 40
0.000000
 41
0.000000
 39
0.000000
  0
VERTEX
  8
PIN_SOLDERMASK_BOTTOM
 10
-44.090000
 20
35.065000
 40
0.000000
 41
0.000000
 42
0.000000
  0
VERTEX
  8
PIN_SOLDERMASK_BOTTOM
 10
-44.090000
 20
35.435000
 40
0.000000
 41
0.000000
 42
0.000000
  0
VERTEX
  8
PIN_SOLDERMASK_BOTTOM
 10
-46.310000
 20
35.435000
 40
0.000000
 41
0.000000
 42
0.000000
  0
VERTEX
  8
PIN_SOLDERMASK_BOTTOM
 10
-46.310000
 20
35.065000
 40
0.000000
 41
0.000000
 42
0.000000
  0
SEQEND
  0
POLYLINE
  8
PIN_SOLDERMASK_BOTTOM
 66
1
 70
1
 40
0.000000
 41
0.000000
 39
0.000000
  0
VERTEX
  8
PIN_SOLDERMASK_BOTTOM
 10
-44.090000
 20
34.565000
 40
0.000000
 41
0.000000
 42
0.000000
  0
VERTEX
  8
PIN_SOLDERMASK_BOTTOM
 10
-44.090000
 20
34.935000
 40
0.000000
 41
0.000000
 42
0.000000
  0
VERTEX
  8
PIN_SOLDERMASK_BOTTOM
 10
-46.310000
 20
34.935000
 40
0.000000
 41
0.000000
 42
0.000000
  0
VERTEX
  8
PIN_SOLDERMASK_BOTTOM
 10
-46.310000
 20
34.565000
 40
0.000000
 41
0.000000
 42
0.000000
  0
SEQEND
  0
POLYLINE
  8
PIN_SOLDERMASK_BOTTOM
 66
1
 70
1
 40
0.000000
 41
0.000000
 39
0.000000
  0
VERTEX
  8
PIN_SOLDERMASK_BOTTOM
 10
-44.090000
 20
34.065000
 40
0.000000
 41
0.000000
 42
0.000000
  0
VERTEX
  8
PIN_SOLDERMASK_BOTTOM
 10
-44.090000
 20
34.435000
 40
0.000000
 41
0.000000
 42
0.000000
  0
VERTEX
  8
PIN_SOLDERMASK_BOTTOM
 10
-46.310000
 20
34.435000
 40
0.000000
 41
0.000000
 42
0.000000
  0
VERTEX
  8
PIN_SOLDERMASK_BOTTOM
 10
-46.310000
 20
34.065000
 40
0.000000
 41
0.000000
 42
0.000000
  0
SEQEND
  0
POLYLINE
  8
PIN_SOLDERMASK_BOTTOM
 66
1
 70
1
 40
0.000000
 41
0.000000
 39
0.000000
  0
VERTEX
  8
PIN_SOLDERMASK_BOTTOM
 10
-44.090000
 20
33.565000
 40
0.000000
 41
0.000000
 42
0.000000
  0
VERTEX
  8
PIN_SOLDERMASK_BOTTOM
 10
-44.090000
 20
33.935000
 40
0.000000
 41
0.000000
 42
0.000000
  0
VERTEX
  8
PIN_SOLDERMASK_BOTTOM
 10
-46.310000
 20
33.935000
 40
0.000000
 41
0.000000
 42
0.000000
  0
VERTEX
  8
PIN_SOLDERMASK_BOTTOM
 10
-46.310000
 20
33.565000
 40
0.000000
 41
0.000000
 42
0.000000
  0
SEQEND
  0
POLYLINE
  8
PIN_SOLDERMASK_BOTTOM
 66
1
 70
1
 40
0.000000
 41
0.000000
 39
0.000000
  0
VERTEX
  8
PIN_SOLDERMASK_BOTTOM
 10
-44.090000
 20
33.065000
 40
0.000000
 41
0.000000
 42
0.000000
  0
VERTEX
  8
PIN_SOLDERMASK_BOTTOM
 10
-44.090000
 20
33.435000
 40
0.000000
 41
0.000000
 42
0.000000
  0
VERTEX
  8
PIN_SOLDERMASK_BOTTOM
 10
-46.310000
 20
33.435000
 40
0.000000
 41
0.000000
 42
0.000000
  0
VERTEX
  8
PIN_SOLDERMASK_BOTTOM
 10
-46.310000
 20
33.065000
 40
0.000000
 41
0.000000
 42
0.000000
  0
SEQEND
  0
POLYLINE
  8
PIN_SOLDERMASK_BOTTOM
 66
1
 70
1
 40
0.000000
 41
0.000000
 39
0.000000
  0
VERTEX
  8
PIN_SOLDERMASK_BOTTOM
 10
-44.090000
 20
32.565000
 40
0.000000
 41
0.000000
 42
0.000000
  0
VERTEX
  8
PIN_SOLDERMASK_BOTTOM
 10
-44.090000
 20
32.935000
 40
0.000000
 41
0.000000
 42
0.000000
  0
VERTEX
  8
PIN_SOLDERMASK_BOTTOM
 10
-46.310000
 20
32.935000
 40
0.000000
 41
0.000000
 42
0.000000
  0
VERTEX
  8
PIN_SOLDERMASK_BOTTOM
 10
-46.310000
 20
32.565000
 40
0.000000
 41
0.000000
 42
0.000000
  0
SEQEND
  0
POLYLINE
  8
PIN_SOLDERMASK_BOTTOM
 66
1
 70
1
 40
0.000000
 41
0.000000
 39
0.000000
  0
VERTEX
  8
PIN_SOLDERMASK_BOTTOM
 10
-44.090000
 20
32.065000
 40
0.000000
 41
0.000000
 42
0.000000
  0
VERTEX
  8
PIN_SOLDERMASK_BOTTOM
 10
-44.090000
 20
32.435000
 40
0.000000
 41
0.000000
 42
0.000000
  0
VERTEX
  8
PIN_SOLDERMASK_BOTTOM
 10
-46.310000
 20
32.435000
 40
0.000000
 41
0.000000
 42
0.000000
  0
VERTEX
  8
PIN_SOLDERMASK_BOTTOM
 10
-46.310000
 20
32.065000
 40
0.000000
 41
0.000000
 42
0.000000
  0
SEQEND
  0
POLYLINE
  8
PIN_SOLDERMASK_BOTTOM
 66
1
 70
1
 40
0.000000
 41
0.000000
 39
0.000000
  0
VERTEX
  8
PIN_SOLDERMASK_BOTTOM
 10
-44.090000
 20
31.565000
 40
0.000000
 41
0.000000
 42
0.000000
  0
VERTEX
  8
PIN_SOLDERMASK_BOTTOM
 10
-44.090000
 20
31.935000
 40
0.000000
 41
0.000000
 42
0.000000
  0
VERTEX
  8
PIN_SOLDERMASK_BOTTOM
 10
-46.310000
 20
31.935000
 40
0.000000
 41
0.000000
 42
0.000000
  0
VERTEX
  8
PIN_SOLDERMASK_BOTTOM
 10
-46.310000
 20
31.565000
 40
0.000000
 41
0.000000
 42
0.000000
  0
SEQEND
  0
POLYLINE
  8
PIN_SOLDERMASK_BOTTOM
 66
1
 70
1
 40
0.000000
 41
0.000000
 39
0.000000
  0
VERTEX
  8
PIN_SOLDERMASK_BOTTOM
 10
-44.090000
 20
31.065000
 40
0.000000
 41
0.000000
 42
0.000000
  0
VERTEX
  8
PIN_SOLDERMASK_BOTTOM
 10
-44.090000
 20
31.435000
 40
0.000000
 41
0.000000
 42
0.000000
  0
VERTEX
  8
PIN_SOLDERMASK_BOTTOM
 10
-46.310000
 20
31.435000
 40
0.000000
 41
0.000000
 42
0.000000
  0
VERTEX
  8
PIN_SOLDERMASK_BOTTOM
 10
-46.310000
 20
31.065000
 40
0.000000
 41
0.000000
 42
0.000000
  0
SEQEND
  0
POLYLINE
  8
PIN_SOLDERMASK_BOTTOM
 66
1
 70
1
 40
0.000000
 41
0.000000
 39
0.000000
  0
VERTEX
  8
PIN_SOLDERMASK_BOTTOM
 10
-44.090000
 20
30.565000
 40
0.000000
 41
0.000000
 42
0.000000
  0
VERTEX
  8
PIN_SOLDERMASK_BOTTOM
 10
-44.090000
 20
30.935000
 40
0.000000
 41
0.000000
 42
0.000000
  0
VERTEX
  8
PIN_SOLDERMASK_BOTTOM
 10
-46.310000
 20
30.935000
 40
0.000000
 41
0.000000
 42
0.000000
  0
VERTEX
  8
PIN_SOLDERMASK_BOTTOM
 10
-46.310000
 20
30.565000
 40
0.000000
 41
0.000000
 42
0.000000
  0
SEQEND
  0
POLYLINE
  8
PIN_SOLDERMASK_BOTTOM
 66
1
 70
1
 40
0.000000
 41
0.000000
 39
0.000000
  0
VERTEX
  8
PIN_SOLDERMASK_BOTTOM
 10
-44.090000
 20
30.065000
 40
0.000000
 41
0.000000
 42
0.000000
  0
VERTEX
  8
PIN_SOLDERMASK_BOTTOM
 10
-44.090000
 20
30.435000
 40
0.000000
 41
0.000000
 42
0.000000
  0
VERTEX
  8
PIN_SOLDERMASK_BOTTOM
 10
-46.310000
 20
30.435000
 40
0.000000
 41
0.000000
 42
0.000000
  0
VERTEX
  8
PIN_SOLDERMASK_BOTTOM
 10
-46.310000
 20
30.065000
 40
0.000000
 41
0.000000
 42
0.000000
  0
SEQEND
  0
POLYLINE
  8
PIN_SOLDERMASK_BOTTOM
 66
1
 70
1
 40
0.000000
 41
0.000000
 39
0.000000
  0
VERTEX
  8
PIN_SOLDERMASK_BOTTOM
 10
-44.090000
 20
29.565000
 40
0.000000
 41
0.000000
 42
0.000000
  0
VERTEX
  8
PIN_SOLDERMASK_BOTTOM
 10
-44.090000
 20
29.935000
 40
0.000000
 41
0.000000
 42
0.000000
  0
VERTEX
  8
PIN_SOLDERMASK_BOTTOM
 10
-46.310000
 20
29.935000
 40
0.000000
 41
0.000000
 42
0.000000
  0
VERTEX
  8
PIN_SOLDERMASK_BOTTOM
 10
-46.310000
 20
29.565000
 40
0.000000
 41
0.000000
 42
0.000000
  0
SEQEND
  0
POLYLINE
  8
PIN_SOLDERMASK_BOTTOM
 66
1
 70
1
 40
0.000000
 41
0.000000
 39
0.000000
  0
VERTEX
  8
PIN_SOLDERMASK_BOTTOM
 10
-44.090000
 20
29.065000
 40
0.000000
 41
0.000000
 42
0.000000
  0
VERTEX
  8
PIN_SOLDERMASK_BOTTOM
 10
-44.090000
 20
29.435000
 40
0.000000
 41
0.000000
 42
0.000000
  0
VERTEX
  8
PIN_SOLDERMASK_BOTTOM
 10
-46.310000
 20
29.435000
 40
0.000000
 41
0.000000
 42
0.000000
  0
VERTEX
  8
PIN_SOLDERMASK_BOTTOM
 10
-46.310000
 20
29.065000
 40
0.000000
 41
0.000000
 42
0.000000
  0
SEQEND
  0
POLYLINE
  8
PIN_SOLDERMASK_BOTTOM
 66
1
 70
1
 40
0.000000
 41
0.000000
 39
0.000000
  0
VERTEX
  8
PIN_SOLDERMASK_BOTTOM
 10
-44.090000
 20
28.565000
 40
0.000000
 41
0.000000
 42
0.000000
  0
VERTEX
  8
PIN_SOLDERMASK_BOTTOM
 10
-44.090000
 20
28.935000
 40
0.000000
 41
0.000000
 42
0.000000
  0
VERTEX
  8
PIN_SOLDERMASK_BOTTOM
 10
-46.310000
 20
28.935000
 40
0.000000
 41
0.000000
 42
0.000000
  0
VERTEX
  8
PIN_SOLDERMASK_BOTTOM
 10
-46.310000
 20
28.565000
 40
0.000000
 41
0.000000
 42
0.000000
  0
SEQEND
  0
POLYLINE
  8
PIN_SOLDERMASK_BOTTOM
 66
1
 70
1
 40
0.000000
 41
0.000000
 39
0.000000
  0
VERTEX
  8
PIN_SOLDERMASK_BOTTOM
 10
-44.090000
 20
28.065000
 40
0.000000
 41
0.000000
 42
0.000000
  0
VERTEX
  8
PIN_SOLDERMASK_BOTTOM
 10
-44.090000
 20
28.435000
 40
0.000000
 41
0.000000
 42
0.000000
  0
VERTEX
  8
PIN_SOLDERMASK_BOTTOM
 10
-46.310000
 20
28.435000
 40
0.000000
 41
0.000000
 42
0.000000
  0
VERTEX
  8
PIN_SOLDERMASK_BOTTOM
 10
-46.310000
 20
28.065000
 40
0.000000
 41
0.000000
 42
0.000000
  0
SEQEND
  0
POLYLINE
  8
PIN_SOLDERMASK_BOTTOM
 66
1
 70
1
 40
0.000000
 41
0.000000
 39
0.000000
  0
VERTEX
  8
PIN_SOLDERMASK_BOTTOM
 10
-44.090000
 20
27.565000
 40
0.000000
 41
0.000000
 42
0.000000
  0
VERTEX
  8
PIN_SOLDERMASK_BOTTOM
 10
-44.090000
 20
27.935000
 40
0.000000
 41
0.000000
 42
0.000000
  0
VERTEX
  8
PIN_SOLDERMASK_BOTTOM
 10
-46.310000
 20
27.935000
 40
0.000000
 41
0.000000
 42
0.000000
  0
VERTEX
  8
PIN_SOLDERMASK_BOTTOM
 10
-46.310000
 20
27.565000
 40
0.000000
 41
0.000000
 42
0.000000
  0
SEQEND
  0
POLYLINE
  8
PIN_SOLDERMASK_BOTTOM
 66
1
 70
1
 40
0.000000
 41
0.000000
 39
0.000000
  0
VERTEX
  8
PIN_SOLDERMASK_BOTTOM
 10
-44.090000
 20
27.065000
 40
0.000000
 41
0.000000
 42
0.000000
  0
VERTEX
  8
PIN_SOLDERMASK_BOTTOM
 10
-44.090000
 20
27.435000
 40
0.000000
 41
0.000000
 42
0.000000
  0
VERTEX
  8
PIN_SOLDERMASK_BOTTOM
 10
-46.310000
 20
27.435000
 40
0.000000
 41
0.000000
 42
0.000000
  0
VERTEX
  8
PIN_SOLDERMASK_BOTTOM
 10
-46.310000
 20
27.065000
 40
0.000000
 41
0.000000
 42
0.000000
  0
SEQEND
  0
POLYLINE
  8
PIN_SOLDERMASK_BOTTOM
 66
1
 70
1
 40
0.000000
 41
0.000000
 39
0.000000
  0
VERTEX
  8
PIN_SOLDERMASK_BOTTOM
 10
-44.090000
 20
26.565000
 40
0.000000
 41
0.000000
 42
0.000000
  0
VERTEX
  8
PIN_SOLDERMASK_BOTTOM
 10
-44.090000
 20
26.935000
 40
0.000000
 41
0.000000
 42
0.000000
  0
VERTEX
  8
PIN_SOLDERMASK_BOTTOM
 10
-46.310000
 20
26.935000
 40
0.000000
 41
0.000000
 42
0.000000
  0
VERTEX
  8
PIN_SOLDERMASK_BOTTOM
 10
-46.310000
 20
26.565000
 40
0.000000
 41
0.000000
 42
0.000000
  0
SEQEND
  0
POLYLINE
  8
PIN_SOLDERMASK_BOTTOM
 66
1
 70
1
 40
0.000000
 41
0.000000
 39
0.000000
  0
VERTEX
  8
PIN_SOLDERMASK_BOTTOM
 10
-44.090000
 20
26.065000
 40
0.000000
 41
0.000000
 42
0.000000
  0
VERTEX
  8
PIN_SOLDERMASK_BOTTOM
 10
-44.090000
 20
26.435000
 40
0.000000
 41
0.000000
 42
0.000000
  0
VERTEX
  8
PIN_SOLDERMASK_BOTTOM
 10
-46.310000
 20
26.435000
 40
0.000000
 41
0.000000
 42
0.000000
  0
VERTEX
  8
PIN_SOLDERMASK_BOTTOM
 10
-46.310000
 20
26.065000
 40
0.000000
 41
0.000000
 42
0.000000
  0
SEQEND
  0
POLYLINE
  8
PIN_SOLDERMASK_BOTTOM
 66
1
 70
1
 40
0.000000
 41
0.000000
 39
0.000000
  0
VERTEX
  8
PIN_SOLDERMASK_BOTTOM
 10
-44.090000
 20
25.565000
 40
0.000000
 41
0.000000
 42
0.000000
  0
VERTEX
  8
PIN_SOLDERMASK_BOTTOM
 10
-44.090000
 20
25.935000
 40
0.000000
 41
0.000000
 42
0.000000
  0
VERTEX
  8
PIN_SOLDERMASK_BOTTOM
 10
-46.310000
 20
25.935000
 40
0.000000
 41
0.000000
 42
0.000000
  0
VERTEX
  8
PIN_SOLDERMASK_BOTTOM
 10
-46.310000
 20
25.565000
 40
0.000000
 41
0.000000
 42
0.000000
  0
SEQEND
  0
POLYLINE
  8
PIN_SOLDERMASK_BOTTOM
 66
1
 70
1
 40
0.000000
 41
0.000000
 39
0.000000
  0
VERTEX
  8
PIN_SOLDERMASK_BOTTOM
 10
-44.090000
 20
25.065000
 40
0.000000
 41
0.000000
 42
0.000000
  0
VERTEX
  8
PIN_SOLDERMASK_BOTTOM
 10
-44.090000
 20
25.435000
 40
0.000000
 41
0.000000
 42
0.000000
  0
VERTEX
  8
PIN_SOLDERMASK_BOTTOM
 10
-46.310000
 20
25.435000
 40
0.000000
 41
0.000000
 42
0.000000
  0
VERTEX
  8
PIN_SOLDERMASK_BOTTOM
 10
-46.310000
 20
25.065000
 40
0.000000
 41
0.000000
 42
0.000000
  0
SEQEND
  0
POLYLINE
  8
PIN_SOLDERMASK_BOTTOM
 66
1
 70
1
 40
0.000000
 41
0.000000
 39
0.000000
  0
VERTEX
  8
PIN_SOLDERMASK_BOTTOM
 10
-44.090000
 20
24.565000
 40
0.000000
 41
0.000000
 42
0.000000
  0
VERTEX
  8
PIN_SOLDERMASK_BOTTOM
 10
-44.090000
 20
24.935000
 40
0.000000
 41
0.000000
 42
0.000000
  0
VERTEX
  8
PIN_SOLDERMASK_BOTTOM
 10
-46.310000
 20
24.935000
 40
0.000000
 41
0.000000
 42
0.000000
  0
VERTEX
  8
PIN_SOLDERMASK_BOTTOM
 10
-46.310000
 20
24.565000
 40
0.000000
 41
0.000000
 42
0.000000
  0
SEQEND
  0
POLYLINE
  8
PIN_SOLDERMASK_BOTTOM
 66
1
 70
1
 40
0.000000
 41
0.000000
 39
0.000000
  0
VERTEX
  8
PIN_SOLDERMASK_BOTTOM
 10
-44.090000
 20
24.065000
 40
0.000000
 41
0.000000
 42
0.000000
  0
VERTEX
  8
PIN_SOLDERMASK_BOTTOM
 10
-44.090000
 20
24.435000
 40
0.000000
 41
0.000000
 42
0.000000
  0
VERTEX
  8
PIN_SOLDERMASK_BOTTOM
 10
-46.310000
 20
24.435000
 40
0.000000
 41
0.000000
 42
0.000000
  0
VERTEX
  8
PIN_SOLDERMASK_BOTTOM
 10
-46.310000
 20
24.065000
 40
0.000000
 41
0.000000
 42
0.000000
  0
SEQEND
  0
POLYLINE
  8
PIN_SOLDERMASK_BOTTOM
 66
1
 70
1
 40
0.000000
 41
0.000000
 39
0.000000
  0
VERTEX
  8
PIN_SOLDERMASK_BOTTOM
 10
-44.090000
 20
23.565000
 40
0.000000
 41
0.000000
 42
0.000000
  0
VERTEX
  8
PIN_SOLDERMASK_BOTTOM
 10
-44.090000
 20
23.935000
 40
0.000000
 41
0.000000
 42
0.000000
  0
VERTEX
  8
PIN_SOLDERMASK_BOTTOM
 10
-46.310000
 20
23.935000
 40
0.000000
 41
0.000000
 42
0.000000
  0
VERTEX
  8
PIN_SOLDERMASK_BOTTOM
 10
-46.310000
 20
23.565000
 40
0.000000
 41
0.000000
 42
0.000000
  0
SEQEND
  0
POLYLINE
  8
PIN_SOLDERMASK_BOTTOM
 66
1
 70
1
 40
0.000000
 41
0.000000
 39
0.000000
  0
VERTEX
  8
PIN_SOLDERMASK_BOTTOM
 10
-44.090000
 20
23.065000
 40
0.000000
 41
0.000000
 42
0.000000
  0
VERTEX
  8
PIN_SOLDERMASK_BOTTOM
 10
-44.090000
 20
23.435000
 40
0.000000
 41
0.000000
 42
0.000000
  0
VERTEX
  8
PIN_SOLDERMASK_BOTTOM
 10
-46.310000
 20
23.435000
 40
0.000000
 41
0.000000
 42
0.000000
  0
VERTEX
  8
PIN_SOLDERMASK_BOTTOM
 10
-46.310000
 20
23.065000
 40
0.000000
 41
0.000000
 42
0.000000
  0
SEQEND
  0
POLYLINE
  8
PIN_SOLDERMASK_BOTTOM
 66
1
 70
1
 40
0.000000
 41
0.000000
 39
0.000000
  0
VERTEX
  8
PIN_SOLDERMASK_BOTTOM
 10
-44.090000
 20
22.565000
 40
0.000000
 41
0.000000
 42
0.000000
  0
VERTEX
  8
PIN_SOLDERMASK_BOTTOM
 10
-44.090000
 20
22.935000
 40
0.000000
 41
0.000000
 42
0.000000
  0
VERTEX
  8
PIN_SOLDERMASK_BOTTOM
 10
-46.310000
 20
22.935000
 40
0.000000
 41
0.000000
 42
0.000000
  0
VERTEX
  8
PIN_SOLDERMASK_BOTTOM
 10
-46.310000
 20
22.565000
 40
0.000000
 41
0.000000
 42
0.000000
  0
SEQEND
  0
POLYLINE
  8
PIN_SOLDERMASK_BOTTOM
 66
1
 70
1
 40
0.000000
 41
0.000000
 39
0.000000
  0
VERTEX
  8
PIN_SOLDERMASK_BOTTOM
 10
-44.090000
 20
22.065000
 40
0.000000
 41
0.000000
 42
0.000000
  0
VERTEX
  8
PIN_SOLDERMASK_BOTTOM
 10
-44.090000
 20
22.435000
 40
0.000000
 41
0.000000
 42
0.000000
  0
VERTEX
  8
PIN_SOLDERMASK_BOTTOM
 10
-46.310000
 20
22.435000
 40
0.000000
 41
0.000000
 42
0.000000
  0
VERTEX
  8
PIN_SOLDERMASK_BOTTOM
 10
-46.310000
 20
22.065000
 40
0.000000
 41
0.000000
 42
0.000000
  0
SEQEND
  0
POLYLINE
  8
PIN_SOLDERMASK_BOTTOM
 66
1
 70
1
 40
0.000000
 41
0.000000
 39
0.000000
  0
VERTEX
  8
PIN_SOLDERMASK_BOTTOM
 10
-44.090000
 20
21.565000
 40
0.000000
 41
0.000000
 42
0.000000
  0
VERTEX
  8
PIN_SOLDERMASK_BOTTOM
 10
-44.090000
 20
21.935000
 40
0.000000
 41
0.000000
 42
0.000000
  0
VERTEX
  8
PIN_SOLDERMASK_BOTTOM
 10
-46.310000
 20
21.935000
 40
0.000000
 41
0.000000
 42
0.000000
  0
VERTEX
  8
PIN_SOLDERMASK_BOTTOM
 10
-46.310000
 20
21.565000
 40
0.000000
 41
0.000000
 42
0.000000
  0
SEQEND
  0
POLYLINE
  8
PIN_SOLDERMASK_BOTTOM
 66
1
 70
1
 40
0.000000
 41
0.000000
 39
0.000000
  0
VERTEX
  8
PIN_SOLDERMASK_BOTTOM
 10
-44.090000
 20
21.065000
 40
0.000000
 41
0.000000
 42
0.000000
  0
VERTEX
  8
PIN_SOLDERMASK_BOTTOM
 10
-44.090000
 20
21.435000
 40
0.000000
 41
0.000000
 42
0.000000
  0
VERTEX
  8
PIN_SOLDERMASK_BOTTOM
 10
-46.310000
 20
21.435000
 40
0.000000
 41
0.000000
 42
0.000000
  0
VERTEX
  8
PIN_SOLDERMASK_BOTTOM
 10
-46.310000
 20
21.065000
 40
0.000000
 41
0.000000
 42
0.000000
  0
SEQEND
  0
POLYLINE
  8
PIN_SOLDERMASK_BOTTOM
 66
1
 70
1
 40
0.000000
 41
0.000000
 39
0.000000
  0
VERTEX
  8
PIN_SOLDERMASK_BOTTOM
 10
-44.090000
 20
20.565000
 40
0.000000
 41
0.000000
 42
0.000000
  0
VERTEX
  8
PIN_SOLDERMASK_BOTTOM
 10
-44.090000
 20
20.935000
 40
0.000000
 41
0.000000
 42
0.000000
  0
VERTEX
  8
PIN_SOLDERMASK_BOTTOM
 10
-46.310000
 20
20.935000
 40
0.000000
 41
0.000000
 42
0.000000
  0
VERTEX
  8
PIN_SOLDERMASK_BOTTOM
 10
-46.310000
 20
20.565000
 40
0.000000
 41
0.000000
 42
0.000000
  0
SEQEND
  0
POLYLINE
  8
PIN_SOLDERMASK_BOTTOM
 66
1
 70
1
 40
0.000000
 41
0.000000
 39
0.000000
  0
VERTEX
  8
PIN_SOLDERMASK_BOTTOM
 10
-44.090000
 20
20.065000
 40
0.000000
 41
0.000000
 42
0.000000
  0
VERTEX
  8
PIN_SOLDERMASK_BOTTOM
 10
-44.090000
 20
20.435000
 40
0.000000
 41
0.000000
 42
0.000000
  0
VERTEX
  8
PIN_SOLDERMASK_BOTTOM
 10
-46.310000
 20
20.435000
 40
0.000000
 41
0.000000
 42
0.000000
  0
VERTEX
  8
PIN_SOLDERMASK_BOTTOM
 10
-46.310000
 20
20.065000
 40
0.000000
 41
0.000000
 42
0.000000
  0
SEQEND
  0
POLYLINE
  8
PIN_SOLDERMASK_BOTTOM
 66
1
 70
1
 40
0.000000
 41
0.000000
 39
0.000000
  0
VERTEX
  8
PIN_SOLDERMASK_BOTTOM
 10
-44.090000
 20
19.565000
 40
0.000000
 41
0.000000
 42
0.000000
  0
VERTEX
  8
PIN_SOLDERMASK_BOTTOM
 10
-44.090000
 20
19.935000
 40
0.000000
 41
0.000000
 42
0.000000
  0
VERTEX
  8
PIN_SOLDERMASK_BOTTOM
 10
-46.310000
 20
19.935000
 40
0.000000
 41
0.000000
 42
0.000000
  0
VERTEX
  8
PIN_SOLDERMASK_BOTTOM
 10
-46.310000
 20
19.565000
 40
0.000000
 41
0.000000
 42
0.000000
  0
SEQEND
  0
POLYLINE
  8
PIN_SOLDERMASK_BOTTOM
 66
1
 70
1
 40
0.000000
 41
0.000000
 39
0.000000
  0
VERTEX
  8
PIN_SOLDERMASK_BOTTOM
 10
-44.090000
 20
19.065000
 40
0.000000
 41
0.000000
 42
0.000000
  0
VERTEX
  8
PIN_SOLDERMASK_BOTTOM
 10
-44.090000
 20
19.435000
 40
0.000000
 41
0.000000
 42
0.000000
  0
VERTEX
  8
PIN_SOLDERMASK_BOTTOM
 10
-46.310000
 20
19.435000
 40
0.000000
 41
0.000000
 42
0.000000
  0
VERTEX
  8
PIN_SOLDERMASK_BOTTOM
 10
-46.310000
 20
19.065000
 40
0.000000
 41
0.000000
 42
0.000000
  0
SEQEND
  0
POLYLINE
  8
PIN_SOLDERMASK_BOTTOM
 66
1
 70
1
 40
0.000000
 41
0.000000
 39
0.000000
  0
VERTEX
  8
PIN_SOLDERMASK_BOTTOM
 10
-44.090000
 20
18.565000
 40
0.000000
 41
0.000000
 42
0.000000
  0
VERTEX
  8
PIN_SOLDERMASK_BOTTOM
 10
-44.090000
 20
18.935000
 40
0.000000
 41
0.000000
 42
0.000000
  0
VERTEX
  8
PIN_SOLDERMASK_BOTTOM
 10
-46.310000
 20
18.935000
 40
0.000000
 41
0.000000
 42
0.000000
  0
VERTEX
  8
PIN_SOLDERMASK_BOTTOM
 10
-46.310000
 20
18.565000
 40
0.000000
 41
0.000000
 42
0.000000
  0
SEQEND
  0
POLYLINE
  8
PIN_SOLDERMASK_BOTTOM
 66
1
 70
1
 40
0.000000
 41
0.000000
 39
0.000000
  0
VERTEX
  8
PIN_SOLDERMASK_BOTTOM
 10
-44.090000
 20
18.065000
 40
0.000000
 41
0.000000
 42
0.000000
  0
VERTEX
  8
PIN_SOLDERMASK_BOTTOM
 10
-44.090000
 20
18.435000
 40
0.000000
 41
0.000000
 42
0.000000
  0
VERTEX
  8
PIN_SOLDERMASK_BOTTOM
 10
-46.310000
 20
18.435000
 40
0.000000
 41
0.000000
 42
0.000000
  0
VERTEX
  8
PIN_SOLDERMASK_BOTTOM
 10
-46.310000
 20
18.065000
 40
0.000000
 41
0.000000
 42
0.000000
  0
SEQEND
  0
POLYLINE
  8
PIN_SOLDERMASK_BOTTOM
 66
1
 70
1
 40
0.000000
 41
0.000000
 39
0.000000
  0
VERTEX
  8
PIN_SOLDERMASK_BOTTOM
 10
-44.090000
 20
17.565000
 40
0.000000
 41
0.000000
 42
0.000000
  0
VERTEX
  8
PIN_SOLDERMASK_BOTTOM
 10
-44.090000
 20
17.935000
 40
0.000000
 41
0.000000
 42
0.000000
  0
VERTEX
  8
PIN_SOLDERMASK_BOTTOM
 10
-46.310000
 20
17.935000
 40
0.000000
 41
0.000000
 42
0.000000
  0
VERTEX
  8
PIN_SOLDERMASK_BOTTOM
 10
-46.310000
 20
17.565000
 40
0.000000
 41
0.000000
 42
0.000000
  0
SEQEND
  0
POLYLINE
  8
PIN_SOLDERMASK_BOTTOM
 66
1
 70
1
 40
0.000000
 41
0.000000
 39
0.000000
  0
VERTEX
  8
PIN_SOLDERMASK_BOTTOM
 10
-44.090000
 20
17.065000
 40
0.000000
 41
0.000000
 42
0.000000
  0
VERTEX
  8
PIN_SOLDERMASK_BOTTOM
 10
-44.090000
 20
17.435000
 40
0.000000
 41
0.000000
 42
0.000000
  0
VERTEX
  8
PIN_SOLDERMASK_BOTTOM
 10
-46.310000
 20
17.435000
 40
0.000000
 41
0.000000
 42
0.000000
  0
VERTEX
  8
PIN_SOLDERMASK_BOTTOM
 10
-46.310000
 20
17.065000
 40
0.000000
 41
0.000000
 42
0.000000
  0
SEQEND
  0
POLYLINE
  8
PIN_SOLDERMASK_BOTTOM
 66
1
 70
1
 40
0.000000
 41
0.000000
 39
0.000000
  0
VERTEX
  8
PIN_SOLDERMASK_BOTTOM
 10
-44.090000
 20
16.565000
 40
0.000000
 41
0.000000
 42
0.000000
  0
VERTEX
  8
PIN_SOLDERMASK_BOTTOM
 10
-44.090000
 20
16.935000
 40
0.000000
 41
0.000000
 42
0.000000
  0
VERTEX
  8
PIN_SOLDERMASK_BOTTOM
 10
-46.310000
 20
16.935000
 40
0.000000
 41
0.000000
 42
0.000000
  0
VERTEX
  8
PIN_SOLDERMASK_BOTTOM
 10
-46.310000
 20
16.565000
 40
0.000000
 41
0.000000
 42
0.000000
  0
SEQEND
  0
POLYLINE
  8
PIN_SOLDERMASK_BOTTOM
 66
1
 70
1
 40
0.000000
 41
0.000000
 39
0.000000
  0
VERTEX
  8
PIN_SOLDERMASK_BOTTOM
 10
-44.090000
 20
16.065000
 40
0.000000
 41
0.000000
 42
0.000000
  0
VERTEX
  8
PIN_SOLDERMASK_BOTTOM
 10
-44.090000
 20
16.435000
 40
0.000000
 41
0.000000
 42
0.000000
  0
VERTEX
  8
PIN_SOLDERMASK_BOTTOM
 10
-46.310000
 20
16.435000
 40
0.000000
 41
0.000000
 42
0.000000
  0
VERTEX
  8
PIN_SOLDERMASK_BOTTOM
 10
-46.310000
 20
16.065000
 40
0.000000
 41
0.000000
 42
0.000000
  0
SEQEND
  0
POLYLINE
  8
PIN_SOLDERMASK_BOTTOM
 66
1
 70
1
 40
0.000000
 41
0.000000
 39
0.000000
  0
VERTEX
  8
PIN_SOLDERMASK_BOTTOM
 10
-44.090000
 20
15.565000
 40
0.000000
 41
0.000000
 42
0.000000
  0
VERTEX
  8
PIN_SOLDERMASK_BOTTOM
 10
-44.090000
 20
15.935000
 40
0.000000
 41
0.000000
 42
0.000000
  0
VERTEX
  8
PIN_SOLDERMASK_BOTTOM
 10
-46.310000
 20
15.935000
 40
0.000000
 41
0.000000
 42
0.000000
  0
VERTEX
  8
PIN_SOLDERMASK_BOTTOM
 10
-46.310000
 20
15.565000
 40
0.000000
 41
0.000000
 42
0.000000
  0
SEQEND
  0
POLYLINE
  8
PIN_SOLDERMASK_BOTTOM
 66
1
 70
1
 40
0.000000
 41
0.000000
 39
0.000000
  0
VERTEX
  8
PIN_SOLDERMASK_BOTTOM
 10
-44.090000
 20
15.065000
 40
0.000000
 41
0.000000
 42
0.000000
  0
VERTEX
  8
PIN_SOLDERMASK_BOTTOM
 10
-44.090000
 20
15.435000
 40
0.000000
 41
0.000000
 42
0.000000
  0
VERTEX
  8
PIN_SOLDERMASK_BOTTOM
 10
-46.310000
 20
15.435000
 40
0.000000
 41
0.000000
 42
0.000000
  0
VERTEX
  8
PIN_SOLDERMASK_BOTTOM
 10
-46.310000
 20
15.065000
 40
0.000000
 41
0.000000
 42
0.000000
  0
SEQEND
  0
POLYLINE
  8
PIN_SOLDERMASK_BOTTOM
 66
1
 70
1
 40
0.000000
 41
0.000000
 39
0.000000
  0
VERTEX
  8
PIN_SOLDERMASK_BOTTOM
 10
-44.090000
 20
14.565000
 40
0.000000
 41
0.000000
 42
0.000000
  0
VERTEX
  8
PIN_SOLDERMASK_BOTTOM
 10
-44.090000
 20
14.935000
 40
0.000000
 41
0.000000
 42
0.000000
  0
VERTEX
  8
PIN_SOLDERMASK_BOTTOM
 10
-46.310000
 20
14.935000
 40
0.000000
 41
0.000000
 42
0.000000
  0
VERTEX
  8
PIN_SOLDERMASK_BOTTOM
 10
-46.310000
 20
14.565000
 40
0.000000
 41
0.000000
 42
0.000000
  0
SEQEND
  0
POLYLINE
  8
PIN_SOLDERMASK_BOTTOM
 66
1
 70
1
 40
0.000000
 41
0.000000
 39
0.000000
  0
VERTEX
  8
PIN_SOLDERMASK_BOTTOM
 10
-44.090000
 20
14.065000
 40
0.000000
 41
0.000000
 42
0.000000
  0
VERTEX
  8
PIN_SOLDERMASK_BOTTOM
 10
-44.090000
 20
14.435000
 40
0.000000
 41
0.000000
 42
0.000000
  0
VERTEX
  8
PIN_SOLDERMASK_BOTTOM
 10
-46.310000
 20
14.435000
 40
0.000000
 41
0.000000
 42
0.000000
  0
VERTEX
  8
PIN_SOLDERMASK_BOTTOM
 10
-46.310000
 20
14.065000
 40
0.000000
 41
0.000000
 42
0.000000
  0
SEQEND
  0
POLYLINE
  8
PIN_SOLDERMASK_BOTTOM
 66
1
 70
1
 40
0.000000
 41
0.000000
 39
0.000000
  0
VERTEX
  8
PIN_SOLDERMASK_BOTTOM
 10
-44.090000
 20
13.565000
 40
0.000000
 41
0.000000
 42
0.000000
  0
VERTEX
  8
PIN_SOLDERMASK_BOTTOM
 10
-44.090000
 20
13.935000
 40
0.000000
 41
0.000000
 42
0.000000
  0
VERTEX
  8
PIN_SOLDERMASK_BOTTOM
 10
-46.310000
 20
13.935000
 40
0.000000
 41
0.000000
 42
0.000000
  0
VERTEX
  8
PIN_SOLDERMASK_BOTTOM
 10
-46.310000
 20
13.565000
 40
0.000000
 41
0.000000
 42
0.000000
  0
SEQEND
  0
POLYLINE
  8
PIN_SOLDERMASK_BOTTOM
 66
1
 70
1
 40
0.000000
 41
0.000000
 39
0.000000
  0
VERTEX
  8
PIN_SOLDERMASK_BOTTOM
 10
-44.090000
 20
13.065000
 40
0.000000
 41
0.000000
 42
0.000000
  0
VERTEX
  8
PIN_SOLDERMASK_BOTTOM
 10
-44.090000
 20
13.435000
 40
0.000000
 41
0.000000
 42
0.000000
  0
VERTEX
  8
PIN_SOLDERMASK_BOTTOM
 10
-46.310000
 20
13.435000
 40
0.000000
 41
0.000000
 42
0.000000
  0
VERTEX
  8
PIN_SOLDERMASK_BOTTOM
 10
-46.310000
 20
13.065000
 40
0.000000
 41
0.000000
 42
0.000000
  0
SEQEND
  0
POLYLINE
  8
PIN_SOLDERMASK_BOTTOM
 66
1
 70
1
 40
0.000000
 41
0.000000
 39
0.000000
  0
VERTEX
  8
PIN_SOLDERMASK_BOTTOM
 10
-44.090000
 20
12.565000
 40
0.000000
 41
0.000000
 42
0.000000
  0
VERTEX
  8
PIN_SOLDERMASK_BOTTOM
 10
-44.090000
 20
12.935000
 40
0.000000
 41
0.000000
 42
0.000000
  0
VERTEX
  8
PIN_SOLDERMASK_BOTTOM
 10
-46.310000
 20
12.935000
 40
0.000000
 41
0.000000
 42
0.000000
  0
VERTEX
  8
PIN_SOLDERMASK_BOTTOM
 10
-46.310000
 20
12.565000
 40
0.000000
 41
0.000000
 42
0.000000
  0
SEQEND
  0
POLYLINE
  8
PIN_SOLDERMASK_BOTTOM
 66
1
 70
1
 40
0.000000
 41
0.000000
 39
0.000000
  0
VERTEX
  8
PIN_SOLDERMASK_BOTTOM
 10
-44.090000
 20
12.065000
 40
0.000000
 41
0.000000
 42
0.000000
  0
VERTEX
  8
PIN_SOLDERMASK_BOTTOM
 10
-44.090000
 20
12.435000
 40
0.000000
 41
0.000000
 42
0.000000
  0
VERTEX
  8
PIN_SOLDERMASK_BOTTOM
 10
-46.310000
 20
12.435000
 40
0.000000
 41
0.000000
 42
0.000000
  0
VERTEX
  8
PIN_SOLDERMASK_BOTTOM
 10
-46.310000
 20
12.065000
 40
0.000000
 41
0.000000
 42
0.000000
  0
SEQEND
  0
POLYLINE
  8
PIN_SOLDERMASK_BOTTOM
 66
1
 70
1
 40
0.000000
 41
0.000000
 39
0.000000
  0
VERTEX
  8
PIN_SOLDERMASK_BOTTOM
 10
-44.090000
 20
11.565000
 40
0.000000
 41
0.000000
 42
0.000000
  0
VERTEX
  8
PIN_SOLDERMASK_BOTTOM
 10
-44.090000
 20
11.935000
 40
0.000000
 41
0.000000
 42
0.000000
  0
VERTEX
  8
PIN_SOLDERMASK_BOTTOM
 10
-46.310000
 20
11.935000
 40
0.000000
 41
0.000000
 42
0.000000
  0
VERTEX
  8
PIN_SOLDERMASK_BOTTOM
 10
-46.310000
 20
11.565000
 40
0.000000
 41
0.000000
 42
0.000000
  0
SEQEND
  0
POLYLINE
  8
PIN_SOLDERMASK_BOTTOM
 66
1
 70
1
 40
0.000000
 41
0.000000
 39
0.000000
  0
VERTEX
  8
PIN_SOLDERMASK_BOTTOM
 10
-44.090000
 20
11.065000
 40
0.000000
 41
0.000000
 42
0.000000
  0
VERTEX
  8
PIN_SOLDERMASK_BOTTOM
 10
-44.090000
 20
11.435000
 40
0.000000
 41
0.000000
 42
0.000000
  0
VERTEX
  8
PIN_SOLDERMASK_BOTTOM
 10
-46.310000
 20
11.435000
 40
0.000000
 41
0.000000
 42
0.000000
  0
VERTEX
  8
PIN_SOLDERMASK_BOTTOM
 10
-46.310000
 20
11.065000
 40
0.000000
 41
0.000000
 42
0.000000
  0
SEQEND
  0
POLYLINE
  8
PIN_SOLDERMASK_BOTTOM
 66
1
 70
1
 40
0.000000
 41
0.000000
 39
0.000000
  0
VERTEX
  8
PIN_SOLDERMASK_BOTTOM
 10
-44.090000
 20
10.565000
 40
0.000000
 41
0.000000
 42
0.000000
  0
VERTEX
  8
PIN_SOLDERMASK_BOTTOM
 10
-44.090000
 20
10.935000
 40
0.000000
 41
0.000000
 42
0.000000
  0
VERTEX
  8
PIN_SOLDERMASK_BOTTOM
 10
-46.310000
 20
10.935000
 40
0.000000
 41
0.000000
 42
0.000000
  0
VERTEX
  8
PIN_SOLDERMASK_BOTTOM
 10
-46.310000
 20
10.565000
 40
0.000000
 41
0.000000
 42
0.000000
  0
SEQEND
  0
POLYLINE
  8
PIN_SOLDERMASK_BOTTOM
 66
1
 70
1
 40
0.000000
 41
0.000000
 39
0.000000
  0
VERTEX
  8
PIN_SOLDERMASK_BOTTOM
 10
-48.690000
 20
10.565000
 40
0.000000
 41
0.000000
 42
0.000000
  0
VERTEX
  8
PIN_SOLDERMASK_BOTTOM
 10
-48.690000
 20
10.935000
 40
0.000000
 41
0.000000
 42
0.000000
  0
VERTEX
  8
PIN_SOLDERMASK_BOTTOM
 10
-50.910000
 20
10.935000
 40
0.000000
 41
0.000000
 42
0.000000
  0
VERTEX
  8
PIN_SOLDERMASK_BOTTOM
 10
-50.910000
 20
10.565000
 40
0.000000
 41
0.000000
 42
0.000000
  0
SEQEND
  0
POLYLINE
  8
PIN_SOLDERMASK_BOTTOM
 66
1
 70
1
 40
0.000000
 41
0.000000
 39
0.000000
  0
VERTEX
  8
PIN_SOLDERMASK_BOTTOM
 10
-48.690000
 20
11.065000
 40
0.000000
 41
0.000000
 42
0.000000
  0
VERTEX
  8
PIN_SOLDERMASK_BOTTOM
 10
-48.690000
 20
11.435000
 40
0.000000
 41
0.000000
 42
0.000000
  0
VERTEX
  8
PIN_SOLDERMASK_BOTTOM
 10
-50.910000
 20
11.435000
 40
0.000000
 41
0.000000
 42
0.000000
  0
VERTEX
  8
PIN_SOLDERMASK_BOTTOM
 10
-50.910000
 20
11.065000
 40
0.000000
 41
0.000000
 42
0.000000
  0
SEQEND
  0
POLYLINE
  8
PIN_SOLDERMASK_BOTTOM
 66
1
 70
1
 40
0.000000
 41
0.000000
 39
0.000000
  0
VERTEX
  8
PIN_SOLDERMASK_BOTTOM
 10
-48.690000
 20
11.565000
 40
0.000000
 41
0.000000
 42
0.000000
  0
VERTEX
  8
PIN_SOLDERMASK_BOTTOM
 10
-48.690000
 20
11.935000
 40
0.000000
 41
0.000000
 42
0.000000
  0
VERTEX
  8
PIN_SOLDERMASK_BOTTOM
 10
-50.910000
 20
11.935000
 40
0.000000
 41
0.000000
 42
0.000000
  0
VERTEX
  8
PIN_SOLDERMASK_BOTTOM
 10
-50.910000
 20
11.565000
 40
0.000000
 41
0.000000
 42
0.000000
  0
SEQEND
  0
POLYLINE
  8
PIN_SOLDERMASK_BOTTOM
 66
1
 70
1
 40
0.000000
 41
0.000000
 39
0.000000
  0
VERTEX
  8
PIN_SOLDERMASK_BOTTOM
 10
-48.690000
 20
12.065000
 40
0.000000
 41
0.000000
 42
0.000000
  0
VERTEX
  8
PIN_SOLDERMASK_BOTTOM
 10
-48.690000
 20
12.435000
 40
0.000000
 41
0.000000
 42
0.000000
  0
VERTEX
  8
PIN_SOLDERMASK_BOTTOM
 10
-50.910000
 20
12.435000
 40
0.000000
 41
0.000000
 42
0.000000
  0
VERTEX
  8
PIN_SOLDERMASK_BOTTOM
 10
-50.910000
 20
12.065000
 40
0.000000
 41
0.000000
 42
0.000000
  0
SEQEND
  0
POLYLINE
  8
PIN_SOLDERMASK_BOTTOM
 66
1
 70
1
 40
0.000000
 41
0.000000
 39
0.000000
  0
VERTEX
  8
PIN_SOLDERMASK_BOTTOM
 10
-48.690000
 20
12.565000
 40
0.000000
 41
0.000000
 42
0.000000
  0
VERTEX
  8
PIN_SOLDERMASK_BOTTOM
 10
-48.690000
 20
12.935000
 40
0.000000
 41
0.000000
 42
0.000000
  0
VERTEX
  8
PIN_SOLDERMASK_BOTTOM
 10
-50.910000
 20
12.935000
 40
0.000000
 41
0.000000
 42
0.000000
  0
VERTEX
  8
PIN_SOLDERMASK_BOTTOM
 10
-50.910000
 20
12.565000
 40
0.000000
 41
0.000000
 42
0.000000
  0
SEQEND
  0
POLYLINE
  8
PIN_SOLDERMASK_BOTTOM
 66
1
 70
1
 40
0.000000
 41
0.000000
 39
0.000000
  0
VERTEX
  8
PIN_SOLDERMASK_BOTTOM
 10
-48.690000
 20
13.065000
 40
0.000000
 41
0.000000
 42
0.000000
  0
VERTEX
  8
PIN_SOLDERMASK_BOTTOM
 10
-48.690000
 20
13.435000
 40
0.000000
 41
0.000000
 42
0.000000
  0
VERTEX
  8
PIN_SOLDERMASK_BOTTOM
 10
-50.910000
 20
13.435000
 40
0.000000
 41
0.000000
 42
0.000000
  0
VERTEX
  8
PIN_SOLDERMASK_BOTTOM
 10
-50.910000
 20
13.065000
 40
0.000000
 41
0.000000
 42
0.000000
  0
SEQEND
  0
POLYLINE
  8
PIN_SOLDERMASK_BOTTOM
 66
1
 70
1
 40
0.000000
 41
0.000000
 39
0.000000
  0
VERTEX
  8
PIN_SOLDERMASK_BOTTOM
 10
-48.690000
 20
13.565000
 40
0.000000
 41
0.000000
 42
0.000000
  0
VERTEX
  8
PIN_SOLDERMASK_BOTTOM
 10
-48.690000
 20
13.935000
 40
0.000000
 41
0.000000
 42
0.000000
  0
VERTEX
  8
PIN_SOLDERMASK_BOTTOM
 10
-50.910000
 20
13.935000
 40
0.000000
 41
0.000000
 42
0.000000
  0
VERTEX
  8
PIN_SOLDERMASK_BOTTOM
 10
-50.910000
 20
13.565000
 40
0.000000
 41
0.000000
 42
0.000000
  0
SEQEND
  0
POLYLINE
  8
PIN_SOLDERMASK_BOTTOM
 66
1
 70
1
 40
0.000000
 41
0.000000
 39
0.000000
  0
VERTEX
  8
PIN_SOLDERMASK_BOTTOM
 10
-48.690000
 20
14.065000
 40
0.000000
 41
0.000000
 42
0.000000
  0
VERTEX
  8
PIN_SOLDERMASK_BOTTOM
 10
-48.690000
 20
14.435000
 40
0.000000
 41
0.000000
 42
0.000000
  0
VERTEX
  8
PIN_SOLDERMASK_BOTTOM
 10
-50.910000
 20
14.435000
 40
0.000000
 41
0.000000
 42
0.000000
  0
VERTEX
  8
PIN_SOLDERMASK_BOTTOM
 10
-50.910000
 20
14.065000
 40
0.000000
 41
0.000000
 42
0.000000
  0
SEQEND
  0
POLYLINE
  8
PIN_SOLDERMASK_BOTTOM
 66
1
 70
1
 40
0.000000
 41
0.000000
 39
0.000000
  0
VERTEX
  8
PIN_SOLDERMASK_BOTTOM
 10
-48.690000
 20
14.565000
 40
0.000000
 41
0.000000
 42
0.000000
  0
VERTEX
  8
PIN_SOLDERMASK_BOTTOM
 10
-48.690000
 20
14.935000
 40
0.000000
 41
0.000000
 42
0.000000
  0
VERTEX
  8
PIN_SOLDERMASK_BOTTOM
 10
-50.910000
 20
14.935000
 40
0.000000
 41
0.000000
 42
0.000000
  0
VERTEX
  8
PIN_SOLDERMASK_BOTTOM
 10
-50.910000
 20
14.565000
 40
0.000000
 41
0.000000
 42
0.000000
  0
SEQEND
  0
POLYLINE
  8
PIN_SOLDERMASK_BOTTOM
 66
1
 70
1
 40
0.000000
 41
0.000000
 39
0.000000
  0
VERTEX
  8
PIN_SOLDERMASK_BOTTOM
 10
-48.690000
 20
15.065000
 40
0.000000
 41
0.000000
 42
0.000000
  0
VERTEX
  8
PIN_SOLDERMASK_BOTTOM
 10
-48.690000
 20
15.435000
 40
0.000000
 41
0.000000
 42
0.000000
  0
VERTEX
  8
PIN_SOLDERMASK_BOTTOM
 10
-50.910000
 20
15.435000
 40
0.000000
 41
0.000000
 42
0.000000
  0
VERTEX
  8
PIN_SOLDERMASK_BOTTOM
 10
-50.910000
 20
15.065000
 40
0.000000
 41
0.000000
 42
0.000000
  0
SEQEND
  0
POLYLINE
  8
PIN_SOLDERMASK_BOTTOM
 66
1
 70
1
 40
0.000000
 41
0.000000
 39
0.000000
  0
VERTEX
  8
PIN_SOLDERMASK_BOTTOM
 10
-48.690000
 20
15.565000
 40
0.000000
 41
0.000000
 42
0.000000
  0
VERTEX
  8
PIN_SOLDERMASK_BOTTOM
 10
-48.690000
 20
15.935000
 40
0.000000
 41
0.000000
 42
0.000000
  0
VERTEX
  8
PIN_SOLDERMASK_BOTTOM
 10
-50.910000
 20
15.935000
 40
0.000000
 41
0.000000
 42
0.000000
  0
VERTEX
  8
PIN_SOLDERMASK_BOTTOM
 10
-50.910000
 20
15.565000
 40
0.000000
 41
0.000000
 42
0.000000
  0
SEQEND
  0
POLYLINE
  8
PIN_SOLDERMASK_BOTTOM
 66
1
 70
1
 40
0.000000
 41
0.000000
 39
0.000000
  0
VERTEX
  8
PIN_SOLDERMASK_BOTTOM
 10
-48.690000
 20
16.065000
 40
0.000000
 41
0.000000
 42
0.000000
  0
VERTEX
  8
PIN_SOLDERMASK_BOTTOM
 10
-48.690000
 20
16.435000
 40
0.000000
 41
0.000000
 42
0.000000
  0
VERTEX
  8
PIN_SOLDERMASK_BOTTOM
 10
-50.910000
 20
16.435000
 40
0.000000
 41
0.000000
 42
0.000000
  0
VERTEX
  8
PIN_SOLDERMASK_BOTTOM
 10
-50.910000
 20
16.065000
 40
0.000000
 41
0.000000
 42
0.000000
  0
SEQEND
  0
POLYLINE
  8
PIN_SOLDERMASK_BOTTOM
 66
1
 70
1
 40
0.000000
 41
0.000000
 39
0.000000
  0
VERTEX
  8
PIN_SOLDERMASK_BOTTOM
 10
-48.690000
 20
16.565000
 40
0.000000
 41
0.000000
 42
0.000000
  0
VERTEX
  8
PIN_SOLDERMASK_BOTTOM
 10
-48.690000
 20
16.935000
 40
0.000000
 41
0.000000
 42
0.000000
  0
VERTEX
  8
PIN_SOLDERMASK_BOTTOM
 10
-50.910000
 20
16.935000
 40
0.000000
 41
0.000000
 42
0.000000
  0
VERTEX
  8
PIN_SOLDERMASK_BOTTOM
 10
-50.910000
 20
16.565000
 40
0.000000
 41
0.000000
 42
0.000000
  0
SEQEND
  0
POLYLINE
  8
PIN_SOLDERMASK_BOTTOM
 66
1
 70
1
 40
0.000000
 41
0.000000
 39
0.000000
  0
VERTEX
  8
PIN_SOLDERMASK_BOTTOM
 10
-48.690000
 20
17.065000
 40
0.000000
 41
0.000000
 42
0.000000
  0
VERTEX
  8
PIN_SOLDERMASK_BOTTOM
 10
-48.690000
 20
17.435000
 40
0.000000
 41
0.000000
 42
0.000000
  0
VERTEX
  8
PIN_SOLDERMASK_BOTTOM
 10
-50.910000
 20
17.435000
 40
0.000000
 41
0.000000
 42
0.000000
  0
VERTEX
  8
PIN_SOLDERMASK_BOTTOM
 10
-50.910000
 20
17.065000
 40
0.000000
 41
0.000000
 42
0.000000
  0
SEQEND
  0
POLYLINE
  8
PIN_SOLDERMASK_BOTTOM
 66
1
 70
1
 40
0.000000
 41
0.000000
 39
0.000000
  0
VERTEX
  8
PIN_SOLDERMASK_BOTTOM
 10
-48.690000
 20
17.565000
 40
0.000000
 41
0.000000
 42
0.000000
  0
VERTEX
  8
PIN_SOLDERMASK_BOTTOM
 10
-48.690000
 20
17.935000
 40
0.000000
 41
0.000000
 42
0.000000
  0
VERTEX
  8
PIN_SOLDERMASK_BOTTOM
 10
-50.910000
 20
17.935000
 40
0.000000
 41
0.000000
 42
0.000000
  0
VERTEX
  8
PIN_SOLDERMASK_BOTTOM
 10
-50.910000
 20
17.565000
 40
0.000000
 41
0.000000
 42
0.000000
  0
SEQEND
  0
POLYLINE
  8
PIN_SOLDERMASK_BOTTOM
 66
1
 70
1
 40
0.000000
 41
0.000000
 39
0.000000
  0
VERTEX
  8
PIN_SOLDERMASK_BOTTOM
 10
-48.690000
 20
18.065000
 40
0.000000
 41
0.000000
 42
0.000000
  0
VERTEX
  8
PIN_SOLDERMASK_BOTTOM
 10
-48.690000
 20
18.435000
 40
0.000000
 41
0.000000
 42
0.000000
  0
VERTEX
  8
PIN_SOLDERMASK_BOTTOM
 10
-50.910000
 20
18.435000
 40
0.000000
 41
0.000000
 42
0.000000
  0
VERTEX
  8
PIN_SOLDERMASK_BOTTOM
 10
-50.910000
 20
18.065000
 40
0.000000
 41
0.000000
 42
0.000000
  0
SEQEND
  0
POLYLINE
  8
PIN_SOLDERMASK_BOTTOM
 66
1
 70
1
 40
0.000000
 41
0.000000
 39
0.000000
  0
VERTEX
  8
PIN_SOLDERMASK_BOTTOM
 10
-48.690000
 20
18.565000
 40
0.000000
 41
0.000000
 42
0.000000
  0
VERTEX
  8
PIN_SOLDERMASK_BOTTOM
 10
-48.690000
 20
18.935000
 40
0.000000
 41
0.000000
 42
0.000000
  0
VERTEX
  8
PIN_SOLDERMASK_BOTTOM
 10
-50.910000
 20
18.935000
 40
0.000000
 41
0.000000
 42
0.000000
  0
VERTEX
  8
PIN_SOLDERMASK_BOTTOM
 10
-50.910000
 20
18.565000
 40
0.000000
 41
0.000000
 42
0.000000
  0
SEQEND
  0
POLYLINE
  8
PIN_SOLDERMASK_BOTTOM
 66
1
 70
1
 40
0.000000
 41
0.000000
 39
0.000000
  0
VERTEX
  8
PIN_SOLDERMASK_BOTTOM
 10
-48.690000
 20
19.065000
 40
0.000000
 41
0.000000
 42
0.000000
  0
VERTEX
  8
PIN_SOLDERMASK_BOTTOM
 10
-48.690000
 20
19.435000
 40
0.000000
 41
0.000000
 42
0.000000
  0
VERTEX
  8
PIN_SOLDERMASK_BOTTOM
 10
-50.910000
 20
19.435000
 40
0.000000
 41
0.000000
 42
0.000000
  0
VERTEX
  8
PIN_SOLDERMASK_BOTTOM
 10
-50.910000
 20
19.065000
 40
0.000000
 41
0.000000
 42
0.000000
  0
SEQEND
  0
POLYLINE
  8
PIN_SOLDERMASK_BOTTOM
 66
1
 70
1
 40
0.000000
 41
0.000000
 39
0.000000
  0
VERTEX
  8
PIN_SOLDERMASK_BOTTOM
 10
-48.690000
 20
19.565000
 40
0.000000
 41
0.000000
 42
0.000000
  0
VERTEX
  8
PIN_SOLDERMASK_BOTTOM
 10
-48.690000
 20
19.935000
 40
0.000000
 41
0.000000
 42
0.000000
  0
VERTEX
  8
PIN_SOLDERMASK_BOTTOM
 10
-50.910000
 20
19.935000
 40
0.000000
 41
0.000000
 42
0.000000
  0
VERTEX
  8
PIN_SOLDERMASK_BOTTOM
 10
-50.910000
 20
19.565000
 40
0.000000
 41
0.000000
 42
0.000000
  0
SEQEND
  0
POLYLINE
  8
PIN_SOLDERMASK_BOTTOM
 66
1
 70
1
 40
0.000000
 41
0.000000
 39
0.000000
  0
VERTEX
  8
PIN_SOLDERMASK_BOTTOM
 10
-48.690000
 20
20.065000
 40
0.000000
 41
0.000000
 42
0.000000
  0
VERTEX
  8
PIN_SOLDERMASK_BOTTOM
 10
-48.690000
 20
20.435000
 40
0.000000
 41
0.000000
 42
0.000000
  0
VERTEX
  8
PIN_SOLDERMASK_BOTTOM
 10
-50.910000
 20
20.435000
 40
0.000000
 41
0.000000
 42
0.000000
  0
VERTEX
  8
PIN_SOLDERMASK_BOTTOM
 10
-50.910000
 20
20.065000
 40
0.000000
 41
0.000000
 42
0.000000
  0
SEQEND
  0
POLYLINE
  8
PIN_SOLDERMASK_BOTTOM
 66
1
 70
1
 40
0.000000
 41
0.000000
 39
0.000000
  0
VERTEX
  8
PIN_SOLDERMASK_BOTTOM
 10
-48.690000
 20
20.565000
 40
0.000000
 41
0.000000
 42
0.000000
  0
VERTEX
  8
PIN_SOLDERMASK_BOTTOM
 10
-48.690000
 20
20.935000
 40
0.000000
 41
0.000000
 42
0.000000
  0
VERTEX
  8
PIN_SOLDERMASK_BOTTOM
 10
-50.910000
 20
20.935000
 40
0.000000
 41
0.000000
 42
0.000000
  0
VERTEX
  8
PIN_SOLDERMASK_BOTTOM
 10
-50.910000
 20
20.565000
 40
0.000000
 41
0.000000
 42
0.000000
  0
SEQEND
  0
POLYLINE
  8
PIN_SOLDERMASK_BOTTOM
 66
1
 70
1
 40
0.000000
 41
0.000000
 39
0.000000
  0
VERTEX
  8
PIN_SOLDERMASK_BOTTOM
 10
-48.690000
 20
21.065000
 40
0.000000
 41
0.000000
 42
0.000000
  0
VERTEX
  8
PIN_SOLDERMASK_BOTTOM
 10
-48.690000
 20
21.435000
 40
0.000000
 41
0.000000
 42
0.000000
  0
VERTEX
  8
PIN_SOLDERMASK_BOTTOM
 10
-50.910000
 20
21.435000
 40
0.000000
 41
0.000000
 42
0.000000
  0
VERTEX
  8
PIN_SOLDERMASK_BOTTOM
 10
-50.910000
 20
21.065000
 40
0.000000
 41
0.000000
 42
0.000000
  0
SEQEND
  0
POLYLINE
  8
PIN_SOLDERMASK_BOTTOM
 66
1
 70
1
 40
0.000000
 41
0.000000
 39
0.000000
  0
VERTEX
  8
PIN_SOLDERMASK_BOTTOM
 10
-48.690000
 20
21.565000
 40
0.000000
 41
0.000000
 42
0.000000
  0
VERTEX
  8
PIN_SOLDERMASK_BOTTOM
 10
-48.690000
 20
21.935000
 40
0.000000
 41
0.000000
 42
0.000000
  0
VERTEX
  8
PIN_SOLDERMASK_BOTTOM
 10
-50.910000
 20
21.935000
 40
0.000000
 41
0.000000
 42
0.000000
  0
VERTEX
  8
PIN_SOLDERMASK_BOTTOM
 10
-50.910000
 20
21.565000
 40
0.000000
 41
0.000000
 42
0.000000
  0
SEQEND
  0
POLYLINE
  8
PIN_SOLDERMASK_BOTTOM
 66
1
 70
1
 40
0.000000
 41
0.000000
 39
0.000000
  0
VERTEX
  8
PIN_SOLDERMASK_BOTTOM
 10
-48.690000
 20
22.065000
 40
0.000000
 41
0.000000
 42
0.000000
  0
VERTEX
  8
PIN_SOLDERMASK_BOTTOM
 10
-48.690000
 20
22.435000
 40
0.000000
 41
0.000000
 42
0.000000
  0
VERTEX
  8
PIN_SOLDERMASK_BOTTOM
 10
-50.910000
 20
22.435000
 40
0.000000
 41
0.000000
 42
0.000000
  0
VERTEX
  8
PIN_SOLDERMASK_BOTTOM
 10
-50.910000
 20
22.065000
 40
0.000000
 41
0.000000
 42
0.000000
  0
SEQEND
  0
POLYLINE
  8
PIN_SOLDERMASK_BOTTOM
 66
1
 70
1
 40
0.000000
 41
0.000000
 39
0.000000
  0
VERTEX
  8
PIN_SOLDERMASK_BOTTOM
 10
-48.690000
 20
22.565000
 40
0.000000
 41
0.000000
 42
0.000000
  0
VERTEX
  8
PIN_SOLDERMASK_BOTTOM
 10
-48.690000
 20
22.935000
 40
0.000000
 41
0.000000
 42
0.000000
  0
VERTEX
  8
PIN_SOLDERMASK_BOTTOM
 10
-50.910000
 20
22.935000
 40
0.000000
 41
0.000000
 42
0.000000
  0
VERTEX
  8
PIN_SOLDERMASK_BOTTOM
 10
-50.910000
 20
22.565000
 40
0.000000
 41
0.000000
 42
0.000000
  0
SEQEND
  0
POLYLINE
  8
PIN_SOLDERMASK_BOTTOM
 66
1
 70
1
 40
0.000000
 41
0.000000
 39
0.000000
  0
VERTEX
  8
PIN_SOLDERMASK_BOTTOM
 10
-48.690000
 20
23.065000
 40
0.000000
 41
0.000000
 42
0.000000
  0
VERTEX
  8
PIN_SOLDERMASK_BOTTOM
 10
-48.690000
 20
23.435000
 40
0.000000
 41
0.000000
 42
0.000000
  0
VERTEX
  8
PIN_SOLDERMASK_BOTTOM
 10
-50.910000
 20
23.435000
 40
0.000000
 41
0.000000
 42
0.000000
  0
VERTEX
  8
PIN_SOLDERMASK_BOTTOM
 10
-50.910000
 20
23.065000
 40
0.000000
 41
0.000000
 42
0.000000
  0
SEQEND
  0
POLYLINE
  8
PIN_SOLDERMASK_BOTTOM
 66
1
 70
1
 40
0.000000
 41
0.000000
 39
0.000000
  0
VERTEX
  8
PIN_SOLDERMASK_BOTTOM
 10
-48.690000
 20
23.565000
 40
0.000000
 41
0.000000
 42
0.000000
  0
VERTEX
  8
PIN_SOLDERMASK_BOTTOM
 10
-48.690000
 20
23.935000
 40
0.000000
 41
0.000000
 42
0.000000
  0
VERTEX
  8
PIN_SOLDERMASK_BOTTOM
 10
-50.910000
 20
23.935000
 40
0.000000
 41
0.000000
 42
0.000000
  0
VERTEX
  8
PIN_SOLDERMASK_BOTTOM
 10
-50.910000
 20
23.565000
 40
0.000000
 41
0.000000
 42
0.000000
  0
SEQEND
  0
POLYLINE
  8
PIN_SOLDERMASK_BOTTOM
 66
1
 70
1
 40
0.000000
 41
0.000000
 39
0.000000
  0
VERTEX
  8
PIN_SOLDERMASK_BOTTOM
 10
-48.690000
 20
24.065000
 40
0.000000
 41
0.000000
 42
0.000000
  0
VERTEX
  8
PIN_SOLDERMASK_BOTTOM
 10
-48.690000
 20
24.435000
 40
0.000000
 41
0.000000
 42
0.000000
  0
VERTEX
  8
PIN_SOLDERMASK_BOTTOM
 10
-50.910000
 20
24.435000
 40
0.000000
 41
0.000000
 42
0.000000
  0
VERTEX
  8
PIN_SOLDERMASK_BOTTOM
 10
-50.910000
 20
24.065000
 40
0.000000
 41
0.000000
 42
0.000000
  0
SEQEND
  0
POLYLINE
  8
PIN_SOLDERMASK_BOTTOM
 66
1
 70
1
 40
0.000000
 41
0.000000
 39
0.000000
  0
VERTEX
  8
PIN_SOLDERMASK_BOTTOM
 10
-48.690000
 20
24.565000
 40
0.000000
 41
0.000000
 42
0.000000
  0
VERTEX
  8
PIN_SOLDERMASK_BOTTOM
 10
-48.690000
 20
24.935000
 40
0.000000
 41
0.000000
 42
0.000000
  0
VERTEX
  8
PIN_SOLDERMASK_BOTTOM
 10
-50.910000
 20
24.935000
 40
0.000000
 41
0.000000
 42
0.000000
  0
VERTEX
  8
PIN_SOLDERMASK_BOTTOM
 10
-50.910000
 20
24.565000
 40
0.000000
 41
0.000000
 42
0.000000
  0
SEQEND
  0
POLYLINE
  8
PIN_SOLDERMASK_BOTTOM
 66
1
 70
1
 40
0.000000
 41
0.000000
 39
0.000000
  0
VERTEX
  8
PIN_SOLDERMASK_BOTTOM
 10
-48.690000
 20
25.065000
 40
0.000000
 41
0.000000
 42
0.000000
  0
VERTEX
  8
PIN_SOLDERMASK_BOTTOM
 10
-48.690000
 20
25.435000
 40
0.000000
 41
0.000000
 42
0.000000
  0
VERTEX
  8
PIN_SOLDERMASK_BOTTOM
 10
-50.910000
 20
25.435000
 40
0.000000
 41
0.000000
 42
0.000000
  0
VERTEX
  8
PIN_SOLDERMASK_BOTTOM
 10
-50.910000
 20
25.065000
 40
0.000000
 41
0.000000
 42
0.000000
  0
SEQEND
  0
POLYLINE
  8
PIN_SOLDERMASK_BOTTOM
 66
1
 70
1
 40
0.000000
 41
0.000000
 39
0.000000
  0
VERTEX
  8
PIN_SOLDERMASK_BOTTOM
 10
-48.690000
 20
25.565000
 40
0.000000
 41
0.000000
 42
0.000000
  0
VERTEX
  8
PIN_SOLDERMASK_BOTTOM
 10
-48.690000
 20
25.935000
 40
0.000000
 41
0.000000
 42
0.000000
  0
VERTEX
  8
PIN_SOLDERMASK_BOTTOM
 10
-50.910000
 20
25.935000
 40
0.000000
 41
0.000000
 42
0.000000
  0
VERTEX
  8
PIN_SOLDERMASK_BOTTOM
 10
-50.910000
 20
25.565000
 40
0.000000
 41
0.000000
 42
0.000000
  0
SEQEND
  0
POLYLINE
  8
PIN_SOLDERMASK_BOTTOM
 66
1
 70
1
 40
0.000000
 41
0.000000
 39
0.000000
  0
VERTEX
  8
PIN_SOLDERMASK_BOTTOM
 10
-48.690000
 20
26.065000
 40
0.000000
 41
0.000000
 42
0.000000
  0
VERTEX
  8
PIN_SOLDERMASK_BOTTOM
 10
-48.690000
 20
26.435000
 40
0.000000
 41
0.000000
 42
0.000000
  0
VERTEX
  8
PIN_SOLDERMASK_BOTTOM
 10
-50.910000
 20
26.435000
 40
0.000000
 41
0.000000
 42
0.000000
  0
VERTEX
  8
PIN_SOLDERMASK_BOTTOM
 10
-50.910000
 20
26.065000
 40
0.000000
 41
0.000000
 42
0.000000
  0
SEQEND
  0
POLYLINE
  8
PIN_SOLDERMASK_BOTTOM
 66
1
 70
1
 40
0.000000
 41
0.000000
 39
0.000000
  0
VERTEX
  8
PIN_SOLDERMASK_BOTTOM
 10
-48.690000
 20
26.565000
 40
0.000000
 41
0.000000
 42
0.000000
  0
VERTEX
  8
PIN_SOLDERMASK_BOTTOM
 10
-48.690000
 20
26.935000
 40
0.000000
 41
0.000000
 42
0.000000
  0
VERTEX
  8
PIN_SOLDERMASK_BOTTOM
 10
-50.910000
 20
26.935000
 40
0.000000
 41
0.000000
 42
0.000000
  0
VERTEX
  8
PIN_SOLDERMASK_BOTTOM
 10
-50.910000
 20
26.565000
 40
0.000000
 41
0.000000
 42
0.000000
  0
SEQEND
  0
POLYLINE
  8
PIN_SOLDERMASK_BOTTOM
 66
1
 70
1
 40
0.000000
 41
0.000000
 39
0.000000
  0
VERTEX
  8
PIN_SOLDERMASK_BOTTOM
 10
-48.690000
 20
27.065000
 40
0.000000
 41
0.000000
 42
0.000000
  0
VERTEX
  8
PIN_SOLDERMASK_BOTTOM
 10
-48.690000
 20
27.435000
 40
0.000000
 41
0.000000
 42
0.000000
  0
VERTEX
  8
PIN_SOLDERMASK_BOTTOM
 10
-50.910000
 20
27.435000
 40
0.000000
 41
0.000000
 42
0.000000
  0
VERTEX
  8
PIN_SOLDERMASK_BOTTOM
 10
-50.910000
 20
27.065000
 40
0.000000
 41
0.000000
 42
0.000000
  0
SEQEND
  0
POLYLINE
  8
PIN_SOLDERMASK_BOTTOM
 66
1
 70
1
 40
0.000000
 41
0.000000
 39
0.000000
  0
VERTEX
  8
PIN_SOLDERMASK_BOTTOM
 10
-48.690000
 20
27.565000
 40
0.000000
 41
0.000000
 42
0.000000
  0
VERTEX
  8
PIN_SOLDERMASK_BOTTOM
 10
-48.690000
 20
27.935000
 40
0.000000
 41
0.000000
 42
0.000000
  0
VERTEX
  8
PIN_SOLDERMASK_BOTTOM
 10
-50.910000
 20
27.935000
 40
0.000000
 41
0.000000
 42
0.000000
  0
VERTEX
  8
PIN_SOLDERMASK_BOTTOM
 10
-50.910000
 20
27.565000
 40
0.000000
 41
0.000000
 42
0.000000
  0
SEQEND
  0
POLYLINE
  8
PIN_SOLDERMASK_BOTTOM
 66
1
 70
1
 40
0.000000
 41
0.000000
 39
0.000000
  0
VERTEX
  8
PIN_SOLDERMASK_BOTTOM
 10
-48.690000
 20
28.065000
 40
0.000000
 41
0.000000
 42
0.000000
  0
VERTEX
  8
PIN_SOLDERMASK_BOTTOM
 10
-48.690000
 20
28.435000
 40
0.000000
 41
0.000000
 42
0.000000
  0
VERTEX
  8
PIN_SOLDERMASK_BOTTOM
 10
-50.910000
 20
28.435000
 40
0.000000
 41
0.000000
 42
0.000000
  0
VERTEX
  8
PIN_SOLDERMASK_BOTTOM
 10
-50.910000
 20
28.065000
 40
0.000000
 41
0.000000
 42
0.000000
  0
SEQEND
  0
POLYLINE
  8
PIN_SOLDERMASK_BOTTOM
 66
1
 70
1
 40
0.000000
 41
0.000000
 39
0.000000
  0
VERTEX
  8
PIN_SOLDERMASK_BOTTOM
 10
-48.690000
 20
28.565000
 40
0.000000
 41
0.000000
 42
0.000000
  0
VERTEX
  8
PIN_SOLDERMASK_BOTTOM
 10
-48.690000
 20
28.935000
 40
0.000000
 41
0.000000
 42
0.000000
  0
VERTEX
  8
PIN_SOLDERMASK_BOTTOM
 10
-50.910000
 20
28.935000
 40
0.000000
 41
0.000000
 42
0.000000
  0
VERTEX
  8
PIN_SOLDERMASK_BOTTOM
 10
-50.910000
 20
28.565000
 40
0.000000
 41
0.000000
 42
0.000000
  0
SEQEND
  0
POLYLINE
  8
PIN_SOLDERMASK_BOTTOM
 66
1
 70
1
 40
0.000000
 41
0.000000
 39
0.000000
  0
VERTEX
  8
PIN_SOLDERMASK_BOTTOM
 10
-48.690000
 20
29.065000
 40
0.000000
 41
0.000000
 42
0.000000
  0
VERTEX
  8
PIN_SOLDERMASK_BOTTOM
 10
-48.690000
 20
29.435000
 40
0.000000
 41
0.000000
 42
0.000000
  0
VERTEX
  8
PIN_SOLDERMASK_BOTTOM
 10
-50.910000
 20
29.435000
 40
0.000000
 41
0.000000
 42
0.000000
  0
VERTEX
  8
PIN_SOLDERMASK_BOTTOM
 10
-50.910000
 20
29.065000
 40
0.000000
 41
0.000000
 42
0.000000
  0
SEQEND
  0
POLYLINE
  8
PIN_SOLDERMASK_BOTTOM
 66
1
 70
1
 40
0.000000
 41
0.000000
 39
0.000000
  0
VERTEX
  8
PIN_SOLDERMASK_BOTTOM
 10
-48.690000
 20
29.565000
 40
0.000000
 41
0.000000
 42
0.000000
  0
VERTEX
  8
PIN_SOLDERMASK_BOTTOM
 10
-48.690000
 20
29.935000
 40
0.000000
 41
0.000000
 42
0.000000
  0
VERTEX
  8
PIN_SOLDERMASK_BOTTOM
 10
-50.910000
 20
29.935000
 40
0.000000
 41
0.000000
 42
0.000000
  0
VERTEX
  8
PIN_SOLDERMASK_BOTTOM
 10
-50.910000
 20
29.565000
 40
0.000000
 41
0.000000
 42
0.000000
  0
SEQEND
  0
POLYLINE
  8
PIN_SOLDERMASK_BOTTOM
 66
1
 70
1
 40
0.000000
 41
0.000000
 39
0.000000
  0
VERTEX
  8
PIN_SOLDERMASK_BOTTOM
 10
-48.690000
 20
30.065000
 40
0.000000
 41
0.000000
 42
0.000000
  0
VERTEX
  8
PIN_SOLDERMASK_BOTTOM
 10
-48.690000
 20
30.435000
 40
0.000000
 41
0.000000
 42
0.000000
  0
VERTEX
  8
PIN_SOLDERMASK_BOTTOM
 10
-50.910000
 20
30.435000
 40
0.000000
 41
0.000000
 42
0.000000
  0
VERTEX
  8
PIN_SOLDERMASK_BOTTOM
 10
-50.910000
 20
30.065000
 40
0.000000
 41
0.000000
 42
0.000000
  0
SEQEND
  0
POLYLINE
  8
PIN_SOLDERMASK_BOTTOM
 66
1
 70
1
 40
0.000000
 41
0.000000
 39
0.000000
  0
VERTEX
  8
PIN_SOLDERMASK_BOTTOM
 10
-48.690000
 20
30.565000
 40
0.000000
 41
0.000000
 42
0.000000
  0
VERTEX
  8
PIN_SOLDERMASK_BOTTOM
 10
-48.690000
 20
30.935000
 40
0.000000
 41
0.000000
 42
0.000000
  0
VERTEX
  8
PIN_SOLDERMASK_BOTTOM
 10
-50.910000
 20
30.935000
 40
0.000000
 41
0.000000
 42
0.000000
  0
VERTEX
  8
PIN_SOLDERMASK_BOTTOM
 10
-50.910000
 20
30.565000
 40
0.000000
 41
0.000000
 42
0.000000
  0
SEQEND
  0
POLYLINE
  8
PIN_SOLDERMASK_BOTTOM
 66
1
 70
1
 40
0.000000
 41
0.000000
 39
0.000000
  0
VERTEX
  8
PIN_SOLDERMASK_BOTTOM
 10
-48.690000
 20
31.065000
 40
0.000000
 41
0.000000
 42
0.000000
  0
VERTEX
  8
PIN_SOLDERMASK_BOTTOM
 10
-48.690000
 20
31.435000
 40
0.000000
 41
0.000000
 42
0.000000
  0
VERTEX
  8
PIN_SOLDERMASK_BOTTOM
 10
-50.910000
 20
31.435000
 40
0.000000
 41
0.000000
 42
0.000000
  0
VERTEX
  8
PIN_SOLDERMASK_BOTTOM
 10
-50.910000
 20
31.065000
 40
0.000000
 41
0.000000
 42
0.000000
  0
SEQEND
  0
POLYLINE
  8
PIN_SOLDERMASK_BOTTOM
 66
1
 70
1
 40
0.000000
 41
0.000000
 39
0.000000
  0
VERTEX
  8
PIN_SOLDERMASK_BOTTOM
 10
-48.690000
 20
31.565000
 40
0.000000
 41
0.000000
 42
0.000000
  0
VERTEX
  8
PIN_SOLDERMASK_BOTTOM
 10
-48.690000
 20
31.935000
 40
0.000000
 41
0.000000
 42
0.000000
  0
VERTEX
  8
PIN_SOLDERMASK_BOTTOM
 10
-50.910000
 20
31.935000
 40
0.000000
 41
0.000000
 42
0.000000
  0
VERTEX
  8
PIN_SOLDERMASK_BOTTOM
 10
-50.910000
 20
31.565000
 40
0.000000
 41
0.000000
 42
0.000000
  0
SEQEND
  0
POLYLINE
  8
PIN_SOLDERMASK_BOTTOM
 66
1
 70
1
 40
0.000000
 41
0.000000
 39
0.000000
  0
VERTEX
  8
PIN_SOLDERMASK_BOTTOM
 10
-48.690000
 20
32.065000
 40
0.000000
 41
0.000000
 42
0.000000
  0
VERTEX
  8
PIN_SOLDERMASK_BOTTOM
 10
-48.690000
 20
32.435000
 40
0.000000
 41
0.000000
 42
0.000000
  0
VERTEX
  8
PIN_SOLDERMASK_BOTTOM
 10
-50.910000
 20
32.435000
 40
0.000000
 41
0.000000
 42
0.000000
  0
VERTEX
  8
PIN_SOLDERMASK_BOTTOM
 10
-50.910000
 20
32.065000
 40
0.000000
 41
0.000000
 42
0.000000
  0
SEQEND
  0
POLYLINE
  8
PIN_SOLDERMASK_BOTTOM
 66
1
 70
1
 40
0.000000
 41
0.000000
 39
0.000000
  0
VERTEX
  8
PIN_SOLDERMASK_BOTTOM
 10
-48.690000
 20
32.565000
 40
0.000000
 41
0.000000
 42
0.000000
  0
VERTEX
  8
PIN_SOLDERMASK_BOTTOM
 10
-48.690000
 20
32.935000
 40
0.000000
 41
0.000000
 42
0.000000
  0
VERTEX
  8
PIN_SOLDERMASK_BOTTOM
 10
-50.910000
 20
32.935000
 40
0.000000
 41
0.000000
 42
0.000000
  0
VERTEX
  8
PIN_SOLDERMASK_BOTTOM
 10
-50.910000
 20
32.565000
 40
0.000000
 41
0.000000
 42
0.000000
  0
SEQEND
  0
POLYLINE
  8
PIN_SOLDERMASK_BOTTOM
 66
1
 70
1
 40
0.000000
 41
0.000000
 39
0.000000
  0
VERTEX
  8
PIN_SOLDERMASK_BOTTOM
 10
-48.690000
 20
33.065000
 40
0.000000
 41
0.000000
 42
0.000000
  0
VERTEX
  8
PIN_SOLDERMASK_BOTTOM
 10
-48.690000
 20
33.435000
 40
0.000000
 41
0.000000
 42
0.000000
  0
VERTEX
  8
PIN_SOLDERMASK_BOTTOM
 10
-50.910000
 20
33.435000
 40
0.000000
 41
0.000000
 42
0.000000
  0
VERTEX
  8
PIN_SOLDERMASK_BOTTOM
 10
-50.910000
 20
33.065000
 40
0.000000
 41
0.000000
 42
0.000000
  0
SEQEND
  0
POLYLINE
  8
PIN_SOLDERMASK_BOTTOM
 66
1
 70
1
 40
0.000000
 41
0.000000
 39
0.000000
  0
VERTEX
  8
PIN_SOLDERMASK_BOTTOM
 10
-48.690000
 20
33.565000
 40
0.000000
 41
0.000000
 42
0.000000
  0
VERTEX
  8
PIN_SOLDERMASK_BOTTOM
 10
-48.690000
 20
33.935000
 40
0.000000
 41
0.000000
 42
0.000000
  0
VERTEX
  8
PIN_SOLDERMASK_BOTTOM
 10
-50.910000
 20
33.935000
 40
0.000000
 41
0.000000
 42
0.000000
  0
VERTEX
  8
PIN_SOLDERMASK_BOTTOM
 10
-50.910000
 20
33.565000
 40
0.000000
 41
0.000000
 42
0.000000
  0
SEQEND
  0
POLYLINE
  8
PIN_SOLDERMASK_BOTTOM
 66
1
 70
1
 40
0.000000
 41
0.000000
 39
0.000000
  0
VERTEX
  8
PIN_SOLDERMASK_BOTTOM
 10
-48.690000
 20
34.065000
 40
0.000000
 41
0.000000
 42
0.000000
  0
VERTEX
  8
PIN_SOLDERMASK_BOTTOM
 10
-48.690000
 20
34.435000
 40
0.000000
 41
0.000000
 42
0.000000
  0
VERTEX
  8
PIN_SOLDERMASK_BOTTOM
 10
-50.910000
 20
34.435000
 40
0.000000
 41
0.000000
 42
0.000000
  0
VERTEX
  8
PIN_SOLDERMASK_BOTTOM
 10
-50.910000
 20
34.065000
 40
0.000000
 41
0.000000
 42
0.000000
  0
SEQEND
  0
POLYLINE
  8
PIN_SOLDERMASK_BOTTOM
 66
1
 70
1
 40
0.000000
 41
0.000000
 39
0.000000
  0
VERTEX
  8
PIN_SOLDERMASK_BOTTOM
 10
-48.690000
 20
34.565000
 40
0.000000
 41
0.000000
 42
0.000000
  0
VERTEX
  8
PIN_SOLDERMASK_BOTTOM
 10
-48.690000
 20
34.935000
 40
0.000000
 41
0.000000
 42
0.000000
  0
VERTEX
  8
PIN_SOLDERMASK_BOTTOM
 10
-50.910000
 20
34.935000
 40
0.000000
 41
0.000000
 42
0.000000
  0
VERTEX
  8
PIN_SOLDERMASK_BOTTOM
 10
-50.910000
 20
34.565000
 40
0.000000
 41
0.000000
 42
0.000000
  0
SEQEND
  0
POLYLINE
  8
PIN_SOLDERMASK_BOTTOM
 66
1
 70
1
 40
0.000000
 41
0.000000
 39
0.000000
  0
VERTEX
  8
PIN_SOLDERMASK_BOTTOM
 10
-48.690000
 20
35.065000
 40
0.000000
 41
0.000000
 42
0.000000
  0
VERTEX
  8
PIN_SOLDERMASK_BOTTOM
 10
-48.690000
 20
35.435000
 40
0.000000
 41
0.000000
 42
0.000000
  0
VERTEX
  8
PIN_SOLDERMASK_BOTTOM
 10
-50.910000
 20
35.435000
 40
0.000000
 41
0.000000
 42
0.000000
  0
VERTEX
  8
PIN_SOLDERMASK_BOTTOM
 10
-50.910000
 20
35.065000
 40
0.000000
 41
0.000000
 42
0.000000
  0
SEQEND
  0
POLYLINE
  8
PIN_SOLDERMASK_BOTTOM
 66
1
 70
1
 40
0.000000
 41
0.000000
 39
0.000000
  0
VERTEX
  8
PIN_SOLDERMASK_BOTTOM
 10
-48.690000
 20
35.565000
 40
0.000000
 41
0.000000
 42
0.000000
  0
VERTEX
  8
PIN_SOLDERMASK_BOTTOM
 10
-48.690000
 20
35.935000
 40
0.000000
 41
0.000000
 42
0.000000
  0
VERTEX
  8
PIN_SOLDERMASK_BOTTOM
 10
-50.910000
 20
35.935000
 40
0.000000
 41
0.000000
 42
0.000000
  0
VERTEX
  8
PIN_SOLDERMASK_BOTTOM
 10
-50.910000
 20
35.565000
 40
0.000000
 41
0.000000
 42
0.000000
  0
SEQEND
  0
POLYLINE
  8
PIN_SOLDERMASK_BOTTOM
 66
1
 70
1
 40
0.000000
 41
0.000000
 39
0.000000
  0
VERTEX
  8
PIN_SOLDERMASK_BOTTOM
 10
-48.690000
 20
36.065000
 40
0.000000
 41
0.000000
 42
0.000000
  0
VERTEX
  8
PIN_SOLDERMASK_BOTTOM
 10
-48.690000
 20
36.435000
 40
0.000000
 41
0.000000
 42
0.000000
  0
VERTEX
  8
PIN_SOLDERMASK_BOTTOM
 10
-50.910000
 20
36.435000
 40
0.000000
 41
0.000000
 42
0.000000
  0
VERTEX
  8
PIN_SOLDERMASK_BOTTOM
 10
-50.910000
 20
36.065000
 40
0.000000
 41
0.000000
 42
0.000000
  0
SEQEND
  0
POLYLINE
  8
PIN_SOLDERMASK_BOTTOM
 66
1
 70
1
 40
0.000000
 41
0.000000
 39
0.000000
  0
VERTEX
  8
PIN_SOLDERMASK_BOTTOM
 10
-48.690000
 20
36.565000
 40
0.000000
 41
0.000000
 42
0.000000
  0
VERTEX
  8
PIN_SOLDERMASK_BOTTOM
 10
-48.690000
 20
36.935000
 40
0.000000
 41
0.000000
 42
0.000000
  0
VERTEX
  8
PIN_SOLDERMASK_BOTTOM
 10
-50.910000
 20
36.935000
 40
0.000000
 41
0.000000
 42
0.000000
  0
VERTEX
  8
PIN_SOLDERMASK_BOTTOM
 10
-50.910000
 20
36.565000
 40
0.000000
 41
0.000000
 42
0.000000
  0
SEQEND
  0
POLYLINE
  8
PIN_SOLDERMASK_BOTTOM
 66
1
 70
1
 40
0.000000
 41
0.000000
 39
0.000000
  0
VERTEX
  8
PIN_SOLDERMASK_BOTTOM
 10
-48.690000
 20
37.065000
 40
0.000000
 41
0.000000
 42
0.000000
  0
VERTEX
  8
PIN_SOLDERMASK_BOTTOM
 10
-48.690000
 20
37.435000
 40
0.000000
 41
0.000000
 42
0.000000
  0
VERTEX
  8
PIN_SOLDERMASK_BOTTOM
 10
-50.910000
 20
37.435000
 40
0.000000
 41
0.000000
 42
0.000000
  0
VERTEX
  8
PIN_SOLDERMASK_BOTTOM
 10
-50.910000
 20
37.065000
 40
0.000000
 41
0.000000
 42
0.000000
  0
SEQEND
  0
POLYLINE
  8
PIN_SOLDERMASK_BOTTOM
 66
1
 70
1
 40
0.000000
 41
0.000000
 39
0.000000
  0
VERTEX
  8
PIN_SOLDERMASK_BOTTOM
 10
-48.690000
 20
37.565000
 40
0.000000
 41
0.000000
 42
0.000000
  0
VERTEX
  8
PIN_SOLDERMASK_BOTTOM
 10
-48.690000
 20
37.935000
 40
0.000000
 41
0.000000
 42
0.000000
  0
VERTEX
  8
PIN_SOLDERMASK_BOTTOM
 10
-50.910000
 20
37.935000
 40
0.000000
 41
0.000000
 42
0.000000
  0
VERTEX
  8
PIN_SOLDERMASK_BOTTOM
 10
-50.910000
 20
37.565000
 40
0.000000
 41
0.000000
 42
0.000000
  0
SEQEND
  0
POLYLINE
  8
PIN_SOLDERMASK_BOTTOM
 66
1
 70
1
 40
0.000000
 41
0.000000
 39
0.000000
  0
VERTEX
  8
PIN_SOLDERMASK_BOTTOM
 10
-48.690000
 20
38.065000
 40
0.000000
 41
0.000000
 42
0.000000
  0
VERTEX
  8
PIN_SOLDERMASK_BOTTOM
 10
-48.690000
 20
38.435000
 40
0.000000
 41
0.000000
 42
0.000000
  0
VERTEX
  8
PIN_SOLDERMASK_BOTTOM
 10
-50.910000
 20
38.435000
 40
0.000000
 41
0.000000
 42
0.000000
  0
VERTEX
  8
PIN_SOLDERMASK_BOTTOM
 10
-50.910000
 20
38.065000
 40
0.000000
 41
0.000000
 42
0.000000
  0
SEQEND
  0
POLYLINE
  8
PIN_SOLDERMASK_BOTTOM
 66
1
 70
1
 40
0.000000
 41
0.000000
 39
0.000000
  0
VERTEX
  8
PIN_SOLDERMASK_BOTTOM
 10
-48.690000
 20
38.565000
 40
0.000000
 41
0.000000
 42
0.000000
  0
VERTEX
  8
PIN_SOLDERMASK_BOTTOM
 10
-48.690000
 20
38.935000
 40
0.000000
 41
0.000000
 42
0.000000
  0
VERTEX
  8
PIN_SOLDERMASK_BOTTOM
 10
-50.910000
 20
38.935000
 40
0.000000
 41
0.000000
 42
0.000000
  0
VERTEX
  8
PIN_SOLDERMASK_BOTTOM
 10
-50.910000
 20
38.565000
 40
0.000000
 41
0.000000
 42
0.000000
  0
SEQEND
  0
POLYLINE
  8
PIN_SOLDERMASK_BOTTOM
 66
1
 70
1
 40
0.000000
 41
0.000000
 39
0.000000
  0
VERTEX
  8
PIN_SOLDERMASK_BOTTOM
 10
-48.690000
 20
39.065000
 40
0.000000
 41
0.000000
 42
0.000000
  0
VERTEX
  8
PIN_SOLDERMASK_BOTTOM
 10
-48.690000
 20
39.435000
 40
0.000000
 41
0.000000
 42
0.000000
  0
VERTEX
  8
PIN_SOLDERMASK_BOTTOM
 10
-50.910000
 20
39.435000
 40
0.000000
 41
0.000000
 42
0.000000
  0
VERTEX
  8
PIN_SOLDERMASK_BOTTOM
 10
-50.910000
 20
39.065000
 40
0.000000
 41
0.000000
 42
0.000000
  0
SEQEND
  0
POLYLINE
  8
PIN_SOLDERMASK_BOTTOM
 66
1
 70
1
 40
0.000000
 41
0.000000
 39
0.000000
  0
VERTEX
  8
PIN_SOLDERMASK_BOTTOM
 10
-48.690000
 20
39.565000
 40
0.000000
 41
0.000000
 42
0.000000
  0
VERTEX
  8
PIN_SOLDERMASK_BOTTOM
 10
-48.690000
 20
39.935000
 40
0.000000
 41
0.000000
 42
0.000000
  0
VERTEX
  8
PIN_SOLDERMASK_BOTTOM
 10
-50.910000
 20
39.935000
 40
0.000000
 41
0.000000
 42
0.000000
  0
VERTEX
  8
PIN_SOLDERMASK_BOTTOM
 10
-50.910000
 20
39.565000
 40
0.000000
 41
0.000000
 42
0.000000
  0
SEQEND
  0
POLYLINE
  8
PIN_SOLDERMASK_BOTTOM
 66
1
 70
1
 40
0.000000
 41
0.000000
 39
0.000000
  0
VERTEX
  8
PIN_SOLDERMASK_BOTTOM
 10
-48.690000
 20
40.065000
 40
0.000000
 41
0.000000
 42
0.000000
  0
VERTEX
  8
PIN_SOLDERMASK_BOTTOM
 10
-48.690000
 20
40.435000
 40
0.000000
 41
0.000000
 42
0.000000
  0
VERTEX
  8
PIN_SOLDERMASK_BOTTOM
 10
-50.910000
 20
40.435000
 40
0.000000
 41
0.000000
 42
0.000000
  0
VERTEX
  8
PIN_SOLDERMASK_BOTTOM
 10
-50.910000
 20
40.065000
 40
0.000000
 41
0.000000
 42
0.000000
  0
SEQEND
  0
POLYLINE
  8
PIN_SOLDERMASK_BOTTOM
 66
1
 70
1
 40
0.000000
 41
0.000000
 39
0.000000
  0
VERTEX
  8
PIN_SOLDERMASK_BOTTOM
 10
-48.690000
 20
40.565000
 40
0.000000
 41
0.000000
 42
0.000000
  0
VERTEX
  8
PIN_SOLDERMASK_BOTTOM
 10
-48.690000
 20
40.935000
 40
0.000000
 41
0.000000
 42
0.000000
  0
VERTEX
  8
PIN_SOLDERMASK_BOTTOM
 10
-50.910000
 20
40.935000
 40
0.000000
 41
0.000000
 42
0.000000
  0
VERTEX
  8
PIN_SOLDERMASK_BOTTOM
 10
-50.910000
 20
40.565000
 40
0.000000
 41
0.000000
 42
0.000000
  0
SEQEND
  0
POLYLINE
  8
PIN_SOLDERMASK_BOTTOM
 66
1
 70
1
 40
0.000000
 41
0.000000
 39
0.000000
  0
VERTEX
  8
PIN_SOLDERMASK_BOTTOM
 10
-48.690000
 20
41.065000
 40
0.000000
 41
0.000000
 42
0.000000
  0
VERTEX
  8
PIN_SOLDERMASK_BOTTOM
 10
-48.690000
 20
41.435000
 40
0.000000
 41
0.000000
 42
0.000000
  0
VERTEX
  8
PIN_SOLDERMASK_BOTTOM
 10
-50.910000
 20
41.435000
 40
0.000000
 41
0.000000
 42
0.000000
  0
VERTEX
  8
PIN_SOLDERMASK_BOTTOM
 10
-50.910000
 20
41.065000
 40
0.000000
 41
0.000000
 42
0.000000
  0
SEQEND
  0
POLYLINE
  8
PIN_SOLDERMASK_BOTTOM
 66
1
 70
1
 40
0.000000
 41
0.000000
 39
0.000000
  0
VERTEX
  8
PIN_SOLDERMASK_BOTTOM
 10
-48.690000
 20
41.565000
 40
0.000000
 41
0.000000
 42
0.000000
  0
VERTEX
  8
PIN_SOLDERMASK_BOTTOM
 10
-48.690000
 20
41.935000
 40
0.000000
 41
0.000000
 42
0.000000
  0
VERTEX
  8
PIN_SOLDERMASK_BOTTOM
 10
-50.910000
 20
41.935000
 40
0.000000
 41
0.000000
 42
0.000000
  0
VERTEX
  8
PIN_SOLDERMASK_BOTTOM
 10
-50.910000
 20
41.565000
 40
0.000000
 41
0.000000
 42
0.000000
  0
SEQEND
  0
POLYLINE
  8
PIN_SOLDERMASK_BOTTOM
 66
1
 70
1
 40
0.000000
 41
0.000000
 39
0.000000
  0
VERTEX
  8
PIN_SOLDERMASK_BOTTOM
 10
-48.690000
 20
42.065000
 40
0.000000
 41
0.000000
 42
0.000000
  0
VERTEX
  8
PIN_SOLDERMASK_BOTTOM
 10
-48.690000
 20
42.435000
 40
0.000000
 41
0.000000
 42
0.000000
  0
VERTEX
  8
PIN_SOLDERMASK_BOTTOM
 10
-50.910000
 20
42.435000
 40
0.000000
 41
0.000000
 42
0.000000
  0
VERTEX
  8
PIN_SOLDERMASK_BOTTOM
 10
-50.910000
 20
42.065000
 40
0.000000
 41
0.000000
 42
0.000000
  0
SEQEND
  0
POLYLINE
  8
PIN_SOLDERMASK_BOTTOM
 66
1
 70
1
 40
0.000000
 41
0.000000
 39
0.000000
  0
VERTEX
  8
PIN_SOLDERMASK_BOTTOM
 10
-48.690000
 20
42.565000
 40
0.000000
 41
0.000000
 42
0.000000
  0
VERTEX
  8
PIN_SOLDERMASK_BOTTOM
 10
-48.690000
 20
42.935000
 40
0.000000
 41
0.000000
 42
0.000000
  0
VERTEX
  8
PIN_SOLDERMASK_BOTTOM
 10
-50.910000
 20
42.935000
 40
0.000000
 41
0.000000
 42
0.000000
  0
VERTEX
  8
PIN_SOLDERMASK_BOTTOM
 10
-50.910000
 20
42.565000
 40
0.000000
 41
0.000000
 42
0.000000
  0
SEQEND
  0
POLYLINE
  8
PIN_SOLDERMASK_BOTTOM
 66
1
 70
1
 40
0.000000
 41
0.000000
 39
0.000000
  0
VERTEX
  8
PIN_SOLDERMASK_BOTTOM
 10
-48.690000
 20
43.065000
 40
0.000000
 41
0.000000
 42
0.000000
  0
VERTEX
  8
PIN_SOLDERMASK_BOTTOM
 10
-48.690000
 20
43.435000
 40
0.000000
 41
0.000000
 42
0.000000
  0
VERTEX
  8
PIN_SOLDERMASK_BOTTOM
 10
-50.910000
 20
43.435000
 40
0.000000
 41
0.000000
 42
0.000000
  0
VERTEX
  8
PIN_SOLDERMASK_BOTTOM
 10
-50.910000
 20
43.065000
 40
0.000000
 41
0.000000
 42
0.000000
  0
SEQEND
  0
POLYLINE
  8
PIN_SOLDERMASK_BOTTOM
 66
1
 70
1
 40
0.000000
 41
0.000000
 39
0.000000
  0
VERTEX
  8
PIN_SOLDERMASK_BOTTOM
 10
-48.690000
 20
43.565000
 40
0.000000
 41
0.000000
 42
0.000000
  0
VERTEX
  8
PIN_SOLDERMASK_BOTTOM
 10
-48.690000
 20
43.935000
 40
0.000000
 41
0.000000
 42
0.000000
  0
VERTEX
  8
PIN_SOLDERMASK_BOTTOM
 10
-50.910000
 20
43.935000
 40
0.000000
 41
0.000000
 42
0.000000
  0
VERTEX
  8
PIN_SOLDERMASK_BOTTOM
 10
-50.910000
 20
43.565000
 40
0.000000
 41
0.000000
 42
0.000000
  0
SEQEND
  0
POLYLINE
  8
PIN_SOLDERMASK_BOTTOM
 66
1
 70
1
 40
0.000000
 41
0.000000
 39
0.000000
  0
VERTEX
  8
PIN_SOLDERMASK_BOTTOM
 10
-48.690000
 20
44.065000
 40
0.000000
 41
0.000000
 42
0.000000
  0
VERTEX
  8
PIN_SOLDERMASK_BOTTOM
 10
-48.690000
 20
44.435000
 40
0.000000
 41
0.000000
 42
0.000000
  0
VERTEX
  8
PIN_SOLDERMASK_BOTTOM
 10
-50.910000
 20
44.435000
 40
0.000000
 41
0.000000
 42
0.000000
  0
VERTEX
  8
PIN_SOLDERMASK_BOTTOM
 10
-50.910000
 20
44.065000
 40
0.000000
 41
0.000000
 42
0.000000
  0
SEQEND
  0
POLYLINE
  8
PIN_SOLDERMASK_BOTTOM
 66
1
 70
1
 40
0.000000
 41
0.000000
 39
0.000000
  0
VERTEX
  8
PIN_SOLDERMASK_BOTTOM
 10
-48.690000
 20
44.565000
 40
0.000000
 41
0.000000
 42
0.000000
  0
VERTEX
  8
PIN_SOLDERMASK_BOTTOM
 10
-48.690000
 20
44.935000
 40
0.000000
 41
0.000000
 42
0.000000
  0
VERTEX
  8
PIN_SOLDERMASK_BOTTOM
 10
-50.910000
 20
44.935000
 40
0.000000
 41
0.000000
 42
0.000000
  0
VERTEX
  8
PIN_SOLDERMASK_BOTTOM
 10
-50.910000
 20
44.565000
 40
0.000000
 41
0.000000
 42
0.000000
  0
SEQEND
  0
POLYLINE
  8
PIN_SOLDERMASK_BOTTOM
 66
1
 70
1
 40
0.000000
 41
0.000000
 39
0.000000
  0
VERTEX
  8
PIN_SOLDERMASK_BOTTOM
 10
-48.690000
 20
45.065000
 40
0.000000
 41
0.000000
 42
0.000000
  0
VERTEX
  8
PIN_SOLDERMASK_BOTTOM
 10
-48.690000
 20
45.435000
 40
0.000000
 41
0.000000
 42
0.000000
  0
VERTEX
  8
PIN_SOLDERMASK_BOTTOM
 10
-50.910000
 20
45.435000
 40
0.000000
 41
0.000000
 42
0.000000
  0
VERTEX
  8
PIN_SOLDERMASK_BOTTOM
 10
-50.910000
 20
45.065000
 40
0.000000
 41
0.000000
 42
0.000000
  0
SEQEND
  0
POLYLINE
  8
PIN_SOLDERMASK_BOTTOM
 66
1
 70
1
 40
0.000000
 41
0.000000
 39
0.000000
  0
VERTEX
  8
PIN_SOLDERMASK_BOTTOM
 10
-48.690000
 20
45.565000
 40
0.000000
 41
0.000000
 42
0.000000
  0
VERTEX
  8
PIN_SOLDERMASK_BOTTOM
 10
-48.690000
 20
45.935000
 40
0.000000
 41
0.000000
 42
0.000000
  0
VERTEX
  8
PIN_SOLDERMASK_BOTTOM
 10
-50.910000
 20
45.935000
 40
0.000000
 41
0.000000
 42
0.000000
  0
VERTEX
  8
PIN_SOLDERMASK_BOTTOM
 10
-50.910000
 20
45.565000
 40
0.000000
 41
0.000000
 42
0.000000
  0
SEQEND
  0
POLYLINE
  8
PIN_SOLDERMASK_BOTTOM
 66
1
 70
1
 40
0.000000
 41
0.000000
 39
0.000000
  0
VERTEX
  8
PIN_SOLDERMASK_BOTTOM
 10
-48.690000
 20
46.065000
 40
0.000000
 41
0.000000
 42
0.000000
  0
VERTEX
  8
PIN_SOLDERMASK_BOTTOM
 10
-48.690000
 20
46.435000
 40
0.000000
 41
0.000000
 42
0.000000
  0
VERTEX
  8
PIN_SOLDERMASK_BOTTOM
 10
-50.910000
 20
46.435000
 40
0.000000
 41
0.000000
 42
0.000000
  0
VERTEX
  8
PIN_SOLDERMASK_BOTTOM
 10
-50.910000
 20
46.065000
 40
0.000000
 41
0.000000
 42
0.000000
  0
SEQEND
  0
POLYLINE
  8
PIN_SOLDERMASK_BOTTOM
 66
1
 70
1
 40
0.000000
 41
0.000000
 39
0.000000
  0
VERTEX
  8
PIN_SOLDERMASK_BOTTOM
 10
-48.690000
 20
46.565000
 40
0.000000
 41
0.000000
 42
0.000000
  0
VERTEX
  8
PIN_SOLDERMASK_BOTTOM
 10
-48.690000
 20
46.935000
 40
0.000000
 41
0.000000
 42
0.000000
  0
VERTEX
  8
PIN_SOLDERMASK_BOTTOM
 10
-50.910000
 20
46.935000
 40
0.000000
 41
0.000000
 42
0.000000
  0
VERTEX
  8
PIN_SOLDERMASK_BOTTOM
 10
-50.910000
 20
46.565000
 40
0.000000
 41
0.000000
 42
0.000000
  0
SEQEND
  0
POLYLINE
  8
PIN_SOLDERMASK_BOTTOM
 66
1
 70
1
 40
0.000000
 41
0.000000
 39
0.000000
  0
VERTEX
  8
PIN_SOLDERMASK_BOTTOM
 10
-48.690000
 20
47.065000
 40
0.000000
 41
0.000000
 42
0.000000
  0
VERTEX
  8
PIN_SOLDERMASK_BOTTOM
 10
-48.690000
 20
47.435000
 40
0.000000
 41
0.000000
 42
0.000000
  0
VERTEX
  8
PIN_SOLDERMASK_BOTTOM
 10
-50.910000
 20
47.435000
 40
0.000000
 41
0.000000
 42
0.000000
  0
VERTEX
  8
PIN_SOLDERMASK_BOTTOM
 10
-50.910000
 20
47.065000
 40
0.000000
 41
0.000000
 42
0.000000
  0
SEQEND
  0
POLYLINE
  8
PIN_SOLDERMASK_BOTTOM
 66
1
 70
1
 40
0.000000
 41
0.000000
 39
0.000000
  0
VERTEX
  8
PIN_SOLDERMASK_BOTTOM
 10
-48.690000
 20
47.565000
 40
0.000000
 41
0.000000
 42
0.000000
  0
VERTEX
  8
PIN_SOLDERMASK_BOTTOM
 10
-48.690000
 20
47.935000
 40
0.000000
 41
0.000000
 42
0.000000
  0
VERTEX
  8
PIN_SOLDERMASK_BOTTOM
 10
-50.910000
 20
47.935000
 40
0.000000
 41
0.000000
 42
0.000000
  0
VERTEX
  8
PIN_SOLDERMASK_BOTTOM
 10
-50.910000
 20
47.565000
 40
0.000000
 41
0.000000
 42
0.000000
  0
SEQEND
  0
POLYLINE
  8
PIN_SOLDERMASK_BOTTOM
 66
1
 70
1
 40
0.000000
 41
0.000000
 39
0.000000
  0
VERTEX
  8
PIN_SOLDERMASK_BOTTOM
 10
-48.690000
 20
48.065000
 40
0.000000
 41
0.000000
 42
0.000000
  0
VERTEX
  8
PIN_SOLDERMASK_BOTTOM
 10
-48.690000
 20
48.435000
 40
0.000000
 41
0.000000
 42
0.000000
  0
VERTEX
  8
PIN_SOLDERMASK_BOTTOM
 10
-50.910000
 20
48.435000
 40
0.000000
 41
0.000000
 42
0.000000
  0
VERTEX
  8
PIN_SOLDERMASK_BOTTOM
 10
-50.910000
 20
48.065000
 40
0.000000
 41
0.000000
 42
0.000000
  0
SEQEND
  0
POLYLINE
  8
PIN_SOLDERMASK_BOTTOM
 66
1
 70
1
 40
0.000000
 41
0.000000
 39
0.000000
  0
VERTEX
  8
PIN_SOLDERMASK_BOTTOM
 10
-48.690000
 20
48.565000
 40
0.000000
 41
0.000000
 42
0.000000
  0
VERTEX
  8
PIN_SOLDERMASK_BOTTOM
 10
-48.690000
 20
48.935000
 40
0.000000
 41
0.000000
 42
0.000000
  0
VERTEX
  8
PIN_SOLDERMASK_BOTTOM
 10
-50.910000
 20
48.935000
 40
0.000000
 41
0.000000
 42
0.000000
  0
VERTEX
  8
PIN_SOLDERMASK_BOTTOM
 10
-50.910000
 20
48.565000
 40
0.000000
 41
0.000000
 42
0.000000
  0
SEQEND
  0
POLYLINE
  8
PIN_SOLDERMASK_BOTTOM
 66
1
 70
1
 40
0.000000
 41
0.000000
 39
0.000000
  0
VERTEX
  8
PIN_SOLDERMASK_BOTTOM
 10
-48.690000
 20
49.065000
 40
0.000000
 41
0.000000
 42
0.000000
  0
VERTEX
  8
PIN_SOLDERMASK_BOTTOM
 10
-48.690000
 20
49.435000
 40
0.000000
 41
0.000000
 42
0.000000
  0
VERTEX
  8
PIN_SOLDERMASK_BOTTOM
 10
-50.910000
 20
49.435000
 40
0.000000
 41
0.000000
 42
0.000000
  0
VERTEX
  8
PIN_SOLDERMASK_BOTTOM
 10
-50.910000
 20
49.065000
 40
0.000000
 41
0.000000
 42
0.000000
  0
SEQEND
  0
POLYLINE
  8
PIN_SOLDERMASK_BOTTOM
 66
1
 70
1
 40
0.000000
 41
0.000000
 39
0.000000
  0
VERTEX
  8
PIN_SOLDERMASK_BOTTOM
 10
-48.690000
 20
49.565000
 40
0.000000
 41
0.000000
 42
0.000000
  0
VERTEX
  8
PIN_SOLDERMASK_BOTTOM
 10
-48.690000
 20
49.935000
 40
0.000000
 41
0.000000
 42
0.000000
  0
VERTEX
  8
PIN_SOLDERMASK_BOTTOM
 10
-50.910000
 20
49.935000
 40
0.000000
 41
0.000000
 42
0.000000
  0
VERTEX
  8
PIN_SOLDERMASK_BOTTOM
 10
-50.910000
 20
49.565000
 40
0.000000
 41
0.000000
 42
0.000000
  0
SEQEND
  0
POLYLINE
  8
PIN_SOLDERMASK_BOTTOM
 66
1
 70
1
 40
0.000000
 41
0.000000
 39
0.000000
  0
VERTEX
  8
PIN_SOLDERMASK_BOTTOM
 10
-48.690000
 20
50.065000
 40
0.000000
 41
0.000000
 42
0.000000
  0
VERTEX
  8
PIN_SOLDERMASK_BOTTOM
 10
-48.690000
 20
50.435000
 40
0.000000
 41
0.000000
 42
0.000000
  0
VERTEX
  8
PIN_SOLDERMASK_BOTTOM
 10
-50.910000
 20
50.435000
 40
0.000000
 41
0.000000
 42
0.000000
  0
VERTEX
  8
PIN_SOLDERMASK_BOTTOM
 10
-50.910000
 20
50.065000
 40
0.000000
 41
0.000000
 42
0.000000
  0
SEQEND
  0
POLYLINE
  8
PIN_SOLDERMASK_BOTTOM
 66
1
 70
1
 40
0.000000
 41
0.000000
 39
0.000000
  0
VERTEX
  8
PIN_SOLDERMASK_BOTTOM
 10
-48.690000
 20
50.565000
 40
0.000000
 41
0.000000
 42
0.000000
  0
VERTEX
  8
PIN_SOLDERMASK_BOTTOM
 10
-48.690000
 20
50.935000
 40
0.000000
 41
0.000000
 42
0.000000
  0
VERTEX
  8
PIN_SOLDERMASK_BOTTOM
 10
-50.910000
 20
50.935000
 40
0.000000
 41
0.000000
 42
0.000000
  0
VERTEX
  8
PIN_SOLDERMASK_BOTTOM
 10
-50.910000
 20
50.565000
 40
0.000000
 41
0.000000
 42
0.000000
  0
SEQEND
  0
POLYLINE
  8
PIN_SOLDERMASK_BOTTOM
 66
1
 70
1
 40
0.000000
 41
0.000000
 39
0.000000
  0
VERTEX
  8
PIN_SOLDERMASK_BOTTOM
 10
-48.690000
 20
51.065000
 40
0.000000
 41
0.000000
 42
0.000000
  0
VERTEX
  8
PIN_SOLDERMASK_BOTTOM
 10
-48.690000
 20
51.435000
 40
0.000000
 41
0.000000
 42
0.000000
  0
VERTEX
  8
PIN_SOLDERMASK_BOTTOM
 10
-50.910000
 20
51.435000
 40
0.000000
 41
0.000000
 42
0.000000
  0
VERTEX
  8
PIN_SOLDERMASK_BOTTOM
 10
-50.910000
 20
51.065000
 40
0.000000
 41
0.000000
 42
0.000000
  0
SEQEND
  0
POLYLINE
  8
PIN_SOLDERMASK_BOTTOM
 66
1
 70
1
 40
0.000000
 41
0.000000
 39
0.000000
  0
VERTEX
  8
PIN_SOLDERMASK_BOTTOM
 10
-48.690000
 20
51.565000
 40
0.000000
 41
0.000000
 42
0.000000
  0
VERTEX
  8
PIN_SOLDERMASK_BOTTOM
 10
-48.690000
 20
51.935000
 40
0.000000
 41
0.000000
 42
0.000000
  0
VERTEX
  8
PIN_SOLDERMASK_BOTTOM
 10
-50.910000
 20
51.935000
 40
0.000000
 41
0.000000
 42
0.000000
  0
VERTEX
  8
PIN_SOLDERMASK_BOTTOM
 10
-50.910000
 20
51.565000
 40
0.000000
 41
0.000000
 42
0.000000
  0
SEQEND
  0
POLYLINE
  8
PIN_SOLDERMASK_BOTTOM
 66
1
 70
1
 40
0.000000
 41
0.000000
 39
0.000000
  0
VERTEX
  8
PIN_SOLDERMASK_BOTTOM
 10
-48.690000
 20
52.065000
 40
0.000000
 41
0.000000
 42
0.000000
  0
VERTEX
  8
PIN_SOLDERMASK_BOTTOM
 10
-48.690000
 20
52.435000
 40
0.000000
 41
0.000000
 42
0.000000
  0
VERTEX
  8
PIN_SOLDERMASK_BOTTOM
 10
-50.910000
 20
52.435000
 40
0.000000
 41
0.000000
 42
0.000000
  0
VERTEX
  8
PIN_SOLDERMASK_BOTTOM
 10
-50.910000
 20
52.065000
 40
0.000000
 41
0.000000
 42
0.000000
  0
SEQEND
  0
CIRCLE
  8
PIN_SOLDERMASK_BOTTOM
 10
-47.500000
 20
53.700000
 40
0.900000
  0
CIRCLE
  8
PIN_SOLDERMASK_BOTTOM
 10
-47.500000
 20
9.300000
 40
0.900000
  0
POLYLINE
  8
PIN_SOLDERMASK_BOTTOM
 66
1
 70
1
 40
0.000000
 41
0.000000
 39
0.000000
  0
VERTEX
  8
PIN_SOLDERMASK_BOTTOM
 10
-49.085000
 20
55.120000
 40
0.000000
 41
0.000000
 42
0.000000
  0
VERTEX
  8
PIN_SOLDERMASK_BOTTOM
 10
-45.915000
 20
55.120000
 40
0.000000
 41
0.000000
 42
0.000000
  0
VERTEX
  8
PIN_SOLDERMASK_BOTTOM
 10
-45.915000
 20
56.780000
 40
0.000000
 41
0.000000
 42
0.000000
  0
VERTEX
  8
PIN_SOLDERMASK_BOTTOM
 10
-49.085000
 20
56.780000
 40
0.000000
 41
0.000000
 42
0.000000
  0
SEQEND
  0
POLYLINE
  8
PIN_SOLDERMASK_BOTTOM
 66
1
 70
1
 40
0.000000
 41
0.000000
 39
0.000000
  0
VERTEX
  8
PIN_SOLDERMASK_BOTTOM
 10
-49.085000
 20
6.220000
 40
0.000000
 41
0.000000
 42
0.000000
  0
VERTEX
  8
PIN_SOLDERMASK_BOTTOM
 10
-45.915000
 20
6.220000
 40
0.000000
 41
0.000000
 42
0.000000
  0
VERTEX
  8
PIN_SOLDERMASK_BOTTOM
 10
-45.915000
 20
7.880000
 40
0.000000
 41
0.000000
 42
0.000000
  0
VERTEX
  8
PIN_SOLDERMASK_BOTTOM
 10
-49.085000
 20
7.880000
 40
0.000000
 41
0.000000
 42
0.000000
  0
SEQEND
  0
POLYLINE
  8
PIN_SOLDERMASK_BOTTOM
 66
1
 70
1
 40
0.000000
 41
0.000000
 39
0.000000
  0
VERTEX
  8
PIN_SOLDERMASK_BOTTOM
 10
-18.845000
 20
50.025000
 40
0.000000
 41
0.000000
 42
0.000000
  0
VERTEX
  8
PIN_SOLDERMASK_BOTTOM
 10
-20.555000
 20
50.025000
 40
0.000000
 41
0.000000
 42
0.000000
  0
VERTEX
  8
PIN_SOLDERMASK_BOTTOM
 10
-20.555000
 20
48.175000
 40
0.000000
 41
0.000000
 42
0.000000
  0
VERTEX
  8
PIN_SOLDERMASK_BOTTOM
 10
-18.845000
 20
48.175000
 40
0.000000
 41
0.000000
 42
0.000000
  0
SEQEND
  0
POLYLINE
  8
PIN_SOLDERMASK_BOTTOM
 66
1
 70
1
 40
0.000000
 41
0.000000
 39
0.000000
  0
VERTEX
  8
PIN_SOLDERMASK_BOTTOM
 10
-18.845000
 20
45.825000
 40
0.000000
 41
0.000000
 42
0.000000
  0
VERTEX
  8
PIN_SOLDERMASK_BOTTOM
 10
-20.555000
 20
45.825000
 40
0.000000
 41
0.000000
 42
0.000000
  0
VERTEX
  8
PIN_SOLDERMASK_BOTTOM
 10
-20.555000
 20
43.975000
 40
0.000000
 41
0.000000
 42
0.000000
  0
VERTEX
  8
PIN_SOLDERMASK_BOTTOM
 10
-18.845000
 20
43.975000
 40
0.000000
 41
0.000000
 42
0.000000
  0
SEQEND
  0
POLYLINE
  8
PIN_SOLDERMASK_BOTTOM
 66
1
 70
1
 40
0.000000
 41
0.000000
 39
0.000000
  0
VERTEX
  8
PIN_SOLDERMASK_BOTTOM
 10
-87.900000
 20
52.400000
 40
0.000000
 41
0.000000
 42
0.000000
  0
VERTEX
  8
PIN_SOLDERMASK_BOTTOM
 10
-87.900000
 20
53.800000
 40
0.000000
 41
0.000000
 42
0.000000
  0
VERTEX
  8
PIN_SOLDERMASK_BOTTOM
 10
-86.500000
 20
53.800000
 40
0.000000
 41
0.000000
 42
0.000000
  0
VERTEX
  8
PIN_SOLDERMASK_BOTTOM
 10
-86.500000
 20
52.400000
 40
0.000000
 41
0.000000
 42
0.000000
  0
SEQEND
  0
CIRCLE
  8
PIN_SOLDERMASK_BOTTOM
 10
-84.700000
 20
53.100000
 40
0.700000
  0
CIRCLE
  8
PIN_SOLDERMASK_BOTTOM
 10
-82.200000
 20
53.100000
 40
0.700000
  0
CIRCLE
  8
PIN_SOLDERMASK_BOTTOM
 10
-79.700000
 20
53.100000
 40
0.700000
  0
POLYLINE
  8
PIN_SOLDERMASK_BOTTOM
 66
1
 70
1
 40
0.000000
 41
0.000000
 39
0.000000
  0
VERTEX
  8
PIN_SOLDERMASK_BOTTOM
 10
-87.900000
 20
59.000000
 40
0.000000
 41
0.000000
 42
0.000000
  0
VERTEX
  8
PIN_SOLDERMASK_BOTTOM
 10
-87.900000
 20
60.400000
 40
0.000000
 41
0.000000
 42
0.000000
  0
VERTEX
  8
PIN_SOLDERMASK_BOTTOM
 10
-86.500000
 20
60.400000
 40
0.000000
 41
0.000000
 42
0.000000
  0
VERTEX
  8
PIN_SOLDERMASK_BOTTOM
 10
-86.500000
 20
59.000000
 40
0.000000
 41
0.000000
 42
0.000000
  0
SEQEND
  0
CIRCLE
  8
PIN_SOLDERMASK_BOTTOM
 10
-84.700000
 20
59.700000
 40
0.700000
  0
CIRCLE
  8
PIN_SOLDERMASK_BOTTOM
 10
-82.200000
 20
59.700000
 40
0.700000
  0
CIRCLE
  8
PIN_SOLDERMASK_BOTTOM
 10
-79.700000
 20
59.700000
 40
0.700000
  0
POLYLINE
  8
PIN_SOLDERMASK_BOTTOM
 66
1
 70
1
 40
0.000000
 41
0.000000
 39
0.000000
  0
VERTEX
  8
PIN_SOLDERMASK_BOTTOM
 10
-73.100000
 20
59.000000
 40
0.000000
 41
0.000000
 42
0.000000
  0
VERTEX
  8
PIN_SOLDERMASK_BOTTOM
 10
-73.100000
 20
60.400000
 40
0.000000
 41
0.000000
 42
0.000000
  0
VERTEX
  8
PIN_SOLDERMASK_BOTTOM
 10
-71.700000
 20
60.400000
 40
0.000000
 41
0.000000
 42
0.000000
  0
VERTEX
  8
PIN_SOLDERMASK_BOTTOM
 10
-71.700000
 20
59.000000
 40
0.000000
 41
0.000000
 42
0.000000
  0
SEQEND
  0
CIRCLE
  8
PIN_SOLDERMASK_BOTTOM
 10
-69.900000
 20
59.700000
 40
0.700000
  0
CIRCLE
  8
PIN_SOLDERMASK_BOTTOM
 10
-67.400000
 20
59.700000
 40
0.700000
  0
CIRCLE
  8
PIN_SOLDERMASK_BOTTOM
 10
-64.900000
 20
59.700000
 40
0.700000
  0
POLYLINE
  8
PIN_SOLDERMASK_BOTTOM
 66
1
 70
1
 40
0.000000
 41
0.000000
 39
0.000000
  0
VERTEX
  8
PIN_SOLDERMASK_BOTTOM
 10
-40.100000
 20
9.850000
 40
0.000000
 41
0.000000
 42
0.000000
  0
VERTEX
  8
PIN_SOLDERMASK_BOTTOM
 10
-38.900000
 20
9.850000
 40
0.000000
 41
0.000000
 42
0.000000
  0
VERTEX
  8
PIN_SOLDERMASK_BOTTOM
 10
-38.900000
 20
8.650000
 40
0.000000
 41
0.000000
 42
0.000000
  0
VERTEX
  8
PIN_SOLDERMASK_BOTTOM
 10
-40.100000
 20
8.650000
 40
0.000000
 41
0.000000
 42
0.000000
  0
SEQEND
  0
CIRCLE
  8
PIN_SOLDERMASK_BOTTOM
 10
-39.500000
 20
5.750000
 40
0.600000
  0
POLYLINE
  8
PIN_SOLDERMASK_BOTTOM
 66
1
 70
1
 40
0.000000
 41
0.000000
 39
0.000000
  0
VERTEX
  8
PIN_SOLDERMASK_BOTTOM
 10
-5.700000
 20
20.950000
 40
0.000000
 41
0.000000
 42
0.000000
  0
VERTEX
  8
PIN_SOLDERMASK_BOTTOM
 10
-4.500000
 20
20.950000
 40
0.000000
 41
0.000000
 42
0.000000
  0
VERTEX
  8
PIN_SOLDERMASK_BOTTOM
 10
-4.500000
 20
19.750000
 40
0.000000
 41
0.000000
 42
0.000000
  0
VERTEX
  8
PIN_SOLDERMASK_BOTTOM
 10
-5.700000
 20
19.750000
 40
0.000000
 41
0.000000
 42
0.000000
  0
SEQEND
  0
CIRCLE
  8
PIN_SOLDERMASK_BOTTOM
 10
-5.100000
 20
16.850000
 40
0.600000
  0
POLYLINE
  8
PIN_SOLDERMASK_BOTTOM
 66
1
 70
1
 40
0.000000
 41
0.000000
 39
0.000000
  0
VERTEX
  8
PIN_SOLDERMASK_BOTTOM
 10
-98.925000
 20
39.975000
 40
0.000000
 41
0.000000
 42
0.000000
  0
VERTEX
  8
PIN_SOLDERMASK_BOTTOM
 10
-98.925000
 20
41.025000
 40
0.000000
 41
0.000000
 42
0.000000
  0
VERTEX
  8
PIN_SOLDERMASK_BOTTOM
 10
-97.875000
 20
41.025000
 40
0.000000
 41
0.000000
 42
0.000000
  0
VERTEX
  8
PIN_SOLDERMASK_BOTTOM
 10
-97.875000
 20
39.975000
 40
0.000000
 41
0.000000
 42
0.000000
  0
SEQEND
  0
CIRCLE
  8
PIN_SOLDERMASK_BOTTOM
 10
-98.400000
 20
41.770000
 40
0.525000
  0
CIRCLE
  8
PIN_SOLDERMASK_BOTTOM
 10
-97.130000
 20
40.500000
 40
0.525000
  0
CIRCLE
  8
PIN_SOLDERMASK_BOTTOM
 10
-97.130000
 20
41.770000
 40
0.525000
  0
CIRCLE
  8
PIN_SOLDERMASK_BOTTOM
 10
-95.860000
 20
40.500000
 40
0.525000
  0
CIRCLE
  8
PIN_SOLDERMASK_BOTTOM
 10
-95.860000
 20
41.770000
 40
0.525000
  0
CIRCLE
  8
PIN_SOLDERMASK_BOTTOM
 10
-94.590000
 20
40.500000
 40
0.525000
  0
CIRCLE
  8
PIN_SOLDERMASK_BOTTOM
 10
-94.590000
 20
41.770000
 40
0.525000
  0
CIRCLE
  8
PIN_SOLDERMASK_BOTTOM
 10
-93.320000
 20
40.500000
 40
0.525000
  0
CIRCLE
  8
PIN_SOLDERMASK_BOTTOM
 10
-93.320000
 20
41.770000
 40
0.525000
  0
POLYLINE
  8
PIN_SOLDERMASK_BOTTOM
 66
1
 70
1
 40
0.000000
 41
0.000000
 39
0.000000
  0
VERTEX
  8
PIN_SOLDERMASK_BOTTOM
 10
-111.475000
 20
40.275000
 40
0.000000
 41
0.000000
 42
0.000000
  0
VERTEX
  8
PIN_SOLDERMASK_BOTTOM
 10
-112.525000
 20
40.275000
 40
0.000000
 41
0.000000
 42
0.000000
  0
VERTEX
  8
PIN_SOLDERMASK_BOTTOM
 10
-112.525000
 20
41.325000
 40
0.000000
 41
0.000000
 42
0.000000
  0
VERTEX
  8
PIN_SOLDERMASK_BOTTOM
 10
-111.475000
 20
41.325000
 40
0.000000
 41
0.000000
 42
0.000000
  0
SEQEND
  0
CIRCLE
  8
PIN_SOLDERMASK_BOTTOM
 10
-113.270000
 20
40.800000
 40
0.525000
  0
CIRCLE
  8
PIN_SOLDERMASK_BOTTOM
 10
-112.000000
 20
42.070000
 40
0.525000
  0
CIRCLE
  8
PIN_SOLDERMASK_BOTTOM
 10
-113.270000
 20
42.070000
 40
0.525000
  0
CIRCLE
  8
PIN_SOLDERMASK_BOTTOM
 10
-112.000000
 20
43.340000
 40
0.525000
  0
CIRCLE
  8
PIN_SOLDERMASK_BOTTOM
 10
-113.270000
 20
43.340000
 40
0.525000
  0
CIRCLE
  8
PIN_SOLDERMASK_BOTTOM
 10
-112.000000
 20
44.610000
 40
0.525000
  0
CIRCLE
  8
PIN_SOLDERMASK_BOTTOM
 10
-113.270000
 20
44.610000
 40
0.525000
  0
CIRCLE
  8
PIN_SOLDERMASK_BOTTOM
 10
-112.000000
 20
45.880000
 40
0.525000
  0
CIRCLE
  8
PIN_SOLDERMASK_BOTTOM
 10
-113.270000
 20
45.880000
 40
0.525000
  0
POLYLINE
  8
PIN_SOLDERMASK_BOTTOM
 66
1
 70
1
 40
0.000000
 41
0.000000
 39
0.000000
  0
VERTEX
  8
PIN_SOLDERMASK_BOTTOM
 10
-13.150000
 20
44.150000
 40
0.000000
 41
0.000000
 42
0.000000
  0
VERTEX
  8
PIN_SOLDERMASK_BOTTOM
 10
-14.650000
 20
44.150000
 40
0.000000
 41
0.000000
 42
0.000000
  0
VERTEX
  8
PIN_SOLDERMASK_BOTTOM
 10
-14.650000
 20
45.650000
 40
0.000000
 41
0.000000
 42
0.000000
  0
VERTEX
  8
PIN_SOLDERMASK_BOTTOM
 10
-13.150000
 20
45.650000
 40
0.000000
 41
0.000000
 42
0.000000
  0
SEQEND
  0
CIRCLE
  8
PIN_SOLDERMASK_BOTTOM
 10
-13.900000
 20
47.400000
 40
0.750000
  0
CIRCLE
  8
PIN_SOLDERMASK_BOTTOM
 10
-13.900000
 20
49.400000
 40
0.750000
  0
CIRCLE
  8
PIN_SOLDERMASK_BOTTOM
 10
-13.900000
 20
51.900000
 40
0.750000
  0
CIRCLE
  8
PIN_SOLDERMASK_BOTTOM
 10
-11.190000
 20
41.500000
 40
1.725000
  0
CIRCLE
  8
PIN_SOLDERMASK_BOTTOM
 10
-11.190000
 20
55.300000
 40
1.725000
  0
POLYLINE
  8
PIN_SOLDERMASK_BOTTOM
 66
1
 70
1
 40
0.000000
 41
0.000000
 39
0.000000
  0
VERTEX
  8
PIN_SOLDERMASK_BOTTOM
 10
-12.360000
 20
31.385000
 40
0.000000
 41
0.000000
 42
0.000000
  0
VERTEX
  8
PIN_SOLDERMASK_BOTTOM
 10
-12.360000
 20
31.015000
 40
0.000000
 41
0.000000
 42
0.000000
  0
VERTEX
  8
PIN_SOLDERMASK_BOTTOM
 10
-11.640000
 20
31.015000
 40
0.000000
 41
0.000000
 42
0.000000
  0
VERTEX
  8
PIN_SOLDERMASK_BOTTOM
 10
-11.640000
 20
31.385000
 40
0.000000
 41
0.000000
 42
0.000000
  0
SEQEND
  0
POLYLINE
  8
PIN_SOLDERMASK_BOTTOM
 66
1
 70
1
 40
0.000000
 41
0.000000
 39
0.000000
  0
VERTEX
  8
PIN_SOLDERMASK_BOTTOM
 10
-12.360000
 20
31.885000
 40
0.000000
 41
0.000000
 42
0.000000
  0
VERTEX
  8
PIN_SOLDERMASK_BOTTOM
 10
-12.360000
 20
31.515000
 40
0.000000
 41
0.000000
 42
0.000000
  0
VERTEX
  8
PIN_SOLDERMASK_BOTTOM
 10
-11.640000
 20
31.515000
 40
0.000000
 41
0.000000
 42
0.000000
  0
VERTEX
  8
PIN_SOLDERMASK_BOTTOM
 10
-11.640000
 20
31.885000
 40
0.000000
 41
0.000000
 42
0.000000
  0
SEQEND
  0
POLYLINE
  8
PIN_SOLDERMASK_BOTTOM
 66
1
 70
1
 40
0.000000
 41
0.000000
 39
0.000000
  0
VERTEX
  8
PIN_SOLDERMASK_BOTTOM
 10
-12.360000
 20
32.385000
 40
0.000000
 41
0.000000
 42
0.000000
  0
VERTEX
  8
PIN_SOLDERMASK_BOTTOM
 10
-12.360000
 20
32.015000
 40
0.000000
 41
0.000000
 42
0.000000
  0
VERTEX
  8
PIN_SOLDERMASK_BOTTOM
 10
-11.640000
 20
32.015000
 40
0.000000
 41
0.000000
 42
0.000000
  0
VERTEX
  8
PIN_SOLDERMASK_BOTTOM
 10
-11.640000
 20
32.385000
 40
0.000000
 41
0.000000
 42
0.000000
  0
SEQEND
  0
POLYLINE
  8
PIN_SOLDERMASK_BOTTOM
 66
1
 70
1
 40
0.000000
 41
0.000000
 39
0.000000
  0
VERTEX
  8
PIN_SOLDERMASK_BOTTOM
 10
-10.560000
 20
32.385000
 40
0.000000
 41
0.000000
 42
0.000000
  0
VERTEX
  8
PIN_SOLDERMASK_BOTTOM
 10
-10.560000
 20
32.015000
 40
0.000000
 41
0.000000
 42
0.000000
  0
VERTEX
  8
PIN_SOLDERMASK_BOTTOM
 10
-9.840000
 20
32.015000
 40
0.000000
 41
0.000000
 42
0.000000
  0
VERTEX
  8
PIN_SOLDERMASK_BOTTOM
 10
-9.840000
 20
32.385000
 40
0.000000
 41
0.000000
 42
0.000000
  0
SEQEND
  0
POLYLINE
  8
PIN_SOLDERMASK_BOTTOM
 66
1
 70
1
 40
0.000000
 41
0.000000
 39
0.000000
  0
VERTEX
  8
PIN_SOLDERMASK_BOTTOM
 10
-10.560000
 20
31.385000
 40
0.000000
 41
0.000000
 42
0.000000
  0
VERTEX
  8
PIN_SOLDERMASK_BOTTOM
 10
-10.560000
 20
31.015000
 40
0.000000
 41
0.000000
 42
0.000000
  0
VERTEX
  8
PIN_SOLDERMASK_BOTTOM
 10
-9.840000
 20
31.015000
 40
0.000000
 41
0.000000
 42
0.000000
  0
VERTEX
  8
PIN_SOLDERMASK_BOTTOM
 10
-9.840000
 20
31.385000
 40
0.000000
 41
0.000000
 42
0.000000
  0
SEQEND
  0
POLYLINE
  8
PIN_SOLDERMASK_BOTTOM
 66
1
 70
1
 40
0.000000
 41
0.000000
 39
0.000000
  0
VERTEX
  8
PIN_SOLDERMASK_BOTTOM
 10
-15.100000
 20
31.400000
 40
0.000000
 41
0.000000
 42
0.000000
  0
VERTEX
  8
PIN_SOLDERMASK_BOTTOM
 10
-16.500000
 20
31.400000
 40
0.000000
 41
0.000000
 42
0.000000
  0
VERTEX
  8
PIN_SOLDERMASK_BOTTOM
 10
-16.500000
 20
32.800000
 40
0.000000
 41
0.000000
 42
0.000000
  0
VERTEX
  8
PIN_SOLDERMASK_BOTTOM
 10
-15.100000
 20
32.800000
 40
0.000000
 41
0.000000
 42
0.000000
  0
SEQEND
  0
CIRCLE
  8
PIN_SOLDERMASK_BOTTOM
 10
-15.800000
 20
30.100000
 40
0.700000
  0
CIRCLE
  8
PIN_SOLDERMASK_BOTTOM
 10
-13.800000
 20
30.100000
 40
0.700000
  0
CIRCLE
  8
PIN_SOLDERMASK_BOTTOM
 10
-13.800000
 20
32.100000
 40
0.700000
  0
CIRCLE
  8
PIN_SOLDERMASK_BOTTOM
 10
-11.090000
 20
25.330000
 40
1.725000
  0
CIRCLE
  8
PIN_SOLDERMASK_BOTTOM
 10
-11.090000
 20
37.370000
 40
1.725000
  0
POLYLINE
  8
PIN_SOLDERMASK_BOTTOM
 66
1
 70
1
 40
0.000000
 41
0.000000
 39
0.000000
  0
VERTEX
  8
PIN_SOLDERMASK_BOTTOM
 10
-133.275000
 20
37.680000
 40
0.000000
 41
0.000000
 42
0.000000
  0
VERTEX
  8
PIN_SOLDERMASK_BOTTOM
 10
-133.275000
 20
38.320000
 40
0.000000
 41
0.000000
 42
0.000000
  0
VERTEX
  8
PIN_SOLDERMASK_BOTTOM
 10
-133.965000
 20
38.320000
 40
0.000000
 41
0.000000
 42
0.000000
  0
VERTEX
  8
PIN_SOLDERMASK_BOTTOM
 10
-133.965000
 20
37.680000
 40
0.000000
 41
0.000000
 42
0.000000
  0
SEQEND
  0
POLYLINE
  8
PIN_SOLDERMASK_BOTTOM
 66
1
 70
1
 40
0.000000
 41
0.000000
 39
0.000000
  0
VERTEX
  8
PIN_SOLDERMASK_BOTTOM
 10
-133.275000
 20
36.720000
 40
0.000000
 41
0.000000
 42
0.000000
  0
VERTEX
  8
PIN_SOLDERMASK_BOTTOM
 10
-133.275000
 20
37.360000
 40
0.000000
 41
0.000000
 42
0.000000
  0
VERTEX
  8
PIN_SOLDERMASK_BOTTOM
 10
-133.965000
 20
37.360000
 40
0.000000
 41
0.000000
 42
0.000000
  0
VERTEX
  8
PIN_SOLDERMASK_BOTTOM
 10
-133.965000
 20
36.720000
 40
0.000000
 41
0.000000
 42
0.000000
  0
SEQEND
  0
POLYLINE
  8
PIN_SOLDERMASK_BOTTOM
 66
1
 70
1
 40
0.000000
 41
0.000000
 39
0.000000
  0
VERTEX
  8
PIN_SOLDERMASK_BOTTOM
 10
-134.405000
 20
28.780000
 40
0.000000
 41
0.000000
 42
0.000000
  0
VERTEX
  8
PIN_SOLDERMASK_BOTTOM
 10
-134.405000
 20
28.140000
 40
0.000000
 41
0.000000
 42
0.000000
  0
VERTEX
  8
PIN_SOLDERMASK_BOTTOM
 10
-133.715000
 20
28.140000
 40
0.000000
 41
0.000000
 42
0.000000
  0
VERTEX
  8
PIN_SOLDERMASK_BOTTOM
 10
-133.715000
 20
28.780000
 40
0.000000
 41
0.000000
 42
0.000000
  0
SEQEND
  0
POLYLINE
  8
PIN_SOLDERMASK_BOTTOM
 66
1
 70
1
 40
0.000000
 41
0.000000
 39
0.000000
  0
VERTEX
  8
PIN_SOLDERMASK_BOTTOM
 10
-134.405000
 20
29.740000
 40
0.000000
 41
0.000000
 42
0.000000
  0
VERTEX
  8
PIN_SOLDERMASK_BOTTOM
 10
-134.405000
 20
29.100000
 40
0.000000
 41
0.000000
 42
0.000000
  0
VERTEX
  8
PIN_SOLDERMASK_BOTTOM
 10
-133.715000
 20
29.100000
 40
0.000000
 41
0.000000
 42
0.000000
  0
VERTEX
  8
PIN_SOLDERMASK_BOTTOM
 10
-133.715000
 20
29.740000
 40
0.000000
 41
0.000000
 42
0.000000
  0
SEQEND
  0
POLYLINE
  8
PIN_SOLDERMASK_BOTTOM
 66
1
 70
1
 40
0.000000
 41
0.000000
 39
0.000000
  0
VERTEX
  8
PIN_SOLDERMASK_BOTTOM
 10
-128.955000
 20
26.061200
 40
0.000000
 41
0.000000
 42
0.000000
  0
VERTEX
  8
PIN_SOLDERMASK_BOTTOM
 10
-128.955000
 20
26.701200
 40
0.000000
 41
0.000000
 42
0.000000
  0
VERTEX
  8
PIN_SOLDERMASK_BOTTOM
 10
-129.645000
 20
26.701200
 40
0.000000
 41
0.000000
 42
0.000000
  0
VERTEX
  8
PIN_SOLDERMASK_BOTTOM
 10
-129.645000
 20
26.061200
 40
0.000000
 41
0.000000
 42
0.000000
  0
SEQEND
  0
POLYLINE
  8
PIN_SOLDERMASK_BOTTOM
 66
1
 70
1
 40
0.000000
 41
0.000000
 39
0.000000
  0
VERTEX
  8
PIN_SOLDERMASK_BOTTOM
 10
-128.955000
 20
25.101200
 40
0.000000
 41
0.000000
 42
0.000000
  0
VERTEX
  8
PIN_SOLDERMASK_BOTTOM
 10
-128.955000
 20
25.741200
 40
0.000000
 41
0.000000
 42
0.000000
  0
VERTEX
  8
PIN_SOLDERMASK_BOTTOM
 10
-129.645000
 20
25.741200
 40
0.000000
 41
0.000000
 42
0.000000
  0
VERTEX
  8
PIN_SOLDERMASK_BOTTOM
 10
-129.645000
 20
25.101200
 40
0.000000
 41
0.000000
 42
0.000000
  0
SEQEND
  0
POLYLINE
  8
PIN_SOLDERMASK_BOTTOM
 66
1
 70
1
 40
0.000000
 41
0.000000
 39
0.000000
  0
VERTEX
  8
PIN_SOLDERMASK_BOTTOM
 10
-130.657200
 20
25.741200
 40
0.000000
 41
0.000000
 42
0.000000
  0
VERTEX
  8
PIN_SOLDERMASK_BOTTOM
 10
-130.657200
 20
25.101200
 40
0.000000
 41
0.000000
 42
0.000000
  0
VERTEX
  8
PIN_SOLDERMASK_BOTTOM
 10
-129.967200
 20
25.101200
 40
0.000000
 41
0.000000
 42
0.000000
  0
VERTEX
  8
PIN_SOLDERMASK_BOTTOM
 10
-129.967200
 20
25.741200
 40
0.000000
 41
0.000000
 42
0.000000
  0
SEQEND
  0
POLYLINE
  8
PIN_SOLDERMASK_BOTTOM
 66
1
 70
1
 40
0.000000
 41
0.000000
 39
0.000000
  0
VERTEX
  8
PIN_SOLDERMASK_BOTTOM
 10
-130.657200
 20
26.701200
 40
0.000000
 41
0.000000
 42
0.000000
  0
VERTEX
  8
PIN_SOLDERMASK_BOTTOM
 10
-130.657200
 20
26.061200
 40
0.000000
 41
0.000000
 42
0.000000
  0
VERTEX
  8
PIN_SOLDERMASK_BOTTOM
 10
-129.967200
 20
26.061200
 40
0.000000
 41
0.000000
 42
0.000000
  0
VERTEX
  8
PIN_SOLDERMASK_BOTTOM
 10
-129.967200
 20
26.701200
 40
0.000000
 41
0.000000
 42
0.000000
  0
SEQEND
  0
POLYLINE
  8
PIN_SOLDERMASK_BOTTOM
 66
1
 70
1
 40
0.000000
 41
0.000000
 39
0.000000
  0
VERTEX
  8
PIN_SOLDERMASK_BOTTOM
 10
-128.975000
 20
56.840000
 40
0.000000
 41
0.000000
 42
0.000000
  0
VERTEX
  8
PIN_SOLDERMASK_BOTTOM
 10
-128.975000
 20
56.200000
 40
0.000000
 41
0.000000
 42
0.000000
  0
VERTEX
  8
PIN_SOLDERMASK_BOTTOM
 10
-128.285000
 20
56.200000
 40
0.000000
 41
0.000000
 42
0.000000
  0
VERTEX
  8
PIN_SOLDERMASK_BOTTOM
 10
-128.285000
 20
56.840000
 40
0.000000
 41
0.000000
 42
0.000000
  0
SEQEND
  0
POLYLINE
  8
PIN_SOLDERMASK_BOTTOM
 66
1
 70
1
 40
0.000000
 41
0.000000
 39
0.000000
  0
VERTEX
  8
PIN_SOLDERMASK_BOTTOM
 10
-128.975000
 20
57.800000
 40
0.000000
 41
0.000000
 42
0.000000
  0
VERTEX
  8
PIN_SOLDERMASK_BOTTOM
 10
-128.975000
 20
57.160000
 40
0.000000
 41
0.000000
 42
0.000000
  0
VERTEX
  8
PIN_SOLDERMASK_BOTTOM
 10
-128.285000
 20
57.160000
 40
0.000000
 41
0.000000
 42
0.000000
  0
VERTEX
  8
PIN_SOLDERMASK_BOTTOM
 10
-128.285000
 20
57.800000
 40
0.000000
 41
0.000000
 42
0.000000
  0
SEQEND
  0
POLYLINE
  8
PIN_SOLDERMASK_BOTTOM
 66
1
 70
1
 40
0.000000
 41
0.000000
 39
0.000000
  0
VERTEX
  8
PIN_SOLDERMASK_BOTTOM
 10
-119.745000
 20
58.710000
 40
0.000000
 41
0.000000
 42
0.000000
  0
VERTEX
  8
PIN_SOLDERMASK_BOTTOM
 10
-119.745000
 20
58.070000
 40
0.000000
 41
0.000000
 42
0.000000
  0
VERTEX
  8
PIN_SOLDERMASK_BOTTOM
 10
-119.055000
 20
58.070000
 40
0.000000
 41
0.000000
 42
0.000000
  0
VERTEX
  8
PIN_SOLDERMASK_BOTTOM
 10
-119.055000
 20
58.710000
 40
0.000000
 41
0.000000
 42
0.000000
  0
SEQEND
  0
POLYLINE
  8
PIN_SOLDERMASK_BOTTOM
 66
1
 70
1
 40
0.000000
 41
0.000000
 39
0.000000
  0
VERTEX
  8
PIN_SOLDERMASK_BOTTOM
 10
-119.745000
 20
59.670000
 40
0.000000
 41
0.000000
 42
0.000000
  0
VERTEX
  8
PIN_SOLDERMASK_BOTTOM
 10
-119.745000
 20
59.030000
 40
0.000000
 41
0.000000
 42
0.000000
  0
VERTEX
  8
PIN_SOLDERMASK_BOTTOM
 10
-119.055000
 20
59.030000
 40
0.000000
 41
0.000000
 42
0.000000
  0
VERTEX
  8
PIN_SOLDERMASK_BOTTOM
 10
-119.055000
 20
59.670000
 40
0.000000
 41
0.000000
 42
0.000000
  0
SEQEND
  0
POLYLINE
  8
PIN_SOLDERMASK_BOTTOM
 66
1
 70
1
 40
0.000000
 41
0.000000
 39
0.000000
  0
VERTEX
  8
PIN_SOLDERMASK_BOTTOM
 10
-125.245000
 20
58.710000
 40
0.000000
 41
0.000000
 42
0.000000
  0
VERTEX
  8
PIN_SOLDERMASK_BOTTOM
 10
-125.245000
 20
58.070000
 40
0.000000
 41
0.000000
 42
0.000000
  0
VERTEX
  8
PIN_SOLDERMASK_BOTTOM
 10
-124.555000
 20
58.070000
 40
0.000000
 41
0.000000
 42
0.000000
  0
VERTEX
  8
PIN_SOLDERMASK_BOTTOM
 10
-124.555000
 20
58.710000
 40
0.000000
 41
0.000000
 42
0.000000
  0
SEQEND
  0
POLYLINE
  8
PIN_SOLDERMASK_BOTTOM
 66
1
 70
1
 40
0.000000
 41
0.000000
 39
0.000000
  0
VERTEX
  8
PIN_SOLDERMASK_BOTTOM
 10
-125.245000
 20
59.670000
 40
0.000000
 41
0.000000
 42
0.000000
  0
VERTEX
  8
PIN_SOLDERMASK_BOTTOM
 10
-125.245000
 20
59.030000
 40
0.000000
 41
0.000000
 42
0.000000
  0
VERTEX
  8
PIN_SOLDERMASK_BOTTOM
 10
-124.555000
 20
59.030000
 40
0.000000
 41
0.000000
 42
0.000000
  0
VERTEX
  8
PIN_SOLDERMASK_BOTTOM
 10
-124.555000
 20
59.670000
 40
0.000000
 41
0.000000
 42
0.000000
  0
SEQEND
  0
POLYLINE
  8
PIN_SOLDERMASK_BOTTOM
 66
1
 70
1
 40
0.000000
 41
0.000000
 39
0.000000
  0
VERTEX
  8
PIN_SOLDERMASK_BOTTOM
 10
-124.155000
 20
58.720000
 40
0.000000
 41
0.000000
 42
0.000000
  0
VERTEX
  8
PIN_SOLDERMASK_BOTTOM
 10
-124.155000
 20
58.080000
 40
0.000000
 41
0.000000
 42
0.000000
  0
VERTEX
  8
PIN_SOLDERMASK_BOTTOM
 10
-123.465000
 20
58.080000
 40
0.000000
 41
0.000000
 42
0.000000
  0
VERTEX
  8
PIN_SOLDERMASK_BOTTOM
 10
-123.465000
 20
58.720000
 40
0.000000
 41
0.000000
 42
0.000000
  0
SEQEND
  0
POLYLINE
  8
PIN_SOLDERMASK_BOTTOM
 66
1
 70
1
 40
0.000000
 41
0.000000
 39
0.000000
  0
VERTEX
  8
PIN_SOLDERMASK_BOTTOM
 10
-124.155000
 20
59.680000
 40
0.000000
 41
0.000000
 42
0.000000
  0
VERTEX
  8
PIN_SOLDERMASK_BOTTOM
 10
-124.155000
 20
59.040000
 40
0.000000
 41
0.000000
 42
0.000000
  0
VERTEX
  8
PIN_SOLDERMASK_BOTTOM
 10
-123.465000
 20
59.040000
 40
0.000000
 41
0.000000
 42
0.000000
  0
VERTEX
  8
PIN_SOLDERMASK_BOTTOM
 10
-123.465000
 20
59.680000
 40
0.000000
 41
0.000000
 42
0.000000
  0
SEQEND
  0
POLYLINE
  8
PIN_SOLDERMASK_BOTTOM
 66
1
 70
1
 40
0.000000
 41
0.000000
 39
0.000000
  0
VERTEX
  8
PIN_SOLDERMASK_BOTTOM
 10
-100.180000
 20
25.285000
 40
0.000000
 41
0.000000
 42
0.000000
  0
VERTEX
  8
PIN_SOLDERMASK_BOTTOM
 10
-99.540000
 20
25.285000
 40
0.000000
 41
0.000000
 42
0.000000
  0
VERTEX
  8
PIN_SOLDERMASK_BOTTOM
 10
-99.540000
 20
25.975000
 40
0.000000
 41
0.000000
 42
0.000000
  0
VERTEX
  8
PIN_SOLDERMASK_BOTTOM
 10
-100.180000
 20
25.975000
 40
0.000000
 41
0.000000
 42
0.000000
  0
SEQEND
  0
POLYLINE
  8
PIN_SOLDERMASK_BOTTOM
 66
1
 70
1
 40
0.000000
 41
0.000000
 39
0.000000
  0
VERTEX
  8
PIN_SOLDERMASK_BOTTOM
 10
-101.140000
 20
25.285000
 40
0.000000
 41
0.000000
 42
0.000000
  0
VERTEX
  8
PIN_SOLDERMASK_BOTTOM
 10
-100.500000
 20
25.285000
 40
0.000000
 41
0.000000
 42
0.000000
  0
VERTEX
  8
PIN_SOLDERMASK_BOTTOM
 10
-100.500000
 20
25.975000
 40
0.000000
 41
0.000000
 42
0.000000
  0
VERTEX
  8
PIN_SOLDERMASK_BOTTOM
 10
-101.140000
 20
25.975000
 40
0.000000
 41
0.000000
 42
0.000000
  0
SEQEND
  0
POLYLINE
  8
PIN_SOLDERMASK_BOTTOM
 66
1
 70
1
 40
0.000000
 41
0.000000
 39
0.000000
  0
VERTEX
  8
PIN_SOLDERMASK_BOTTOM
 10
-100.180000
 20
26.225000
 40
0.000000
 41
0.000000
 42
0.000000
  0
VERTEX
  8
PIN_SOLDERMASK_BOTTOM
 10
-99.540000
 20
26.225000
 40
0.000000
 41
0.000000
 42
0.000000
  0
VERTEX
  8
PIN_SOLDERMASK_BOTTOM
 10
-99.540000
 20
26.915000
 40
0.000000
 41
0.000000
 42
0.000000
  0
VERTEX
  8
PIN_SOLDERMASK_BOTTOM
 10
-100.180000
 20
26.915000
 40
0.000000
 41
0.000000
 42
0.000000
  0
SEQEND
  0
POLYLINE
  8
PIN_SOLDERMASK_BOTTOM
 66
1
 70
1
 40
0.000000
 41
0.000000
 39
0.000000
  0
VERTEX
  8
PIN_SOLDERMASK_BOTTOM
 10
-101.140000
 20
26.225000
 40
0.000000
 41
0.000000
 42
0.000000
  0
VERTEX
  8
PIN_SOLDERMASK_BOTTOM
 10
-100.500000
 20
26.225000
 40
0.000000
 41
0.000000
 42
0.000000
  0
VERTEX
  8
PIN_SOLDERMASK_BOTTOM
 10
-100.500000
 20
26.915000
 40
0.000000
 41
0.000000
 42
0.000000
  0
VERTEX
  8
PIN_SOLDERMASK_BOTTOM
 10
-101.140000
 20
26.915000
 40
0.000000
 41
0.000000
 42
0.000000
  0
SEQEND
  0
POLYLINE
  8
PIN_SOLDERMASK_BOTTOM
 66
1
 70
1
 40
0.000000
 41
0.000000
 39
0.000000
  0
VERTEX
  8
PIN_SOLDERMASK_BOTTOM
 10
-100.180000
 20
27.165000
 40
0.000000
 41
0.000000
 42
0.000000
  0
VERTEX
  8
PIN_SOLDERMASK_BOTTOM
 10
-99.540000
 20
27.165000
 40
0.000000
 41
0.000000
 42
0.000000
  0
VERTEX
  8
PIN_SOLDERMASK_BOTTOM
 10
-99.540000
 20
27.855000
 40
0.000000
 41
0.000000
 42
0.000000
  0
VERTEX
  8
PIN_SOLDERMASK_BOTTOM
 10
-100.180000
 20
27.855000
 40
0.000000
 41
0.000000
 42
0.000000
  0
SEQEND
  0
POLYLINE
  8
PIN_SOLDERMASK_BOTTOM
 66
1
 70
1
 40
0.000000
 41
0.000000
 39
0.000000
  0
VERTEX
  8
PIN_SOLDERMASK_BOTTOM
 10
-101.140000
 20
27.165000
 40
0.000000
 41
0.000000
 42
0.000000
  0
VERTEX
  8
PIN_SOLDERMASK_BOTTOM
 10
-100.500000
 20
27.165000
 40
0.000000
 41
0.000000
 42
0.000000
  0
VERTEX
  8
PIN_SOLDERMASK_BOTTOM
 10
-100.500000
 20
27.855000
 40
0.000000
 41
0.000000
 42
0.000000
  0
VERTEX
  8
PIN_SOLDERMASK_BOTTOM
 10
-101.140000
 20
27.855000
 40
0.000000
 41
0.000000
 42
0.000000
  0
SEQEND
  0
POLYLINE
  8
PIN_SOLDERMASK_BOTTOM
 66
1
 70
1
 40
0.000000
 41
0.000000
 39
0.000000
  0
VERTEX
  8
PIN_SOLDERMASK_BOTTOM
 10
-100.180000
 20
28.105000
 40
0.000000
 41
0.000000
 42
0.000000
  0
VERTEX
  8
PIN_SOLDERMASK_BOTTOM
 10
-99.540000
 20
28.105000
 40
0.000000
 41
0.000000
 42
0.000000
  0
VERTEX
  8
PIN_SOLDERMASK_BOTTOM
 10
-99.540000
 20
28.795000
 40
0.000000
 41
0.000000
 42
0.000000
  0
VERTEX
  8
PIN_SOLDERMASK_BOTTOM
 10
-100.180000
 20
28.795000
 40
0.000000
 41
0.000000
 42
0.000000
  0
SEQEND
  0
POLYLINE
  8
PIN_SOLDERMASK_BOTTOM
 66
1
 70
1
 40
0.000000
 41
0.000000
 39
0.000000
  0
VERTEX
  8
PIN_SOLDERMASK_BOTTOM
 10
-101.140000
 20
28.105000
 40
0.000000
 41
0.000000
 42
0.000000
  0
VERTEX
  8
PIN_SOLDERMASK_BOTTOM
 10
-100.500000
 20
28.105000
 40
0.000000
 41
0.000000
 42
0.000000
  0
VERTEX
  8
PIN_SOLDERMASK_BOTTOM
 10
-100.500000
 20
28.795000
 40
0.000000
 41
0.000000
 42
0.000000
  0
VERTEX
  8
PIN_SOLDERMASK_BOTTOM
 10
-101.140000
 20
28.795000
 40
0.000000
 41
0.000000
 42
0.000000
  0
SEQEND
  0
POLYLINE
  8
PIN_SOLDERMASK_BOTTOM
 66
1
 70
1
 40
0.000000
 41
0.000000
 39
0.000000
  0
VERTEX
  8
PIN_SOLDERMASK_BOTTOM
 10
-55.130200
 20
6.023300
 40
0.000000
 41
0.000000
 42
0.000000
  0
VERTEX
  8
PIN_SOLDERMASK_BOTTOM
 10
-55.130200
 20
6.663300
 40
0.000000
 41
0.000000
 42
0.000000
  0
VERTEX
  8
PIN_SOLDERMASK_BOTTOM
 10
-55.820200
 20
6.663300
 40
0.000000
 41
0.000000
 42
0.000000
  0
VERTEX
  8
PIN_SOLDERMASK_BOTTOM
 10
-55.820200
 20
6.023300
 40
0.000000
 41
0.000000
 42
0.000000
  0
SEQEND
  0
POLYLINE
  8
PIN_SOLDERMASK_BOTTOM
 66
1
 70
1
 40
0.000000
 41
0.000000
 39
0.000000
  0
VERTEX
  8
PIN_SOLDERMASK_BOTTOM
 10
-55.130200
 20
5.063300
 40
0.000000
 41
0.000000
 42
0.000000
  0
VERTEX
  8
PIN_SOLDERMASK_BOTTOM
 10
-55.130200
 20
5.703300
 40
0.000000
 41
0.000000
 42
0.000000
  0
VERTEX
  8
PIN_SOLDERMASK_BOTTOM
 10
-55.820200
 20
5.703300
 40
0.000000
 41
0.000000
 42
0.000000
  0
VERTEX
  8
PIN_SOLDERMASK_BOTTOM
 10
-55.820200
 20
5.063300
 40
0.000000
 41
0.000000
 42
0.000000
  0
SEQEND
  0
POLYLINE
  8
PIN_SOLDERMASK_BOTTOM
 66
1
 70
1
 40
0.000000
 41
0.000000
 39
0.000000
  0
VERTEX
  8
PIN_SOLDERMASK_BOTTOM
 10
-71.360000
 20
30.145000
 40
0.000000
 41
0.000000
 42
0.000000
  0
VERTEX
  8
PIN_SOLDERMASK_BOTTOM
 10
-72.000000
 20
30.145000
 40
0.000000
 41
0.000000
 42
0.000000
  0
VERTEX
  8
PIN_SOLDERMASK_BOTTOM
 10
-72.000000
 20
29.455000
 40
0.000000
 41
0.000000
 42
0.000000
  0
VERTEX
  8
PIN_SOLDERMASK_BOTTOM
 10
-71.360000
 20
29.455000
 40
0.000000
 41
0.000000
 42
0.000000
  0
SEQEND
  0
POLYLINE
  8
PIN_SOLDERMASK_BOTTOM
 66
1
 70
1
 40
0.000000
 41
0.000000
 39
0.000000
  0
VERTEX
  8
PIN_SOLDERMASK_BOTTOM
 10
-70.400000
 20
30.145000
 40
0.000000
 41
0.000000
 42
0.000000
  0
VERTEX
  8
PIN_SOLDERMASK_BOTTOM
 10
-71.040000
 20
30.145000
 40
0.000000
 41
0.000000
 42
0.000000
  0
VERTEX
  8
PIN_SOLDERMASK_BOTTOM
 10
-71.040000
 20
29.455000
 40
0.000000
 41
0.000000
 42
0.000000
  0
VERTEX
  8
PIN_SOLDERMASK_BOTTOM
 10
-70.400000
 20
29.455000
 40
0.000000
 41
0.000000
 42
0.000000
  0
SEQEND
  0
POLYLINE
  8
PIN_SOLDERMASK_BOTTOM
 66
1
 70
1
 40
0.000000
 41
0.000000
 39
0.000000
  0
VERTEX
  8
PIN_SOLDERMASK_BOTTOM
 10
-72.940000
 20
29.455000
 40
0.000000
 41
0.000000
 42
0.000000
  0
VERTEX
  8
PIN_SOLDERMASK_BOTTOM
 10
-72.300000
 20
29.455000
 40
0.000000
 41
0.000000
 42
0.000000
  0
VERTEX
  8
PIN_SOLDERMASK_BOTTOM
 10
-72.300000
 20
30.145000
 40
0.000000
 41
0.000000
 42
0.000000
  0
VERTEX
  8
PIN_SOLDERMASK_BOTTOM
 10
-72.940000
 20
30.145000
 40
0.000000
 41
0.000000
 42
0.000000
  0
SEQEND
  0
POLYLINE
  8
PIN_SOLDERMASK_BOTTOM
 66
1
 70
1
 40
0.000000
 41
0.000000
 39
0.000000
  0
VERTEX
  8
PIN_SOLDERMASK_BOTTOM
 10
-73.900000
 20
29.455000
 40
0.000000
 41
0.000000
 42
0.000000
  0
VERTEX
  8
PIN_SOLDERMASK_BOTTOM
 10
-73.260000
 20
29.455000
 40
0.000000
 41
0.000000
 42
0.000000
  0
VERTEX
  8
PIN_SOLDERMASK_BOTTOM
 10
-73.260000
 20
30.145000
 40
0.000000
 41
0.000000
 42
0.000000
  0
VERTEX
  8
PIN_SOLDERMASK_BOTTOM
 10
-73.900000
 20
30.145000
 40
0.000000
 41
0.000000
 42
0.000000
  0
SEQEND
  0
POLYLINE
  8
PIN_SOLDERMASK_BOTTOM
 66
1
 70
1
 40
0.000000
 41
0.000000
 39
0.000000
  0
VERTEX
  8
PIN_SOLDERMASK_BOTTOM
 10
-74.845000
 20
33.140000
 40
0.000000
 41
0.000000
 42
0.000000
  0
VERTEX
  8
PIN_SOLDERMASK_BOTTOM
 10
-74.845000
 20
32.500000
 40
0.000000
 41
0.000000
 42
0.000000
  0
VERTEX
  8
PIN_SOLDERMASK_BOTTOM
 10
-74.155000
 20
32.500000
 40
0.000000
 41
0.000000
 42
0.000000
  0
VERTEX
  8
PIN_SOLDERMASK_BOTTOM
 10
-74.155000
 20
33.140000
 40
0.000000
 41
0.000000
 42
0.000000
  0
SEQEND
  0
POLYLINE
  8
PIN_SOLDERMASK_BOTTOM
 66
1
 70
1
 40
0.000000
 41
0.000000
 39
0.000000
  0
VERTEX
  8
PIN_SOLDERMASK_BOTTOM
 10
-74.845000
 20
34.100000
 40
0.000000
 41
0.000000
 42
0.000000
  0
VERTEX
  8
PIN_SOLDERMASK_BOTTOM
 10
-74.845000
 20
33.460000
 40
0.000000
 41
0.000000
 42
0.000000
  0
VERTEX
  8
PIN_SOLDERMASK_BOTTOM
 10
-74.155000
 20
33.460000
 40
0.000000
 41
0.000000
 42
0.000000
  0
VERTEX
  8
PIN_SOLDERMASK_BOTTOM
 10
-74.155000
 20
34.100000
 40
0.000000
 41
0.000000
 42
0.000000
  0
SEQEND
  0
POLYLINE
  8
PIN_SOLDERMASK_BOTTOM
 66
1
 70
1
 40
0.000000
 41
0.000000
 39
0.000000
  0
VERTEX
  8
PIN_SOLDERMASK_BOTTOM
 10
-74.845000
 20
36.040000
 40
0.000000
 41
0.000000
 42
0.000000
  0
VERTEX
  8
PIN_SOLDERMASK_BOTTOM
 10
-74.845000
 20
35.400000
 40
0.000000
 41
0.000000
 42
0.000000
  0
VERTEX
  8
PIN_SOLDERMASK_BOTTOM
 10
-74.155000
 20
35.400000
 40
0.000000
 41
0.000000
 42
0.000000
  0
VERTEX
  8
PIN_SOLDERMASK_BOTTOM
 10
-74.155000
 20
36.040000
 40
0.000000
 41
0.000000
 42
0.000000
  0
SEQEND
  0
POLYLINE
  8
PIN_SOLDERMASK_BOTTOM
 66
1
 70
1
 40
0.000000
 41
0.000000
 39
0.000000
  0
VERTEX
  8
PIN_SOLDERMASK_BOTTOM
 10
-74.845000
 20
37.000000
 40
0.000000
 41
0.000000
 42
0.000000
  0
VERTEX
  8
PIN_SOLDERMASK_BOTTOM
 10
-74.845000
 20
36.360000
 40
0.000000
 41
0.000000
 42
0.000000
  0
VERTEX
  8
PIN_SOLDERMASK_BOTTOM
 10
-74.155000
 20
36.360000
 40
0.000000
 41
0.000000
 42
0.000000
  0
VERTEX
  8
PIN_SOLDERMASK_BOTTOM
 10
-74.155000
 20
37.000000
 40
0.000000
 41
0.000000
 42
0.000000
  0
SEQEND
  0
POLYLINE
  8
PIN_SOLDERMASK_BOTTOM
 66
1
 70
1
 40
0.000000
 41
0.000000
 39
0.000000
  0
VERTEX
  8
PIN_SOLDERMASK_BOTTOM
 10
-70.940000
 20
37.355000
 40
0.000000
 41
0.000000
 42
0.000000
  0
VERTEX
  8
PIN_SOLDERMASK_BOTTOM
 10
-70.300000
 20
37.355000
 40
0.000000
 41
0.000000
 42
0.000000
  0
VERTEX
  8
PIN_SOLDERMASK_BOTTOM
 10
-70.300000
 20
38.045000
 40
0.000000
 41
0.000000
 42
0.000000
  0
VERTEX
  8
PIN_SOLDERMASK_BOTTOM
 10
-70.940000
 20
38.045000
 40
0.000000
 41
0.000000
 42
0.000000
  0
SEQEND
  0
POLYLINE
  8
PIN_SOLDERMASK_BOTTOM
 66
1
 70
1
 40
0.000000
 41
0.000000
 39
0.000000
  0
VERTEX
  8
PIN_SOLDERMASK_BOTTOM
 10
-71.900000
 20
37.355000
 40
0.000000
 41
0.000000
 42
0.000000
  0
VERTEX
  8
PIN_SOLDERMASK_BOTTOM
 10
-71.260000
 20
37.355000
 40
0.000000
 41
0.000000
 42
0.000000
  0
VERTEX
  8
PIN_SOLDERMASK_BOTTOM
 10
-71.260000
 20
38.045000
 40
0.000000
 41
0.000000
 42
0.000000
  0
VERTEX
  8
PIN_SOLDERMASK_BOTTOM
 10
-71.900000
 20
38.045000
 40
0.000000
 41
0.000000
 42
0.000000
  0
SEQEND
  0
POLYLINE
  8
PIN_SOLDERMASK_BOTTOM
 66
1
 70
1
 40
0.000000
 41
0.000000
 39
0.000000
  0
VERTEX
  8
PIN_SOLDERMASK_BOTTOM
 10
-9.145000
 20
31.440000
 40
0.000000
 41
0.000000
 42
0.000000
  0
VERTEX
  8
PIN_SOLDERMASK_BOTTOM
 10
-9.145000
 20
30.800000
 40
0.000000
 41
0.000000
 42
0.000000
  0
VERTEX
  8
PIN_SOLDERMASK_BOTTOM
 10
-8.455000
 20
30.800000
 40
0.000000
 41
0.000000
 42
0.000000
  0
VERTEX
  8
PIN_SOLDERMASK_BOTTOM
 10
-8.455000
 20
31.440000
 40
0.000000
 41
0.000000
 42
0.000000
  0
SEQEND
  0
POLYLINE
  8
PIN_SOLDERMASK_BOTTOM
 66
1
 70
1
 40
0.000000
 41
0.000000
 39
0.000000
  0
VERTEX
  8
PIN_SOLDERMASK_BOTTOM
 10
-9.145000
 20
32.400000
 40
0.000000
 41
0.000000
 42
0.000000
  0
VERTEX
  8
PIN_SOLDERMASK_BOTTOM
 10
-9.145000
 20
31.760000
 40
0.000000
 41
0.000000
 42
0.000000
  0
VERTEX
  8
PIN_SOLDERMASK_BOTTOM
 10
-8.455000
 20
31.760000
 40
0.000000
 41
0.000000
 42
0.000000
  0
VERTEX
  8
PIN_SOLDERMASK_BOTTOM
 10
-8.455000
 20
32.400000
 40
0.000000
 41
0.000000
 42
0.000000
  0
SEQEND
  0
POLYLINE
  8
PIN_SOLDERMASK_BOTTOM
 66
1
 70
1
 40
0.000000
 41
0.000000
 39
0.000000
  0
VERTEX
  8
PIN_SOLDERMASK_BOTTOM
 10
-15.360000
 20
36.545000
 40
0.000000
 41
0.000000
 42
0.000000
  0
VERTEX
  8
PIN_SOLDERMASK_BOTTOM
 10
-16.000000
 20
36.545000
 40
0.000000
 41
0.000000
 42
0.000000
  0
VERTEX
  8
PIN_SOLDERMASK_BOTTOM
 10
-16.000000
 20
35.855000
 40
0.000000
 41
0.000000
 42
0.000000
  0
VERTEX
  8
PIN_SOLDERMASK_BOTTOM
 10
-15.360000
 20
35.855000
 40
0.000000
 41
0.000000
 42
0.000000
  0
SEQEND
  0
POLYLINE
  8
PIN_SOLDERMASK_BOTTOM
 66
1
 70
1
 40
0.000000
 41
0.000000
 39
0.000000
  0
VERTEX
  8
PIN_SOLDERMASK_BOTTOM
 10
-14.400000
 20
36.545000
 40
0.000000
 41
0.000000
 42
0.000000
  0
VERTEX
  8
PIN_SOLDERMASK_BOTTOM
 10
-15.040000
 20
36.545000
 40
0.000000
 41
0.000000
 42
0.000000
  0
VERTEX
  8
PIN_SOLDERMASK_BOTTOM
 10
-15.040000
 20
35.855000
 40
0.000000
 41
0.000000
 42
0.000000
  0
VERTEX
  8
PIN_SOLDERMASK_BOTTOM
 10
-14.400000
 20
35.855000
 40
0.000000
 41
0.000000
 42
0.000000
  0
SEQEND
  0
POLYLINE
  8
PIN_SOLDERMASK_BOTTOM
 66
1
 70
1
 40
0.000000
 41
0.000000
 39
0.000000
  0
VERTEX
  8
PIN_SOLDERMASK_BOTTOM
 10
-55.155000
 20
9.660000
 40
0.000000
 41
0.000000
 42
0.000000
  0
VERTEX
  8
PIN_SOLDERMASK_BOTTOM
 10
-55.155000
 20
10.300000
 40
0.000000
 41
0.000000
 42
0.000000
  0
VERTEX
  8
PIN_SOLDERMASK_BOTTOM
 10
-55.845000
 20
10.300000
 40
0.000000
 41
0.000000
 42
0.000000
  0
VERTEX
  8
PIN_SOLDERMASK_BOTTOM
 10
-55.845000
 20
9.660000
 40
0.000000
 41
0.000000
 42
0.000000
  0
SEQEND
  0
POLYLINE
  8
PIN_SOLDERMASK_BOTTOM
 66
1
 70
1
 40
0.000000
 41
0.000000
 39
0.000000
  0
VERTEX
  8
PIN_SOLDERMASK_BOTTOM
 10
-55.155000
 20
8.700000
 40
0.000000
 41
0.000000
 42
0.000000
  0
VERTEX
  8
PIN_SOLDERMASK_BOTTOM
 10
-55.155000
 20
9.340000
 40
0.000000
 41
0.000000
 42
0.000000
  0
VERTEX
  8
PIN_SOLDERMASK_BOTTOM
 10
-55.845000
 20
9.340000
 40
0.000000
 41
0.000000
 42
0.000000
  0
VERTEX
  8
PIN_SOLDERMASK_BOTTOM
 10
-55.845000
 20
8.700000
 40
0.000000
 41
0.000000
 42
0.000000
  0
SEQEND
  0
POLYLINE
  8
PIN_SOLDERMASK_BOTTOM
 66
1
 70
1
 40
0.000000
 41
0.000000
 39
0.000000
  0
VERTEX
  8
PIN_SOLDERMASK_BOTTOM
 10
-65.455000
 20
4.860000
 40
0.000000
 41
0.000000
 42
0.000000
  0
VERTEX
  8
PIN_SOLDERMASK_BOTTOM
 10
-65.455000
 20
5.500000
 40
0.000000
 41
0.000000
 42
0.000000
  0
VERTEX
  8
PIN_SOLDERMASK_BOTTOM
 10
-66.145000
 20
5.500000
 40
0.000000
 41
0.000000
 42
0.000000
  0
VERTEX
  8
PIN_SOLDERMASK_BOTTOM
 10
-66.145000
 20
4.860000
 40
0.000000
 41
0.000000
 42
0.000000
  0
SEQEND
  0
POLYLINE
  8
PIN_SOLDERMASK_BOTTOM
 66
1
 70
1
 40
0.000000
 41
0.000000
 39
0.000000
  0
VERTEX
  8
PIN_SOLDERMASK_BOTTOM
 10
-65.455000
 20
3.900000
 40
0.000000
 41
0.000000
 42
0.000000
  0
VERTEX
  8
PIN_SOLDERMASK_BOTTOM
 10
-65.455000
 20
4.540000
 40
0.000000
 41
0.000000
 42
0.000000
  0
VERTEX
  8
PIN_SOLDERMASK_BOTTOM
 10
-66.145000
 20
4.540000
 40
0.000000
 41
0.000000
 42
0.000000
  0
VERTEX
  8
PIN_SOLDERMASK_BOTTOM
 10
-66.145000
 20
3.900000
 40
0.000000
 41
0.000000
 42
0.000000
  0
SEQEND
  0
POLYLINE
  8
PIN_SOLDERMASK_BOTTOM
 66
1
 70
1
 40
0.000000
 41
0.000000
 39
0.000000
  0
VERTEX
  8
PIN_SOLDERMASK_BOTTOM
 10
-64.355000
 20
4.860000
 40
0.000000
 41
0.000000
 42
0.000000
  0
VERTEX
  8
PIN_SOLDERMASK_BOTTOM
 10
-64.355000
 20
5.500000
 40
0.000000
 41
0.000000
 42
0.000000
  0
VERTEX
  8
PIN_SOLDERMASK_BOTTOM
 10
-65.045000
 20
5.500000
 40
0.000000
 41
0.000000
 42
0.000000
  0
VERTEX
  8
PIN_SOLDERMASK_BOTTOM
 10
-65.045000
 20
4.860000
 40
0.000000
 41
0.000000
 42
0.000000
  0
SEQEND
  0
POLYLINE
  8
PIN_SOLDERMASK_BOTTOM
 66
1
 70
1
 40
0.000000
 41
0.000000
 39
0.000000
  0
VERTEX
  8
PIN_SOLDERMASK_BOTTOM
 10
-64.355000
 20
3.900000
 40
0.000000
 41
0.000000
 42
0.000000
  0
VERTEX
  8
PIN_SOLDERMASK_BOTTOM
 10
-64.355000
 20
4.540000
 40
0.000000
 41
0.000000
 42
0.000000
  0
VERTEX
  8
PIN_SOLDERMASK_BOTTOM
 10
-65.045000
 20
4.540000
 40
0.000000
 41
0.000000
 42
0.000000
  0
VERTEX
  8
PIN_SOLDERMASK_BOTTOM
 10
-65.045000
 20
3.900000
 40
0.000000
 41
0.000000
 42
0.000000
  0
SEQEND
  0
POLYLINE
  8
PIN_SOLDERMASK_BOTTOM
 66
1
 70
1
 40
0.000000
 41
0.000000
 39
0.000000
  0
VERTEX
  8
PIN_SOLDERMASK_BOTTOM
 10
-59.955000
 20
4.860000
 40
0.000000
 41
0.000000
 42
0.000000
  0
VERTEX
  8
PIN_SOLDERMASK_BOTTOM
 10
-59.955000
 20
5.500000
 40
0.000000
 41
0.000000
 42
0.000000
  0
VERTEX
  8
PIN_SOLDERMASK_BOTTOM
 10
-60.645000
 20
5.500000
 40
0.000000
 41
0.000000
 42
0.000000
  0
VERTEX
  8
PIN_SOLDERMASK_BOTTOM
 10
-60.645000
 20
4.860000
 40
0.000000
 41
0.000000
 42
0.000000
  0
SEQEND
  0
POLYLINE
  8
PIN_SOLDERMASK_BOTTOM
 66
1
 70
1
 40
0.000000
 41
0.000000
 39
0.000000
  0
VERTEX
  8
PIN_SOLDERMASK_BOTTOM
 10
-59.955000
 20
3.900000
 40
0.000000
 41
0.000000
 42
0.000000
  0
VERTEX
  8
PIN_SOLDERMASK_BOTTOM
 10
-59.955000
 20
4.540000
 40
0.000000
 41
0.000000
 42
0.000000
  0
VERTEX
  8
PIN_SOLDERMASK_BOTTOM
 10
-60.645000
 20
4.540000
 40
0.000000
 41
0.000000
 42
0.000000
  0
VERTEX
  8
PIN_SOLDERMASK_BOTTOM
 10
-60.645000
 20
3.900000
 40
0.000000
 41
0.000000
 42
0.000000
  0
SEQEND
  0
POLYLINE
  8
PIN_SOLDERMASK_BOTTOM
 66
1
 70
1
 40
0.000000
 41
0.000000
 39
0.000000
  0
VERTEX
  8
PIN_SOLDERMASK_BOTTOM
 10
-58.855000
 20
4.860000
 40
0.000000
 41
0.000000
 42
0.000000
  0
VERTEX
  8
PIN_SOLDERMASK_BOTTOM
 10
-58.855000
 20
5.500000
 40
0.000000
 41
0.000000
 42
0.000000
  0
VERTEX
  8
PIN_SOLDERMASK_BOTTOM
 10
-59.545000
 20
5.500000
 40
0.000000
 41
0.000000
 42
0.000000
  0
VERTEX
  8
PIN_SOLDERMASK_BOTTOM
 10
-59.545000
 20
4.860000
 40
0.000000
 41
0.000000
 42
0.000000
  0
SEQEND
  0
POLYLINE
  8
PIN_SOLDERMASK_BOTTOM
 66
1
 70
1
 40
0.000000
 41
0.000000
 39
0.000000
  0
VERTEX
  8
PIN_SOLDERMASK_BOTTOM
 10
-58.855000
 20
3.900000
 40
0.000000
 41
0.000000
 42
0.000000
  0
VERTEX
  8
PIN_SOLDERMASK_BOTTOM
 10
-58.855000
 20
4.540000
 40
0.000000
 41
0.000000
 42
0.000000
  0
VERTEX
  8
PIN_SOLDERMASK_BOTTOM
 10
-59.545000
 20
4.540000
 40
0.000000
 41
0.000000
 42
0.000000
  0
VERTEX
  8
PIN_SOLDERMASK_BOTTOM
 10
-59.545000
 20
3.900000
 40
0.000000
 41
0.000000
 42
0.000000
  0
SEQEND
  0
POLYLINE
  8
PIN_SOLDERMASK_BOTTOM
 66
1
 70
1
 40
0.000000
 41
0.000000
 39
0.000000
  0
VERTEX
  8
PIN_SOLDERMASK_BOTTOM
 10
-57.755000
 20
4.860000
 40
0.000000
 41
0.000000
 42
0.000000
  0
VERTEX
  8
PIN_SOLDERMASK_BOTTOM
 10
-57.755000
 20
5.500000
 40
0.000000
 41
0.000000
 42
0.000000
  0
VERTEX
  8
PIN_SOLDERMASK_BOTTOM
 10
-58.445000
 20
5.500000
 40
0.000000
 41
0.000000
 42
0.000000
  0
VERTEX
  8
PIN_SOLDERMASK_BOTTOM
 10
-58.445000
 20
4.860000
 40
0.000000
 41
0.000000
 42
0.000000
  0
SEQEND
  0
POLYLINE
  8
PIN_SOLDERMASK_BOTTOM
 66
1
 70
1
 40
0.000000
 41
0.000000
 39
0.000000
  0
VERTEX
  8
PIN_SOLDERMASK_BOTTOM
 10
-57.755000
 20
3.900000
 40
0.000000
 41
0.000000
 42
0.000000
  0
VERTEX
  8
PIN_SOLDERMASK_BOTTOM
 10
-57.755000
 20
4.540000
 40
0.000000
 41
0.000000
 42
0.000000
  0
VERTEX
  8
PIN_SOLDERMASK_BOTTOM
 10
-58.445000
 20
4.540000
 40
0.000000
 41
0.000000
 42
0.000000
  0
VERTEX
  8
PIN_SOLDERMASK_BOTTOM
 10
-58.445000
 20
3.900000
 40
0.000000
 41
0.000000
 42
0.000000
  0
SEQEND
  0
POLYLINE
  8
PIN_SOLDERMASK_BOTTOM
 66
1
 70
1
 40
0.000000
 41
0.000000
 39
0.000000
  0
VERTEX
  8
PIN_SOLDERMASK_BOTTOM
 10
-93.400000
 20
60.300000
 40
0.000000
 41
0.000000
 42
0.000000
  0
VERTEX
  8
PIN_SOLDERMASK_BOTTOM
 10
-92.000000
 20
60.300000
 40
0.000000
 41
0.000000
 42
0.000000
  0
VERTEX
  8
PIN_SOLDERMASK_BOTTOM
 10
-92.000000
 20
58.900000
 40
0.000000
 41
0.000000
 42
0.000000
  0
VERTEX
  8
PIN_SOLDERMASK_BOTTOM
 10
-93.400000
 20
58.900000
 40
0.000000
 41
0.000000
 42
0.000000
  0
SEQEND
  0
CIRCLE
  8
PIN_SOLDERMASK_BOTTOM
 10
-92.700000
 20
57.100000
 40
0.700000
  0
CIRCLE
  8
PIN_SOLDERMASK_BOTTOM
 10
-92.700000
 20
54.600000
 40
0.700000
  0
CIRCLE
  8
PIN_SOLDERMASK_BOTTOM
 10
-92.700000
 20
52.100000
 40
0.700000
  0
CIRCLE
  8
PIN_SOLDERMASK_BOTTOM
 10
-92.700000
 20
49.600000
 40
0.700000
  0
CIRCLE
  8
PIN_SOLDERMASK_BOTTOM
 10
-92.700000
 20
47.100000
 40
0.700000
  0
POLYLINE
  8
PIN_SOLDERMASK_BOTTOM
 66
1
 70
1
 40
0.000000
 41
0.000000
 39
0.000000
  0
VERTEX
  8
PIN_SOLDERMASK_BOTTOM
 10
-120.000000
 20
16.700000
 40
0.000000
 41
0.000000
 42
0.000000
  0
VERTEX
  8
PIN_SOLDERMASK_BOTTOM
 10
-118.600000
 20
16.700000
 40
0.000000
 41
0.000000
 42
0.000000
  0
VERTEX
  8
PIN_SOLDERMASK_BOTTOM
 10
-118.600000
 20
15.300000
 40
0.000000
 41
0.000000
 42
0.000000
  0
VERTEX
  8
PIN_SOLDERMASK_BOTTOM
 10
-120.000000
 20
15.300000
 40
0.000000
 41
0.000000
 42
0.000000
  0
SEQEND
  0
CIRCLE
  8
PIN_SOLDERMASK_BOTTOM
 10
-119.300000
 20
13.500000
 40
0.700000
  0
CIRCLE
  8
PIN_SOLDERMASK_BOTTOM
 10
-119.300000
 20
11.000000
 40
0.700000
  0
CIRCLE
  8
PIN_SOLDERMASK_BOTTOM
 10
-119.300000
 20
8.500000
 40
0.700000
  0
CIRCLE
  8
PIN_SOLDERMASK_BOTTOM
 10
-119.300000
 20
6.000000
 40
0.700000
  0
CIRCLE
  8
PIN_SOLDERMASK_BOTTOM
 10
-119.300000
 20
3.500000
 40
0.700000
  0
POLYLINE
  8
PIN_SOLDERMASK_BOTTOM
 66
1
 70
1
 40
0.000000
 41
0.000000
 39
0.000000
  0
VERTEX
  8
PIN_SOLDERMASK_BOTTOM
 10
-67.300000
 20
32.975000
 40
0.000000
 41
0.000000
 42
0.000000
  0
VERTEX
  8
PIN_SOLDERMASK_BOTTOM
 10
-66.300000
 20
32.975000
 40
0.000000
 41
0.000000
 42
0.000000
  0
VERTEX
  8
PIN_SOLDERMASK_BOTTOM
 10
-66.300000
 20
34.025000
 40
0.000000
 41
0.000000
 42
0.000000
  0
VERTEX
  8
PIN_SOLDERMASK_BOTTOM
 10
-67.300000
 20
34.025000
 40
0.000000
 41
0.000000
 42
0.000000
  0
SEQEND
  0
POLYLINE
  8
PIN_SOLDERMASK_BOTTOM
 66
1
 70
1
 40
0.000000
 41
0.000000
 39
0.000000
  0
VERTEX
  8
PIN_SOLDERMASK_BOTTOM
 10
-68.900000
 20
32.975000
 40
0.000000
 41
0.000000
 42
0.000000
  0
VERTEX
  8
PIN_SOLDERMASK_BOTTOM
 10
-67.900000
 20
32.975000
 40
0.000000
 41
0.000000
 42
0.000000
  0
VERTEX
  8
PIN_SOLDERMASK_BOTTOM
 10
-67.900000
 20
34.025000
 40
0.000000
 41
0.000000
 42
0.000000
  0
VERTEX
  8
PIN_SOLDERMASK_BOTTOM
 10
-68.900000
 20
34.025000
 40
0.000000
 41
0.000000
 42
0.000000
  0
SEQEND
  0
POLYLINE
  8
PIN_SOLDERMASK_BOTTOM
 66
1
 70
1
 40
0.000000
 41
0.000000
 39
0.000000
  0
VERTEX
  8
PIN_SOLDERMASK_BOTTOM
 10
-29.400000
 20
21.575000
 40
0.000000
 41
0.000000
 42
0.000000
  0
VERTEX
  8
PIN_SOLDERMASK_BOTTOM
 10
-28.400000
 20
21.575000
 40
0.000000
 41
0.000000
 42
0.000000
  0
VERTEX
  8
PIN_SOLDERMASK_BOTTOM
 10
-28.400000
 20
22.625000
 40
0.000000
 41
0.000000
 42
0.000000
  0
VERTEX
  8
PIN_SOLDERMASK_BOTTOM
 10
-29.400000
 20
22.625000
 40
0.000000
 41
0.000000
 42
0.000000
  0
SEQEND
  0
POLYLINE
  8
PIN_SOLDERMASK_BOTTOM
 66
1
 70
1
 40
0.000000
 41
0.000000
 39
0.000000
  0
VERTEX
  8
PIN_SOLDERMASK_BOTTOM
 10
-31.000000
 20
21.575000
 40
0.000000
 41
0.000000
 42
0.000000
  0
VERTEX
  8
PIN_SOLDERMASK_BOTTOM
 10
-30.000000
 20
21.575000
 40
0.000000
 41
0.000000
 42
0.000000
  0
VERTEX
  8
PIN_SOLDERMASK_BOTTOM
 10
-30.000000
 20
22.625000
 40
0.000000
 41
0.000000
 42
0.000000
  0
VERTEX
  8
PIN_SOLDERMASK_BOTTOM
 10
-31.000000
 20
22.625000
 40
0.000000
 41
0.000000
 42
0.000000
  0
SEQEND
  0
POLYLINE
  8
PIN_SOLDERMASK_BOTTOM
 66
1
 70
1
 40
0.000000
 41
0.000000
 39
0.000000
  0
VERTEX
  8
PIN_SOLDERMASK_BOTTOM
 10
-15.300000
 20
38.125000
 40
0.000000
 41
0.000000
 42
0.000000
  0
VERTEX
  8
PIN_SOLDERMASK_BOTTOM
 10
-16.300000
 20
38.125000
 40
0.000000
 41
0.000000
 42
0.000000
  0
VERTEX
  8
PIN_SOLDERMASK_BOTTOM
 10
-16.300000
 20
37.075000
 40
0.000000
 41
0.000000
 42
0.000000
  0
VERTEX
  8
PIN_SOLDERMASK_BOTTOM
 10
-15.300000
 20
37.075000
 40
0.000000
 41
0.000000
 42
0.000000
  0
SEQEND
  0
POLYLINE
  8
PIN_SOLDERMASK_BOTTOM
 66
1
 70
1
 40
0.000000
 41
0.000000
 39
0.000000
  0
VERTEX
  8
PIN_SOLDERMASK_BOTTOM
 10
-13.700000
 20
38.125000
 40
0.000000
 41
0.000000
 42
0.000000
  0
VERTEX
  8
PIN_SOLDERMASK_BOTTOM
 10
-14.700000
 20
38.125000
 40
0.000000
 41
0.000000
 42
0.000000
  0
VERTEX
  8
PIN_SOLDERMASK_BOTTOM
 10
-14.700000
 20
37.075000
 40
0.000000
 41
0.000000
 42
0.000000
  0
VERTEX
  8
PIN_SOLDERMASK_BOTTOM
 10
-13.700000
 20
37.075000
 40
0.000000
 41
0.000000
 42
0.000000
  0
SEQEND
  0
POLYLINE
  8
PIN_SOLDERMASK_BOTTOM
 66
1
 70
1
 40
0.000000
 41
0.000000
 39
0.000000
  0
VERTEX
  8
PIN_SOLDERMASK_BOTTOM
 10
-16.800000
 20
34.825000
 40
0.000000
 41
0.000000
 42
0.000000
  0
VERTEX
  8
PIN_SOLDERMASK_BOTTOM
 10
-17.800000
 20
34.825000
 40
0.000000
 41
0.000000
 42
0.000000
  0
VERTEX
  8
PIN_SOLDERMASK_BOTTOM
 10
-17.800000
 20
33.775000
 40
0.000000
 41
0.000000
 42
0.000000
  0
VERTEX
  8
PIN_SOLDERMASK_BOTTOM
 10
-16.800000
 20
33.775000
 40
0.000000
 41
0.000000
 42
0.000000
  0
SEQEND
  0
POLYLINE
  8
PIN_SOLDERMASK_BOTTOM
 66
1
 70
1
 40
0.000000
 41
0.000000
 39
0.000000
  0
VERTEX
  8
PIN_SOLDERMASK_BOTTOM
 10
-15.200000
 20
34.825000
 40
0.000000
 41
0.000000
 42
0.000000
  0
VERTEX
  8
PIN_SOLDERMASK_BOTTOM
 10
-16.200000
 20
34.825000
 40
0.000000
 41
0.000000
 42
0.000000
  0
VERTEX
  8
PIN_SOLDERMASK_BOTTOM
 10
-16.200000
 20
33.775000
 40
0.000000
 41
0.000000
 42
0.000000
  0
VERTEX
  8
PIN_SOLDERMASK_BOTTOM
 10
-15.200000
 20
33.775000
 40
0.000000
 41
0.000000
 42
0.000000
  0
SEQEND
  0
CIRCLE
  8
PIN_SOLDERMASK_BOTTOM
 10
-23.200000
 20
53.600000
 40
1.400000
  0
CIRCLE
  8
PIN_SOLDERMASK_BOTTOM
 10
-23.200000
 20
40.130000
 40
1.400000
  0
CIRCLE
  8
PIN_SOLDERMASK_BOTTOM
 10
-19.800000
 20
40.130000
 40
1.400000
  0
CIRCLE
  8
PIN_SOLDERMASK_BOTTOM
 10
-19.800000
 20
53.600000
 40
1.400000
  0
POLYLINE
  8
PIN_SOLDERMASK_BOTTOM
 66
1
 70
1
 40
0.000000
 41
0.000000
 39
0.000000
  0
VERTEX
  8
PIN_SOLDERMASK_BOTTOM
 10
-26.700000
 20
58.300000
 40
0.000000
 41
0.000000
 42
0.000000
  0
VERTEX
  8
PIN_SOLDERMASK_BOTTOM
 10
-26.700000
 20
56.500000
 40
0.000000
 41
0.000000
 42
0.000000
  0
VERTEX
  8
PIN_SOLDERMASK_BOTTOM
 10
-28.500000
 20
56.500000
 40
0.000000
 41
0.000000
 42
0.000000
  0
VERTEX
  8
PIN_SOLDERMASK_BOTTOM
 10
-28.500000
 20
58.300000
 40
0.000000
 41
0.000000
 42
0.000000
  0
SEQEND
  0
CIRCLE
  8
PIN_SOLDERMASK_BOTTOM
 10
-31.560000
 20
57.400000
 40
0.900000
  0
POLYLINE
  8
PIN_SOLDERMASK_BOTTOM
 66
1
 70
1
 40
0.000000
 41
0.000000
 39
0.000000
  0
VERTEX
  8
PIN_SOLDERMASK_BOTTOM
 10
-27.590000
 20
54.680000
 40
0.000000
 41
0.000000
 42
0.000000
  0
VERTEX
  8
PIN_SOLDERMASK_BOTTOM
 10
-27.590000
 20
53.180000
 40
0.000000
 41
0.000000
 42
0.000000
  0
VERTEX
  8
PIN_SOLDERMASK_BOTTOM
 10
-29.090000
 20
53.180000
 40
0.000000
 41
0.000000
 42
0.000000
  0
VERTEX
  8
PIN_SOLDERMASK_BOTTOM
 10
-29.090000
 20
54.680000
 40
0.000000
 41
0.000000
 42
0.000000
  0
SEQEND
  0
CIRCLE
  8
PIN_SOLDERMASK_BOTTOM
 10
-30.840000
 20
53.930000
 40
0.750000
  0
POLYLINE
  8
PIN_SOLDERMASK_BOTTOM
 66
1
 70
1
 40
0.000000
 41
0.000000
 39
0.000000
  0
VERTEX
  8
PIN_SOLDERMASK_BOTTOM
 10
-59.850000
 20
58.950000
 40
0.000000
 41
0.000000
 42
0.000000
  0
VERTEX
  8
PIN_SOLDERMASK_BOTTOM
 10
-59.850000
 20
60.450000
 40
0.000000
 41
0.000000
 42
0.000000
  0
VERTEX
  8
PIN_SOLDERMASK_BOTTOM
 10
-58.350000
 20
60.450000
 40
0.000000
 41
0.000000
 42
0.000000
  0
VERTEX
  8
PIN_SOLDERMASK_BOTTOM
 10
-58.350000
 20
58.950000
 40
0.000000
 41
0.000000
 42
0.000000
  0
SEQEND
  0
CIRCLE
  8
PIN_SOLDERMASK_BOTTOM
 10
-56.600000
 20
59.700000
 40
0.750000
  0
POLYLINE
  8
PIN_SOLDERMASK_BOTTOM
 66
1
 70
1
 40
0.000000
 41
0.000000
 39
0.000000
  0
VERTEX
  8
PIN_SOLDERMASK_BOTTOM
 10
-3.850000
 20
7.850000
 40
0.000000
 41
0.000000
 42
0.000000
  0
VERTEX
  8
PIN_SOLDERMASK_BOTTOM
 10
-5.350000
 20
7.850000
 40
0.000000
 41
0.000000
 42
0.000000
  0
VERTEX
  8
PIN_SOLDERMASK_BOTTOM
 10
-5.350000
 20
9.350000
 40
0.000000
 41
0.000000
 42
0.000000
  0
VERTEX
  8
PIN_SOLDERMASK_BOTTOM
 10
-3.850000
 20
9.350000
 40
0.000000
 41
0.000000
 42
0.000000
  0
SEQEND
  0
CIRCLE
  8
PIN_SOLDERMASK_BOTTOM
 10
-4.600000
 20
11.100000
 40
0.750000
  0
POLYLINE
  8
PIN_SOLDERMASK_BOTTOM
 66
1
 70
1
 40
0.000000
 41
0.000000
 39
0.000000
  0
VERTEX
  8
PIN_SOLDERMASK_BOTTOM
 10
-22.950000
 20
58.950000
 40
0.000000
 41
0.000000
 42
0.000000
  0
VERTEX
  8
PIN_SOLDERMASK_BOTTOM
 10
-22.950000
 20
60.450000
 40
0.000000
 41
0.000000
 42
0.000000
  0
VERTEX
  8
PIN_SOLDERMASK_BOTTOM
 10
-21.450000
 20
60.450000
 40
0.000000
 41
0.000000
 42
0.000000
  0
VERTEX
  8
PIN_SOLDERMASK_BOTTOM
 10
-21.450000
 20
58.950000
 40
0.000000
 41
0.000000
 42
0.000000
  0
SEQEND
  0
CIRCLE
  8
PIN_SOLDERMASK_BOTTOM
 10
-19.700000
 20
59.700000
 40
0.750000
  0
ENDSEC
  0
EOF
