  0
SECTION
  2
HEADER
  9
$ACADVER
  1
AC1009
  9
$INSBASE
 10
0.000000
 20
0.000000
  9
$LIMMIN
 10
-368.400000
 20
-314.500000
  9
$LIMMAX
 10
495.200000
 20
244.300000
  9
$EXTMIN
 10
-368.400000
 20
-314.500000
  9
$EXTMAX
 10
495.200000
 20
244.300000
  9
$ATTMODE
 70
0
  9
$LUNITS
 70
2
  9
$LUPREC
 70
4
  9
$THICKNESS
 40
1.636000
  0
ENDSEC
  0
SECTION
  2
TABLES
  0
TABLE
  2
LTYPE
 70
1
  0
LTYPE
  3
Solid Line
  2
CONTINUOUS
 70
0
 72
65
 73
0
 40
0.000000
  0
ENDTAB
  0
TABLE
  2
LAYER
 70
2
  0
LAYER
  2
OUTLINE
 70
0
 62
1
  6
CONTINUOUS
  0
LAYER
  2
PIN
 70
0
 62
2
  6
CONTINUOUS
  0
ENDTAB
  0
TABLE
  2
STYLE
 70
1
  0
STYLE
  2
STANDARD
 70
0
 40
0.000000
 41
1.000000
 50
0.000000
 71
0
 42
0.200000
  3
txt
  0
ENDTAB
  0
ENDSEC
  0
SECTION
  2
BLOCKS
  0
BLOCK
  8
0
  2
FIGURE_CIRCLE
 70
0
 10
0.000000
 20
0.000000
  0
CIRCLE
  8
0
 10
0.000000
 20
0.000000
 40
0.500000
  0
ENDBLK
  0
BLOCK
  8
0
  2
FIGURE_SQUARE
 70
0
 10
0.000000
 20
0.000000
  0
POLYLINE
  8
0
 66
1
 70
1
 40
0.000000
 41
0.000000
 39
0.000000
  0
VERTEX
  8
0
 10
-0.500000
 20
-0.500000
 40
0.000000
 41
0.000000
 42
0.000000
  0
VERTEX
  8
0
 10
-0.500000
 20
0.500000
 40
0.000000
 41
0.000000
 42
0.000000
  0
VERTEX
  8
0
 10
0.500000
 20
0.500000
 40
0.000000
 41
0.000000
 42
0.000000
  0
VERTEX
  8
0
 10
0.500000
 20
-0.500000
 40
0.000000
 41
0.000000
 42
0.000000
  0
SEQEND
  0
ENDBLK
  0
BLOCK
  8
0
  2
FIGURE_HEX
 70
0
 10
0.000000
 20
0.000000
  0
POLYLINE
  8
0
 66
1
 70
1
 40
0.000000
 41
0.000000
 39
0.000000
  0
VERTEX
  8
0
 10
-0.500000
 20
0.000000
 40
0.000000
 41
0.000000
 42
0.000000
  0
VERTEX
  8
0
 10
-0.250000
 20
0.500000
 40
0.000000
 41
0.000000
 42
0.000000
  0
VERTEX
  8
0
 10
0.250000
 20
0.500000
 40
0.000000
 41
0.000000
 42
0.000000
  0
VERTEX
  8
0
 10
0.500000
 20
0.000000
 40
0.000000
 41
0.000000
 42
0.000000
  0
VERTEX
  8
0
 10
0.250000
 20
-0.500000
 40
0.000000
 41
0.000000
 42
0.000000
  0
VERTEX
  8
0
 10
-0.250000
 20
-0.500000
 40
0.000000
 41
0.000000
 42
0.000000
  0
SEQEND
  0
ENDBLK
  0
BLOCK
  8
0
  2
FIGURE_OCT
 70
0
 10
0.000000
 20
0.000000
  0
POLYLINE
  8
0
 66
1
 70
1
 40
0.000000
 41
0.000000
 39
0.000000
  0
VERTEX
  8
0
 10
-0.500000
 20
-0.207100
 40
0.000000
 41
0.000000
 42
0.000000
  0
VERTEX
  8
0
 10
-0.500000
 20
0.207100
 40
0.000000
 41
0.000000
 42
0.000000
  0
VERTEX
  8
0
 10
-0.207100
 20
0.500000
 40
0.000000
 41
0.000000
 42
0.000000
  0
VERTEX
  8
0
 10
0.207100
 20
0.500000
 40
0.000000
 41
0.000000
 42
0.000000
  0
VERTEX
  8
0
 10
0.500000
 20
0.207100
 40
0.000000
 41
0.000000
 42
0.000000
  0
VERTEX
  8
0
 10
0.500000
 20
-0.207100
 40
0.000000
 41
0.000000
 42
0.000000
  0
VERTEX
  8
0
 10
0.207100
 20
-0.500000
 40
0.000000
 41
0.000000
 42
0.000000
  0
VERTEX
  8
0
 10
-0.207100
 20
-0.500000
 40
0.000000
 41
0.000000
 42
0.000000
  0
SEQEND
  0
ENDBLK
  0
BLOCK
  8
0
  2
FIGURE_OBLONG
 70
0
 10
0.000000
 20
0.000000
  0
POLYLINE
  8
0
 66
1
 70
1
 40
0.000000
 41
0.000000
 39
0.000000
  0
VERTEX
  8
0
 10
-0.500000
 20
-0.125000
 40
0.000000
 41
0.000000
 42
0.000000
  0
VERTEX
  8
0
 10
-0.500000
 20
0.125000
 40
0.000000
 41
0.000000
 42
0.000000
  0
VERTEX
  8
0
 10
-0.416000
 20
0.375000
 40
0.000000
 41
0.000000
 42
0.000000
  0
VERTEX
  8
0
 10
-0.250000
 20
0.500000
 40
0.000000
 41
0.000000
 42
0.000000
  0
VERTEX
  8
0
 10
0.250000
 20
0.500000
 40
0.000000
 41
0.000000
 42
0.000000
  0
VERTEX
  8
0
 10
0.416000
 20
0.375000
 40
0.000000
 41
0.000000
 42
0.000000
  0
VERTEX
  8
0
 10
0.500000
 20
0.125000
 40
0.000000
 41
0.000000
 42
0.000000
  0
VERTEX
  8
0
 10
0.500000
 20
-0.125000
 40
0.000000
 41
0.000000
 42
0.000000
  0
VERTEX
  8
0
 10
0.416000
 20
-0.375000
 40
0.000000
 41
0.000000
 42
0.000000
  0
VERTEX
  8
0
 10
0.250000
 20
-0.500000
 40
0.000000
 41
0.000000
 42
0.000000
  0
VERTEX
  8
0
 10
-0.250000
 20
-0.500000
 40
0.000000
 41
0.000000
 42
0.000000
  0
VERTEX
  8
0
 10
-0.416000
 20
-0.375000
 40
0.000000
 41
0.000000
 42
0.000000
  0
SEQEND
  0
ENDBLK
  0
BLOCK
  8
0
  2
FIGURE_TRI
 70
0
 10
0.000000
 20
0.000000
  0
POLYLINE
  8
0
 66
1
 70
1
 40
0.000000
 41
0.000000
 39
0.000000
  0
VERTEX
  8
0
 10
-0.500000
 20
-0.500000
 40
0.000000
 41
0.000000
 42
0.000000
  0
VERTEX
  8
0
 10
0.000000
 20
0.500000
 40
0.000000
 41
0.000000
 42
0.000000
  0
VERTEX
  8
0
 10
0.500000
 20
-0.500000
 40
0.000000
 41
0.000000
 42
0.000000
  0
SEQEND
  0
ENDBLK
  0
BLOCK
  8
0
  2
FIGURE_CROSS
 70
0
 10
0.000000
 20
0.000000
  0
POLYLINE
  8
0
 66
1
 70
0
 40
0.000000
 41
0.000000
 39
0.000000
  0
VERTEX
  8
0
 10
-0.500000
 20
0.000000
 40
0.000000
 41
0.000000
 42
0.000000
  0
VERTEX
  8
0
 10
0.500000
 20
0.000000
 40
0.000000
 41
0.000000
 42
0.000000
  0
SEQEND
  0
POLYLINE
  8
0
 66
1
 70
0
 40
0.000000
 41
0.000000
 39
0.000000
  0
VERTEX
  8
0
 10
0.000000
 20
0.500000
 40
0.000000
 41
0.000000
 42
0.000000
  0
VERTEX
  8
0
 10
0.000000
 20
-0.500000
 40
0.000000
 41
0.000000
 42
0.000000
  0
SEQEND
  0
ENDBLK
  0
BLOCK
  8
0
  2
FIGURE_DIAMOND
 70
0
 10
0.000000
 20
0.000000
  0
POLYLINE
  8
0
 66
1
 70
1
 40
0.000000
 41
0.000000
 39
0.000000
  0
VERTEX
  8
0
 10
-0.500000
 20
0.000000
 40
0.000000
 41
0.000000
 42
0.000000
  0
VERTEX
  8
0
 10
0.000000
 20
0.500000
 40
0.000000
 41
0.000000
 42
0.000000
  0
VERTEX
  8
0
 10
0.500000
 20
0.000000
 40
0.000000
 41
0.000000
 42
0.000000
  0
VERTEX
  8
0
 10
0.000000
 20
-0.500000
 40
0.000000
 41
0.000000
 42
0.000000
  0
SEQEND
  0
ENDBLK
  0
ENDSEC
  0
SECTION
  2
ENTITIES
  0
CIRCLE
  8
PIN
 10
68.900000
 20
20.900000
 40
0.698500
  0
CIRCLE
  8
PIN
 10
92.800000
 20
5.300000
 40
0.698500
  0
CIRCLE
  8
PIN
 10
65.900000
 20
20.900000
 40
0.698500
  0
CIRCLE
  8
PIN
 10
68.100000
 20
36.100000
 40
0.698500
  0
CIRCLE
  8
PIN
 10
89.900000
 20
30.800000
 40
0.698500
  0
CIRCLE
  8
PIN
 10
62.400000
 20
31.700000
 40
0.698500
  0
POLYLINE
  8
PIN
 66
1
 70
1
 40
0.000000
 41
0.000000
 39
0.000000
  0
VERTEX
  8
PIN
 10
22.550000
 20
14.650000
 40
0.000000
 41
0.000000
 42
0.000000
  0
VERTEX
  8
PIN
 10
23.850000
 20
14.650000
 40
0.000000
 41
0.000000
 42
0.000000
  0
VERTEX
  8
PIN
 10
23.850000
 20
13.350000
 40
0.000000
 41
0.000000
 42
0.000000
  0
VERTEX
  8
PIN
 10
22.550000
 20
13.350000
 40
0.000000
 41
0.000000
 42
0.000000
  0
SEQEND
  0
CIRCLE
  8
PIN
 10
23.200000
 20
11.460000
 40
0.650000
  0
CIRCLE
  8
PIN
 10
23.200000
 20
8.920000
 40
0.650000
  0
POLYLINE
  8
PIN
 66
1
 70
1
 40
0.000000
 41
0.000000
 39
0.000000
  0
VERTEX
  8
PIN
 10
56.449950
 20
3.849950
 40
0.000000
 41
0.000000
 42
0.000000
  0
VERTEX
  8
PIN
 10
56.449950
 20
5.350050
 40
0.000000
 41
0.000000
 42
0.000000
  0
VERTEX
  8
PIN
 10
57.950050
 20
5.350050
 40
0.000000
 41
0.000000
 42
0.000000
  0
VERTEX
  8
PIN
 10
57.950050
 20
3.849950
 40
0.000000
 41
0.000000
 42
0.000000
  0
SEQEND
  0
CIRCLE
  8
PIN
 10
59.700000
 20
4.600000
 40
0.750050
  0
POLYLINE
  8
PIN
 66
1
 70
1
 40
0.000000
 41
0.000000
 39
0.000000
  0
VERTEX
  8
PIN
 10
58.049950
 20
48.949950
 40
0.000000
 41
0.000000
 42
0.000000
  0
VERTEX
  8
PIN
 10
58.049950
 20
50.450050
 40
0.000000
 41
0.000000
 42
0.000000
  0
VERTEX
  8
PIN
 10
59.550050
 20
50.450050
 40
0.000000
 41
0.000000
 42
0.000000
  0
VERTEX
  8
PIN
 10
59.550050
 20
48.949950
 40
0.000000
 41
0.000000
 42
0.000000
  0
SEQEND
  0
CIRCLE
  8
PIN
 10
61.300000
 20
49.700000
 40
0.750050
  0
POLYLINE
  8
PIN
 66
1
 70
1
 40
0.000000
 41
0.000000
 39
0.000000
  0
VERTEX
  8
PIN
 10
11.249950
 20
10.849950
 40
0.000000
 41
0.000000
 42
0.000000
  0
VERTEX
  8
PIN
 10
11.249950
 20
12.350050
 40
0.000000
 41
0.000000
 42
0.000000
  0
VERTEX
  8
PIN
 10
12.750050
 20
12.350050
 40
0.000000
 41
0.000000
 42
0.000000
  0
VERTEX
  8
PIN
 10
12.750050
 20
10.849950
 40
0.000000
 41
0.000000
 42
0.000000
  0
SEQEND
  0
CIRCLE
  8
PIN
 10
14.500000
 20
11.600000
 40
0.750050
  0
POLYLINE
  8
PIN
 66
1
 70
1
 40
0.000000
 41
0.000000
 39
0.000000
  0
VERTEX
  8
PIN
 10
2.949950
 20
10.849950
 40
0.000000
 41
0.000000
 42
0.000000
  0
VERTEX
  8
PIN
 10
2.949950
 20
12.350050
 40
0.000000
 41
0.000000
 42
0.000000
  0
VERTEX
  8
PIN
 10
4.450050
 20
12.350050
 40
0.000000
 41
0.000000
 42
0.000000
  0
VERTEX
  8
PIN
 10
4.450050
 20
10.849950
 40
0.000000
 41
0.000000
 42
0.000000
  0
SEQEND
  0
CIRCLE
  8
PIN
 10
6.200000
 20
11.600000
 40
0.750050
  0
POLYLINE
  8
PIN
 66
1
 70
1
 40
0.000000
 41
0.000000
 39
0.000000
  0
VERTEX
  8
PIN
 10
99.450050
 20
25.349950
 40
0.000000
 41
0.000000
 42
0.000000
  0
VERTEX
  8
PIN
 10
97.949950
 20
25.349950
 40
0.000000
 41
0.000000
 42
0.000000
  0
VERTEX
  8
PIN
 10
97.949950
 20
26.850050
 40
0.000000
 41
0.000000
 42
0.000000
  0
VERTEX
  8
PIN
 10
99.450050
 20
26.850050
 40
0.000000
 41
0.000000
 42
0.000000
  0
SEQEND
  0
CIRCLE
  8
PIN
 10
98.700000
 20
28.600000
 40
0.750050
  0
POLYLINE
  8
PIN
 66
1
 70
1
 40
0.000000
 41
0.000000
 39
0.000000
  0
VERTEX
  8
PIN
 10
88.500000
 20
16.200000
 40
0.000000
 41
0.000000
 42
0.000000
  0
VERTEX
  8
PIN
 10
89.900000
 20
16.200000
 40
0.000000
 41
0.000000
 42
0.000000
  0
VERTEX
  8
PIN
 10
89.900000
 20
14.800000
 40
0.000000
 41
0.000000
 42
0.000000
  0
VERTEX
  8
PIN
 10
88.500000
 20
14.800000
 40
0.000000
 41
0.000000
 42
0.000000
  0
SEQEND
  0
CIRCLE
  8
PIN
 10
89.200000
 20
13.000000
 40
0.700000
  0
CIRCLE
  8
PIN
 10
89.200000
 20
10.500000
 40
0.700000
  0
POLYLINE
  8
PIN
 66
1
 70
1
 40
0.000000
 41
0.000000
 39
0.000000
  0
VERTEX
  8
PIN
 10
88.500000
 20
43.700000
 40
0.000000
 41
0.000000
 42
0.000000
  0
VERTEX
  8
PIN
 10
89.900000
 20
43.700000
 40
0.000000
 41
0.000000
 42
0.000000
  0
VERTEX
  8
PIN
 10
89.900000
 20
42.300000
 40
0.000000
 41
0.000000
 42
0.000000
  0
VERTEX
  8
PIN
 10
88.500000
 20
42.300000
 40
0.000000
 41
0.000000
 42
0.000000
  0
SEQEND
  0
CIRCLE
  8
PIN
 10
89.200000
 20
40.500000
 40
0.700000
  0
CIRCLE
  8
PIN
 10
89.200000
 20
38.000000
 40
0.700000
  0
POLYLINE
  8
PIN
 66
1
 70
1
 40
0.000000
 41
0.000000
 39
0.000000
  0
VERTEX
  8
PIN
 10
15.500000
 20
22.600000
 40
0.000000
 41
0.000000
 42
0.000000
  0
VERTEX
  8
PIN
 10
16.900000
 20
22.600000
 40
0.000000
 41
0.000000
 42
0.000000
  0
VERTEX
  8
PIN
 10
16.900000
 20
21.200000
 40
0.000000
 41
0.000000
 42
0.000000
  0
VERTEX
  8
PIN
 10
15.500000
 20
21.200000
 40
0.000000
 41
0.000000
 42
0.000000
  0
SEQEND
  0
CIRCLE
  8
PIN
 10
16.200000
 20
23.900000
 40
0.700000
  0
CIRCLE
  8
PIN
 10
14.200000
 20
23.900000
 40
0.700000
  0
CIRCLE
  8
PIN
 10
14.200000
 20
21.900000
 40
0.700000
  0
CIRCLE
  8
PIN
 10
11.490000
 20
28.670000
 40
1.725050
  0
CIRCLE
  8
PIN
 10
11.490000
 20
16.630000
 40
1.725050
  0
POLYLINE
  8
PIN
 66
1
 70
1
 40
0.000000
 41
0.000000
 39
0.000000
  0
VERTEX
  8
PIN
 10
105.100000
 20
17.749950
 40
0.000000
 41
0.000000
 42
0.000000
  0
VERTEX
  8
PIN
 10
106.500000
 20
17.749950
 40
0.000000
 41
0.000000
 42
-1.000000
  0
VERTEX
  8
PIN
 10
106.500000
 20
16.550050
 40
0.000000
 41
0.000000
 42
0.000000
  0
VERTEX
  8
PIN
 10
105.100000
 20
16.550050
 40
0.000000
 41
0.000000
 42
-1.000000
  0
SEQEND
  0
POLYLINE
  8
PIN
 66
1
 70
1
 40
0.000000
 41
0.000000
 39
0.000000
  0
VERTEX
  8
PIN
 10
96.200000
 20
17.749950
 40
0.000000
 41
0.000000
 42
0.000000
  0
VERTEX
  8
PIN
 10
97.600000
 20
17.749950
 40
0.000000
 41
0.000000
 42
-1.000000
  0
VERTEX
  8
PIN
 10
97.600000
 20
16.550050
 40
0.000000
 41
0.000000
 42
0.000000
  0
VERTEX
  8
PIN
 10
96.200000
 20
16.550050
 40
0.000000
 41
0.000000
 42
-1.000000
  0
SEQEND
  0
POLYLINE
  8
PIN
 66
1
 70
1
 40
0.000000
 41
0.000000
 39
0.000000
  0
VERTEX
  8
PIN
 10
96.200000
 20
9.149950
 40
0.000000
 41
0.000000
 42
0.000000
  0
VERTEX
  8
PIN
 10
97.600000
 20
9.149950
 40
0.000000
 41
0.000000
 42
-1.000000
  0
VERTEX
  8
PIN
 10
97.600000
 20
7.950050
 40
0.000000
 41
0.000000
 42
0.000000
  0
VERTEX
  8
PIN
 10
96.200000
 20
7.950050
 40
0.000000
 41
0.000000
 42
-1.000000
  0
SEQEND
  0
POLYLINE
  8
PIN
 66
1
 70
1
 40
0.000000
 41
0.000000
 39
0.000000
  0
VERTEX
  8
PIN
 10
106.200050
 20
12.300000
 40
0.000000
 41
0.000000
 42
0.000000
  0
VERTEX
  8
PIN
 10
106.200050
 20
13.700000
 40
0.000000
 41
0.000000
 42
-1.000000
  0
VERTEX
  8
PIN
 10
107.399950
 20
13.700000
 40
0.000000
 41
0.000000
 42
0.000000
  0
VERTEX
  8
PIN
 10
107.399950
 20
12.300000
 40
0.000000
 41
0.000000
 42
-1.000000
  0
SEQEND
  0
POLYLINE
  8
PIN
 66
1
 70
1
 40
0.000000
 41
0.000000
 39
0.000000
  0
VERTEX
  8
PIN
 10
103.600050
 20
10.300000
 40
0.000000
 41
0.000000
 42
0.000000
  0
VERTEX
  8
PIN
 10
103.600050
 20
11.700000
 40
0.000000
 41
0.000000
 42
-1.000000
  0
VERTEX
  8
PIN
 10
104.799950
 20
11.700000
 40
0.000000
 41
0.000000
 42
0.000000
  0
VERTEX
  8
PIN
 10
104.799950
 20
10.300000
 40
0.000000
 41
0.000000
 42
-1.000000
  0
SEQEND
  0
POLYLINE
  8
PIN
 66
1
 70
1
 40
0.000000
 41
0.000000
 39
0.000000
  0
VERTEX
  8
PIN
 10
100.100050
 20
12.300000
 40
0.000000
 41
0.000000
 42
0.000000
  0
VERTEX
  8
PIN
 10
100.100050
 20
13.700000
 40
0.000000
 41
0.000000
 42
-1.000000
  0
VERTEX
  8
PIN
 10
101.299950
 20
13.700000
 40
0.000000
 41
0.000000
 42
0.000000
  0
VERTEX
  8
PIN
 10
101.299950
 20
12.300000
 40
0.000000
 41
0.000000
 42
-1.000000
  0
SEQEND
  0
POLYLINE
  8
PIN
 66
1
 70
1
 40
0.000000
 41
0.000000
 39
0.000000
  0
VERTEX
  8
PIN
 10
98.300050
 20
10.300000
 40
0.000000
 41
0.000000
 42
0.000000
  0
VERTEX
  8
PIN
 10
98.300050
 20
11.700000
 40
0.000000
 41
0.000000
 42
-1.000000
  0
VERTEX
  8
PIN
 10
99.499950
 20
11.700000
 40
0.000000
 41
0.000000
 42
0.000000
  0
VERTEX
  8
PIN
 10
99.499950
 20
10.300000
 40
0.000000
 41
0.000000
 42
-1.000000
  0
SEQEND
  0
POLYLINE
  8
PIN
 66
1
 70
1
 40
0.000000
 41
0.000000
 39
0.000000
  0
VERTEX
  8
PIN
 10
94.600050
 20
12.300000
 40
0.000000
 41
0.000000
 42
0.000000
  0
VERTEX
  8
PIN
 10
94.600050
 20
13.700000
 40
0.000000
 41
0.000000
 42
-1.000000
  0
VERTEX
  8
PIN
 10
95.799950
 20
13.700000
 40
0.000000
 41
0.000000
 42
0.000000
  0
VERTEX
  8
PIN
 10
95.799950
 20
12.300000
 40
0.000000
 41
0.000000
 42
-1.000000
  0
SEQEND
  0
POLYLINE
  8
PIN
 66
1
 70
1
 40
0.000000
 41
0.000000
 39
0.000000
  0
VERTEX
  8
PIN
 10
105.100000
 20
45.449950
 40
0.000000
 41
0.000000
 42
0.000000
  0
VERTEX
  8
PIN
 10
106.500000
 20
45.449950
 40
0.000000
 41
0.000000
 42
-1.000000
  0
VERTEX
  8
PIN
 10
106.500000
 20
44.250050
 40
0.000000
 41
0.000000
 42
0.000000
  0
VERTEX
  8
PIN
 10
105.100000
 20
44.250050
 40
0.000000
 41
0.000000
 42
-1.000000
  0
SEQEND
  0
POLYLINE
  8
PIN
 66
1
 70
1
 40
0.000000
 41
0.000000
 39
0.000000
  0
VERTEX
  8
PIN
 10
96.200000
 20
45.449950
 40
0.000000
 41
0.000000
 42
0.000000
  0
VERTEX
  8
PIN
 10
97.600000
 20
45.449950
 40
0.000000
 41
0.000000
 42
-1.000000
  0
VERTEX
  8
PIN
 10
97.600000
 20
44.250050
 40
0.000000
 41
0.000000
 42
0.000000
  0
VERTEX
  8
PIN
 10
96.200000
 20
44.250050
 40
0.000000
 41
0.000000
 42
-1.000000
  0
SEQEND
  0
POLYLINE
  8
PIN
 66
1
 70
1
 40
0.000000
 41
0.000000
 39
0.000000
  0
VERTEX
  8
PIN
 10
96.200000
 20
36.849950
 40
0.000000
 41
0.000000
 42
0.000000
  0
VERTEX
  8
PIN
 10
97.600000
 20
36.849950
 40
0.000000
 41
0.000000
 42
-1.000000
  0
VERTEX
  8
PIN
 10
97.600000
 20
35.650050
 40
0.000000
 41
0.000000
 42
0.000000
  0
VERTEX
  8
PIN
 10
96.200000
 20
35.650050
 40
0.000000
 41
0.000000
 42
-1.000000
  0
SEQEND
  0
POLYLINE
  8
PIN
 66
1
 70
1
 40
0.000000
 41
0.000000
 39
0.000000
  0
VERTEX
  8
PIN
 10
106.200050
 20
40.000000
 40
0.000000
 41
0.000000
 42
0.000000
  0
VERTEX
  8
PIN
 10
106.200050
 20
41.400000
 40
0.000000
 41
0.000000
 42
-1.000000
  0
VERTEX
  8
PIN
 10
107.399950
 20
41.400000
 40
0.000000
 41
0.000000
 42
0.000000
  0
VERTEX
  8
PIN
 10
107.399950
 20
40.000000
 40
0.000000
 41
0.000000
 42
-1.000000
  0
SEQEND
  0
POLYLINE
  8
PIN
 66
1
 70
1
 40
0.000000
 41
0.000000
 39
0.000000
  0
VERTEX
  8
PIN
 10
103.600050
 20
38.000000
 40
0.000000
 41
0.000000
 42
0.000000
  0
VERTEX
  8
PIN
 10
103.600050
 20
39.400000
 40
0.000000
 41
0.000000
 42
-1.000000
  0
VERTEX
  8
PIN
 10
104.799950
 20
39.400000
 40
0.000000
 41
0.000000
 42
0.000000
  0
VERTEX
  8
PIN
 10
104.799950
 20
38.000000
 40
0.000000
 41
0.000000
 42
-1.000000
  0
SEQEND
  0
POLYLINE
  8
PIN
 66
1
 70
1
 40
0.000000
 41
0.000000
 39
0.000000
  0
VERTEX
  8
PIN
 10
100.100050
 20
40.000000
 40
0.000000
 41
0.000000
 42
0.000000
  0
VERTEX
  8
PIN
 10
100.100050
 20
41.400000
 40
0.000000
 41
0.000000
 42
-1.000000
  0
VERTEX
  8
PIN
 10
101.299950
 20
41.400000
 40
0.000000
 41
0.000000
 42
0.000000
  0
VERTEX
  8
PIN
 10
101.299950
 20
40.000000
 40
0.000000
 41
0.000000
 42
-1.000000
  0
SEQEND
  0
POLYLINE
  8
PIN
 66
1
 70
1
 40
0.000000
 41
0.000000
 39
0.000000
  0
VERTEX
  8
PIN
 10
98.300050
 20
38.000000
 40
0.000000
 41
0.000000
 42
0.000000
  0
VERTEX
  8
PIN
 10
98.300050
 20
39.400000
 40
0.000000
 41
0.000000
 42
-1.000000
  0
VERTEX
  8
PIN
 10
99.499950
 20
39.400000
 40
0.000000
 41
0.000000
 42
0.000000
  0
VERTEX
  8
PIN
 10
99.499950
 20
38.000000
 40
0.000000
 41
0.000000
 42
-1.000000
  0
SEQEND
  0
POLYLINE
  8
PIN
 66
1
 70
1
 40
0.000000
 41
0.000000
 39
0.000000
  0
VERTEX
  8
PIN
 10
94.600050
 20
40.000000
 40
0.000000
 41
0.000000
 42
0.000000
  0
VERTEX
  8
PIN
 10
94.600050
 20
41.400000
 40
0.000000
 41
0.000000
 42
-1.000000
  0
VERTEX
  8
PIN
 10
95.799950
 20
41.400000
 40
0.000000
 41
0.000000
 42
0.000000
  0
VERTEX
  8
PIN
 10
95.799950
 20
40.000000
 40
0.000000
 41
0.000000
 42
-1.000000
  0
SEQEND
  0
POLYLINE
  8
PIN
 66
1
 70
1
 40
0.000000
 41
0.000000
 39
0.000000
  0
VERTEX
  8
PIN
 10
29.475000
 20
12.575000
 40
0.000000
 41
0.000000
 42
0.000000
  0
VERTEX
  8
PIN
 10
29.475000
 20
13.625000
 40
0.000000
 41
0.000000
 42
0.000000
  0
VERTEX
  8
PIN
 10
30.525000
 20
13.625000
 40
0.000000
 41
0.000000
 42
0.000000
  0
VERTEX
  8
PIN
 10
30.525000
 20
12.575000
 40
0.000000
 41
0.000000
 42
0.000000
  0
SEQEND
  0
CIRCLE
  8
PIN
 10
30.000000
 20
14.370000
 40
0.525000
  0
CIRCLE
  8
PIN
 10
31.270000
 20
13.100000
 40
0.525000
  0
CIRCLE
  8
PIN
 10
31.270000
 20
14.370000
 40
0.525000
  0
CIRCLE
  8
PIN
 10
32.540000
 20
13.100000
 40
0.525000
  0
CIRCLE
  8
PIN
 10
32.540000
 20
14.370000
 40
0.525000
  0
CIRCLE
  8
PIN
 10
33.810000
 20
13.100000
 40
0.525000
  0
CIRCLE
  8
PIN
 10
33.810000
 20
14.370000
 40
0.525000
  0
CIRCLE
  8
PIN
 10
35.080000
 20
13.100000
 40
0.525000
  0
CIRCLE
  8
PIN
 10
35.080000
 20
14.370000
 40
0.525000
  0
CIRCLE
  8
PIN
 10
52.300000
 20
50.500000
 40
0.800000
  0
CIRCLE
  8
PIN
 10
49.760000
 20
50.500000
 40
0.800000
  0
CIRCLE
  8
PIN
 10
47.220000
 20
50.500000
 40
0.800000
  0
CIRCLE
  8
PIN
 10
44.680000
 20
50.500000
 40
0.800000
  0
CIRCLE
  8
PIN
 10
42.140000
 20
50.500000
 40
0.800000
  0
CIRCLE
  8
PIN
 10
39.600000
 20
50.500000
 40
0.800000
  0
CIRCLE
  8
PIN
 10
37.060000
 20
50.500000
 40
0.800000
  0
CIRCLE
  8
PIN
 10
34.520000
 20
50.500000
 40
0.800000
  0
CIRCLE
  8
PIN
 10
30.460000
 20
50.500000
 40
0.800000
  0
CIRCLE
  8
PIN
 10
27.920000
 20
50.500000
 40
0.800000
  0
CIRCLE
  8
PIN
 10
25.380000
 20
50.500000
 40
0.800000
  0
CIRCLE
  8
PIN
 10
22.840000
 20
50.500000
 40
0.800000
  0
CIRCLE
  8
PIN
 10
20.300000
 20
50.500000
 40
0.800000
  0
CIRCLE
  8
PIN
 10
17.760000
 20
50.500000
 40
0.800000
  0
CIRCLE
  8
PIN
 10
15.220000
 20
50.500000
 40
0.800000
  0
CIRCLE
  8
PIN
 10
12.680000
 20
50.500000
 40
0.800000
  0
CIRCLE
  8
PIN
 10
10.140000
 20
50.500000
 40
0.800000
  0
CIRCLE
  8
PIN
 10
7.600000
 20
50.500000
 40
0.800000
  0
POLYLINE
  8
PIN
 66
1
 70
1
 40
0.000000
 41
0.000000
 39
0.000000
  0
VERTEX
  8
PIN
 10
15.940000
 20
3.040000
 40
0.000000
 41
0.000000
 42
0.000000
  0
VERTEX
  8
PIN
 10
17.540000
 20
3.040000
 40
0.000000
 41
0.000000
 42
0.000000
  0
VERTEX
  8
PIN
 10
17.540000
 20
1.440000
 40
0.000000
 41
0.000000
 42
0.000000
  0
VERTEX
  8
PIN
 10
15.940000
 20
1.440000
 40
0.000000
 41
0.000000
 42
0.000000
  0
SEQEND
  0
CIRCLE
  8
PIN
 10
19.280000
 20
2.240000
 40
0.800000
  0
CIRCLE
  8
PIN
 10
21.820000
 20
2.240000
 40
0.800000
  0
CIRCLE
  8
PIN
 10
24.360000
 20
2.240000
 40
0.800000
  0
CIRCLE
  8
PIN
 10
26.900000
 20
2.240000
 40
0.800000
  0
CIRCLE
  8
PIN
 10
29.440000
 20
2.240000
 40
0.800000
  0
CIRCLE
  8
PIN
 10
31.980000
 20
2.240000
 40
0.800000
  0
CIRCLE
  8
PIN
 10
34.520000
 20
2.240000
 40
0.800000
  0
CIRCLE
  8
PIN
 10
39.600000
 20
2.240000
 40
0.800000
  0
CIRCLE
  8
PIN
 10
42.140000
 20
2.240000
 40
0.800000
  0
CIRCLE
  8
PIN
 10
44.680000
 20
2.240000
 40
0.800000
  0
CIRCLE
  8
PIN
 10
47.220000
 20
2.240000
 40
0.800000
  0
CIRCLE
  8
PIN
 10
49.760000
 20
2.240000
 40
0.800000
  0
CIRCLE
  8
PIN
 10
52.300000
 20
2.240000
 40
0.800000
  0
CIRCLE
  8
PIN
 10
105.000000
 20
3.000000
 40
1.599950
  0
CIRCLE
  8
PIN
 10
105.000000
 20
50.000000
 40
1.599950
  0
CIRCLE
  8
PIN
 10
3.000000
 20
50.000000
 40
1.599950
  0
CIRCLE
  8
PIN
 10
3.000000
 20
3.000000
 40
1.599950
  0
POLYLINE
  8
OUTLINE
 66
1
 70
1
 40
0.000000
 41
0.000000
 39
0.000000
  0
VERTEX
  8
OUTLINE
 10
0.000000
 20
0.000000
 40
0.000000
 41
0.000000
 42
0.000000
  0
VERTEX
  8
OUTLINE
 10
0.000000
 20
52.900000
 40
0.000000
 41
0.000000
 42
0.000000
  0
VERTEX
  8
OUTLINE
 10
113.000000
 20
52.900000
 40
0.000000
 41
0.000000
 42
0.000000
  0
VERTEX
  8
OUTLINE
 10
113.000000
 20
0.000000
 40
0.000000
 41
0.000000
 42
0.000000
  0
SEQEND
  0
ENDSEC
  0
EOF
