  0
SECTION
  2
HEADER
  9
$ACADVER
  1
AC1009
  9
$INSBASE
 10
0.000000
 20
0.000000
  9
$LIMMIN
 10
-264.200000
 20
-308.500000
  9
$LIMMAX
 10
1592.745300
 20
1061.677300
  9
$EXTMIN
 10
-264.200000
 20
-308.500000
  9
$EXTMAX
 10
1592.745300
 20
1061.677300
  9
$ATTMODE
 70
0
  9
$LUNITS
 70
2
  9
$LUPREC
 70
4
  9
$THICKNESS
 40
1.670000
  0
ENDSEC
  0
SECTION
  2
TABLES
  0
TABLE
  2
LTYPE
 70
1
  0
LTYPE
  3
Solid Line
  2
CONTINUOUS
 70
0
 72
65
 73
0
 40
0.000000
  0
ENDTAB
  0
TABLE
  2
LAYER
 70
3
  0
LAYER
  2
ETCH_TOP
 70
0
 62
80
  6
CONTINUOUS
  0
LAYER
  2
ETCH_TOP
 70
0
 62
80
  6
CONTINUOUS
  0
LAYER
  2
ETCH_TOP
 70
0
 62
80
  6
CONTINUOUS
  0
ENDTAB
  0
TABLE
  2
STYLE
 70
1
  0
STYLE
  2
STANDARD
 70
0
 40
0.000000
 41
1.000000
 50
0.000000
 71
0
 42
0.200000
  3
txt
  0
ENDTAB
  0
ENDSEC
  0
SECTION
  2
BLOCKS
  0
BLOCK
  8
0
  2
FIGURE_CIRCLE
 70
0
 10
0.000000
 20
0.000000
  0
CIRCLE
  8
0
 10
0.000000
 20
0.000000
 40
0.500000
  0
ENDBLK
  0
BLOCK
  8
0
  2
FIGURE_SQUARE
 70
0
 10
0.000000
 20
0.000000
  0
POLYLINE
  8
0
 66
1
 70
1
 40
0.000000
 41
0.000000
 39
0.000000
  0
VERTEX
  8
0
 10
-0.500000
 20
-0.500000
 40
0.000000
 41
0.000000
 42
0.000000
  0
VERTEX
  8
0
 10
-0.500000
 20
0.500000
 40
0.000000
 41
0.000000
 42
0.000000
  0
VERTEX
  8
0
 10
0.500000
 20
0.500000
 40
0.000000
 41
0.000000
 42
0.000000
  0
VERTEX
  8
0
 10
0.500000
 20
-0.500000
 40
0.000000
 41
0.000000
 42
0.000000
  0
SEQEND
  0
ENDBLK
  0
BLOCK
  8
0
  2
FIGURE_HEX
 70
0
 10
0.000000
 20
0.000000
  0
POLYLINE
  8
0
 66
1
 70
1
 40
0.000000
 41
0.000000
 39
0.000000
  0
VERTEX
  8
0
 10
-0.500000
 20
0.000000
 40
0.000000
 41
0.000000
 42
0.000000
  0
VERTEX
  8
0
 10
-0.250000
 20
0.500000
 40
0.000000
 41
0.000000
 42
0.000000
  0
VERTEX
  8
0
 10
0.250000
 20
0.500000
 40
0.000000
 41
0.000000
 42
0.000000
  0
VERTEX
  8
0
 10
0.500000
 20
0.000000
 40
0.000000
 41
0.000000
 42
0.000000
  0
VERTEX
  8
0
 10
0.250000
 20
-0.500000
 40
0.000000
 41
0.000000
 42
0.000000
  0
VERTEX
  8
0
 10
-0.250000
 20
-0.500000
 40
0.000000
 41
0.000000
 42
0.000000
  0
SEQEND
  0
ENDBLK
  0
BLOCK
  8
0
  2
FIGURE_OCT
 70
0
 10
0.000000
 20
0.000000
  0
POLYLINE
  8
0
 66
1
 70
1
 40
0.000000
 41
0.000000
 39
0.000000
  0
VERTEX
  8
0
 10
-0.500000
 20
-0.207100
 40
0.000000
 41
0.000000
 42
0.000000
  0
VERTEX
  8
0
 10
-0.500000
 20
0.207100
 40
0.000000
 41
0.000000
 42
0.000000
  0
VERTEX
  8
0
 10
-0.207100
 20
0.500000
 40
0.000000
 41
0.000000
 42
0.000000
  0
VERTEX
  8
0
 10
0.207100
 20
0.500000
 40
0.000000
 41
0.000000
 42
0.000000
  0
VERTEX
  8
0
 10
0.500000
 20
0.207100
 40
0.000000
 41
0.000000
 42
0.000000
  0
VERTEX
  8
0
 10
0.500000
 20
-0.207100
 40
0.000000
 41
0.000000
 42
0.000000
  0
VERTEX
  8
0
 10
0.207100
 20
-0.500000
 40
0.000000
 41
0.000000
 42
0.000000
  0
VERTEX
  8
0
 10
-0.207100
 20
-0.500000
 40
0.000000
 41
0.000000
 42
0.000000
  0
SEQEND
  0
ENDBLK
  0
BLOCK
  8
0
  2
FIGURE_OBLONG
 70
0
 10
0.000000
 20
0.000000
  0
POLYLINE
  8
0
 66
1
 70
1
 40
0.000000
 41
0.000000
 39
0.000000
  0
VERTEX
  8
0
 10
-0.500000
 20
-0.125000
 40
0.000000
 41
0.000000
 42
0.000000
  0
VERTEX
  8
0
 10
-0.500000
 20
0.125000
 40
0.000000
 41
0.000000
 42
0.000000
  0
VERTEX
  8
0
 10
-0.416000
 20
0.375000
 40
0.000000
 41
0.000000
 42
0.000000
  0
VERTEX
  8
0
 10
-0.250000
 20
0.500000
 40
0.000000
 41
0.000000
 42
0.000000
  0
VERTEX
  8
0
 10
0.250000
 20
0.500000
 40
0.000000
 41
0.000000
 42
0.000000
  0
VERTEX
  8
0
 10
0.416000
 20
0.375000
 40
0.000000
 41
0.000000
 42
0.000000
  0
VERTEX
  8
0
 10
0.500000
 20
0.125000
 40
0.000000
 41
0.000000
 42
0.000000
  0
VERTEX
  8
0
 10
0.500000
 20
-0.125000
 40
0.000000
 41
0.000000
 42
0.000000
  0
VERTEX
  8
0
 10
0.416000
 20
-0.375000
 40
0.000000
 41
0.000000
 42
0.000000
  0
VERTEX
  8
0
 10
0.250000
 20
-0.500000
 40
0.000000
 41
0.000000
 42
0.000000
  0
VERTEX
  8
0
 10
-0.250000
 20
-0.500000
 40
0.000000
 41
0.000000
 42
0.000000
  0
VERTEX
  8
0
 10
-0.416000
 20
-0.375000
 40
0.000000
 41
0.000000
 42
0.000000
  0
SEQEND
  0
ENDBLK
  0
BLOCK
  8
0
  2
FIGURE_TRI
 70
0
 10
0.000000
 20
0.000000
  0
POLYLINE
  8
0
 66
1
 70
1
 40
0.000000
 41
0.000000
 39
0.000000
  0
VERTEX
  8
0
 10
-0.500000
 20
-0.500000
 40
0.000000
 41
0.000000
 42
0.000000
  0
VERTEX
  8
0
 10
0.000000
 20
0.500000
 40
0.000000
 41
0.000000
 42
0.000000
  0
VERTEX
  8
0
 10
0.500000
 20
-0.500000
 40
0.000000
 41
0.000000
 42
0.000000
  0
SEQEND
  0
ENDBLK
  0
BLOCK
  8
0
  2
FIGURE_CROSS
 70
0
 10
0.000000
 20
0.000000
  0
POLYLINE
  8
0
 66
1
 70
0
 40
0.000000
 41
0.000000
 39
0.000000
  0
VERTEX
  8
0
 10
-0.500000
 20
0.000000
 40
0.000000
 41
0.000000
 42
0.000000
  0
VERTEX
  8
0
 10
0.500000
 20
0.000000
 40
0.000000
 41
0.000000
 42
0.000000
  0
SEQEND
  0
POLYLINE
  8
0
 66
1
 70
0
 40
0.000000
 41
0.000000
 39
0.000000
  0
VERTEX
  8
0
 10
0.000000
 20
0.500000
 40
0.000000
 41
0.000000
 42
0.000000
  0
VERTEX
  8
0
 10
0.000000
 20
-0.500000
 40
0.000000
 41
0.000000
 42
0.000000
  0
SEQEND
  0
ENDBLK
  0
BLOCK
  8
0
  2
FIGURE_DIAMOND
 70
0
 10
0.000000
 20
0.000000
  0
POLYLINE
  8
0
 66
1
 70
1
 40
0.000000
 41
0.000000
 39
0.000000
  0
VERTEX
  8
0
 10
-0.500000
 20
0.000000
 40
0.000000
 41
0.000000
 42
0.000000
  0
VERTEX
  8
0
 10
0.000000
 20
0.500000
 40
0.000000
 41
0.000000
 42
0.000000
  0
VERTEX
  8
0
 10
0.500000
 20
0.000000
 40
0.000000
 41
0.000000
 42
0.000000
  0
VERTEX
  8
0
 10
0.000000
 20
-0.500000
 40
0.000000
 41
0.000000
 42
0.000000
  0
SEQEND
  0
ENDBLK
  0
ENDSEC
  0
SECTION
  2
ENTITIES
  0
POLYLINE
  8
ETCH_TOP
 66
1
 70
0
 40
0.000000
 41
0.000000
 39
0.000000
  0
VERTEX
  8
ETCH_TOP
 10
-143.500000
 20
34.405000
 40
0.300000
 41
0.300000
 42
0.000000
  0
VERTEX
  8
ETCH_TOP
 10
-143.025000
 20
34.405000
 40
0.300000
 41
0.300000
 42
0.000000
  0
VERTEX
  8
ETCH_TOP
 10
-142.420100
 20
35.009900
 40
0.300000
 41
0.300000
 42
0.000000
  0
VERTEX
  8
ETCH_TOP
 10
-142.009900
 20
35.009900
 40
0.300000
 41
0.300000
 42
0.000000
  0
VERTEX
  8
ETCH_TOP
 10
-141.500000
 20
34.500000
 40
0.300000
 41
0.300000
 42
0.000000
  0
SEQEND
  0
POLYLINE
  8
ETCH_TOP
 66
1
 70
0
 40
0.000000
 41
0.000000
 39
0.000000
  0
VERTEX
  8
ETCH_TOP
 10
-140.100000
 20
36.300000
 40
0.300000
 41
0.300000
 42
0.000000
  0
VERTEX
  8
ETCH_TOP
 10
-140.100000
 20
35.900000
 40
0.300000
 41
0.300000
 42
0.000000
  0
VERTEX
  8
ETCH_TOP
 10
-141.500000
 20
34.500000
 40
0.300000
 41
0.300000
 42
0.000000
  0
SEQEND
  0
POLYLINE
  8
ETCH_TOP
 66
1
 70
0
 40
0.000000
 41
0.000000
 39
0.000000
  0
VERTEX
  8
ETCH_TOP
 10
-141.500000
 20
34.500000
 40
0.300000
 41
0.300000
 42
0.000000
  0
VERTEX
  8
ETCH_TOP
 10
-140.804000
 20
33.804000
 40
0.300000
 41
0.300000
 42
0.000000
  0
VERTEX
  8
ETCH_TOP
 10
-136.604000
 20
33.804000
 40
0.300000
 41
0.300000
 42
0.000000
  0
VERTEX
  8
ETCH_TOP
 10
-136.100000
 20
33.300000
 40
0.300000
 41
0.300000
 42
0.000000
  0
SEQEND
  0
CIRCLE
  8
ETCH_TOP
 10
-141.500000
 20
34.500000
 40
0.276000
  0
POLYLINE
  8
ETCH_TOP
 66
1
 70
0
 40
0.000000
 41
0.000000
 39
0.000000
  0
VERTEX
  8
ETCH_TOP
 10
-137.900000
 20
30.000000
 40
0.300000
 41
0.300000
 42
0.000000
  0
VERTEX
  8
ETCH_TOP
 10
-137.900000
 20
30.395000
 40
0.300000
 41
0.300000
 42
0.000000
  0
VERTEX
  8
ETCH_TOP
 10
-138.100000
 20
30.595000
 40
0.300000
 41
0.300000
 42
0.000000
  0
SEQEND
  0
CIRCLE
  8
ETCH_TOP
 10
-137.900000
 20
30.000000
 40
0.276000
  0
POLYLINE
  8
ETCH_TOP
 66
1
 70
0
 40
0.000000
 41
0.000000
 39
0.000000
  0
VERTEX
  8
ETCH_TOP
 10
-142.500000
 20
32.300000
 40
0.300000
 41
0.300000
 42
0.000000
  0
VERTEX
  8
ETCH_TOP
 10
-143.065000
 20
32.300000
 40
0.300000
 41
0.300000
 42
0.000000
  0
VERTEX
  8
ETCH_TOP
 10
-143.500000
 20
31.865000
 40
0.300000
 41
0.300000
 42
0.000000
  0
SEQEND
  0
CIRCLE
  8
ETCH_TOP
 10
-142.500000
 20
32.300000
 40
0.276000
  0
CIRCLE
  8
ETCH_TOP
 10
-143.500000
 20
29.700000
 40
0.276000
  0
POLYLINE
  8
ETCH_TOP
 66
1
 70
0
 40
0.000000
 41
0.000000
 39
0.000000
  0
VERTEX
  8
ETCH_TOP
 10
-141.000000
 20
29.700000
 40
0.300000
 41
0.300000
 42
0.000000
  0
VERTEX
  8
ETCH_TOP
 10
-143.500000
 20
29.700000
 40
0.300000
 41
0.300000
 42
0.000000
  0
SEQEND
  0
CIRCLE
  8
ETCH_TOP
 10
-141.000000
 20
29.700000
 40
0.276000
  0
POLYLINE
  8
ETCH_TOP
 66
1
 70
0
 40
0.000000
 41
0.000000
 39
0.000000
  0
VERTEX
  8
ETCH_TOP
 10
-138.100000
 20
33.135000
 40
0.300000
 41
0.300000
 42
0.000000
  0
VERTEX
  8
ETCH_TOP
 10
-139.179800
 20
33.135000
 40
0.300000
 41
0.300000
 42
0.000000
  0
VERTEX
  8
ETCH_TOP
 10
-139.209300
 20
33.105500
 40
0.300000
 41
0.300000
 42
0.000000
  0
VERTEX
  8
ETCH_TOP
 10
-139.209300
 20
29.615700
 40
0.300000
 41
0.300000
 42
0.000000
  0
SEQEND
  0
CIRCLE
  8
ETCH_TOP
 10
-138.100000
 20
33.135000
 40
0.276000
  0
CIRCLE
  8
ETCH_TOP
 10
-139.209300
 20
29.615700
 40
0.276000
  0
CIRCLE
  8
ETCH_TOP
 10
-137.200000
 20
32.200000
 40
0.276000
  0
POLYLINE
  8
ETCH_TOP
 66
1
 70
0
 40
0.000000
 41
0.000000
 39
0.000000
  0
VERTEX
  8
ETCH_TOP
 10
-138.100000
 20
31.865000
 40
0.300000
 41
0.300000
 42
0.000000
  0
VERTEX
  8
ETCH_TOP
 10
-137.535000
 20
31.865000
 40
0.300000
 41
0.300000
 42
0.000000
  0
VERTEX
  8
ETCH_TOP
 10
-137.200000
 20
32.200000
 40
0.300000
 41
0.300000
 42
0.000000
  0
SEQEND
  0
CIRCLE
  8
ETCH_TOP
 10
-146.300000
 20
32.100000
 40
0.276000
  0
POLYLINE
  8
ETCH_TOP
 66
1
 70
0
 40
0.000000
 41
0.000000
 39
0.000000
  0
VERTEX
  8
ETCH_TOP
 10
-146.300000
 20
34.600000
 40
0.300000
 41
0.300000
 42
0.000000
  0
VERTEX
  8
ETCH_TOP
 10
-146.300000
 20
32.100000
 40
0.300000
 41
0.300000
 42
0.000000
  0
SEQEND
  0
CIRCLE
  8
ETCH_TOP
 10
-146.300000
 20
34.600000
 40
0.276000
  0
CIRCLE
  8
ETCH_TOP
 10
-146.300000
 20
36.300000
 40
0.276000
  0
POLYLINE
  8
ETCH_TOP
 66
1
 70
0
 40
0.000000
 41
0.000000
 39
0.000000
  0
VERTEX
  8
ETCH_TOP
 10
-146.300000
 20
36.300000
 40
0.300000
 41
0.300000
 42
0.000000
  0
VERTEX
  8
ETCH_TOP
 10
-141.700000
 20
36.300000
 40
0.300000
 41
0.300000
 42
0.000000
  0
SEQEND
  0
CIRCLE
  8
ETCH_TOP
 10
-143.500000
 20
33.500000
 40
0.276000
  0
POLYLINE
  8
ETCH_TOP
 66
1
 70
0
 40
0.000000
 41
0.000000
 39
0.000000
  0
VERTEX
  8
ETCH_TOP
 10
-143.500000
 20
33.135000
 40
0.300000
 41
0.300000
 42
0.000000
  0
VERTEX
  8
ETCH_TOP
 10
-143.500000
 20
33.500000
 40
0.300000
 41
0.300000
 42
0.000000
  0
SEQEND
  0
POLYLINE
  8
ETCH_TOP
 66
1
 70
0
 40
0.000000
 41
0.000000
 39
0.000000
  0
VERTEX
  8
ETCH_TOP
 10
-131.300000
 20
25.400000
 40
0.300000
 41
0.300000
 42
0.000000
  0
VERTEX
  8
ETCH_TOP
 10
-131.300000
 20
25.980800
 40
0.300000
 41
0.300000
 42
0.000000
  0
VERTEX
  8
ETCH_TOP
 10
-131.280800
 20
26.000000
 40
0.300000
 41
0.300000
 42
0.000000
  0
VERTEX
  8
ETCH_TOP
 10
-130.100000
 20
26.000000
 40
0.300000
 41
0.300000
 42
0.000000
  0
SEQEND
  0
CIRCLE
  8
ETCH_TOP
 10
-131.300000
 20
25.400000
 40
0.276000
  0
CIRCLE
  8
ETCH_TOP
 10
-132.700000
 20
30.700000
 40
0.276000
  0
POLYLINE
  8
ETCH_TOP
 66
1
 70
0
 40
0.000000
 41
0.000000
 39
0.000000
  0
VERTEX
  8
ETCH_TOP
 10
-131.275000
 20
30.250000
 40
0.300000
 41
0.300000
 42
0.000000
  0
VERTEX
  8
ETCH_TOP
 10
-132.250000
 20
30.250000
 40
0.300000
 41
0.300000
 42
0.000000
  0
VERTEX
  8
ETCH_TOP
 10
-132.700000
 20
30.700000
 40
0.300000
 41
0.300000
 42
0.000000
  0
SEQEND
  0
POLYLINE
  8
ETCH_TOP
 66
1
 70
0
 40
0.000000
 41
0.000000
 39
0.000000
  0
VERTEX
  8
ETCH_TOP
 10
-131.275000
 20
30.250000
 40
0.300000
 41
0.300000
 42
0.000000
  0
VERTEX
  8
ETCH_TOP
 10
-131.275000
 20
28.575000
 40
0.300000
 41
0.300000
 42
0.000000
  0
VERTEX
  8
ETCH_TOP
 10
-131.100000
 20
28.400000
 40
0.300000
 41
0.300000
 42
0.000000
  0
SEQEND
  0
POLYLINE
  8
ETCH_TOP
 66
1
 70
0
 40
0.000000
 41
0.000000
 39
0.000000
  0
VERTEX
  8
ETCH_TOP
 10
-131.990200
 20
37.000000
 40
0.300000
 41
0.300000
 42
0.000000
  0
VERTEX
  8
ETCH_TOP
 10
-134.700000
 20
37.000000
 40
0.300000
 41
0.300000
 42
0.000000
  0
SEQEND
  0
POLYLINE
  8
ETCH_TOP
 66
1
 70
0
 40
0.000000
 41
0.000000
 39
0.000000
  0
VERTEX
  8
ETCH_TOP
 10
-135.300000
 20
35.700000
 40
0.300000
 41
0.300000
 42
0.000000
  0
VERTEX
  8
ETCH_TOP
 10
-135.300000
 20
34.920200
 40
0.300000
 41
0.300000
 42
0.000000
  0
VERTEX
  8
ETCH_TOP
 10
-135.279800
 20
34.900000
 40
0.300000
 41
0.300000
 42
0.000000
  0
VERTEX
  8
ETCH_TOP
 10
-134.500000
 20
34.900000
 40
0.300000
 41
0.300000
 42
0.000000
  0
SEQEND
  0
CIRCLE
  8
ETCH_TOP
 10
-135.300000
 20
35.700000
 40
0.276000
  0
CIRCLE
  8
ETCH_TOP
 10
-134.700000
 20
37.000000
 40
0.276000
  0
CIRCLE
  8
ETCH_TOP
 10
-131.990200
 20
37.000000
 40
0.276000
  0
CIRCLE
  8
ETCH_TOP
 10
-128.500000
 20
35.725000
 40
0.276000
  0
POLYLINE
  8
ETCH_TOP
 66
1
 70
0
 40
0.000000
 41
0.000000
 39
0.000000
  0
VERTEX
  8
ETCH_TOP
 10
-127.600000
 20
34.800000
 40
0.300000
 41
0.300000
 42
0.000000
  0
VERTEX
  8
ETCH_TOP
 10
-127.600000
 20
34.825000
 40
0.300000
 41
0.300000
 42
0.000000
  0
VERTEX
  8
ETCH_TOP
 10
-128.500000
 20
35.725000
 40
0.300000
 41
0.300000
 42
0.000000
  0
SEQEND
  0
POLYLINE
  8
ETCH_TOP
 66
1
 70
0
 40
0.000000
 41
0.000000
 39
0.000000
  0
VERTEX
  8
ETCH_TOP
 10
-127.600000
 20
34.800000
 40
0.300000
 41
0.300000
 42
0.000000
  0
VERTEX
  8
ETCH_TOP
 10
-127.600000
 20
34.775000
 40
0.300000
 41
0.300000
 42
0.000000
  0
VERTEX
  8
ETCH_TOP
 10
-126.000000
 20
33.175000
 40
0.300000
 41
0.300000
 42
0.000000
  0
VERTEX
  8
ETCH_TOP
 10
-126.000000
 20
33.200000
 40
0.300000
 41
0.300000
 42
0.000000
  0
SEQEND
  0
CIRCLE
  8
ETCH_TOP
 10
-126.000000
 20
34.400000
 40
0.276000
  0
POLYLINE
  8
ETCH_TOP
 66
1
 70
0
 40
0.000000
 41
0.000000
 39
0.000000
  0
VERTEX
  8
ETCH_TOP
 10
-126.000000
 20
34.800000
 40
0.300000
 41
0.300000
 42
0.000000
  0
VERTEX
  8
ETCH_TOP
 10
-126.000000
 20
34.400000
 40
0.300000
 41
0.300000
 42
0.000000
  0
SEQEND
  0
POLYLINE
  8
ETCH_TOP
 66
1
 70
0
 40
0.000000
 41
0.000000
 39
0.000000
  0
VERTEX
  8
ETCH_TOP
 10
-124.900000
 20
31.200000
 40
0.300000
 41
0.300000
 42
0.000000
  0
VERTEX
  8
ETCH_TOP
 10
-124.900000
 20
30.320200
 40
0.300000
 41
0.300000
 42
0.000000
  0
VERTEX
  8
ETCH_TOP
 10
-125.220200
 20
30.000000
 40
0.300000
 41
0.300000
 42
0.000000
  0
VERTEX
  8
ETCH_TOP
 10
-126.000000
 20
30.000000
 40
0.300000
 41
0.300000
 42
0.000000
  0
SEQEND
  0
CIRCLE
  8
ETCH_TOP
 10
-124.900000
 20
31.200000
 40
0.276000
  0
CIRCLE
  8
ETCH_TOP
 10
-136.100000
 20
35.700000
 40
0.276000
  0
POLYLINE
  8
ETCH_TOP
 66
1
 70
0
 40
0.000000
 41
0.000000
 39
0.000000
  0
VERTEX
  8
ETCH_TOP
 10
-136.100000
 20
34.900000
 40
0.300000
 41
0.300000
 42
0.000000
  0
VERTEX
  8
ETCH_TOP
 10
-136.100000
 20
35.700000
 40
0.300000
 41
0.300000
 42
0.000000
  0
SEQEND
  0
CIRCLE
  8
ETCH_TOP
 10
-134.500000
 20
32.800000
 40
0.276000
  0
POLYLINE
  8
ETCH_TOP
 66
1
 70
0
 40
0.000000
 41
0.000000
 39
0.000000
  0
VERTEX
  8
ETCH_TOP
 10
-134.500000
 20
33.300000
 40
0.300000
 41
0.300000
 42
0.000000
  0
VERTEX
  8
ETCH_TOP
 10
-134.500000
 20
32.800000
 40
0.300000
 41
0.300000
 42
0.000000
  0
SEQEND
  0
POLYLINE
  8
ETCH_TOP
 66
1
 70
0
 40
0.000000
 41
0.000000
 39
0.000000
  0
VERTEX
  8
ETCH_TOP
 10
-129.325000
 20
34.550000
 40
0.300000
 41
0.300000
 42
0.000000
  0
VERTEX
  8
ETCH_TOP
 10
-129.325000
 20
34.025000
 40
0.300000
 41
0.300000
 42
0.000000
  0
VERTEX
  8
ETCH_TOP
 10
-128.500000
 20
33.200000
 40
0.300000
 41
0.300000
 42
0.000000
  0
VERTEX
  8
ETCH_TOP
 10
-127.600000
 20
33.200000
 40
0.300000
 41
0.300000
 42
0.000000
  0
SEQEND
  0
POLYLINE
  8
ETCH_TOP
 66
1
 70
0
 40
0.000000
 41
0.000000
 39
0.000000
  0
VERTEX
  8
ETCH_TOP
 10
-129.500000
 20
36.400000
 40
0.300000
 41
0.300000
 42
0.000000
  0
VERTEX
  8
ETCH_TOP
 10
-129.500000
 20
35.343900
 40
0.300000
 41
0.300000
 42
0.000000
  0
VERTEX
  8
ETCH_TOP
 10
-129.325000
 20
35.168900
 40
0.300000
 41
0.300000
 42
0.000000
  0
VERTEX
  8
ETCH_TOP
 10
-129.325000
 20
34.550000
 40
0.300000
 41
0.300000
 42
0.000000
  0
SEQEND
  0
POLYLINE
  8
ETCH_TOP
 66
1
 70
0
 40
0.000000
 41
0.000000
 39
0.000000
  0
VERTEX
  8
ETCH_TOP
 10
-131.100000
 20
36.400000
 40
0.300000
 41
0.300000
 42
0.000000
  0
VERTEX
  8
ETCH_TOP
 10
-131.100000
 20
35.343900
 40
0.300000
 41
0.300000
 42
0.000000
  0
VERTEX
  8
ETCH_TOP
 10
-131.275000
 20
35.168900
 40
0.300000
 41
0.300000
 42
0.000000
  0
VERTEX
  8
ETCH_TOP
 10
-131.275000
 20
34.550000
 40
0.300000
 41
0.300000
 42
0.000000
  0
SEQEND
  0
POLYLINE
  8
ETCH_TOP
 66
1
 70
0
 40
0.000000
 41
0.000000
 39
0.000000
  0
VERTEX
  8
ETCH_TOP
 10
-132.100000
 20
33.500000
 40
0.300000
 41
0.300000
 42
0.000000
  0
VERTEX
  8
ETCH_TOP
 10
-132.100000
 20
34.254800
 40
0.300000
 41
0.300000
 42
0.000000
  0
VERTEX
  8
ETCH_TOP
 10
-131.804800
 20
34.550000
 40
0.300000
 41
0.300000
 42
0.000000
  0
VERTEX
  8
ETCH_TOP
 10
-131.275000
 20
34.550000
 40
0.300000
 41
0.300000
 42
0.000000
  0
SEQEND
  0
CIRCLE
  8
ETCH_TOP
 10
-132.100000
 20
33.500000
 40
0.276000
  0
POLYLINE
  8
ETCH_TOP
 66
1
 70
0
 40
0.000000
 41
0.000000
 39
0.000000
  0
VERTEX
  8
ETCH_TOP
 10
-134.500000
 20
31.500000
 40
0.300000
 41
0.300000
 42
0.000000
  0
VERTEX
  8
ETCH_TOP
 10
-133.720200
 20
31.500000
 40
0.300000
 41
0.300000
 42
0.000000
  0
VERTEX
  8
ETCH_TOP
 10
-133.598000
 20
31.377800
 40
0.300000
 41
0.300000
 42
0.000000
  0
VERTEX
  8
ETCH_TOP
 10
-133.598000
 20
30.100000
 40
0.300000
 41
0.300000
 42
0.000000
  0
SEQEND
  0
POLYLINE
  8
ETCH_TOP
 66
1
 70
0
 40
0.000000
 41
0.000000
 39
0.000000
  0
VERTEX
  8
ETCH_TOP
 10
-133.598000
 20
30.100000
 40
0.200000
 41
0.200000
 42
0.000000
  0
VERTEX
  8
ETCH_TOP
 10
-133.598000
 20
30.398700
 40
0.200000
 41
0.200000
 42
0.000000
  0
VERTEX
  8
ETCH_TOP
 10
-133.894300
 20
30.695000
 40
0.200000
 41
0.200000
 42
0.000000
  0
VERTEX
  8
ETCH_TOP
 10
-135.305000
 20
30.695000
 40
0.200000
 41
0.200000
 42
0.000000
  0
VERTEX
  8
ETCH_TOP
 10
-136.100000
 20
29.900000
 40
0.200000
 41
0.200000
 42
0.000000
  0
SEQEND
  0
CIRCLE
  8
ETCH_TOP
 10
-134.900000
 20
32.000000
 40
0.276000
  0
POLYLINE
  8
ETCH_TOP
 66
1
 70
0
 40
0.000000
 41
0.000000
 39
0.000000
  0
VERTEX
  8
ETCH_TOP
 10
-134.500000
 20
31.500000
 40
0.300000
 41
0.300000
 42
0.000000
  0
VERTEX
  8
ETCH_TOP
 10
-134.500000
 20
31.600000
 40
0.300000
 41
0.300000
 42
0.000000
  0
VERTEX
  8
ETCH_TOP
 10
-134.900000
 20
32.000000
 40
0.300000
 41
0.300000
 42
0.000000
  0
SEQEND
  0
CIRCLE
  8
ETCH_TOP
 10
-133.598000
 20
30.100000
 40
0.276000
  0
POLYLINE
  8
ETCH_TOP
 66
1
 70
0
 40
0.000000
 41
0.000000
 39
0.000000
  0
VERTEX
  8
ETCH_TOP
 10
-131.900000
 20
31.300000
 40
0.300000
 41
0.300000
 42
0.000000
  0
VERTEX
  8
ETCH_TOP
 10
-131.700000
 20
31.500000
 40
0.300000
 41
0.300000
 42
0.000000
  0
VERTEX
  8
ETCH_TOP
 10
-131.256100
 20
31.500000
 40
0.300000
 41
0.300000
 42
0.000000
  0
VERTEX
  8
ETCH_TOP
 10
-130.625000
 20
30.868900
 40
0.300000
 41
0.300000
 42
0.000000
  0
VERTEX
  8
ETCH_TOP
 10
-130.625000
 20
30.250000
 40
0.300000
 41
0.300000
 42
0.000000
  0
SEQEND
  0
CIRCLE
  8
ETCH_TOP
 10
-131.900000
 20
31.300000
 40
0.276000
  0
POLYLINE
  8
ETCH_TOP
 66
1
 70
0
 40
0.000000
 41
0.000000
 39
0.000000
  0
VERTEX
  8
ETCH_TOP
 10
-129.500000
 20
28.400000
 40
0.300000
 41
0.300000
 42
0.000000
  0
VERTEX
  8
ETCH_TOP
 10
-129.500000
 20
29.456100
 40
0.300000
 41
0.300000
 42
0.000000
  0
VERTEX
  8
ETCH_TOP
 10
-129.325000
 20
29.631100
 40
0.300000
 41
0.300000
 42
0.000000
  0
VERTEX
  8
ETCH_TOP
 10
-129.325000
 20
30.250000
 40
0.300000
 41
0.300000
 42
0.000000
  0
SEQEND
  0
POLYLINE
  8
ETCH_TOP
 66
1
 70
0
 40
0.000000
 41
0.000000
 39
0.000000
  0
VERTEX
  8
ETCH_TOP
 10
-127.600000
 20
31.600000
 40
0.300000
 41
0.300000
 42
0.000000
  0
VERTEX
  8
ETCH_TOP
 10
-128.500000
 20
31.600000
 40
0.300000
 41
0.300000
 42
0.000000
  0
VERTEX
  8
ETCH_TOP
 10
-129.325000
 20
30.775000
 40
0.300000
 41
0.300000
 42
0.000000
  0
VERTEX
  8
ETCH_TOP
 10
-129.325000
 20
30.250000
 40
0.300000
 41
0.300000
 42
0.000000
  0
SEQEND
  0
POLYLINE
  8
ETCH_TOP
 66
1
 70
0
 40
0.000000
 41
0.000000
 39
0.000000
  0
VERTEX
  8
ETCH_TOP
 10
-126.000000
 20
31.600000
 40
0.300000
 41
0.300000
 42
0.000000
  0
VERTEX
  8
ETCH_TOP
 10
-126.000000
 20
31.575000
 40
0.300000
 41
0.300000
 42
0.000000
  0
VERTEX
  8
ETCH_TOP
 10
-127.600000
 20
29.975000
 40
0.300000
 41
0.300000
 42
0.000000
  0
VERTEX
  8
ETCH_TOP
 10
-127.600000
 20
30.000000
 40
0.300000
 41
0.300000
 42
0.000000
  0
SEQEND
  0
POLYLINE
  8
ETCH_TOP
 66
1
 70
0
 40
0.000000
 41
0.000000
 39
0.000000
  0
VERTEX
  8
ETCH_TOP
 10
-128.700000
 20
29.300000
 40
0.300000
 41
0.300000
 42
0.000000
  0
VERTEX
  8
ETCH_TOP
 10
-128.700000
 20
29.880800
 40
0.300000
 41
0.300000
 42
0.000000
  0
VERTEX
  8
ETCH_TOP
 10
-128.580800
 20
30.000000
 40
0.300000
 41
0.300000
 42
0.000000
  0
VERTEX
  8
ETCH_TOP
 10
-127.600000
 20
30.000000
 40
0.300000
 41
0.300000
 42
0.000000
  0
SEQEND
  0
POLYLINE
  8
ETCH_TOP
 66
1
 70
0
 40
0.000000
 41
0.000000
 39
0.000000
  0
VERTEX
  8
ETCH_TOP
 10
-133.600000
 20
29.000000
 40
0.300000
 41
0.300000
 42
0.000000
  0
VERTEX
  8
ETCH_TOP
 10
-134.404800
 20
29.000000
 40
0.300000
 41
0.300000
 42
0.000000
  0
VERTEX
  8
ETCH_TOP
 10
-134.500000
 20
29.095200
 40
0.300000
 41
0.300000
 42
0.000000
  0
VERTEX
  8
ETCH_TOP
 10
-134.500000
 20
29.900000
 40
0.300000
 41
0.300000
 42
0.000000
  0
SEQEND
  0
CIRCLE
  8
ETCH_TOP
 10
-133.600000
 20
29.000000
 40
0.276000
  0
CIRCLE
  8
ETCH_TOP
 10
-128.700000
 20
29.300000
 40
0.276000
  0
POLYLINE
  8
ETCH_TOP
 66
1
 70
0
 40
0.000000
 41
0.000000
 39
0.000000
  0
VERTEX
  8
ETCH_TOP
 10
-122.400000
 20
27.400000
 40
0.300000
 41
0.300000
 42
0.000000
  0
VERTEX
  8
ETCH_TOP
 10
-124.800000
 20
27.400000
 40
0.300000
 41
0.300000
 42
0.000000
  0
SEQEND
  0
POLYLINE
  8
ETCH_TOP
 66
1
 70
0
 40
0.000000
 41
0.000000
 39
0.000000
  0
VERTEX
  8
ETCH_TOP
 10
-132.700000
 20
27.384300
 40
0.300000
 41
0.300000
 42
0.000000
  0
VERTEX
  8
ETCH_TOP
 10
-133.376000
 20
26.708300
 40
0.300000
 41
0.300000
 42
0.000000
  0
VERTEX
  8
ETCH_TOP
 10
-133.376000
 20
25.224000
 40
0.300000
 41
0.300000
 42
0.000000
  0
VERTEX
  8
ETCH_TOP
 10
-133.600000
 20
25.000000
 40
0.300000
 41
0.300000
 42
0.000000
  0
VERTEX
  8
ETCH_TOP
 10
-136.770000
 20
25.000000
 40
0.300000
 41
0.300000
 42
0.000000
  0
VERTEX
  8
ETCH_TOP
 10
-137.920000
 20
26.150000
 40
0.300000
 41
0.300000
 42
0.000000
  0
VERTEX
  8
ETCH_TOP
 10
-138.850000
 20
26.150000
 40
0.300000
 41
0.300000
 42
0.000000
  0
SEQEND
  0
POLYLINE
  8
ETCH_TOP
 66
1
 70
0
 40
0.000000
 41
0.000000
 39
0.000000
  0
VERTEX
  8
ETCH_TOP
 10
-132.700000
 20
27.384300
 40
0.300000
 41
0.300000
 42
0.000000
  0
VERTEX
  8
ETCH_TOP
 10
-131.784300
 20
27.384300
 40
0.300000
 41
0.300000
 42
0.000000
  0
SEQEND
  0
POLYLINE
  8
ETCH_TOP
 66
1
 70
0
 40
0.000000
 41
0.000000
 39
0.000000
  0
VERTEX
  8
ETCH_TOP
 10
-126.400000
 20
27.400000
 40
0.300000
 41
0.300000
 42
0.000000
  0
VERTEX
  8
ETCH_TOP
 10
-127.883900
 20
27.400000
 40
0.300000
 41
0.300000
 42
0.000000
  0
VERTEX
  8
ETCH_TOP
 10
-128.160900
 20
27.677000
 40
0.300000
 41
0.300000
 42
0.000000
  0
VERTEX
  8
ETCH_TOP
 10
-128.639100
 20
27.677000
 40
0.300000
 41
0.300000
 42
0.000000
  0
VERTEX
  8
ETCH_TOP
 10
-128.843100
 20
27.473000
 40
0.300000
 41
0.300000
 42
0.000000
  0
VERTEX
  8
ETCH_TOP
 10
-129.700000
 20
27.473000
 40
0.300000
 41
0.300000
 42
0.000000
  0
SEQEND
  0
POLYLINE
  8
ETCH_TOP
 66
1
 70
0
 40
0.000000
 41
0.000000
 39
0.000000
  0
VERTEX
  8
ETCH_TOP
 10
-133.950000
 20
35.850000
 40
0.300000
 41
0.300000
 42
0.000000
  0
VERTEX
  8
ETCH_TOP
 10
-134.377000
 20
36.277000
 40
0.300000
 41
0.300000
 42
0.000000
  0
VERTEX
  8
ETCH_TOP
 10
-137.723000
 20
36.277000
 40
0.300000
 41
0.300000
 42
0.000000
  0
VERTEX
  8
ETCH_TOP
 10
-138.100000
 20
35.900000
 40
0.300000
 41
0.300000
 42
0.000000
  0
VERTEX
  8
ETCH_TOP
 10
-138.100000
 20
34.405000
 40
0.300000
 41
0.300000
 42
0.000000
  0
SEQEND
  0
POLYLINE
  8
ETCH_TOP
 66
1
 70
0
 40
0.000000
 41
0.000000
 39
0.000000
  0
VERTEX
  8
ETCH_TOP
 10
-130.625000
 20
34.550000
 40
0.300000
 41
0.300000
 42
0.000000
  0
VERTEX
  8
ETCH_TOP
 10
-130.625000
 20
31.825000
 40
0.300000
 41
0.300000
 42
0.000000
  0
VERTEX
  8
ETCH_TOP
 10
-130.600000
 20
31.800000
 40
0.300000
 41
0.300000
 42
0.000000
  0
SEQEND
  0
POLYLINE
  8
ETCH_TOP
 66
1
 70
0
 40
0.000000
 41
0.000000
 39
0.000000
  0
VERTEX
  8
ETCH_TOP
 10
-129.700000
 20
27.473000
 40
0.300000
 41
0.300000
 42
0.000000
  0
VERTEX
  8
ETCH_TOP
 10
-129.973700
 20
27.473000
 40
0.300000
 41
0.300000
 42
0.000000
  0
VERTEX
  8
ETCH_TOP
 10
-130.276000
 20
27.775300
 40
0.300000
 41
0.300000
 42
0.000000
  0
VERTEX
  8
ETCH_TOP
 10
-130.276000
 20
29.330100
 40
0.300000
 41
0.300000
 42
0.000000
  0
VERTEX
  8
ETCH_TOP
 10
-129.975000
 20
29.631100
 40
0.300000
 41
0.300000
 42
0.000000
  0
VERTEX
  8
ETCH_TOP
 10
-129.975000
 20
30.250000
 40
0.300000
 41
0.300000
 42
0.000000
  0
SEQEND
  0
POLYLINE
  8
ETCH_TOP
 66
1
 70
0
 40
0.000000
 41
0.000000
 39
0.000000
  0
VERTEX
  8
ETCH_TOP
 10
-130.600000
 20
31.800000
 40
0.300000
 41
0.300000
 42
0.000000
  0
VERTEX
  8
ETCH_TOP
 10
-130.019200
 20
31.800000
 40
0.300000
 41
0.300000
 42
0.000000
  0
VERTEX
  8
ETCH_TOP
 10
-129.975000
 20
31.755800
 40
0.300000
 41
0.300000
 42
0.000000
  0
VERTEX
  8
ETCH_TOP
 10
-129.975000
 20
30.250000
 40
0.300000
 41
0.300000
 42
0.000000
  0
SEQEND
  0
CIRCLE
  8
ETCH_TOP
 10
-129.700000
 20
27.473000
 40
0.276000
  0
CIRCLE
  8
ETCH_TOP
 10
-131.784300
 20
27.384300
 40
0.276000
  0
POLYLINE
  8
ETCH_TOP
 66
1
 70
0
 40
0.000000
 41
0.000000
 39
0.000000
  0
VERTEX
  8
ETCH_TOP
 10
-132.700000
 20
28.100000
 40
0.300000
 41
0.300000
 42
0.000000
  0
VERTEX
  8
ETCH_TOP
 10
-132.700000
 20
27.384300
 40
0.300000
 41
0.300000
 42
0.000000
  0
SEQEND
  0
POLYLINE
  8
ETCH_TOP
 66
1
 70
0
 40
0.000000
 41
0.000000
 39
0.000000
  0
VERTEX
  8
ETCH_TOP
 10
-140.700000
 20
25.700000
 40
0.300000
 41
0.300000
 42
0.000000
  0
VERTEX
  8
ETCH_TOP
 10
-140.700000
 20
25.900000
 40
0.300000
 41
0.300000
 42
0.000000
  0
VERTEX
  8
ETCH_TOP
 10
-139.845200
 20
26.754800
 40
0.300000
 41
0.300000
 42
0.000000
  0
VERTEX
  8
ETCH_TOP
 10
-139.779800
 20
26.754800
 40
0.300000
 41
0.300000
 42
0.000000
  0
VERTEX
  8
ETCH_TOP
 10
-139.175000
 20
26.150000
 40
0.300000
 41
0.300000
 42
0.000000
  0
VERTEX
  8
ETCH_TOP
 10
-138.850000
 20
26.150000
 40
0.300000
 41
0.300000
 42
0.000000
  0
SEQEND
  0
CIRCLE
  8
ETCH_TOP
 10
-130.600000
 20
31.800000
 40
0.276000
  0
CIRCLE
  8
ETCH_TOP
 10
-133.950000
 20
35.850000
 40
0.276000
  0
POLYLINE
  8
ETCH_TOP
 66
1
 70
0
 40
0.000000
 41
0.000000
 39
0.000000
  0
VERTEX
  8
ETCH_TOP
 10
-136.150000
 20
26.150000
 40
0.300000
 41
0.300000
 42
0.000000
  0
VERTEX
  8
ETCH_TOP
 10
-136.950000
 20
26.150000
 40
0.300000
 41
0.300000
 42
0.000000
  0
VERTEX
  8
ETCH_TOP
 10
-138.850000
 20
28.050000
 40
0.300000
 41
0.300000
 42
0.000000
  0
SEQEND
  0
POLYLINE
  8
ETCH_TOP
 66
1
 70
0
 40
0.000000
 41
0.000000
 39
0.000000
  0
VERTEX
  8
ETCH_TOP
 10
-138.850000
 20
28.050000
 40
0.300000
 41
0.300000
 42
0.000000
  0
VERTEX
  8
ETCH_TOP
 10
-142.050000
 20
28.050000
 40
0.300000
 41
0.300000
 42
0.000000
  0
VERTEX
  8
ETCH_TOP
 10
-142.400000
 20
27.700000
 40
0.300000
 41
0.300000
 42
0.000000
  0
SEQEND
  0
POLYLINE
  8
ETCH_TOP
 66
1
 70
0
 40
0.000000
 41
0.000000
 39
0.000000
  0
VERTEX
  8
ETCH_TOP
 10
-138.850000
 20
28.050000
 40
0.300000
 41
0.300000
 42
0.000000
  0
VERTEX
  8
ETCH_TOP
 10
-138.700000
 20
28.200000
 40
0.300000
 41
0.300000
 42
0.000000
  0
VERTEX
  8
ETCH_TOP
 10
-138.700000
 20
29.100700
 40
0.300000
 41
0.300000
 42
0.000000
  0
SEQEND
  0
POLYLINE
  8
ETCH_TOP
 66
1
 70
0
 40
0.000000
 41
0.000000
 39
0.000000
  0
VERTEX
  8
ETCH_TOP
 10
-145.100000
 20
27.700000
 40
0.300000
 41
0.300000
 42
0.000000
  0
VERTEX
  8
ETCH_TOP
 10
-142.400000
 20
27.700000
 40
0.300000
 41
0.300000
 42
0.000000
  0
SEQEND
  0
CIRCLE
  8
ETCH_TOP
 10
-138.700000
 20
29.100700
 40
0.276000
  0
CIRCLE
  8
ETCH_TOP
 10
-145.100000
 20
27.700000
 40
0.276000
  0
CIRCLE
  8
ETCH_TOP
 10
-142.400000
 20
27.700000
 40
0.276000
  0
POLYLINE
  8
ETCH_TOP
 66
1
 70
0
 40
0.000000
 41
0.000000
 39
0.000000
  0
VERTEX
  8
ETCH_TOP
 10
-136.150000
 20
28.050000
 40
0.300000
 41
0.300000
 42
0.000000
  0
VERTEX
  8
ETCH_TOP
 10
-136.000000
 20
28.200000
 40
0.300000
 41
0.300000
 42
0.000000
  0
VERTEX
  8
ETCH_TOP
 10
-136.000000
 20
28.500000
 40
0.300000
 41
0.300000
 42
0.000000
  0
SEQEND
  0
CIRCLE
  8
ETCH_TOP
 10
-136.000000
 20
28.500000
 40
0.276000
  0
CIRCLE
  8
ETCH_TOP
 10
-132.300000
 20
26.475000
 40
0.276000
  0
POLYLINE
  8
ETCH_TOP
 66
1
 70
0
 40
0.000000
 41
0.000000
 39
0.000000
  0
VERTEX
  8
ETCH_TOP
 10
-132.600000
 20
26.000000
 40
0.300000
 41
0.300000
 42
0.000000
  0
VERTEX
  8
ETCH_TOP
 10
-132.300000
 20
26.300000
 40
0.300000
 41
0.300000
 42
0.000000
  0
VERTEX
  8
ETCH_TOP
 10
-132.300000
 20
26.475000
 40
0.300000
 41
0.300000
 42
0.000000
  0
SEQEND
  0
POLYLINE
  8
ETCH_TOP
 66
1
 70
0
 40
0.000000
 41
0.000000
 39
0.000000
  0
VERTEX
  8
ETCH_TOP
 10
-142.300000
 20
25.700000
 40
0.500000
 41
0.500000
 42
0.000000
  0
VERTEX
  8
ETCH_TOP
 10
-141.598800
 20
25.700000
 40
0.500000
 41
0.500000
 42
0.000000
  0
SEQEND
  0
POLYLINE
  8
ETCH_TOP
 66
1
 70
0
 40
0.000000
 41
0.000000
 39
0.000000
  0
VERTEX
  8
ETCH_TOP
 10
-143.001200
 20
25.700000
 40
0.500000
 41
0.500000
 42
0.000000
  0
VERTEX
  8
ETCH_TOP
 10
-142.300000
 20
25.700000
 40
0.500000
 41
0.500000
 42
0.000000
  0
SEQEND
  0
POLYLINE
  8
ETCH_TOP
 66
1
 70
0
 40
0.000000
 41
0.000000
 39
0.000000
  0
VERTEX
  8
ETCH_TOP
 10
-143.500000
 20
30.595000
 40
0.500000
 41
0.500000
 42
0.000000
  0
VERTEX
  8
ETCH_TOP
 10
-142.498800
 20
30.595000
 40
0.500000
 41
0.500000
 42
0.000000
  0
SEQEND
  0
POLYLINE
  8
ETCH_TOP
 66
1
 70
0
 40
0.000000
 41
0.000000
 39
0.000000
  0
VERTEX
  8
ETCH_TOP
 10
-143.500000
 20
30.595000
 40
0.500000
 41
0.500000
 42
0.000000
  0
VERTEX
  8
ETCH_TOP
 10
-143.500000
 20
31.121200
 40
0.500000
 41
0.500000
 42
0.000000
  0
SEQEND
  0
POLYLINE
  8
ETCH_TOP
 66
1
 70
0
 40
0.000000
 41
0.000000
 39
0.000000
  0
VERTEX
  8
ETCH_TOP
 10
-134.901200
 20
26.000000
 40
0.500000
 41
0.500000
 42
0.000000
  0
VERTEX
  8
ETCH_TOP
 10
-134.200000
 20
26.000000
 40
0.500000
 41
0.500000
 42
0.000000
  0
SEQEND
  0
POLYLINE
  8
ETCH_TOP
 66
1
 70
0
 40
0.000000
 41
0.000000
 39
0.000000
  0
VERTEX
  8
ETCH_TOP
 10
-134.200000
 20
26.000000
 40
0.500000
 41
0.500000
 42
0.000000
  0
VERTEX
  8
ETCH_TOP
 10
-134.200000
 20
26.726200
 40
0.500000
 41
0.500000
 42
0.000000
  0
SEQEND
  0
POLYLINE
  8
ETCH_TOP
 66
1
 70
0
 40
0.000000
 41
0.000000
 39
0.000000
  0
VERTEX
  8
ETCH_TOP
 10
-134.300000
 20
28.100000
 40
0.500000
 41
0.500000
 42
0.000000
  0
VERTEX
  8
ETCH_TOP
 10
-133.598800
 20
28.100000
 40
0.500000
 41
0.500000
 42
0.000000
  0
SEQEND
  0
POLYLINE
  8
ETCH_TOP
 66
1
 70
0
 40
0.000000
 41
0.000000
 39
0.000000
  0
VERTEX
  8
ETCH_TOP
 10
-135.001200
 20
28.100000
 40
0.500000
 41
0.500000
 42
0.000000
  0
VERTEX
  8
ETCH_TOP
 10
-134.300000
 20
28.100000
 40
0.500000
 41
0.500000
 42
0.000000
  0
SEQEND
  0
POLYLINE
  8
ETCH_TOP
 66
1
 70
0
 40
0.000000
 41
0.000000
 39
0.000000
  0
VERTEX
  8
ETCH_TOP
 10
-136.801200
 20
31.500000
 40
0.500000
 41
0.500000
 42
0.000000
  0
VERTEX
  8
ETCH_TOP
 10
-136.100000
 20
31.500000
 40
0.500000
 41
0.500000
 42
0.000000
  0
SEQEND
  0
POLYLINE
  8
ETCH_TOP
 66
1
 70
1
 40
0.000000
 41
0.000000
 39
0.000000
  0
VERTEX
  8
ETCH_TOP
 10
-131.887600
 20
27.798800
 40
0.000000
 41
0.000000
 42
-0.487592
  0
VERTEX
  8
ETCH_TOP
 10
-132.073800
 20
27.944400
 40
0.000000
 41
0.000000
 42
0.000000
  0
VERTEX
  8
ETCH_TOP
 10
-132.073800
 20
28.600000
 40
0.000000
 41
0.000000
 42
0.414214
  0
VERTEX
  8
ETCH_TOP
 10
-132.225000
 20
28.751200
 40
0.000000
 41
0.000000
 42
0.000000
  0
VERTEX
  8
ETCH_TOP
 10
-133.031300
 20
28.751200
 40
0.000000
 41
0.000000
 42
-0.465645
  0
VERTEX
  8
ETCH_TOP
 10
-133.179100
 20
28.926900
 40
0.000000
 41
0.000000
 42
0.595945
  0
VERTEX
  8
ETCH_TOP
 10
-133.769100
 20
29.392300
 40
0.000000
 41
0.000000
 42
0.000000
  0
VERTEX
  8
ETCH_TOP
 10
-133.783300
 20
29.386200
 40
0.000000
 41
0.000000
 42
0.000000
  0
VERTEX
  8
ETCH_TOP
 10
-133.873800
 20
29.386200
 40
0.000000
 41
0.000000
 42
0.000000
  0
VERTEX
  8
ETCH_TOP
 10
-133.873800
 20
29.536700
 40
0.000000
 41
0.000000
 42
-0.480127
  0
VERTEX
  8
ETCH_TOP
 10
-133.691100
 20
29.683100
 40
0.000000
 41
0.000000
 42
0.751773
  0
VERTEX
  8
ETCH_TOP
 10
-133.296800
 20
30.402900
 40
0.000000
 41
0.000000
 42
0.000000
  0
VERTEX
  8
ETCH_TOP
 10
-133.296800
 20
31.502600
 40
0.000000
 41
0.000000
 42
0.000000
  0
VERTEX
  8
ETCH_TOP
 10
-133.595400
 20
31.801200
 40
0.000000
 41
0.000000
 42
0.000000
  0
VERTEX
  8
ETCH_TOP
 10
-133.873800
 20
31.801200
 40
0.000000
 41
0.000000
 42
0.000000
  0
VERTEX
  8
ETCH_TOP
 10
-133.873800
 20
32.000000
 40
0.000000
 41
0.000000
 42
0.414214
  0
VERTEX
  8
ETCH_TOP
 10
-134.025000
 20
32.151200
 40
0.000000
 41
0.000000
 42
0.000000
  0
VERTEX
  8
ETCH_TOP
 10
-134.497800
 20
32.151200
 40
0.000000
 41
0.000000
 42
0.000000
  0
VERTEX
  8
ETCH_TOP
 10
-134.518600
 20
32.192400
 40
0.000000
 41
0.000000
 42
0.041897
  0
VERTEX
  8
ETCH_TOP
 10
-134.556000
 20
32.253300
 40
0.000000
 41
0.000000
 42
-0.612215
  0
VERTEX
  8
ETCH_TOP
 10
-134.496300
 20
32.372800
 40
0.000000
 41
0.000000
 42
0.280780
  0
VERTEX
  8
ETCH_TOP
 10
-134.118600
 20
32.607600
 40
0.000000
 41
0.000000
 42
0.000000
  0
VERTEX
  8
ETCH_TOP
 10
-134.097800
 20
32.648800
 40
0.000000
 41
0.000000
 42
0.000000
  0
VERTEX
  8
ETCH_TOP
 10
-134.025000
 20
32.648800
 40
0.000000
 41
0.000000
 42
0.414214
  0
VERTEX
  8
ETCH_TOP
 10
-133.873800
 20
32.800000
 40
0.000000
 41
0.000000
 42
0.000000
  0
VERTEX
  8
ETCH_TOP
 10
-133.873800
 20
33.800000
 40
0.000000
 41
0.000000
 42
0.414214
  0
VERTEX
  8
ETCH_TOP
 10
-134.025000
 20
33.951200
 40
0.000000
 41
0.000000
 42
0.000000
  0
VERTEX
  8
ETCH_TOP
 10
-134.975000
 20
33.951200
 40
0.000000
 41
0.000000
 42
0.414214
  0
VERTEX
  8
ETCH_TOP
 10
-135.126200
 20
33.800000
 40
0.000000
 41
0.000000
 42
0.000000
  0
VERTEX
  8
ETCH_TOP
 10
-135.126200
 20
32.800000
 40
0.000000
 41
0.000000
 42
0.414214
  0
VERTEX
  8
ETCH_TOP
 10
-134.975000
 20
32.648800
 40
0.000000
 41
0.000000
 42
0.000000
  0
VERTEX
  8
ETCH_TOP
 10
-134.902200
 20
32.648800
 40
0.000000
 41
0.000000
 42
0.000000
  0
VERTEX
  8
ETCH_TOP
 10
-134.881400
 20
32.607600
 40
0.000000
 41
0.000000
 42
0.041897
  0
VERTEX
  8
ETCH_TOP
 10
-134.844000
 20
32.546700
 40
0.000000
 41
0.000000
 42
-0.612215
  0
VERTEX
  8
ETCH_TOP
 10
-134.903700
 20
32.427200
 40
0.000000
 41
0.000000
 42
0.296663
  0
VERTEX
  8
ETCH_TOP
 10
-135.292000
 20
32.169700
 40
0.000000
 41
0.000000
 42
-0.504277
  0
VERTEX
  8
ETCH_TOP
 10
-135.527000
 20
32.115100
 40
0.000000
 41
0.000000
 42
0.178327
  0
VERTEX
  8
ETCH_TOP
 10
-135.625000
 20
32.151200
 40
0.000000
 41
0.000000
 42
0.000000
  0
VERTEX
  8
ETCH_TOP
 10
-136.575000
 20
32.151200
 40
0.000000
 41
0.000000
 42
0.046594
  0
VERTEX
  8
ETCH_TOP
 10
-136.603000
 20
32.148600
 40
0.000000
 41
0.000000
 42
-0.419859
  0
VERTEX
  8
ETCH_TOP
 10
-136.778700
 20
32.271000
 40
0.000000
 41
0.000000
 42
0.285995
  0
VERTEX
  8
ETCH_TOP
 10
-137.078000
 20
32.609400
 40
0.000000
 41
0.000000
 42
-0.409933
  0
VERTEX
  8
ETCH_TOP
 10
-137.179500
 20
32.793900
 40
0.000000
 41
0.000000
 42
0.068934
  0
VERTEX
  8
ETCH_TOP
 10
-137.173800
 20
32.835000
 40
0.000000
 41
0.000000
 42
0.000000
  0
VERTEX
  8
ETCH_TOP
 10
-137.173800
 20
33.502800
 40
0.000000
 41
0.000000
 42
0.000000
  0
VERTEX
  8
ETCH_TOP
 10
-136.728800
 20
33.502800
 40
0.000000
 41
0.000000
 42
0.000000
  0
VERTEX
  8
ETCH_TOP
 10
-136.726200
 20
33.500200
 40
0.000000
 41
0.000000
 42
0.000000
  0
VERTEX
  8
ETCH_TOP
 10
-136.726200
 20
32.800000
 40
0.000000
 41
0.000000
 42
0.414214
  0
VERTEX
  8
ETCH_TOP
 10
-136.575000
 20
32.648800
 40
0.000000
 41
0.000000
 42
0.000000
  0
VERTEX
  8
ETCH_TOP
 10
-135.625000
 20
32.648800
 40
0.000000
 41
0.000000
 42
0.414214
  0
VERTEX
  8
ETCH_TOP
 10
-135.473800
 20
32.800000
 40
0.000000
 41
0.000000
 42
0.000000
  0
VERTEX
  8
ETCH_TOP
 10
-135.473800
 20
33.800000
 40
0.000000
 41
0.000000
 42
0.414214
  0
VERTEX
  8
ETCH_TOP
 10
-135.625000
 20
33.951200
 40
0.000000
 41
0.000000
 42
0.000000
  0
VERTEX
  8
ETCH_TOP
 10
-136.325200
 20
33.951200
 40
0.000000
 41
0.000000
 42
0.000000
  0
VERTEX
  8
ETCH_TOP
 10
-136.366800
 20
33.992700
 40
0.000000
 41
0.000000
 42
-0.668327
  0
VERTEX
  8
ETCH_TOP
 10
-136.260700
 20
34.248800
 40
0.000000
 41
0.000000
 42
0.000000
  0
VERTEX
  8
ETCH_TOP
 10
-135.625000
 20
34.248800
 40
0.000000
 41
0.000000
 42
0.414214
  0
VERTEX
  8
ETCH_TOP
 10
-135.473800
 20
34.400000
 40
0.000000
 41
0.000000
 42
0.000000
  0
VERTEX
  8
ETCH_TOP
 10
-135.473800
 20
34.598800
 40
0.000000
 41
0.000000
 42
0.000000
  0
VERTEX
  8
ETCH_TOP
 10
-135.126200
 20
34.598800
 40
0.000000
 41
0.000000
 42
0.000000
  0
VERTEX
  8
ETCH_TOP
 10
-135.126200
 20
34.400000
 40
0.000000
 41
0.000000
 42
0.414214
  0
VERTEX
  8
ETCH_TOP
 10
-134.975000
 20
34.248800
 40
0.000000
 41
0.000000
 42
0.000000
  0
VERTEX
  8
ETCH_TOP
 10
-134.025000
 20
34.248800
 40
0.000000
 41
0.000000
 42
0.414214
  0
VERTEX
  8
ETCH_TOP
 10
-133.873800
 20
34.400000
 40
0.000000
 41
0.000000
 42
0.000000
  0
VERTEX
  8
ETCH_TOP
 10
-133.873800
 20
35.426100
 40
0.000000
 41
0.000000
 42
0.000000
  0
VERTEX
  8
ETCH_TOP
 10
-133.821400
 20
35.442600
 40
0.000000
 41
0.000000
 42
0.831468
  0
VERTEX
  8
ETCH_TOP
 10
-133.923800
 20
36.276400
 40
0.000000
 41
0.000000
 42
0.000000
  0
VERTEX
  8
ETCH_TOP
 10
-133.952200
 20
36.278100
 40
0.000000
 41
0.000000
 42
0.000000
  0
VERTEX
  8
ETCH_TOP
 10
-134.116800
 20
36.442700
 40
0.000000
 41
0.000000
 42
-0.668327
  0
VERTEX
  8
ETCH_TOP
 10
-134.010700
 20
36.698800
 40
0.000000
 41
0.000000
 42
0.000000
  0
VERTEX
  8
ETCH_TOP
 10
-132.293100
 20
36.698800
 40
0.000000
 41
0.000000
 42
0.251902
  0
VERTEX
  8
ETCH_TOP
 10
-131.905800
 20
36.581200
 40
0.000000
 41
0.000000
 42
-0.473610
  0
VERTEX
  8
ETCH_TOP
 10
-131.726200
 20
36.434200
 40
0.000000
 41
0.000000
 42
0.000000
  0
VERTEX
  8
ETCH_TOP
 10
-131.726200
 20
35.900000
 40
0.000000
 41
0.000000
 42
0.414214
  0
VERTEX
  8
ETCH_TOP
 10
-131.575000
 20
35.748800
 40
0.000000
 41
0.000000
 42
0.000000
  0
VERTEX
  8
ETCH_TOP
 10
-131.401200
 20
35.748800
 40
0.000000
 41
0.000000
 42
0.000000
  0
VERTEX
  8
ETCH_TOP
 10
-131.401200
 20
35.468700
 40
0.000000
 41
0.000000
 42
0.000000
  0
VERTEX
  8
ETCH_TOP
 10
-131.478100
 20
35.391700
 40
0.000000
 41
0.000000
 42
0.000000
  0
VERTEX
  8
ETCH_TOP
 10
-131.484200
 20
35.387600
 40
0.000000
 41
0.000000
 42
0.250370
  0
VERTEX
  8
ETCH_TOP
 10
-131.651200
 20
35.075000
 40
0.000000
 41
0.000000
 42
0.000000
  0
VERTEX
  8
ETCH_TOP
 10
-131.651200
 20
34.851200
 40
0.000000
 41
0.000000
 42
0.000000
  0
VERTEX
  8
ETCH_TOP
 10
-131.929600
 20
34.851200
 40
0.000000
 41
0.000000
 42
0.000000
  0
VERTEX
  8
ETCH_TOP
 10
-132.401200
 20
34.379600
 40
0.000000
 41
0.000000
 42
0.000000
  0
VERTEX
  8
ETCH_TOP
 10
-132.401200
 20
33.802900
 40
0.000000
 41
0.000000
 42
2.423854
  0
VERTEX
  8
ETCH_TOP
 10
-131.798800
 20
33.802900
 40
0.000000
 41
0.000000
 42
0.000000
  0
VERTEX
  8
ETCH_TOP
 10
-131.798800
 20
34.053600
 40
0.000000
 41
0.000000
 42
0.000000
  0
VERTEX
  8
ETCH_TOP
 10
-131.656200
 20
34.053600
 40
0.000000
 41
0.000000
 42
0.000000
  0
VERTEX
  8
ETCH_TOP
 10
-131.649200
 20
33.986300
 40
0.000000
 41
0.000000
 42
0.500151
  0
VERTEX
  8
ETCH_TOP
 10
-131.132900
 20
33.676700
 40
0.000000
 41
0.000000
 42
-0.532907
  0
VERTEX
  8
ETCH_TOP
 10
-130.926200
 20
33.537800
 40
0.000000
 41
0.000000
 42
0.000000
  0
VERTEX
  8
ETCH_TOP
 10
-130.926200
 20
32.075900
 40
0.000000
 41
0.000000
 42
0.138325
  0
VERTEX
  8
ETCH_TOP
 10
-131.022300
 20
31.864800
 40
0.000000
 41
0.000000
 42
0.000000
  0
VERTEX
  8
ETCH_TOP
 10
-131.032000
 20
31.801200
 40
0.000000
 41
0.000000
 42
0.000000
  0
VERTEX
  8
ETCH_TOP
 10
-131.824800
 20
31.801200
 40
0.000000
 41
0.000000
 42
0.000000
  0
VERTEX
  8
ETCH_TOP
 10
-131.897800
 20
31.728100
 40
0.000000
 41
0.000000
 42
0.000000
  0
VERTEX
  8
ETCH_TOP
 10
-131.926200
 20
31.726400
 40
0.000000
 41
0.000000
 42
0.431604
  0
VERTEX
  8
ETCH_TOP
 10
-132.324100
 20
31.248700
 40
0.000000
 41
0.000000
 42
-0.577633
  0
VERTEX
  8
ETCH_TOP
 10
-132.532000
 20
31.092800
 40
0.000000
 41
0.000000
 42
1.187899
  0
VERTEX
  8
ETCH_TOP
 10
-132.726200
 20
30.273600
 40
0.000000
 41
0.000000
 42
0.000000
  0
VERTEX
  8
ETCH_TOP
 10
-132.697800
 20
30.271900
 40
0.000000
 41
0.000000
 42
0.000000
  0
VERTEX
  8
ETCH_TOP
 10
-132.374800
 20
29.948800
 40
0.000000
 41
0.000000
 42
0.000000
  0
VERTEX
  8
ETCH_TOP
 10
-131.651200
 20
29.948800
 40
0.000000
 41
0.000000
 42
0.000000
  0
VERTEX
  8
ETCH_TOP
 10
-131.651200
 20
29.725000
 40
0.000000
 41
0.000000
 42
0.162004
  0
VERTEX
  8
ETCH_TOP
 10
-131.576200
 20
29.499600
 40
0.000000
 41
0.000000
 42
0.000000
  0
VERTEX
  8
ETCH_TOP
 10
-131.576200
 20
29.060200
 40
0.000000
 41
0.000000
 42
0.000000
  0
VERTEX
  8
ETCH_TOP
 10
-131.625900
 20
29.042400
 40
0.000000
 41
0.000000
 42
0.316826
  0
VERTEX
  8
ETCH_TOP
 10
-131.726200
 20
28.900000
 40
0.000000
 41
0.000000
 42
0.000000
  0
VERTEX
  8
ETCH_TOP
 10
-131.726200
 20
27.900000
 40
0.000000
 41
0.000000
 42
0.015224
  0
VERTEX
  8
ETCH_TOP
 10
-131.725900
 20
27.890800
 40
0.000000
 41
0.000000
 42
-0.422400
  0
VERTEX
  8
ETCH_TOP
 10
-131.798300
 20
27.811300
 40
0.000000
 41
0.000000
 42
0.052916
  0
SEQEND
  0
POLYLINE
  8
ETCH_TOP
 66
1
 70
0
 40
0.000000
 41
0.000000
 39
0.000000
  0
VERTEX
  8
ETCH_TOP
 10
-136.100000
 20
31.500000
 40
0.500000
 41
0.500000
 42
0.000000
  0
VERTEX
  8
ETCH_TOP
 10
-136.100000
 20
32.226200
 40
0.500000
 41
0.500000
 42
0.000000
  0
SEQEND
  0
POLYLINE
  8
ETCH_TOP
 66
1
 70
0
 40
0.000000
 41
0.000000
 39
0.000000
  0
VERTEX
  8
ETCH_TOP
 10
-128.500000
 20
26.000000
 40
0.500000
 41
0.500000
 42
0.000000
  0
VERTEX
  8
ETCH_TOP
 10
-127.798800
 20
26.000000
 40
0.500000
 41
0.500000
 42
0.000000
  0
SEQEND
  0
POLYLINE
  8
ETCH_TOP
 66
1
 70
0
 40
0.000000
 41
0.000000
 39
0.000000
  0
VERTEX
  8
ETCH_TOP
 10
-129.201200
 20
26.000000
 40
0.500000
 41
0.500000
 42
0.000000
  0
VERTEX
  8
ETCH_TOP
 10
-128.500000
 20
26.000000
 40
0.500000
 41
0.500000
 42
0.000000
  0
SEQEND
  0
POLYLINE
  8
ETCH_TOP
 66
1
 70
0
 40
0.000000
 41
0.000000
 39
0.000000
  0
VERTEX
  8
ETCH_TOP
 10
-128.500000
 20
25.273800
 40
0.500000
 41
0.500000
 42
0.000000
  0
VERTEX
  8
ETCH_TOP
 10
-128.500000
 20
26.000000
 40
0.500000
 41
0.500000
 42
0.000000
  0
SEQEND
  0
POLYLINE
  8
ETCH_TOP
 66
1
 70
0
 40
0.000000
 41
0.000000
 39
0.000000
  0
VERTEX
  8
ETCH_TOP
 10
-124.023200
 20
29.940000
 40
0.500000
 41
0.500000
 42
0.000000
  0
VERTEX
  8
ETCH_TOP
 10
-122.400000
 20
29.940000
 40
0.500000
 41
0.500000
 42
0.000000
  0
SEQEND
  0
POLYLINE
  8
ETCH_TOP
 66
1
 70
0
 40
0.000000
 41
0.000000
 39
0.000000
  0
VERTEX
  8
ETCH_TOP
 10
-122.400000
 20
29.940000
 40
0.500000
 41
0.500000
 42
0.000000
  0
VERTEX
  8
ETCH_TOP
 10
-122.400000
 20
31.118700
 40
0.500000
 41
0.500000
 42
0.000000
  0
SEQEND
  0
POLYLINE
  8
ETCH_TOP
 66
1
 70
0
 40
0.000000
 41
0.000000
 39
0.000000
  0
VERTEX
  8
ETCH_TOP
 10
-122.400000
 20
28.761300
 40
0.500000
 41
0.500000
 42
0.000000
  0
VERTEX
  8
ETCH_TOP
 10
-122.400000
 20
29.940000
 40
0.500000
 41
0.500000
 42
0.000000
  0
SEQEND
  0
POLYLINE
  8
ETCH_TOP
 66
1
 70
1
 40
0.000000
 41
0.000000
 39
0.000000
  0
VERTEX
  8
ETCH_TOP
 10
-129.894400
 20
32.101200
 40
0.000000
 41
0.000000
 42
0.000000
  0
VERTEX
  8
ETCH_TOP
 10
-130.297100
 20
32.101200
 40
0.000000
 41
0.000000
 42
0.021296
  0
VERTEX
  8
ETCH_TOP
 10
-130.323800
 20
32.125900
 40
0.000000
 41
0.000000
 42
0.000000
  0
VERTEX
  8
ETCH_TOP
 10
-130.323800
 20
33.537800
 40
0.000000
 41
0.000000
 42
-0.532907
  0
VERTEX
  8
ETCH_TOP
 10
-130.117100
 20
33.676700
 40
0.000000
 41
0.000000
 42
0.269546
  0
VERTEX
  8
ETCH_TOP
 10
-129.742600
 20
33.729100
 40
0.000000
 41
0.000000
 42
-0.345681
  0
VERTEX
  8
ETCH_TOP
 10
-129.557400
 20
33.729100
 40
0.000000
 41
0.000000
 42
0.116871
  0
VERTEX
  8
ETCH_TOP
 10
-129.399900
 20
33.656300
 40
0.000000
 41
0.000000
 42
0.000000
  0
VERTEX
  8
ETCH_TOP
 10
-129.377800
 20
33.651800
 40
0.000000
 41
0.000000
 42
0.000000
  0
VERTEX
  8
ETCH_TOP
 10
-128.624800
 20
32.898800
 40
0.000000
 41
0.000000
 42
0.000000
  0
VERTEX
  8
ETCH_TOP
 10
-128.226200
 20
32.898800
 40
0.000000
 41
0.000000
 42
0.000000
  0
VERTEX
  8
ETCH_TOP
 10
-128.226200
 20
32.700000
 40
0.000000
 41
0.000000
 42
0.414214
  0
VERTEX
  8
ETCH_TOP
 10
-128.075000
 20
32.548800
 40
0.000000
 41
0.000000
 42
0.000000
  0
VERTEX
  8
ETCH_TOP
 10
-127.125000
 20
32.548800
 40
0.000000
 41
0.000000
 42
0.414214
  0
VERTEX
  8
ETCH_TOP
 10
-126.973800
 20
32.700000
 40
0.000000
 41
0.000000
 42
0.000000
  0
VERTEX
  8
ETCH_TOP
 10
-126.973800
 20
33.360800
 40
0.000000
 41
0.000000
 42
-0.668086
  0
VERTEX
  8
ETCH_TOP
 10
-126.717700
 20
33.466800
 40
0.000000
 41
0.000000
 42
0.000000
  0
VERTEX
  8
ETCH_TOP
 10
-126.626200
 20
33.375200
 40
0.000000
 41
0.000000
 42
0.000000
  0
VERTEX
  8
ETCH_TOP
 10
-126.626200
 20
32.700000
 40
0.000000
 41
0.000000
 42
0.414214
  0
VERTEX
  8
ETCH_TOP
 10
-126.475000
 20
32.548800
 40
0.000000
 41
0.000000
 42
0.000000
  0
VERTEX
  8
ETCH_TOP
 10
-125.525000
 20
32.548800
 40
0.000000
 41
0.000000
 42
0.414214
  0
VERTEX
  8
ETCH_TOP
 10
-125.373800
 20
32.700000
 40
0.000000
 41
0.000000
 42
0.000000
  0
VERTEX
  8
ETCH_TOP
 10
-125.373800
 20
33.700000
 40
0.000000
 41
0.000000
 42
0.414214
  0
VERTEX
  8
ETCH_TOP
 10
-125.525000
 20
33.851200
 40
0.000000
 41
0.000000
 42
0.000000
  0
VERTEX
  8
ETCH_TOP
 10
-125.582800
 20
33.851200
 40
0.000000
 41
0.000000
 42
-0.659754
  0
VERTEX
  8
ETCH_TOP
 10
-125.691200
 20
34.104800
 40
0.000000
 41
0.000000
 42
0.033569
  0
VERTEX
  8
ETCH_TOP
 10
-125.654500
 20
34.148800
 40
0.000000
 41
0.000000
 42
0.000000
  0
VERTEX
  8
ETCH_TOP
 10
-125.525000
 20
34.148800
 40
0.000000
 41
0.000000
 42
0.414214
  0
VERTEX
  8
ETCH_TOP
 10
-125.373800
 20
34.300000
 40
0.000000
 41
0.000000
 42
0.000000
  0
VERTEX
  8
ETCH_TOP
 10
-125.373800
 20
35.300000
 40
0.000000
 41
0.000000
 42
0.414214
  0
VERTEX
  8
ETCH_TOP
 10
-125.525000
 20
35.451200
 40
0.000000
 41
0.000000
 42
0.000000
  0
VERTEX
  8
ETCH_TOP
 10
-126.475000
 20
35.451200
 40
0.000000
 41
0.000000
 42
0.414214
  0
VERTEX
  8
ETCH_TOP
 10
-126.626200
 20
35.300000
 40
0.000000
 41
0.000000
 42
0.000000
  0
VERTEX
  8
ETCH_TOP
 10
-126.626200
 20
34.589200
 40
0.000000
 41
0.000000
 42
-0.668086
  0
VERTEX
  8
ETCH_TOP
 10
-126.882300
 20
34.483200
 40
0.000000
 41
0.000000
 42
0.000000
  0
VERTEX
  8
ETCH_TOP
 10
-126.973800
 20
34.574800
 40
0.000000
 41
0.000000
 42
0.000000
  0
VERTEX
  8
ETCH_TOP
 10
-126.973800
 20
35.300000
 40
0.000000
 41
0.000000
 42
0.414214
  0
VERTEX
  8
ETCH_TOP
 10
-127.125000
 20
35.451200
 40
0.000000
 41
0.000000
 42
0.000000
  0
VERTEX
  8
ETCH_TOP
 10
-127.800200
 20
35.451200
 40
0.000000
 41
0.000000
 42
0.000000
  0
VERTEX
  8
ETCH_TOP
 10
-128.071900
 20
35.722800
 40
0.000000
 41
0.000000
 42
0.000000
  0
VERTEX
  8
ETCH_TOP
 10
-128.073600
 20
35.751200
 40
0.000000
 41
0.000000
 42
0.516647
  0
VERTEX
  8
ETCH_TOP
 10
-128.665600
 20
36.118800
 40
0.000000
 41
0.000000
 42
-0.536285
  0
VERTEX
  8
ETCH_TOP
 10
-128.873800
 20
36.257000
 40
0.000000
 41
0.000000
 42
0.000000
  0
VERTEX
  8
ETCH_TOP
 10
-128.873800
 20
36.900000
 40
0.000000
 41
0.000000
 42
0.414214
  0
VERTEX
  8
ETCH_TOP
 10
-129.025000
 20
37.051200
 40
0.000000
 41
0.000000
 42
0.000000
  0
VERTEX
  8
ETCH_TOP
 10
-129.975000
 20
37.051200
 40
0.000000
 41
0.000000
 42
0.414214
  0
VERTEX
  8
ETCH_TOP
 10
-130.126200
 20
36.900000
 40
0.000000
 41
0.000000
 42
0.000000
  0
VERTEX
  8
ETCH_TOP
 10
-130.126200
 20
35.900000
 40
0.000000
 41
0.000000
 42
0.414214
  0
VERTEX
  8
ETCH_TOP
 10
-129.975000
 20
35.748800
 40
0.000000
 41
0.000000
 42
0.000000
  0
VERTEX
  8
ETCH_TOP
 10
-129.801200
 20
35.748800
 40
0.000000
 41
0.000000
 42
0.000000
  0
VERTEX
  8
ETCH_TOP
 10
-129.801200
 20
35.600600
 40
0.000000
 41
0.000000
 42
-0.427460
  0
VERTEX
  8
ETCH_TOP
 10
-129.958000
 20
35.450800
 40
0.000000
 41
0.000000
 42
0.179644
  0
VERTEX
  8
ETCH_TOP
 10
-130.207400
 20
35.370900
 40
0.000000
 41
0.000000
 42
-0.345681
  0
VERTEX
  8
ETCH_TOP
 10
-130.392600
 20
35.370900
 40
0.000000
 41
0.000000
 42
0.179644
  0
VERTEX
  8
ETCH_TOP
 10
-130.642000
 20
35.450800
 40
0.000000
 41
0.000000
 42
-0.427460
  0
VERTEX
  8
ETCH_TOP
 10
-130.798800
 20
35.600600
 40
0.000000
 41
0.000000
 42
0.000000
  0
VERTEX
  8
ETCH_TOP
 10
-130.798800
 20
35.748800
 40
0.000000
 41
0.000000
 42
0.000000
  0
VERTEX
  8
ETCH_TOP
 10
-130.625000
 20
35.748800
 40
0.000000
 41
0.000000
 42
0.414214
  0
VERTEX
  8
ETCH_TOP
 10
-130.473800
 20
35.900000
 40
0.000000
 41
0.000000
 42
0.000000
  0
VERTEX
  8
ETCH_TOP
 10
-130.473800
 20
36.900000
 40
0.000000
 41
0.000000
 42
0.414214
  0
VERTEX
  8
ETCH_TOP
 10
-130.625000
 20
37.051200
 40
0.000000
 41
0.000000
 42
0.000000
  0
VERTEX
  8
ETCH_TOP
 10
-131.562100
 20
37.051200
 40
0.000000
 41
0.000000
 42
0.000000
  0
VERTEX
  8
ETCH_TOP
 10
-131.576700
 20
37.107400
 40
0.000000
 41
0.000000
 42
0.580847
  0
VERTEX
  8
ETCH_TOP
 10
-132.293100
 20
37.301200
 40
0.000000
 41
0.000000
 42
0.000000
  0
VERTEX
  8
ETCH_TOP
 10
-134.397100
 20
37.301200
 40
0.000000
 41
0.000000
 42
0.863616
  0
VERTEX
  8
ETCH_TOP
 10
-135.076900
 20
36.798800
 40
0.000000
 41
0.000000
 42
-0.566241
  0
VERTEX
  8
ETCH_TOP
 10
-135.209200
 20
36.578200
 40
0.000000
 41
0.000000
 42
0.000000
  0
VERTEX
  8
ETCH_TOP
 10
-137.847800
 20
36.578200
 40
0.000000
 41
0.000000
 42
0.000000
  0
VERTEX
  8
ETCH_TOP
 10
-138.401200
 20
36.024800
 40
0.000000
 41
0.000000
 42
0.000000
  0
VERTEX
  8
ETCH_TOP
 10
-138.401200
 20
34.856200
 40
0.000000
 41
0.000000
 42
0.000000
  0
VERTEX
  8
ETCH_TOP
 10
-138.875000
 20
34.856200
 40
0.000000
 41
0.000000
 42
0.414214
  0
VERTEX
  8
ETCH_TOP
 10
-139.026200
 20
34.705000
 40
0.000000
 41
0.000000
 42
0.000000
  0
VERTEX
  8
ETCH_TOP
 10
-139.026200
 20
34.105200
 40
0.000000
 41
0.000000
 42
0.000000
  0
VERTEX
  8
ETCH_TOP
 10
-140.679200
 20
34.105200
 40
0.000000
 41
0.000000
 42
0.000000
  0
VERTEX
  8
ETCH_TOP
 10
-141.071700
 20
34.497700
 40
0.000000
 41
0.000000
 42
0.002685
  0
VERTEX
  8
ETCH_TOP
 10
-141.071700
 20
34.502300
 40
0.000000
 41
0.000000
 42
0.000000
  0
VERTEX
  8
ETCH_TOP
 10
-139.925200
 20
35.648800
 40
0.000000
 41
0.000000
 42
0.000000
  0
VERTEX
  8
ETCH_TOP
 10
-139.625000
 20
35.648800
 40
0.000000
 41
0.000000
 42
0.414214
  0
VERTEX
  8
ETCH_TOP
 10
-139.473800
 20
35.800000
 40
0.000000
 41
0.000000
 42
0.000000
  0
VERTEX
  8
ETCH_TOP
 10
-139.473800
 20
36.800000
 40
0.000000
 41
0.000000
 42
0.414214
  0
VERTEX
  8
ETCH_TOP
 10
-139.625000
 20
36.951200
 40
0.000000
 41
0.000000
 42
0.000000
  0
VERTEX
  8
ETCH_TOP
 10
-140.575000
 20
36.951200
 40
0.000000
 41
0.000000
 42
0.414214
  0
VERTEX
  8
ETCH_TOP
 10
-140.726200
 20
36.800000
 40
0.000000
 41
0.000000
 42
0.000000
  0
VERTEX
  8
ETCH_TOP
 10
-140.726200
 20
35.800000
 40
0.000000
 41
0.000000
 42
0.068250
  0
VERTEX
  8
ETCH_TOP
 10
-140.720600
 20
35.759300
 40
0.000000
 41
0.000000
 42
0.000000
  0
VERTEX
  8
ETCH_TOP
 10
-140.708800
 20
35.717100
 40
0.000000
 41
0.000000
 42
0.000000
  0
VERTEX
  8
ETCH_TOP
 10
-141.497700
 20
34.928300
 40
0.000000
 41
0.000000
 42
0.002685
  0
VERTEX
  8
ETCH_TOP
 10
-141.502300
 20
34.928300
 40
0.000000
 41
0.000000
 42
0.000000
  0
VERTEX
  8
ETCH_TOP
 10
-141.885100
 20
35.311100
 40
0.000000
 41
0.000000
 42
0.000000
  0
VERTEX
  8
ETCH_TOP
 10
-142.544900
 20
35.311100
 40
0.000000
 41
0.000000
 42
0.000000
  0
VERTEX
  8
ETCH_TOP
 10
-142.999800
 20
34.856200
 40
0.000000
 41
0.000000
 42
0.000000
  0
VERTEX
  8
ETCH_TOP
 10
-144.275000
 20
34.856200
 40
0.000000
 41
0.000000
 42
0.414214
  0
VERTEX
  8
ETCH_TOP
 10
-144.426200
 20
34.705000
 40
0.000000
 41
0.000000
 42
0.000000
  0
VERTEX
  8
ETCH_TOP
 10
-144.426200
 20
34.105000
 40
0.000000
 41
0.000000
 42
0.414214
  0
VERTEX
  8
ETCH_TOP
 10
-144.275000
 20
33.953800
 40
0.000000
 41
0.000000
 42
0.000000
  0
VERTEX
  8
ETCH_TOP
 10
-143.990700
 20
33.953800
 40
0.000000
 41
0.000000
 42
-0.587337
  0
VERTEX
  8
ETCH_TOP
 10
-143.863200
 20
33.724900
 40
0.000000
 41
0.000000
 42
0.056992
  0
VERTEX
  8
ETCH_TOP
 10
-143.904600
 20
33.637100
 40
0.000000
 41
0.000000
 42
0.000000
  0
VERTEX
  8
ETCH_TOP
 10
-143.921900
 20
33.586200
 40
0.000000
 41
0.000000
 42
0.000000
  0
VERTEX
  8
ETCH_TOP
 10
-144.275000
 20
33.586200
 40
0.000000
 41
0.000000
 42
0.414214
  0
VERTEX
  8
ETCH_TOP
 10
-144.426200
 20
33.435000
 40
0.000000
 41
0.000000
 42
0.000000
  0
VERTEX
  8
ETCH_TOP
 10
-144.426200
 20
32.835000
 40
0.000000
 41
0.000000
 42
0.414214
  0
VERTEX
  8
ETCH_TOP
 10
-144.275000
 20
32.683800
 40
0.000000
 41
0.000000
 42
0.000000
  0
VERTEX
  8
ETCH_TOP
 10
-143.469200
 20
32.683800
 40
0.000000
 41
0.000000
 42
-0.668086
  0
VERTEX
  8
ETCH_TOP
 10
-143.363200
 20
32.427700
 40
0.000000
 41
0.000000
 42
0.000000
  0
VERTEX
  8
ETCH_TOP
 10
-143.474800
 20
32.316200
 40
0.000000
 41
0.000000
 42
0.000000
  0
VERTEX
  8
ETCH_TOP
 10
-144.275000
 20
32.316200
 40
0.000000
 41
0.000000
 42
0.414214
  0
VERTEX
  8
ETCH_TOP
 10
-144.426200
 20
32.165000
 40
0.000000
 41
0.000000
 42
0.000000
  0
VERTEX
  8
ETCH_TOP
 10
-144.426200
 20
31.565000
 40
0.000000
 41
0.000000
 42
0.414214
  0
VERTEX
  8
ETCH_TOP
 10
-144.275000
 20
31.413800
 40
0.000000
 41
0.000000
 42
0.000000
  0
VERTEX
  8
ETCH_TOP
 10
-142.725000
 20
31.413800
 40
0.000000
 41
0.000000
 42
0.414214
  0
VERTEX
  8
ETCH_TOP
 10
-142.573800
 20
31.565000
 40
0.000000
 41
0.000000
 42
0.000000
  0
VERTEX
  8
ETCH_TOP
 10
-142.573800
 20
31.797800
 40
0.000000
 41
0.000000
 42
0.000000
  0
VERTEX
  8
ETCH_TOP
 10
-142.499000
 20
31.872800
 40
0.000000
 41
0.000000
 42
1.000000
  0
VERTEX
  8
ETCH_TOP
 10
-142.501000
 20
32.727200
 40
0.000000
 41
0.000000
 42
0.000000
  0
VERTEX
  8
ETCH_TOP
 10
-142.501200
 20
32.727200
 40
0.000000
 41
0.000000
 42
-0.414206
  0
VERTEX
  8
ETCH_TOP
 10
-142.576200
 20
32.802200
 40
0.000000
 41
0.000000
 42
0.000000
  0
VERTEX
  8
ETCH_TOP
 10
-142.575400
 20
32.813100
 40
0.000000
 41
0.000000
 42
0.036355
  0
VERTEX
  8
ETCH_TOP
 10
-142.573800
 20
32.835000
 40
0.000000
 41
0.000000
 42
0.000000
  0
VERTEX
  8
ETCH_TOP
 10
-142.573800
 20
33.435000
 40
0.000000
 41
0.000000
 42
0.414214
  0
VERTEX
  8
ETCH_TOP
 10
-142.725000
 20
33.586200
 40
0.000000
 41
0.000000
 42
0.000000
  0
VERTEX
  8
ETCH_TOP
 10
-143.078100
 20
33.586200
 40
0.000000
 41
0.000000
 42
0.000000
  0
VERTEX
  8
ETCH_TOP
 10
-143.095400
 20
33.637100
 40
0.000000
 41
0.000000
 42
0.056992
  0
VERTEX
  8
ETCH_TOP
 10
-143.136800
 20
33.724900
 40
0.000000
 41
0.000000
 42
-0.587337
  0
VERTEX
  8
ETCH_TOP
 10
-143.009300
 20
33.953800
 40
0.000000
 41
0.000000
 42
0.000000
  0
VERTEX
  8
ETCH_TOP
 10
-142.725000
 20
33.953800
 40
0.000000
 41
0.000000
 42
0.414214
  0
VERTEX
  8
ETCH_TOP
 10
-142.573800
 20
34.105000
 40
0.000000
 41
0.000000
 42
0.000000
  0
VERTEX
  8
ETCH_TOP
 10
-142.573800
 20
34.430200
 40
0.000000
 41
0.000000
 42
0.000000
  0
VERTEX
  8
ETCH_TOP
 10
-142.295300
 20
34.708700
 40
0.000000
 41
0.000000
 42
0.000000
  0
VERTEX
  8
ETCH_TOP
 10
-142.134700
 20
34.708700
 40
0.000000
 41
0.000000
 42
0.000000
  0
VERTEX
  8
ETCH_TOP
 10
-141.928300
 20
34.502400
 40
0.000000
 41
0.000000
 42
0.417500
  0
VERTEX
  8
ETCH_TOP
 10
-141.497600
 20
34.071700
 40
0.000000
 41
0.000000
 42
0.000000
  0
VERTEX
  8
ETCH_TOP
 10
-140.928800
 20
33.502800
 40
0.000000
 41
0.000000
 42
0.000000
  0
VERTEX
  8
ETCH_TOP
 10
-139.600000
 20
33.502800
 40
0.000000
 41
0.000000
 42
-0.668086
  0
VERTEX
  8
ETCH_TOP
 10
-139.494000
 20
33.246700
 40
0.000000
 41
0.000000
 42
0.000000
  0
VERTEX
  8
ETCH_TOP
 10
-139.510500
 20
33.230300
 40
0.000000
 41
0.000000
 42
0.000000
  0
VERTEX
  8
ETCH_TOP
 10
-139.510500
 20
29.918600
 40
0.000000
 41
0.000000
 42
0.629093
  0
VERTEX
  8
ETCH_TOP
 10
-139.257400
 20
29.191200
 40
0.000000
 41
0.000000
 42
-0.352791
  0
VERTEX
  8
ETCH_TOP
 10
-139.125000
 20
29.057400
 40
0.000000
 41
0.000000
 42
0.173374
  0
VERTEX
  8
ETCH_TOP
 10
-139.001200
 20
28.797800
 40
0.000000
 41
0.000000
 42
0.000000
  0
VERTEX
  8
ETCH_TOP
 10
-139.001200
 20
28.501200
 40
0.000000
 41
0.000000
 42
0.000000
  0
VERTEX
  8
ETCH_TOP
 10
-139.475000
 20
28.501200
 40
0.000000
 41
0.000000
 42
0.316698
  0
VERTEX
  8
ETCH_TOP
 10
-139.617300
 20
28.400900
 40
0.000000
 41
0.000000
 42
0.000000
  0
VERTEX
  8
ETCH_TOP
 10
-139.635100
 20
28.351200
 40
0.000000
 41
0.000000
 42
0.000000
  0
VERTEX
  8
ETCH_TOP
 10
-142.174800
 20
28.351200
 40
0.000000
 41
0.000000
 42
0.000000
  0
VERTEX
  8
ETCH_TOP
 10
-142.397800
 20
28.128100
 40
0.000000
 41
0.000000
 42
0.000000
  0
VERTEX
  8
ETCH_TOP
 10
-142.426200
 20
28.126400
 40
0.000000
 41
0.000000
 42
0.183736
  0
VERTEX
  8
ETCH_TOP
 10
-142.702900
 20
28.001200
 40
0.000000
 41
0.000000
 42
0.000000
  0
VERTEX
  8
ETCH_TOP
 10
-144.797100
 20
28.001200
 40
0.000000
 41
0.000000
 42
2.423854
  0
VERTEX
  8
ETCH_TOP
 10
-144.797100
 20
27.398800
 40
0.000000
 41
0.000000
 42
0.000000
  0
VERTEX
  8
ETCH_TOP
 10
-142.702900
 20
27.398800
 40
0.000000
 41
0.000000
 42
0.647189
  0
VERTEX
  8
ETCH_TOP
 10
-141.973600
 20
27.673800
 40
0.000000
 41
0.000000
 42
0.000000
  0
VERTEX
  8
ETCH_TOP
 10
-141.971900
 20
27.702200
 40
0.000000
 41
0.000000
 42
0.000000
  0
VERTEX
  8
ETCH_TOP
 10
-141.925200
 20
27.748800
 40
0.000000
 41
0.000000
 42
0.000000
  0
VERTEX
  8
ETCH_TOP
 10
-139.635100
 20
27.748800
 40
0.000000
 41
0.000000
 42
0.000000
  0
VERTEX
  8
ETCH_TOP
 10
-139.617300
 20
27.699100
 40
0.000000
 41
0.000000
 42
0.316698
  0
VERTEX
  8
ETCH_TOP
 10
-139.475000
 20
27.598800
 40
0.000000
 41
0.000000
 42
0.000000
  0
VERTEX
  8
ETCH_TOP
 10
-138.824800
 20
27.598800
 40
0.000000
 41
0.000000
 42
0.000000
  0
VERTEX
  8
ETCH_TOP
 10
-137.805200
 20
26.579200
 40
0.000000
 41
0.000000
 42
-0.667885
  0
VERTEX
  8
ETCH_TOP
 10
-137.858200
 20
26.451200
 40
0.000000
 41
0.000000
 42
0.000000
  0
VERTEX
  8
ETCH_TOP
 10
-138.064900
 20
26.451200
 40
0.000000
 41
0.000000
 42
0.000000
  0
VERTEX
  8
ETCH_TOP
 10
-138.082700
 20
26.500900
 40
0.000000
 41
0.000000
 42
0.316698
  0
VERTEX
  8
ETCH_TOP
 10
-138.225000
 20
26.601200
 40
0.000000
 41
0.000000
 42
0.000000
  0
VERTEX
  8
ETCH_TOP
 10
-139.200200
 20
26.601200
 40
0.000000
 41
0.000000
 42
0.000000
  0
VERTEX
  8
ETCH_TOP
 10
-139.655000
 20
27.056000
 40
0.000000
 41
0.000000
 42
0.000000
  0
VERTEX
  8
ETCH_TOP
 10
-139.970000
 20
27.056000
 40
0.000000
 41
0.000000
 42
0.000000
  0
VERTEX
  8
ETCH_TOP
 10
-140.499800
 20
26.526200
 40
0.000000
 41
0.000000
 42
0.000000
  0
VERTEX
  8
ETCH_TOP
 10
-141.175000
 20
26.526200
 40
0.000000
 41
0.000000
 42
0.414214
  0
VERTEX
  8
ETCH_TOP
 10
-141.326200
 20
26.375000
 40
0.000000
 41
0.000000
 42
0.000000
  0
VERTEX
  8
ETCH_TOP
 10
-141.326200
 20
25.025000
 40
0.000000
 41
0.000000
 42
0.414214
  0
VERTEX
  8
ETCH_TOP
 10
-141.175000
 20
24.873800
 40
0.000000
 41
0.000000
 42
0.000000
  0
VERTEX
  8
ETCH_TOP
 10
-140.225000
 20
24.873800
 40
0.000000
 41
0.000000
 42
0.414214
  0
VERTEX
  8
ETCH_TOP
 10
-140.073800
 20
25.025000
 40
0.000000
 41
0.000000
 42
0.000000
  0
VERTEX
  8
ETCH_TOP
 10
-140.073800
 20
26.100200
 40
0.000000
 41
0.000000
 42
0.000000
  0
VERTEX
  8
ETCH_TOP
 10
-139.812500
 20
26.361500
 40
0.000000
 41
0.000000
 42
0.000000
  0
VERTEX
  8
ETCH_TOP
 10
-139.626200
 20
26.175200
 40
0.000000
 41
0.000000
 42
0.000000
  0
VERTEX
  8
ETCH_TOP
 10
-139.626200
 20
25.850000
 40
0.000000
 41
0.000000
 42
0.414020
  0
VERTEX
  8
ETCH_TOP
 10
-139.475000
 20
25.698800
 40
0.000000
 41
0.000000
 42
0.000000
  0
VERTEX
  8
ETCH_TOP
 10
-138.225000
 20
25.698800
 40
0.000000
 41
0.000000
 42
0.178698
  0
VERTEX
  8
ETCH_TOP
 10
-138.126800
 20
25.735200
 40
0.000000
 41
0.000000
 42
-0.391672
  0
VERTEX
  8
ETCH_TOP
 10
-137.923200
 20
25.727200
 40
0.000000
 41
0.000000
 42
0.000000
  0
VERTEX
  8
ETCH_TOP
 10
-137.152100
 20
24.956200
 40
0.000000
 41
0.000000
 42
-0.668086
  0
VERTEX
  8
ETCH_TOP
 10
-137.258100
 20
24.700100
 40
0.000000
 41
0.000000
 42
0.000000
  0
VERTEX
  8
ETCH_TOP
 10
-146.000000
 20
24.700100
 40
0.000000
 41
0.000000
 42
0.000000
  0
VERTEX
  8
ETCH_TOP
 10
-149.499900
 20
28.200000
 40
0.000000
 41
0.000000
 42
0.000000
  0
VERTEX
  8
ETCH_TOP
 10
-149.499900
 20
34.400000
 40
0.000000
 41
0.000000
 42
0.000000
  0
VERTEX
  8
ETCH_TOP
 10
-146.000000
 20
37.899900
 40
0.000000
 41
0.000000
 42
0.000000
  0
VERTEX
  8
ETCH_TOP
 10
-120.600100
 20
37.899900
 40
0.000000
 41
0.000000
 42
0.000000
  0
VERTEX
  8
ETCH_TOP
 10
-120.600100
 20
24.700100
 40
0.000000
 41
0.000000
 42
0.000000
  0
VERTEX
  8
ETCH_TOP
 10
-133.111900
 20
24.700100
 40
0.000000
 41
0.000000
 42
-0.668086
  0
VERTEX
  8
ETCH_TOP
 10
-133.217900
 20
24.956200
 40
0.000000
 41
0.000000
 42
0.000000
  0
VERTEX
  8
ETCH_TOP
 10
-133.074800
 20
25.099200
 40
0.000000
 41
0.000000
 42
0.000000
  0
VERTEX
  8
ETCH_TOP
 10
-133.074800
 20
25.348800
 40
0.000000
 41
0.000000
 42
0.000000
  0
VERTEX
  8
ETCH_TOP
 10
-132.125000
 20
25.348800
 40
0.000000
 41
0.000000
 42
0.414214
  0
VERTEX
  8
ETCH_TOP
 10
-131.973800
 20
25.500000
 40
0.000000
 41
0.000000
 42
0.000000
  0
VERTEX
  8
ETCH_TOP
 10
-131.973800
 20
26.199100
 40
0.000000
 41
0.000000
 42
1.093184
  0
VERTEX
  8
ETCH_TOP
 10
-132.669900
 20
26.688700
 40
0.000000
 41
0.000000
 42
0.000000
  0
VERTEX
  8
ETCH_TOP
 10
-132.691600
 20
26.651200
 40
0.000000
 41
0.000000
 42
0.000000
  0
VERTEX
  8
ETCH_TOP
 10
-132.826100
 20
26.651200
 40
0.000000
 41
0.000000
 42
-0.667885
  0
VERTEX
  8
ETCH_TOP
 10
-132.879100
 20
26.779200
 40
0.000000
 41
0.000000
 42
0.000000
  0
VERTEX
  8
ETCH_TOP
 10
-132.575200
 20
27.083100
 40
0.000000
 41
0.000000
 42
0.000000
  0
VERTEX
  8
ETCH_TOP
 10
-132.087200
 20
27.083100
 40
0.000000
 41
0.000000
 42
0.816869
  0
VERTEX
  8
ETCH_TOP
 10
-131.387700
 20
27.543100
 40
0.000000
 41
0.000000
 42
-0.530461
  0
VERTEX
  8
ETCH_TOP
 10
-131.248500
 20
27.748800
 40
0.000000
 41
0.000000
 42
0.000000
  0
VERTEX
  8
ETCH_TOP
 10
-130.577200
 20
27.748800
 40
0.000000
 41
0.000000
 42
0.000000
  0
VERTEX
  8
ETCH_TOP
 10
-130.577200
 20
27.650500
 40
0.000000
 41
0.000000
 42
0.000000
  0
VERTEX
  8
ETCH_TOP
 10
-130.098500
 20
27.171800
 40
0.000000
 41
0.000000
 42
0.000000
  0
VERTEX
  8
ETCH_TOP
 10
-130.002900
 20
27.171800
 40
0.000000
 41
0.000000
 42
0.415863
  0
VERTEX
  8
ETCH_TOP
 10
-129.397100
 20
27.171800
 40
0.000000
 41
0.000000
 42
0.000000
  0
VERTEX
  8
ETCH_TOP
 10
-128.718300
 20
27.171800
 40
0.000000
 41
0.000000
 42
0.000000
  0
VERTEX
  8
ETCH_TOP
 10
-128.514300
 20
27.375800
 40
0.000000
 41
0.000000
 42
0.000000
  0
VERTEX
  8
ETCH_TOP
 10
-128.285700
 20
27.375800
 40
0.000000
 41
0.000000
 42
0.000000
  0
VERTEX
  8
ETCH_TOP
 10
-128.008700
 20
27.098800
 40
0.000000
 41
0.000000
 42
0.000000
  0
VERTEX
  8
ETCH_TOP
 10
-127.026200
 20
27.098800
 40
0.000000
 41
0.000000
 42
0.000000
  0
VERTEX
  8
ETCH_TOP
 10
-127.026200
 20
26.900000
 40
0.000000
 41
0.000000
 42
0.414214
  0
VERTEX
  8
ETCH_TOP
 10
-126.875000
 20
26.748800
 40
0.000000
 41
0.000000
 42
0.000000
  0
VERTEX
  8
ETCH_TOP
 10
-125.925000
 20
26.748800
 40
0.000000
 41
0.000000
 42
0.414214
  0
VERTEX
  8
ETCH_TOP
 10
-125.773800
 20
26.900000
 40
0.000000
 41
0.000000
 42
0.000000
  0
VERTEX
  8
ETCH_TOP
 10
-125.773800
 20
27.900000
 40
0.000000
 41
0.000000
 42
0.414214
  0
VERTEX
  8
ETCH_TOP
 10
-125.925000
 20
28.051200
 40
0.000000
 41
0.000000
 42
0.000000
  0
VERTEX
  8
ETCH_TOP
 10
-126.875000
 20
28.051200
 40
0.000000
 41
0.000000
 42
0.414214
  0
VERTEX
  8
ETCH_TOP
 10
-127.026200
 20
27.900000
 40
0.000000
 41
0.000000
 42
0.000000
  0
VERTEX
  8
ETCH_TOP
 10
-127.026200
 20
27.701200
 40
0.000000
 41
0.000000
 42
0.000000
  0
VERTEX
  8
ETCH_TOP
 10
-127.759100
 20
27.701200
 40
0.000000
 41
0.000000
 42
0.000000
  0
VERTEX
  8
ETCH_TOP
 10
-128.036100
 20
27.978200
 40
0.000000
 41
0.000000
 42
0.000000
  0
VERTEX
  8
ETCH_TOP
 10
-128.763900
 20
27.978200
 40
0.000000
 41
0.000000
 42
0.000000
  0
VERTEX
  8
ETCH_TOP
 10
-128.781200
 20
27.960800
 40
0.000000
 41
0.000000
 42
0.000000
  0
VERTEX
  8
ETCH_TOP
 10
-128.873800
 20
27.999200
 40
0.000000
 41
0.000000
 42
0.000000
  0
VERTEX
  8
ETCH_TOP
 10
-128.873800
 20
28.723300
 40
0.000000
 41
0.000000
 42
-0.426393
  0
VERTEX
  8
ETCH_TOP
 10
-128.717600
 20
28.873200
 40
0.000000
 41
0.000000
 42
0.377846
  0
VERTEX
  8
ETCH_TOP
 10
-128.278700
 20
29.229000
 40
0.000000
 41
0.000000
 42
-0.419859
  0
VERTEX
  8
ETCH_TOP
 10
-128.103000
 20
29.351400
 40
0.000000
 41
0.000000
 42
0.046263
  0
VERTEX
  8
ETCH_TOP
 10
-128.075200
 20
29.348800
 40
0.000000
 41
0.000000
 42
0.000000
  0
VERTEX
  8
ETCH_TOP
 10
-127.125000
 20
29.348800
 40
0.000000
 41
0.000000
 42
0.414214
  0
VERTEX
  8
ETCH_TOP
 10
-126.973800
 20
29.500000
 40
0.000000
 41
0.000000
 42
0.000000
  0
VERTEX
  8
ETCH_TOP
 10
-126.973800
 20
30.175200
 40
0.000000
 41
0.000000
 42
0.000000
  0
VERTEX
  8
ETCH_TOP
 10
-126.882300
 20
30.266800
 40
0.000000
 41
0.000000
 42
-0.668086
  0
VERTEX
  8
ETCH_TOP
 10
-126.626200
 20
30.160800
 40
0.000000
 41
0.000000
 42
0.000000
  0
VERTEX
  8
ETCH_TOP
 10
-126.626200
 20
29.500000
 40
0.000000
 41
0.000000
 42
0.414214
  0
VERTEX
  8
ETCH_TOP
 10
-126.475000
 20
29.348800
 40
0.000000
 41
0.000000
 42
0.000000
  0
VERTEX
  8
ETCH_TOP
 10
-125.525000
 20
29.348800
 40
0.000000
 41
0.000000
 42
0.414214
  0
VERTEX
  8
ETCH_TOP
 10
-125.373800
 20
29.500000
 40
0.000000
 41
0.000000
 42
0.000000
  0
VERTEX
  8
ETCH_TOP
 10
-125.373800
 20
29.698800
 40
0.000000
 41
0.000000
 42
0.000000
  0
VERTEX
  8
ETCH_TOP
 10
-125.095400
 20
29.698800
 40
0.000000
 41
0.000000
 42
0.000000
  0
VERTEX
  8
ETCH_TOP
 10
-124.598800
 20
30.195400
 40
0.000000
 41
0.000000
 42
0.000000
  0
VERTEX
  8
ETCH_TOP
 10
-124.598800
 20
30.897100
 40
0.000000
 41
0.000000
 42
0.910498
  0
VERTEX
  8
ETCH_TOP
 10
-125.139700
 20
31.553600
 40
0.000000
 41
0.000000
 42
-0.601443
  0
VERTEX
  8
ETCH_TOP
 10
-125.373800
 20
31.677800
 40
0.000000
 41
0.000000
 42
0.000000
  0
VERTEX
  8
ETCH_TOP
 10
-125.373800
 20
32.100000
 40
0.000000
 41
0.000000
 42
0.414214
  0
VERTEX
  8
ETCH_TOP
 10
-125.525000
 20
32.251200
 40
0.000000
 41
0.000000
 42
0.000000
  0
VERTEX
  8
ETCH_TOP
 10
-126.475000
 20
32.251200
 40
0.000000
 41
0.000000
 42
0.414214
  0
VERTEX
  8
ETCH_TOP
 10
-126.626200
 20
32.100000
 40
0.000000
 41
0.000000
 42
0.000000
  0
VERTEX
  8
ETCH_TOP
 10
-126.626200
 20
31.374800
 40
0.000000
 41
0.000000
 42
0.000000
  0
VERTEX
  8
ETCH_TOP
 10
-126.717700
 20
31.283200
 40
0.000000
 41
0.000000
 42
-0.668086
  0
VERTEX
  8
ETCH_TOP
 10
-126.973800
 20
31.389200
 40
0.000000
 41
0.000000
 42
0.000000
  0
VERTEX
  8
ETCH_TOP
 10
-126.973800
 20
32.100000
 40
0.000000
 41
0.000000
 42
0.414214
  0
VERTEX
  8
ETCH_TOP
 10
-127.125000
 20
32.251200
 40
0.000000
 41
0.000000
 42
0.000000
  0
VERTEX
  8
ETCH_TOP
 10
-128.075000
 20
32.251200
 40
0.000000
 41
0.000000
 42
0.414214
  0
VERTEX
  8
ETCH_TOP
 10
-128.226200
 20
32.100000
 40
0.000000
 41
0.000000
 42
0.000000
  0
VERTEX
  8
ETCH_TOP
 10
-128.226200
 20
31.901200
 40
0.000000
 41
0.000000
 42
0.000000
  0
VERTEX
  8
ETCH_TOP
 10
-128.624800
 20
31.901200
 40
0.000000
 41
0.000000
 42
0.000000
  0
VERTEX
  8
ETCH_TOP
 10
-129.377800
 20
31.148200
 40
0.000000
 41
0.000000
 42
0.000000
  0
VERTEX
  8
ETCH_TOP
 10
-129.399900
 20
31.143700
 40
0.000000
 41
0.000000
 42
0.046771
  0
VERTEX
  8
ETCH_TOP
 10
-129.467100
 20
31.123300
 40
0.000000
 41
0.000000
 42
-0.532907
  0
VERTEX
  8
ETCH_TOP
 10
-129.673800
 20
31.262200
 40
0.000000
 41
0.000000
 42
0.000000
  0
VERTEX
  8
ETCH_TOP
 10
-129.673800
 20
31.880600
 40
0.000000
 41
0.000000
 42
0.000000
  0
SEQEND
  0
POLYLINE
  8
ETCH_TOP
 66
1
 70
1
 40
0.000000
 41
0.000000
 39
0.000000
  0
VERTEX
  8
ETCH_TOP
 10
-122.844500
 20
33.583700
 40
0.000000
 41
0.000000
 42
0.000000
  0
VERTEX
  8
ETCH_TOP
 10
-121.955500
 20
33.583700
 40
0.000000
 41
0.000000
 42
-1.000000
  0
VERTEX
  8
ETCH_TOP
 10
-121.955500
 20
31.376300
 40
0.000000
 41
0.000000
 42
0.000000
  0
VERTEX
  8
ETCH_TOP
 10
-122.844500
 20
31.376300
 40
0.000000
 41
0.000000
 42
-1.000000
  0
SEQEND
  0
POLYLINE
  8
ETCH_TOP
 66
1
 70
1
 40
0.000000
 41
0.000000
 39
0.000000
  0
VERTEX
  8
ETCH_TOP
 10
-122.844500
 20
36.123700
 40
0.000000
 41
0.000000
 42
0.000000
  0
VERTEX
  8
ETCH_TOP
 10
-121.955500
 20
36.123700
 40
0.000000
 41
0.000000
 42
-1.000000
  0
VERTEX
  8
ETCH_TOP
 10
-121.955500
 20
33.916300
 40
0.000000
 41
0.000000
 42
0.000000
  0
VERTEX
  8
ETCH_TOP
 10
-122.844500
 20
33.916300
 40
0.000000
 41
0.000000
 42
-1.000000
  0
SEQEND
  0
POLYLINE
  8
ETCH_TOP
 66
1
 70
1
 40
0.000000
 41
0.000000
 39
0.000000
  0
VERTEX
  8
ETCH_TOP
 10
-122.844500
 20
31.043700
 40
0.000000
 41
0.000000
 42
0.000000
  0
VERTEX
  8
ETCH_TOP
 10
-121.955500
 20
31.043700
 40
0.000000
 41
0.000000
 42
-1.000000
  0
VERTEX
  8
ETCH_TOP
 10
-121.955500
 20
28.836300
 40
0.000000
 41
0.000000
 42
0.000000
  0
VERTEX
  8
ETCH_TOP
 10
-122.844500
 20
28.836300
 40
0.000000
 41
0.000000
 42
-1.000000
  0
SEQEND
  0
POLYLINE
  8
ETCH_TOP
 66
1
 70
1
 40
0.000000
 41
0.000000
 39
0.000000
  0
VERTEX
  8
ETCH_TOP
 10
-129.126200
 20
25.500000
 40
0.000000
 41
0.000000
 42
0.000000
  0
VERTEX
  8
ETCH_TOP
 10
-129.126200
 20
26.500000
 40
0.000000
 41
0.000000
 42
-0.414214
  0
VERTEX
  8
ETCH_TOP
 10
-128.975000
 20
26.651200
 40
0.000000
 41
0.000000
 42
0.000000
  0
VERTEX
  8
ETCH_TOP
 10
-128.025000
 20
26.651200
 40
0.000000
 41
0.000000
 42
-0.414214
  0
VERTEX
  8
ETCH_TOP
 10
-127.873800
 20
26.500000
 40
0.000000
 41
0.000000
 42
0.000000
  0
VERTEX
  8
ETCH_TOP
 10
-127.873800
 20
25.500000
 40
0.000000
 41
0.000000
 42
-0.414214
  0
VERTEX
  8
ETCH_TOP
 10
-128.025000
 20
25.348800
 40
0.000000
 41
0.000000
 42
0.000000
  0
VERTEX
  8
ETCH_TOP
 10
-128.975000
 20
25.348800
 40
0.000000
 41
0.000000
 42
-0.414214
  0
SEQEND
  0
POLYLINE
  8
ETCH_TOP
 66
1
 70
1
 40
0.000000
 41
0.000000
 39
0.000000
  0
VERTEX
  8
ETCH_TOP
 10
-142.926200
 20
25.025000
 40
0.000000
 41
0.000000
 42
0.000000
  0
VERTEX
  8
ETCH_TOP
 10
-142.926200
 20
26.375000
 40
0.000000
 41
0.000000
 42
-0.414214
  0
VERTEX
  8
ETCH_TOP
 10
-142.775000
 20
26.526200
 40
0.000000
 41
0.000000
 42
0.000000
  0
VERTEX
  8
ETCH_TOP
 10
-141.825000
 20
26.526200
 40
0.000000
 41
0.000000
 42
-0.414214
  0
VERTEX
  8
ETCH_TOP
 10
-141.673800
 20
26.375000
 40
0.000000
 41
0.000000
 42
0.000000
  0
VERTEX
  8
ETCH_TOP
 10
-141.673800
 20
25.025000
 40
0.000000
 41
0.000000
 42
-0.414214
  0
VERTEX
  8
ETCH_TOP
 10
-141.825000
 20
24.873800
 40
0.000000
 41
0.000000
 42
0.000000
  0
VERTEX
  8
ETCH_TOP
 10
-142.775000
 20
24.873800
 40
0.000000
 41
0.000000
 42
-0.414214
  0
SEQEND
  0
POLYLINE
  8
ETCH_TOP
 66
1
 70
1
 40
0.000000
 41
0.000000
 39
0.000000
  0
VERTEX
  8
ETCH_TOP
 10
-148.851200
 20
31.800000
 40
0.000000
 41
0.000000
 42
0.000000
  0
VERTEX
  8
ETCH_TOP
 10
-148.851200
 20
33.400000
 40
0.000000
 41
0.000000
 42
-0.414214
  0
VERTEX
  8
ETCH_TOP
 10
-148.700000
 20
33.551200
 40
0.000000
 41
0.000000
 42
0.000000
  0
VERTEX
  8
ETCH_TOP
 10
-147.100000
 20
33.551200
 40
0.000000
 41
0.000000
 42
-0.414214
  0
VERTEX
  8
ETCH_TOP
 10
-146.948800
 20
33.400000
 40
0.000000
 41
0.000000
 42
0.000000
  0
VERTEX
  8
ETCH_TOP
 10
-146.948800
 20
31.800000
 40
0.000000
 41
0.000000
 42
-0.414214
  0
VERTEX
  8
ETCH_TOP
 10
-147.100000
 20
31.648800
 40
0.000000
 41
0.000000
 42
0.000000
  0
VERTEX
  8
ETCH_TOP
 10
-148.700000
 20
31.648800
 40
0.000000
 41
0.000000
 42
-0.414214
  0
SEQEND
  0
POLYLINE
  8
ETCH_TOP
 66
1
 70
1
 40
0.000000
 41
0.000000
 39
0.000000
  0
VERTEX
  8
ETCH_TOP
 10
-141.225000
 20
35.648800
 40
0.000000
 41
0.000000
 42
0.000000
  0
VERTEX
  8
ETCH_TOP
 10
-142.175000
 20
35.648800
 40
0.000000
 41
0.000000
 42
-0.414214
  0
VERTEX
  8
ETCH_TOP
 10
-142.326200
 20
35.800000
 40
0.000000
 41
0.000000
 42
0.000000
  0
VERTEX
  8
ETCH_TOP
 10
-142.326200
 20
35.998800
 40
0.000000
 41
0.000000
 42
0.000000
  0
VERTEX
  8
ETCH_TOP
 10
-145.997100
 20
35.998800
 40
0.000000
 41
0.000000
 42
-2.423854
  0
VERTEX
  8
ETCH_TOP
 10
-145.997100
 20
36.601200
 40
0.000000
 41
0.000000
 42
0.000000
  0
VERTEX
  8
ETCH_TOP
 10
-142.326200
 20
36.601200
 40
0.000000
 41
0.000000
 42
0.000000
  0
VERTEX
  8
ETCH_TOP
 10
-142.326200
 20
36.800000
 40
0.000000
 41
0.000000
 42
-0.414214
  0
VERTEX
  8
ETCH_TOP
 10
-142.175000
 20
36.951200
 40
0.000000
 41
0.000000
 42
0.000000
  0
VERTEX
  8
ETCH_TOP
 10
-141.225000
 20
36.951200
 40
0.000000
 41
0.000000
 42
-0.414214
  0
VERTEX
  8
ETCH_TOP
 10
-141.073800
 20
36.800000
 40
0.000000
 41
0.000000
 42
0.000000
  0
VERTEX
  8
ETCH_TOP
 10
-141.073800
 20
35.800000
 40
0.000000
 41
0.000000
 42
-0.414214
  0
SEQEND
  0
POLYLINE
  8
ETCH_TOP
 66
1
 70
1
 40
0.000000
 41
0.000000
 39
0.000000
  0
VERTEX
  8
ETCH_TOP
 10
-145.998800
 20
34.297100
 40
0.000000
 41
0.000000
 42
0.000000
  0
VERTEX
  8
ETCH_TOP
 10
-145.998800
 20
32.402900
 40
0.000000
 41
0.000000
 42
-2.423854
  0
VERTEX
  8
ETCH_TOP
 10
-146.601200
 20
32.402900
 40
0.000000
 41
0.000000
 42
0.000000
  0
VERTEX
  8
ETCH_TOP
 10
-146.601200
 20
34.297100
 40
0.000000
 41
0.000000
 42
-2.423854
  0
SEQEND
  0
POLYLINE
  8
ETCH_TOP
 66
1
 70
1
 40
0.000000
 41
0.000000
 39
0.000000
  0
VERTEX
  8
ETCH_TOP
 10
-121.003000
 20
26.296300
 40
0.000000
 41
0.000000
 42
0.000000
  0
VERTEX
  8
ETCH_TOP
 10
-123.797000
 20
26.296300
 40
0.000000
 41
0.000000
 42
-0.414214
  0
VERTEX
  8
ETCH_TOP
 10
-123.948200
 20
26.447500
 40
0.000000
 41
0.000000
 42
0.000000
  0
VERTEX
  8
ETCH_TOP
 10
-123.948200
 20
27.098800
 40
0.000000
 41
0.000000
 42
0.000000
  0
VERTEX
  8
ETCH_TOP
 10
-124.173800
 20
27.098800
 40
0.000000
 41
0.000000
 42
0.000000
  0
VERTEX
  8
ETCH_TOP
 10
-124.173800
 20
26.900000
 40
0.000000
 41
0.000000
 42
-0.414214
  0
VERTEX
  8
ETCH_TOP
 10
-124.325000
 20
26.748800
 40
0.000000
 41
0.000000
 42
0.000000
  0
VERTEX
  8
ETCH_TOP
 10
-125.275000
 20
26.748800
 40
0.000000
 41
0.000000
 42
-0.414214
  0
VERTEX
  8
ETCH_TOP
 10
-125.426200
 20
26.900000
 40
0.000000
 41
0.000000
 42
0.000000
  0
VERTEX
  8
ETCH_TOP
 10
-125.426200
 20
27.900000
 40
0.000000
 41
0.000000
 42
-0.414214
  0
VERTEX
  8
ETCH_TOP
 10
-125.275000
 20
28.051200
 40
0.000000
 41
0.000000
 42
0.000000
  0
VERTEX
  8
ETCH_TOP
 10
-124.325000
 20
28.051200
 40
0.000000
 41
0.000000
 42
-0.414214
  0
VERTEX
  8
ETCH_TOP
 10
-124.173800
 20
27.900000
 40
0.000000
 41
0.000000
 42
0.000000
  0
VERTEX
  8
ETCH_TOP
 10
-124.173800
 20
27.701200
 40
0.000000
 41
0.000000
 42
0.000000
  0
VERTEX
  8
ETCH_TOP
 10
-123.948200
 20
27.701200
 40
0.000000
 41
0.000000
 42
0.000000
  0
VERTEX
  8
ETCH_TOP
 10
-123.948200
 20
28.352500
 40
0.000000
 41
0.000000
 42
-0.414214
  0
VERTEX
  8
ETCH_TOP
 10
-123.797000
 20
28.503700
 40
0.000000
 41
0.000000
 42
0.000000
  0
VERTEX
  8
ETCH_TOP
 10
-121.003000
 20
28.503700
 40
0.000000
 41
0.000000
 42
-0.414214
  0
VERTEX
  8
ETCH_TOP
 10
-120.851800
 20
28.352500
 40
0.000000
 41
0.000000
 42
0.000000
  0
VERTEX
  8
ETCH_TOP
 10
-120.851800
 20
26.447500
 40
0.000000
 41
0.000000
 42
-0.414214
  0
SEQEND
  0
POLYLINE
  8
ETCH_TOP
 66
1
 70
1
 40
0.000000
 41
0.000000
 39
0.000000
  0
VERTEX
  8
ETCH_TOP
 10
-130.575000
 20
26.651200
 40
0.000000
 41
0.000000
 42
0.000000
  0
VERTEX
  8
ETCH_TOP
 10
-129.625000
 20
26.651200
 40
0.000000
 41
0.000000
 42
-0.414214
  0
VERTEX
  8
ETCH_TOP
 10
-129.473800
 20
26.500000
 40
0.000000
 41
0.000000
 42
0.000000
  0
VERTEX
  8
ETCH_TOP
 10
-129.473800
 20
25.500000
 40
0.000000
 41
0.000000
 42
-0.414214
  0
VERTEX
  8
ETCH_TOP
 10
-129.625000
 20
25.348800
 40
0.000000
 41
0.000000
 42
0.000000
  0
VERTEX
  8
ETCH_TOP
 10
-130.575000
 20
25.348800
 40
0.000000
 41
0.000000
 42
-0.414214
  0
VERTEX
  8
ETCH_TOP
 10
-130.726200
 20
25.500000
 40
0.000000
 41
0.000000
 42
0.000000
  0
VERTEX
  8
ETCH_TOP
 10
-130.726200
 20
25.698800
 40
0.000000
 41
0.000000
 42
0.000000
  0
VERTEX
  8
ETCH_TOP
 10
-130.925400
 20
25.698800
 40
0.000000
 41
0.000000
 42
0.000000
  0
VERTEX
  8
ETCH_TOP
 10
-130.925400
 20
25.606200
 40
0.000000
 41
0.000000
 42
0.000000
  0
VERTEX
  8
ETCH_TOP
 10
-130.917600
 20
25.590400
 40
0.000000
 41
0.000000
 42
-1.954882
  0
VERTEX
  8
ETCH_TOP
 10
-131.601200
 20
25.702900
 40
0.000000
 41
0.000000
 42
0.000000
  0
VERTEX
  8
ETCH_TOP
 10
-131.601200
 20
26.105600
 40
0.000000
 41
0.000000
 42
0.000000
  0
VERTEX
  8
ETCH_TOP
 10
-131.405600
 20
26.301200
 40
0.000000
 41
0.000000
 42
0.000000
  0
VERTEX
  8
ETCH_TOP
 10
-130.726200
 20
26.301200
 40
0.000000
 41
0.000000
 42
0.000000
  0
VERTEX
  8
ETCH_TOP
 10
-130.726200
 20
26.500000
 40
0.000000
 41
0.000000
 42
-0.414214
  0
SEQEND
  0
POLYLINE
  8
ETCH_TOP
 66
1
 70
1
 40
0.000000
 41
0.000000
 39
0.000000
  0
VERTEX
  8
ETCH_TOP
 10
-146.948800
 20
30.060000
 40
0.000000
 41
0.000000
 42
1.000000
  0
VERTEX
  8
ETCH_TOP
 10
-148.851200
 20
30.060000
 40
0.000000
 41
0.000000
 42
1.000000
  0
SEQEND
  0
POLYLINE
  8
ETCH_TOP
 66
1
 70
1
 40
0.000000
 41
0.000000
 39
0.000000
  0
VERTEX
  8
ETCH_TOP
 10
-142.573800
 20
30.895000
 40
0.000000
 41
0.000000
 42
0.000000
  0
VERTEX
  8
ETCH_TOP
 10
-142.573800
 20
30.294800
 40
0.000000
 41
0.000000
 42
-0.124725
  0
VERTEX
  8
ETCH_TOP
 10
-142.592100
 20
30.222800
 40
0.000000
 41
0.000000
 42
0.568840
  0
VERTEX
  8
ETCH_TOP
 10
-142.460300
 20
30.001200
 40
0.000000
 41
0.000000
 42
0.000000
  0
VERTEX
  8
ETCH_TOP
 10
-141.302900
 20
30.001200
 40
0.000000
 41
0.000000
 42
-2.423854
  0
VERTEX
  8
ETCH_TOP
 10
-141.302900
 20
29.398800
 40
0.000000
 41
0.000000
 42
0.000000
  0
VERTEX
  8
ETCH_TOP
 10
-143.197100
 20
29.398800
 40
0.000000
 41
0.000000
 42
-0.882842
  0
VERTEX
  8
ETCH_TOP
 10
-143.867700
 20
29.917500
 40
0.000000
 41
0.000000
 42
0.580655
  0
VERTEX
  8
ETCH_TOP
 10
-143.996800
 20
30.143800
 40
0.000000
 41
0.000000
 42
0.000000
  0
VERTEX
  8
ETCH_TOP
 10
-144.275000
 20
30.143800
 40
0.000000
 41
0.000000
 42
-0.414214
  0
VERTEX
  8
ETCH_TOP
 10
-144.426200
 20
30.295000
 40
0.000000
 41
0.000000
 42
0.000000
  0
VERTEX
  8
ETCH_TOP
 10
-144.426200
 20
30.895000
 40
0.000000
 41
0.000000
 42
-0.414214
  0
VERTEX
  8
ETCH_TOP
 10
-144.275000
 20
31.046200
 40
0.000000
 41
0.000000
 42
0.000000
  0
VERTEX
  8
ETCH_TOP
 10
-142.725000
 20
31.046200
 40
0.000000
 41
0.000000
 42
-0.414214
  0
SEQEND
  0
POLYLINE
  8
ETCH_TOP
 66
1
 70
0
 40
0.000000
 41
0.000000
 39
0.000000
  0
VERTEX
  8
ETCH_TOP
 10
-143.079900
 20
26.679900
 40
0.300000
 41
0.300000
 42
0.000000
  0
VERTEX
  8
ETCH_TOP
 10
-143.620100
 20
26.679900
 40
0.300000
 41
0.300000
 42
0.000000
  0
VERTEX
  8
ETCH_TOP
 10
-144.300000
 20
26.000000
 40
0.300000
 41
0.300000
 42
0.000000
  0
SEQEND
  0
POLYLINE
  8
ETCH_TOP
 66
1
 70
0
 40
0.000000
 41
0.000000
 39
0.000000
  0
VERTEX
  8
ETCH_TOP
 10
-137.024000
 20
30.551000
 40
0.300000
 41
0.300000
 42
0.000000
  0
VERTEX
  8
ETCH_TOP
 10
-136.100000
 20
31.475000
 40
0.300000
 41
0.300000
 42
0.000000
  0
VERTEX
  8
ETCH_TOP
 10
-136.100000
 20
31.500000
 40
0.300000
 41
0.300000
 42
0.000000
  0
SEQEND
  0
POLYLINE
  8
ETCH_TOP
 66
1
 70
0
 40
0.000000
 41
0.000000
 39
0.000000
  0
VERTEX
  8
ETCH_TOP
 10
-135.300000
 20
27.100000
 40
0.300000
 41
0.300000
 42
0.000000
  0
VERTEX
  8
ETCH_TOP
 10
-135.015700
 20
27.384300
 40
0.300000
 41
0.300000
 42
0.000000
  0
VERTEX
  8
ETCH_TOP
 10
-134.300000
 20
27.384300
 40
0.300000
 41
0.300000
 42
0.000000
  0
SEQEND
  0
POLYLINE
  8
ETCH_TOP
 66
1
 70
1
 40
0.000000
 41
0.000000
 39
0.000000
  0
VERTEX
  8
ETCH_TOP
 10
-136.645200
 20
25.301200
 40
0.000000
 41
0.000000
 42
0.000000
  0
VERTEX
  8
ETCH_TOP
 10
-137.004700
 20
25.660700
 40
0.000000
 41
0.000000
 42
0.000000
  0
VERTEX
  8
ETCH_TOP
 10
-136.908600
 20
25.756800
 40
0.000000
 41
0.000000
 42
0.000000
  0
VERTEX
  8
ETCH_TOP
 10
-136.857600
 20
25.723500
 40
0.000000
 41
0.000000
 42
0.145571
  0
VERTEX
  8
ETCH_TOP
 10
-136.775000
 20
25.698800
 40
0.000000
 41
0.000000
 42
0.000000
  0
VERTEX
  8
ETCH_TOP
 10
-135.525000
 20
25.698800
 40
0.000000
 41
0.000000
 42
0.414020
  0
VERTEX
  8
ETCH_TOP
 10
-135.373800
 20
25.850000
 40
0.000000
 41
0.000000
 42
0.000000
  0
VERTEX
  8
ETCH_TOP
 10
-135.373800
 20
27.400000
 40
0.000000
 41
0.000000
 42
0.156181
  0
VERTEX
  8
ETCH_TOP
 10
-135.402000
 20
27.487800
 40
0.000000
 41
0.000000
 42
-0.320516
  0
VERTEX
  8
ETCH_TOP
 10
-135.402000
 20
27.662200
 40
0.000000
 41
0.000000
 42
0.156181
  0
VERTEX
  8
ETCH_TOP
 10
-135.373800
 20
27.750000
 40
0.000000
 41
0.000000
 42
0.000000
  0
VERTEX
  8
ETCH_TOP
 10
-135.373800
 20
28.350000
 40
0.000000
 41
0.000000
 42
0.386415
  0
VERTEX
  8
ETCH_TOP
 10
-135.510600
 20
28.500500
 40
0.000000
 41
0.000000
 42
-0.343922
  0
VERTEX
  8
ETCH_TOP
 10
-135.577600
 20
28.563900
 40
0.000000
 41
0.000000
 42
0.859287
  0
VERTEX
  8
ETCH_TOP
 10
-136.422300
 20
28.564800
 40
0.000000
 41
0.000000
 42
0.000000
  0
VERTEX
  8
ETCH_TOP
 10
-136.432000
 20
28.501200
 40
0.000000
 41
0.000000
 42
0.000000
  0
VERTEX
  8
ETCH_TOP
 10
-136.775000
 20
28.501200
 40
0.000000
 41
0.000000
 42
0.414020
  0
VERTEX
  8
ETCH_TOP
 10
-136.926200
 20
28.350000
 40
0.000000
 41
0.000000
 42
0.000000
  0
VERTEX
  8
ETCH_TOP
 10
-136.926200
 20
27.750000
 40
0.000000
 41
0.000000
 42
0.156181
  0
VERTEX
  8
ETCH_TOP
 10
-136.898000
 20
27.662200
 40
0.000000
 41
0.000000
 42
-0.320516
  0
VERTEX
  8
ETCH_TOP
 10
-136.898000
 20
27.487800
 40
0.000000
 41
0.000000
 42
0.156181
  0
VERTEX
  8
ETCH_TOP
 10
-136.926200
 20
27.400000
 40
0.000000
 41
0.000000
 42
0.000000
  0
VERTEX
  8
ETCH_TOP
 10
-136.926200
 20
26.914200
 40
0.000000
 41
0.000000
 42
-0.667972
  0
VERTEX
  8
ETCH_TOP
 10
-137.182200
 20
26.808200
 40
0.000000
 41
0.000000
 42
0.000000
  0
VERTEX
  8
ETCH_TOP
 10
-138.077200
 20
27.703100
 40
0.000000
 41
0.000000
 42
0.000000
  0
VERTEX
  8
ETCH_TOP
 10
-138.074400
 20
27.737700
 40
0.000000
 41
0.000000
 42
0.020370
  0
VERTEX
  8
ETCH_TOP
 10
-138.073800
 20
27.750000
 40
0.000000
 41
0.000000
 42
0.000000
  0
VERTEX
  8
ETCH_TOP
 10
-138.073800
 20
28.350000
 40
0.000000
 41
0.000000
 42
0.414020
  0
VERTEX
  8
ETCH_TOP
 10
-138.225000
 20
28.501200
 40
0.000000
 41
0.000000
 42
0.000000
  0
VERTEX
  8
ETCH_TOP
 10
-138.398800
 20
28.501200
 40
0.000000
 41
0.000000
 42
0.000000
  0
VERTEX
  8
ETCH_TOP
 10
-138.398800
 20
28.797800
 40
0.000000
 41
0.000000
 42
0.629093
  0
VERTEX
  8
ETCH_TOP
 10
-138.651900
 20
29.525200
 40
0.000000
 41
0.000000
 42
-0.352791
  0
VERTEX
  8
ETCH_TOP
 10
-138.784300
 20
29.659000
 40
0.000000
 41
0.000000
 42
0.173374
  0
VERTEX
  8
ETCH_TOP
 10
-138.908100
 20
29.918600
 40
0.000000
 41
0.000000
 42
0.000000
  0
VERTEX
  8
ETCH_TOP
 10
-138.908100
 20
30.143800
 40
0.000000
 41
0.000000
 42
0.000000
  0
VERTEX
  8
ETCH_TOP
 10
-138.477200
 20
30.143800
 40
0.000000
 41
0.000000
 42
-0.411153
  0
VERTEX
  8
ETCH_TOP
 10
-138.327200
 20
29.995400
 40
0.000000
 41
0.000000
 42
1.065066
  0
VERTEX
  8
ETCH_TOP
 10
-137.476800
 20
30.058500
 40
0.000000
 41
0.000000
 42
0.000000
  0
VERTEX
  8
ETCH_TOP
 10
-137.477500
 20
30.063600
 40
0.000000
 41
0.000000
 42
0.000000
  0
VERTEX
  8
ETCH_TOP
 10
-137.477500
 20
30.143800
 40
0.000000
 41
0.000000
 42
0.000000
  0
VERTEX
  8
ETCH_TOP
 10
-137.325000
 20
30.143800
 40
0.000000
 41
0.000000
 42
0.414214
  0
VERTEX
  8
ETCH_TOP
 10
-137.173800
 20
30.295000
 40
0.000000
 41
0.000000
 42
0.000000
  0
VERTEX
  8
ETCH_TOP
 10
-137.173800
 20
30.895000
 40
0.000000
 41
0.000000
 42
0.414214
  0
VERTEX
  8
ETCH_TOP
 10
-137.325000
 20
31.046200
 40
0.000000
 41
0.000000
 42
0.000000
  0
VERTEX
  8
ETCH_TOP
 10
-138.908100
 20
31.046200
 40
0.000000
 41
0.000000
 42
0.000000
  0
VERTEX
  8
ETCH_TOP
 10
-138.908100
 20
31.413800
 40
0.000000
 41
0.000000
 42
0.000000
  0
VERTEX
  8
ETCH_TOP
 10
-137.325000
 20
31.413800
 40
0.000000
 41
0.000000
 42
0.414214
  0
VERTEX
  8
ETCH_TOP
 10
-137.173800
 20
31.565000
 40
0.000000
 41
0.000000
 42
0.000000
  0
VERTEX
  8
ETCH_TOP
 10
-137.173800
 20
31.769200
 40
0.000000
 41
0.000000
 42
0.000000
  0
VERTEX
  8
ETCH_TOP
 10
-137.113900
 20
31.781600
 40
0.000000
 41
0.000000
 42
0.098510
  0
VERTEX
  8
ETCH_TOP
 10
-136.960300
 20
31.846400
 40
0.000000
 41
0.000000
 42
-0.601443
  0
VERTEX
  8
ETCH_TOP
 10
-136.726200
 20
31.722200
 40
0.000000
 41
0.000000
 42
0.000000
  0
VERTEX
  8
ETCH_TOP
 10
-136.726200
 20
31.000000
 40
0.000000
 41
0.000000
 42
0.414214
  0
VERTEX
  8
ETCH_TOP
 10
-136.575000
 20
30.848800
 40
0.000000
 41
0.000000
 42
0.000000
  0
VERTEX
  8
ETCH_TOP
 10
-135.868600
 20
30.848800
 40
0.000000
 41
0.000000
 42
-0.668356
  0
VERTEX
  8
ETCH_TOP
 10
-135.762500
 20
30.592700
 40
0.000000
 41
0.000000
 42
0.000000
  0
VERTEX
  8
ETCH_TOP
 10
-135.804100
 20
30.551200
 40
0.000000
 41
0.000000
 42
0.000000
  0
VERTEX
  8
ETCH_TOP
 10
-136.575000
 20
30.551200
 40
0.000000
 41
0.000000
 42
0.414214
  0
VERTEX
  8
ETCH_TOP
 10
-136.726200
 20
30.400000
 40
0.000000
 41
0.000000
 42
0.000000
  0
VERTEX
  8
ETCH_TOP
 10
-136.726200
 20
29.400000
 40
0.000000
 41
0.000000
 42
0.414214
  0
VERTEX
  8
ETCH_TOP
 10
-136.575000
 20
29.248800
 40
0.000000
 41
0.000000
 42
0.000000
  0
VERTEX
  8
ETCH_TOP
 10
-135.625000
 20
29.248800
 40
0.000000
 41
0.000000
 42
0.414214
  0
VERTEX
  8
ETCH_TOP
 10
-135.473800
 20
29.400000
 40
0.000000
 41
0.000000
 42
0.000000
  0
VERTEX
  8
ETCH_TOP
 10
-135.473800
 20
30.170900
 40
0.000000
 41
0.000000
 42
0.000000
  0
VERTEX
  8
ETCH_TOP
 10
-135.382300
 20
30.262500
 40
0.000000
 41
0.000000
 42
-0.668356
  0
VERTEX
  8
ETCH_TOP
 10
-135.126200
 20
30.156400
 40
0.000000
 41
0.000000
 42
0.000000
  0
VERTEX
  8
ETCH_TOP
 10
-135.126200
 20
29.400000
 40
0.000000
 41
0.000000
 42
0.414214
  0
VERTEX
  8
ETCH_TOP
 10
-134.975000
 20
29.248800
 40
0.000000
 41
0.000000
 42
0.000000
  0
VERTEX
  8
ETCH_TOP
 10
-134.801200
 20
29.248800
 40
0.000000
 41
0.000000
 42
0.000000
  0
VERTEX
  8
ETCH_TOP
 10
-134.801200
 20
28.970400
 40
0.000000
 41
0.000000
 42
0.000000
  0
VERTEX
  8
ETCH_TOP
 10
-134.710000
 20
28.879200
 40
0.000000
 41
0.000000
 42
-0.667885
  0
VERTEX
  8
ETCH_TOP
 10
-134.763000
 20
28.751200
 40
0.000000
 41
0.000000
 42
0.000000
  0
VERTEX
  8
ETCH_TOP
 10
-134.775000
 20
28.751200
 40
0.000000
 41
0.000000
 42
0.414214
  0
VERTEX
  8
ETCH_TOP
 10
-134.926200
 20
28.600000
 40
0.000000
 41
0.000000
 42
0.000000
  0
VERTEX
  8
ETCH_TOP
 10
-134.926200
 20
27.600000
 40
0.000000
 41
0.000000
 42
0.414214
  0
VERTEX
  8
ETCH_TOP
 10
-134.775000
 20
27.448800
 40
0.000000
 41
0.000000
 42
0.000000
  0
VERTEX
  8
ETCH_TOP
 10
-133.825000
 20
27.448800
 40
0.000000
 41
0.000000
 42
0.414214
  0
VERTEX
  8
ETCH_TOP
 10
-133.673800
 20
27.600000
 40
0.000000
 41
0.000000
 42
0.000000
  0
VERTEX
  8
ETCH_TOP
 10
-133.673800
 20
28.497800
 40
0.000000
 41
0.000000
 42
-0.413449
  0
VERTEX
  8
ETCH_TOP
 10
-133.599000
 20
28.572800
 40
0.000000
 41
0.000000
 42
0.053486
  0
VERTEX
  8
ETCH_TOP
 10
-133.508400
 20
28.582700
 40
0.000000
 41
0.000000
 42
-0.479167
  0
VERTEX
  8
ETCH_TOP
 10
-133.326200
 20
28.436200
 40
0.000000
 41
0.000000
 42
0.000000
  0
VERTEX
  8
ETCH_TOP
 10
-133.326200
 20
27.600000
 40
0.000000
 41
0.000000
 42
0.231273
  0
VERTEX
  8
ETCH_TOP
 10
-133.267900
 20
27.480700
 40
0.000000
 41
0.000000
 42
-0.450964
  0
VERTEX
  8
ETCH_TOP
 10
-133.254000
 20
27.256300
 40
0.000000
 41
0.000000
 42
0.000000
  0
VERTEX
  8
ETCH_TOP
 10
-133.677200
 20
26.833100
 40
0.000000
 41
0.000000
 42
0.000000
  0
VERTEX
  8
ETCH_TOP
 10
-133.677200
 20
26.651200
 40
0.000000
 41
0.000000
 42
0.000000
  0
VERTEX
  8
ETCH_TOP
 10
-134.675000
 20
26.651200
 40
0.000000
 41
0.000000
 42
0.414214
  0
VERTEX
  8
ETCH_TOP
 10
-134.826200
 20
26.500000
 40
0.000000
 41
0.000000
 42
0.000000
  0
VERTEX
  8
ETCH_TOP
 10
-134.826200
 20
25.500000
 40
0.000000
 41
0.000000
 42
0.040749
  0
VERTEX
  8
ETCH_TOP
 10
-134.824200
 20
25.475500
 40
0.000000
 41
0.000000
 42
-0.462691
  0
VERTEX
  8
ETCH_TOP
 10
-134.972200
 20
25.301200
 40
0.000000
 41
0.000000
 42
0.000000
  0
SEQEND
  0
POLYLINE
  8
ETCH_TOP
 66
1
 70
0
 40
0.000000
 41
0.000000
 39
0.000000
  0
VERTEX
  8
ETCH_TOP
 10
-128.500000
 20
26.896000
 40
0.300000
 41
0.300000
 42
0.000000
  0
VERTEX
  8
ETCH_TOP
 10
-128.500000
 20
27.000000
 40
0.300000
 41
0.300000
 42
0.000000
  0
VERTEX
  8
ETCH_TOP
 10
-128.400000
 20
27.100000
 40
0.300000
 41
0.300000
 42
0.000000
  0
SEQEND
  0
POLYLINE
  8
ETCH_TOP
 66
1
 70
0
 40
0.000000
 41
0.000000
 39
0.000000
  0
VERTEX
  8
ETCH_TOP
 10
-134.300000
 20
27.384300
 40
0.300000
 41
0.300000
 42
0.000000
  0
VERTEX
  8
ETCH_TOP
 10
-134.300000
 20
28.100000
 40
0.300000
 41
0.300000
 42
0.000000
  0
SEQEND
  0
POLYLINE
  8
ETCH_TOP
 66
1
 70
0
 40
0.000000
 41
0.000000
 39
0.000000
  0
VERTEX
  8
ETCH_TOP
 10
-137.500000
 20
27.720000
 40
0.300000
 41
0.300000
 42
0.000000
  0
VERTEX
  8
ETCH_TOP
 10
-137.500000
 20
28.549900
 40
0.300000
 41
0.300000
 42
0.000000
  0
VERTEX
  8
ETCH_TOP
 10
-137.024000
 20
29.025900
 40
0.300000
 41
0.300000
 42
0.000000
  0
VERTEX
  8
ETCH_TOP
 10
-137.024000
 20
30.551000
 40
0.300000
 41
0.300000
 42
0.000000
  0
SEQEND
  0
POLYLINE
  8
ETCH_TOP
 66
1
 70
0
 40
0.000000
 41
0.000000
 39
0.000000
  0
VERTEX
  8
ETCH_TOP
 10
-136.150000
 20
27.100000
 40
0.300000
 41
0.300000
 42
0.000000
  0
VERTEX
  8
ETCH_TOP
 10
-135.300000
 20
27.100000
 40
0.300000
 41
0.300000
 42
0.000000
  0
SEQEND
  0
POLYLINE
  8
ETCH_TOP
 66
1
 70
0
 40
0.000000
 41
0.000000
 39
0.000000
  0
VERTEX
  8
ETCH_TOP
 10
-142.300000
 20
25.700000
 40
0.300000
 41
0.300000
 42
0.000000
  0
VERTEX
  8
ETCH_TOP
 10
-142.300000
 20
25.900000
 40
0.300000
 41
0.300000
 42
0.000000
  0
VERTEX
  8
ETCH_TOP
 10
-143.079900
 20
26.679900
 40
0.300000
 41
0.300000
 42
0.000000
  0
SEQEND
  0
POLYLINE
  8
ETCH_TOP
 66
1
 70
0
 40
0.000000
 41
0.000000
 39
0.000000
  0
VERTEX
  8
ETCH_TOP
 10
-128.500000
 20
26.000000
 40
0.300000
 41
0.300000
 42
0.000000
  0
VERTEX
  8
ETCH_TOP
 10
-128.500000
 20
26.896000
 40
0.300000
 41
0.300000
 42
0.000000
  0
SEQEND
  0
POLYLINE
  8
ETCH_TOP
 66
1
 70
0
 40
0.000000
 41
0.000000
 39
0.000000
  0
VERTEX
  8
ETCH_TOP
 10
-137.500000
 20
27.720000
 40
0.300000
 41
0.300000
 42
0.000000
  0
VERTEX
  8
ETCH_TOP
 10
-136.880000
 20
27.100000
 40
0.300000
 41
0.300000
 42
0.000000
  0
VERTEX
  8
ETCH_TOP
 10
-136.150000
 20
27.100000
 40
0.300000
 41
0.300000
 42
0.000000
  0
SEQEND
  0
POLYLINE
  8
ETCH_TOP
 66
1
 70
0
 40
0.000000
 41
0.000000
 39
0.000000
  0
VERTEX
  8
ETCH_TOP
 10
-126.200000
 20
28.327000
 40
0.200000
 41
0.200000
 42
0.000000
  0
VERTEX
  8
ETCH_TOP
 10
-125.619200
 20
28.327000
 40
0.200000
 41
0.200000
 42
0.000000
  0
VERTEX
  8
ETCH_TOP
 10
-125.600000
 20
28.307800
 40
0.200000
 41
0.200000
 42
0.000000
  0
VERTEX
  8
ETCH_TOP
 10
-125.600000
 20
26.870000
 40
0.200000
 41
0.200000
 42
0.000000
  0
VERTEX
  8
ETCH_TOP
 10
-125.836000
 20
26.634000
 40
0.200000
 41
0.200000
 42
0.000000
  0
VERTEX
  8
ETCH_TOP
 10
-127.934000
 20
26.634000
 40
0.200000
 41
0.200000
 42
0.000000
  0
VERTEX
  8
ETCH_TOP
 10
-128.400000
 20
27.100000
 40
0.200000
 41
0.200000
 42
0.000000
  0
SEQEND
  0
POLYLINE
  8
ETCH_TOP
 66
1
 70
0
 40
0.000000
 41
0.000000
 39
0.000000
  0
VERTEX
  8
ETCH_TOP
 10
-128.500000
 20
26.896000
 40
0.300000
 41
0.300000
 42
0.000000
  0
VERTEX
  8
ETCH_TOP
 10
-131.304000
 20
26.896000
 40
0.300000
 41
0.300000
 42
0.000000
  0
VERTEX
  8
ETCH_TOP
 10
-131.600000
 20
26.600000
 40
0.300000
 41
0.300000
 42
0.000000
  0
SEQEND
  0
POLYLINE
  8
ETCH_TOP
 66
1
 70
0
 40
0.000000
 41
0.000000
 39
0.000000
  0
VERTEX
  8
ETCH_TOP
 10
-137.700000
 20
27.720000
 40
0.300000
 41
0.300000
 42
0.000000
  0
VERTEX
  8
ETCH_TOP
 10
-137.500000
 20
27.720000
 40
0.300000
 41
0.300000
 42
0.000000
  0
SEQEND
  0
POLYLINE
  8
ETCH_TOP
 66
1
 70
0
 40
0.000000
 41
0.000000
 39
0.000000
  0
VERTEX
  8
ETCH_TOP
 10
-143.500000
 20
30.595000
 40
0.300000
 41
0.300000
 42
0.000000
  0
VERTEX
  8
ETCH_TOP
 10
-143.691700
 20
30.595000
 40
0.300000
 41
0.300000
 42
0.000000
  0
VERTEX
  8
ETCH_TOP
 10
-144.400000
 20
29.886700
 40
0.300000
 41
0.300000
 42
0.000000
  0
SEQEND
  0
CIRCLE
  8
ETCH_TOP
 10
-144.300000
 20
26.000000
 40
0.276000
  0
CIRCLE
  8
ETCH_TOP
 10
-144.400000
 20
29.886700
 40
0.276000
  0
CIRCLE
  8
ETCH_TOP
 10
-137.700000
 20
27.720000
 40
0.276000
  0
POLYLINE
  8
ETCH_TOP
 66
1
 70
0
 40
0.000000
 41
0.000000
 39
0.000000
  0
VERTEX
  8
ETCH_TOP
 10
-134.300000
 20
25.800000
 40
0.300000
 41
0.300000
 42
0.000000
  0
VERTEX
  8
ETCH_TOP
 10
-134.300000
 20
27.384300
 40
0.300000
 41
0.300000
 42
0.000000
  0
SEQEND
  0
CIRCLE
  8
ETCH_TOP
 10
-134.300000
 20
25.800000
 40
0.276000
  0
CIRCLE
  8
ETCH_TOP
 10
-131.600000
 20
26.600000
 40
0.276000
  0
CIRCLE
  8
ETCH_TOP
 10
-126.200000
 20
28.327000
 40
0.276000
  0
CIRCLE
  8
ETCH_TOP
 10
-128.400000
 20
27.100000
 40
0.276000
  0
CIRCLE
  8
ETCH_TOP
 10
-129.600000
 20
33.300000
 40
0.276000
  0
POLYLINE
  8
ETCH_TOP
 66
1
 70
0
 40
0.000000
 41
0.000000
 39
0.000000
  0
VERTEX
  8
ETCH_TOP
 10
-129.975000
 20
34.550000
 40
0.300000
 41
0.300000
 42
0.000000
  0
VERTEX
  8
ETCH_TOP
 10
-129.975000
 20
33.675000
 40
0.300000
 41
0.300000
 42
0.000000
  0
VERTEX
  8
ETCH_TOP
 10
-129.600000
 20
33.300000
 40
0.300000
 41
0.300000
 42
0.000000
  0
SEQEND
  0
POLYLINE
  8
ETCH_TOP
 66
1
 70
1
 40
0.000000
 41
0.000000
 39
0.000000
  0
VERTEX
  8
ETCH_TOP
 10
-135.525050
 20
26.449950
 40
0.000000
 41
0.000000
 42
0.000000
  0
VERTEX
  8
ETCH_TOP
 10
-135.525050
 20
25.850050
 40
0.000000
 41
0.000000
 42
0.000000
  0
VERTEX
  8
ETCH_TOP
 10
-136.774950
 20
25.850050
 40
0.000000
 41
0.000000
 42
0.000000
  0
VERTEX
  8
ETCH_TOP
 10
-136.774950
 20
26.449950
 40
0.000000
 41
0.000000
 42
0.000000
  0
SEQEND
  0
POLYLINE
  8
ETCH_TOP
 66
1
 70
1
 40
0.000000
 41
0.000000
 39
0.000000
  0
VERTEX
  8
ETCH_TOP
 10
-135.525050
 20
27.399950
 40
0.000000
 41
0.000000
 42
0.000000
  0
VERTEX
  8
ETCH_TOP
 10
-135.525050
 20
26.800050
 40
0.000000
 41
0.000000
 42
0.000000
  0
VERTEX
  8
ETCH_TOP
 10
-136.774950
 20
26.800050
 40
0.000000
 41
0.000000
 42
0.000000
  0
VERTEX
  8
ETCH_TOP
 10
-136.774950
 20
27.399950
 40
0.000000
 41
0.000000
 42
0.000000
  0
SEQEND
  0
POLYLINE
  8
ETCH_TOP
 66
1
 70
1
 40
0.000000
 41
0.000000
 39
0.000000
  0
VERTEX
  8
ETCH_TOP
 10
-135.525050
 20
28.349950
 40
0.000000
 41
0.000000
 42
0.000000
  0
VERTEX
  8
ETCH_TOP
 10
-135.525050
 20
27.750050
 40
0.000000
 41
0.000000
 42
0.000000
  0
VERTEX
  8
ETCH_TOP
 10
-136.774950
 20
27.750050
 40
0.000000
 41
0.000000
 42
0.000000
  0
VERTEX
  8
ETCH_TOP
 10
-136.774950
 20
28.349950
 40
0.000000
 41
0.000000
 42
0.000000
  0
SEQEND
  0
POLYLINE
  8
ETCH_TOP
 66
1
 70
1
 40
0.000000
 41
0.000000
 39
0.000000
  0
VERTEX
  8
ETCH_TOP
 10
-138.225050
 20
28.349950
 40
0.000000
 41
0.000000
 42
0.000000
  0
VERTEX
  8
ETCH_TOP
 10
-138.225050
 20
27.750050
 40
0.000000
 41
0.000000
 42
0.000000
  0
VERTEX
  8
ETCH_TOP
 10
-139.474950
 20
27.750050
 40
0.000000
 41
0.000000
 42
0.000000
  0
VERTEX
  8
ETCH_TOP
 10
-139.474950
 20
28.349950
 40
0.000000
 41
0.000000
 42
0.000000
  0
SEQEND
  0
POLYLINE
  8
ETCH_TOP
 66
1
 70
1
 40
0.000000
 41
0.000000
 39
0.000000
  0
VERTEX
  8
ETCH_TOP
 10
-138.225050
 20
26.449950
 40
0.000000
 41
0.000000
 42
0.000000
  0
VERTEX
  8
ETCH_TOP
 10
-138.225050
 20
25.850050
 40
0.000000
 41
0.000000
 42
0.000000
  0
VERTEX
  8
ETCH_TOP
 10
-139.474950
 20
25.850050
 40
0.000000
 41
0.000000
 42
0.000000
  0
VERTEX
  8
ETCH_TOP
 10
-139.474950
 20
26.449950
 40
0.000000
 41
0.000000
 42
0.000000
  0
SEQEND
  0
POLYLINE
  8
ETCH_TOP
 66
1
 70
1
 40
0.000000
 41
0.000000
 39
0.000000
  0
VERTEX
  8
ETCH_TOP
 10
-121.003000
 20
26.447500
 40
0.000000
 41
0.000000
 42
0.000000
  0
VERTEX
  8
ETCH_TOP
 10
-123.797000
 20
26.447500
 40
0.000000
 41
0.000000
 42
0.000000
  0
VERTEX
  8
ETCH_TOP
 10
-123.797000
 20
28.352500
 40
0.000000
 41
0.000000
 42
0.000000
  0
VERTEX
  8
ETCH_TOP
 10
-121.003000
 20
28.352500
 40
0.000000
 41
0.000000
 42
0.000000
  0
SEQEND
  0
POLYLINE
  8
ETCH_TOP
 66
1
 70
1
 40
0.000000
 41
0.000000
 39
0.000000
  0
VERTEX
  8
ETCH_TOP
 10
-122.844500
 20
30.892500
 40
0.000000
 41
0.000000
 42
0.000000
  0
VERTEX
  8
ETCH_TOP
 10
-121.955500
 20
30.892500
 40
0.000000
 41
0.000000
 42
-1.000000
  0
VERTEX
  8
ETCH_TOP
 10
-121.955500
 20
28.987500
 40
0.000000
 41
0.000000
 42
0.000000
  0
VERTEX
  8
ETCH_TOP
 10
-122.844500
 20
28.987500
 40
0.000000
 41
0.000000
 42
-1.000000
  0
SEQEND
  0
POLYLINE
  8
ETCH_TOP
 66
1
 70
1
 40
0.000000
 41
0.000000
 39
0.000000
  0
VERTEX
  8
ETCH_TOP
 10
-122.844500
 20
33.432500
 40
0.000000
 41
0.000000
 42
0.000000
  0
VERTEX
  8
ETCH_TOP
 10
-121.955500
 20
33.432500
 40
0.000000
 41
0.000000
 42
-1.000000
  0
VERTEX
  8
ETCH_TOP
 10
-121.955500
 20
31.527500
 40
0.000000
 41
0.000000
 42
0.000000
  0
VERTEX
  8
ETCH_TOP
 10
-122.844500
 20
31.527500
 40
0.000000
 41
0.000000
 42
-1.000000
  0
SEQEND
  0
POLYLINE
  8
ETCH_TOP
 66
1
 70
1
 40
0.000000
 41
0.000000
 39
0.000000
  0
VERTEX
  8
ETCH_TOP
 10
-122.844500
 20
35.972500
 40
0.000000
 41
0.000000
 42
0.000000
  0
VERTEX
  8
ETCH_TOP
 10
-121.955500
 20
35.972500
 40
0.000000
 41
0.000000
 42
-1.000000
  0
VERTEX
  8
ETCH_TOP
 10
-121.955500
 20
34.067500
 40
0.000000
 41
0.000000
 42
0.000000
  0
VERTEX
  8
ETCH_TOP
 10
-122.844500
 20
34.067500
 40
0.000000
 41
0.000000
 42
-1.000000
  0
SEQEND
  0
POLYLINE
  8
ETCH_TOP
 66
1
 70
1
 40
0.000000
 41
0.000000
 39
0.000000
  0
VERTEX
  8
ETCH_TOP
 10
-148.700000
 20
33.400000
 40
0.000000
 41
0.000000
 42
0.000000
  0
VERTEX
  8
ETCH_TOP
 10
-147.100000
 20
33.400000
 40
0.000000
 41
0.000000
 42
0.000000
  0
VERTEX
  8
ETCH_TOP
 10
-147.100000
 20
31.800000
 40
0.000000
 41
0.000000
 42
0.000000
  0
VERTEX
  8
ETCH_TOP
 10
-148.700000
 20
31.800000
 40
0.000000
 41
0.000000
 42
0.000000
  0
SEQEND
  0
CIRCLE
  8
ETCH_TOP
 10
-147.900000
 20
30.060000
 40
0.800000
  0
POLYLINE
  8
ETCH_TOP
 66
1
 70
1
 40
0.000000
 41
0.000000
 39
0.000000
  0
VERTEX
  8
ETCH_TOP
 10
-141.825000
 20
25.025000
 40
0.000000
 41
0.000000
 42
0.000000
  0
VERTEX
  8
ETCH_TOP
 10
-142.775000
 20
25.025000
 40
0.000000
 41
0.000000
 42
0.000000
  0
VERTEX
  8
ETCH_TOP
 10
-142.775000
 20
26.375000
 40
0.000000
 41
0.000000
 42
0.000000
  0
VERTEX
  8
ETCH_TOP
 10
-141.825000
 20
26.375000
 40
0.000000
 41
0.000000
 42
0.000000
  0
SEQEND
  0
POLYLINE
  8
ETCH_TOP
 66
1
 70
1
 40
0.000000
 41
0.000000
 39
0.000000
  0
VERTEX
  8
ETCH_TOP
 10
-140.225000
 20
25.025000
 40
0.000000
 41
0.000000
 42
0.000000
  0
VERTEX
  8
ETCH_TOP
 10
-141.175000
 20
25.025000
 40
0.000000
 41
0.000000
 42
0.000000
  0
VERTEX
  8
ETCH_TOP
 10
-141.175000
 20
26.375000
 40
0.000000
 41
0.000000
 42
0.000000
  0
VERTEX
  8
ETCH_TOP
 10
-140.225000
 20
26.375000
 40
0.000000
 41
0.000000
 42
0.000000
  0
SEQEND
  0
POLYLINE
  8
ETCH_TOP
 66
1
 70
1
 40
0.000000
 41
0.000000
 39
0.000000
  0
VERTEX
  8
ETCH_TOP
 10
-131.050000
 20
30.775000
 40
0.000000
 41
0.000000
 42
0.000000
  0
VERTEX
  8
ETCH_TOP
 10
-131.050000
 20
29.725000
 40
0.000000
 41
0.000000
 42
-1.000000
  0
VERTEX
  8
ETCH_TOP
 10
-131.500000
 20
29.725000
 40
0.000000
 41
0.000000
 42
0.000000
  0
VERTEX
  8
ETCH_TOP
 10
-131.500000
 20
30.775000
 40
0.000000
 41
0.000000
 42
-1.000000
  0
SEQEND
  0
POLYLINE
  8
ETCH_TOP
 66
1
 70
1
 40
0.000000
 41
0.000000
 39
0.000000
  0
VERTEX
  8
ETCH_TOP
 10
-130.400000
 20
30.775000
 40
0.000000
 41
0.000000
 42
0.000000
  0
VERTEX
  8
ETCH_TOP
 10
-130.400000
 20
29.725000
 40
0.000000
 41
0.000000
 42
-1.000000
  0
VERTEX
  8
ETCH_TOP
 10
-130.850000
 20
29.725000
 40
0.000000
 41
0.000000
 42
0.000000
  0
VERTEX
  8
ETCH_TOP
 10
-130.850000
 20
30.775000
 40
0.000000
 41
0.000000
 42
-1.000000
  0
SEQEND
  0
POLYLINE
  8
ETCH_TOP
 66
1
 70
1
 40
0.000000
 41
0.000000
 39
0.000000
  0
VERTEX
  8
ETCH_TOP
 10
-129.750000
 20
30.775000
 40
0.000000
 41
0.000000
 42
0.000000
  0
VERTEX
  8
ETCH_TOP
 10
-129.750000
 20
29.725000
 40
0.000000
 41
0.000000
 42
-1.000000
  0
VERTEX
  8
ETCH_TOP
 10
-130.200000
 20
29.725000
 40
0.000000
 41
0.000000
 42
0.000000
  0
VERTEX
  8
ETCH_TOP
 10
-130.200000
 20
30.775000
 40
0.000000
 41
0.000000
 42
-1.000000
  0
SEQEND
  0
POLYLINE
  8
ETCH_TOP
 66
1
 70
1
 40
0.000000
 41
0.000000
 39
0.000000
  0
VERTEX
  8
ETCH_TOP
 10
-129.100000
 20
30.775000
 40
0.000000
 41
0.000000
 42
0.000000
  0
VERTEX
  8
ETCH_TOP
 10
-129.100000
 20
29.725000
 40
0.000000
 41
0.000000
 42
-1.000000
  0
VERTEX
  8
ETCH_TOP
 10
-129.550000
 20
29.725000
 40
0.000000
 41
0.000000
 42
0.000000
  0
VERTEX
  8
ETCH_TOP
 10
-129.550000
 20
30.775000
 40
0.000000
 41
0.000000
 42
-1.000000
  0
SEQEND
  0
POLYLINE
  8
ETCH_TOP
 66
1
 70
1
 40
0.000000
 41
0.000000
 39
0.000000
  0
VERTEX
  8
ETCH_TOP
 10
-129.100000
 20
35.075000
 40
0.000000
 41
0.000000
 42
0.000000
  0
VERTEX
  8
ETCH_TOP
 10
-129.100000
 20
34.025000
 40
0.000000
 41
0.000000
 42
-1.000000
  0
VERTEX
  8
ETCH_TOP
 10
-129.550000
 20
34.025000
 40
0.000000
 41
0.000000
 42
0.000000
  0
VERTEX
  8
ETCH_TOP
 10
-129.550000
 20
35.075000
 40
0.000000
 41
0.000000
 42
-1.000000
  0
SEQEND
  0
POLYLINE
  8
ETCH_TOP
 66
1
 70
1
 40
0.000000
 41
0.000000
 39
0.000000
  0
VERTEX
  8
ETCH_TOP
 10
-129.750000
 20
35.075000
 40
0.000000
 41
0.000000
 42
0.000000
  0
VERTEX
  8
ETCH_TOP
 10
-129.750000
 20
34.025000
 40
0.000000
 41
0.000000
 42
-1.000000
  0
VERTEX
  8
ETCH_TOP
 10
-130.200000
 20
34.025000
 40
0.000000
 41
0.000000
 42
0.000000
  0
VERTEX
  8
ETCH_TOP
 10
-130.200000
 20
35.075000
 40
0.000000
 41
0.000000
 42
-1.000000
  0
SEQEND
  0
POLYLINE
  8
ETCH_TOP
 66
1
 70
1
 40
0.000000
 41
0.000000
 39
0.000000
  0
VERTEX
  8
ETCH_TOP
 10
-130.400000
 20
35.075000
 40
0.000000
 41
0.000000
 42
0.000000
  0
VERTEX
  8
ETCH_TOP
 10
-130.400000
 20
34.025000
 40
0.000000
 41
0.000000
 42
-1.000000
  0
VERTEX
  8
ETCH_TOP
 10
-130.850000
 20
34.025000
 40
0.000000
 41
0.000000
 42
0.000000
  0
VERTEX
  8
ETCH_TOP
 10
-130.850000
 20
35.075000
 40
0.000000
 41
0.000000
 42
-1.000000
  0
SEQEND
  0
POLYLINE
  8
ETCH_TOP
 66
1
 70
1
 40
0.000000
 41
0.000000
 39
0.000000
  0
VERTEX
  8
ETCH_TOP
 10
-131.050000
 20
35.075000
 40
0.000000
 41
0.000000
 42
0.000000
  0
VERTEX
  8
ETCH_TOP
 10
-131.050000
 20
34.025000
 40
0.000000
 41
0.000000
 42
-1.000000
  0
VERTEX
  8
ETCH_TOP
 10
-131.500000
 20
34.025000
 40
0.000000
 41
0.000000
 42
0.000000
  0
VERTEX
  8
ETCH_TOP
 10
-131.500000
 20
35.075000
 40
0.000000
 41
0.000000
 42
-1.000000
  0
SEQEND
  0
POLYLINE
  8
ETCH_TOP
 66
1
 70
1
 40
0.000000
 41
0.000000
 39
0.000000
  0
VERTEX
  8
ETCH_TOP
 10
-125.925000
 20
26.900000
 40
0.000000
 41
0.000000
 42
0.000000
  0
VERTEX
  8
ETCH_TOP
 10
-126.875000
 20
26.900000
 40
0.000000
 41
0.000000
 42
0.000000
  0
VERTEX
  8
ETCH_TOP
 10
-126.875000
 20
27.900000
 40
0.000000
 41
0.000000
 42
0.000000
  0
VERTEX
  8
ETCH_TOP
 10
-125.925000
 20
27.900000
 40
0.000000
 41
0.000000
 42
0.000000
  0
SEQEND
  0
POLYLINE
  8
ETCH_TOP
 66
1
 70
1
 40
0.000000
 41
0.000000
 39
0.000000
  0
VERTEX
  8
ETCH_TOP
 10
-124.325000
 20
26.900000
 40
0.000000
 41
0.000000
 42
0.000000
  0
VERTEX
  8
ETCH_TOP
 10
-125.275000
 20
26.900000
 40
0.000000
 41
0.000000
 42
0.000000
  0
VERTEX
  8
ETCH_TOP
 10
-125.275000
 20
27.900000
 40
0.000000
 41
0.000000
 42
0.000000
  0
VERTEX
  8
ETCH_TOP
 10
-124.325000
 20
27.900000
 40
0.000000
 41
0.000000
 42
0.000000
  0
SEQEND
  0
POLYLINE
  8
ETCH_TOP
 66
1
 70
1
 40
0.000000
 41
0.000000
 39
0.000000
  0
VERTEX
  8
ETCH_TOP
 10
-133.725000
 20
25.500000
 40
0.000000
 41
0.000000
 42
0.000000
  0
VERTEX
  8
ETCH_TOP
 10
-134.675000
 20
25.500000
 40
0.000000
 41
0.000000
 42
0.000000
  0
VERTEX
  8
ETCH_TOP
 10
-134.675000
 20
26.500000
 40
0.000000
 41
0.000000
 42
0.000000
  0
VERTEX
  8
ETCH_TOP
 10
-133.725000
 20
26.500000
 40
0.000000
 41
0.000000
 42
0.000000
  0
SEQEND
  0
POLYLINE
  8
ETCH_TOP
 66
1
 70
1
 40
0.000000
 41
0.000000
 39
0.000000
  0
VERTEX
  8
ETCH_TOP
 10
-132.125000
 20
25.500000
 40
0.000000
 41
0.000000
 42
0.000000
  0
VERTEX
  8
ETCH_TOP
 10
-133.075000
 20
25.500000
 40
0.000000
 41
0.000000
 42
0.000000
  0
VERTEX
  8
ETCH_TOP
 10
-133.075000
 20
26.500000
 40
0.000000
 41
0.000000
 42
0.000000
  0
VERTEX
  8
ETCH_TOP
 10
-132.125000
 20
26.500000
 40
0.000000
 41
0.000000
 42
0.000000
  0
SEQEND
  0
POLYLINE
  8
ETCH_TOP
 66
1
 70
1
 40
0.000000
 41
0.000000
 39
0.000000
  0
VERTEX
  8
ETCH_TOP
 10
-133.825000
 20
27.600000
 40
0.000000
 41
0.000000
 42
0.000000
  0
VERTEX
  8
ETCH_TOP
 10
-134.775000
 20
27.600000
 40
0.000000
 41
0.000000
 42
0.000000
  0
VERTEX
  8
ETCH_TOP
 10
-134.775000
 20
28.600000
 40
0.000000
 41
0.000000
 42
0.000000
  0
VERTEX
  8
ETCH_TOP
 10
-133.825000
 20
28.600000
 40
0.000000
 41
0.000000
 42
0.000000
  0
SEQEND
  0
POLYLINE
  8
ETCH_TOP
 66
1
 70
1
 40
0.000000
 41
0.000000
 39
0.000000
  0
VERTEX
  8
ETCH_TOP
 10
-132.225000
 20
27.600000
 40
0.000000
 41
0.000000
 42
0.000000
  0
VERTEX
  8
ETCH_TOP
 10
-133.175000
 20
27.600000
 40
0.000000
 41
0.000000
 42
0.000000
  0
VERTEX
  8
ETCH_TOP
 10
-133.175000
 20
28.600000
 40
0.000000
 41
0.000000
 42
0.000000
  0
VERTEX
  8
ETCH_TOP
 10
-132.225000
 20
28.600000
 40
0.000000
 41
0.000000
 42
0.000000
  0
SEQEND
  0
POLYLINE
  8
ETCH_TOP
 66
1
 70
1
 40
0.000000
 41
0.000000
 39
0.000000
  0
VERTEX
  8
ETCH_TOP
 10
-128.975000
 20
26.500000
 40
0.000000
 41
0.000000
 42
0.000000
  0
VERTEX
  8
ETCH_TOP
 10
-128.025000
 20
26.500000
 40
0.000000
 41
0.000000
 42
0.000000
  0
VERTEX
  8
ETCH_TOP
 10
-128.025000
 20
25.500000
 40
0.000000
 41
0.000000
 42
0.000000
  0
VERTEX
  8
ETCH_TOP
 10
-128.975000
 20
25.500000
 40
0.000000
 41
0.000000
 42
0.000000
  0
SEQEND
  0
POLYLINE
  8
ETCH_TOP
 66
1
 70
1
 40
0.000000
 41
0.000000
 39
0.000000
  0
VERTEX
  8
ETCH_TOP
 10
-130.575000
 20
26.500000
 40
0.000000
 41
0.000000
 42
0.000000
  0
VERTEX
  8
ETCH_TOP
 10
-129.625000
 20
26.500000
 40
0.000000
 41
0.000000
 42
0.000000
  0
VERTEX
  8
ETCH_TOP
 10
-129.625000
 20
25.500000
 40
0.000000
 41
0.000000
 42
0.000000
  0
VERTEX
  8
ETCH_TOP
 10
-130.575000
 20
25.500000
 40
0.000000
 41
0.000000
 42
0.000000
  0
SEQEND
  0
POLYLINE
  8
ETCH_TOP
 66
1
 70
1
 40
0.000000
 41
0.000000
 39
0.000000
  0
VERTEX
  8
ETCH_TOP
 10
-127.125000
 20
29.500000
 40
0.000000
 41
0.000000
 42
0.000000
  0
VERTEX
  8
ETCH_TOP
 10
-128.075000
 20
29.500000
 40
0.000000
 41
0.000000
 42
0.000000
  0
VERTEX
  8
ETCH_TOP
 10
-128.075000
 20
30.500000
 40
0.000000
 41
0.000000
 42
0.000000
  0
VERTEX
  8
ETCH_TOP
 10
-127.125000
 20
30.500000
 40
0.000000
 41
0.000000
 42
0.000000
  0
SEQEND
  0
POLYLINE
  8
ETCH_TOP
 66
1
 70
1
 40
0.000000
 41
0.000000
 39
0.000000
  0
VERTEX
  8
ETCH_TOP
 10
-125.525000
 20
29.500000
 40
0.000000
 41
0.000000
 42
0.000000
  0
VERTEX
  8
ETCH_TOP
 10
-126.475000
 20
29.500000
 40
0.000000
 41
0.000000
 42
0.000000
  0
VERTEX
  8
ETCH_TOP
 10
-126.475000
 20
30.500000
 40
0.000000
 41
0.000000
 42
0.000000
  0
VERTEX
  8
ETCH_TOP
 10
-125.525000
 20
30.500000
 40
0.000000
 41
0.000000
 42
0.000000
  0
SEQEND
  0
POLYLINE
  8
ETCH_TOP
 66
1
 70
1
 40
0.000000
 41
0.000000
 39
0.000000
  0
VERTEX
  8
ETCH_TOP
 10
-127.125000
 20
34.300000
 40
0.000000
 41
0.000000
 42
0.000000
  0
VERTEX
  8
ETCH_TOP
 10
-128.075000
 20
34.300000
 40
0.000000
 41
0.000000
 42
0.000000
  0
VERTEX
  8
ETCH_TOP
 10
-128.075000
 20
35.300000
 40
0.000000
 41
0.000000
 42
0.000000
  0
VERTEX
  8
ETCH_TOP
 10
-127.125000
 20
35.300000
 40
0.000000
 41
0.000000
 42
0.000000
  0
SEQEND
  0
POLYLINE
  8
ETCH_TOP
 66
1
 70
1
 40
0.000000
 41
0.000000
 39
0.000000
  0
VERTEX
  8
ETCH_TOP
 10
-125.525000
 20
34.300000
 40
0.000000
 41
0.000000
 42
0.000000
  0
VERTEX
  8
ETCH_TOP
 10
-126.475000
 20
34.300000
 40
0.000000
 41
0.000000
 42
0.000000
  0
VERTEX
  8
ETCH_TOP
 10
-126.475000
 20
35.300000
 40
0.000000
 41
0.000000
 42
0.000000
  0
VERTEX
  8
ETCH_TOP
 10
-125.525000
 20
35.300000
 40
0.000000
 41
0.000000
 42
0.000000
  0
SEQEND
  0
POLYLINE
  8
ETCH_TOP
 66
1
 70
1
 40
0.000000
 41
0.000000
 39
0.000000
  0
VERTEX
  8
ETCH_TOP
 10
-127.125000
 20
31.100000
 40
0.000000
 41
0.000000
 42
0.000000
  0
VERTEX
  8
ETCH_TOP
 10
-128.075000
 20
31.100000
 40
0.000000
 41
0.000000
 42
0.000000
  0
VERTEX
  8
ETCH_TOP
 10
-128.075000
 20
32.100000
 40
0.000000
 41
0.000000
 42
0.000000
  0
VERTEX
  8
ETCH_TOP
 10
-127.125000
 20
32.100000
 40
0.000000
 41
0.000000
 42
0.000000
  0
SEQEND
  0
POLYLINE
  8
ETCH_TOP
 66
1
 70
1
 40
0.000000
 41
0.000000
 39
0.000000
  0
VERTEX
  8
ETCH_TOP
 10
-125.525000
 20
31.100000
 40
0.000000
 41
0.000000
 42
0.000000
  0
VERTEX
  8
ETCH_TOP
 10
-126.475000
 20
31.100000
 40
0.000000
 41
0.000000
 42
0.000000
  0
VERTEX
  8
ETCH_TOP
 10
-126.475000
 20
32.100000
 40
0.000000
 41
0.000000
 42
0.000000
  0
VERTEX
  8
ETCH_TOP
 10
-125.525000
 20
32.100000
 40
0.000000
 41
0.000000
 42
0.000000
  0
SEQEND
  0
POLYLINE
  8
ETCH_TOP
 66
1
 70
1
 40
0.000000
 41
0.000000
 39
0.000000
  0
VERTEX
  8
ETCH_TOP
 10
-127.125000
 20
32.700000
 40
0.000000
 41
0.000000
 42
0.000000
  0
VERTEX
  8
ETCH_TOP
 10
-128.075000
 20
32.700000
 40
0.000000
 41
0.000000
 42
0.000000
  0
VERTEX
  8
ETCH_TOP
 10
-128.075000
 20
33.700000
 40
0.000000
 41
0.000000
 42
0.000000
  0
VERTEX
  8
ETCH_TOP
 10
-127.125000
 20
33.700000
 40
0.000000
 41
0.000000
 42
0.000000
  0
SEQEND
  0
POLYLINE
  8
ETCH_TOP
 66
1
 70
1
 40
0.000000
 41
0.000000
 39
0.000000
  0
VERTEX
  8
ETCH_TOP
 10
-125.525000
 20
32.700000
 40
0.000000
 41
0.000000
 42
0.000000
  0
VERTEX
  8
ETCH_TOP
 10
-126.475000
 20
32.700000
 40
0.000000
 41
0.000000
 42
0.000000
  0
VERTEX
  8
ETCH_TOP
 10
-126.475000
 20
33.700000
 40
0.000000
 41
0.000000
 42
0.000000
  0
VERTEX
  8
ETCH_TOP
 10
-125.525000
 20
33.700000
 40
0.000000
 41
0.000000
 42
0.000000
  0
SEQEND
  0
POLYLINE
  8
ETCH_TOP
 66
1
 70
1
 40
0.000000
 41
0.000000
 39
0.000000
  0
VERTEX
  8
ETCH_TOP
 10
-135.625000
 20
34.400000
 40
0.000000
 41
0.000000
 42
0.000000
  0
VERTEX
  8
ETCH_TOP
 10
-136.575000
 20
34.400000
 40
0.000000
 41
0.000000
 42
0.000000
  0
VERTEX
  8
ETCH_TOP
 10
-136.575000
 20
35.400000
 40
0.000000
 41
0.000000
 42
0.000000
  0
VERTEX
  8
ETCH_TOP
 10
-135.625000
 20
35.400000
 40
0.000000
 41
0.000000
 42
0.000000
  0
SEQEND
  0
POLYLINE
  8
ETCH_TOP
 66
1
 70
1
 40
0.000000
 41
0.000000
 39
0.000000
  0
VERTEX
  8
ETCH_TOP
 10
-134.025000
 20
34.400000
 40
0.000000
 41
0.000000
 42
0.000000
  0
VERTEX
  8
ETCH_TOP
 10
-134.975000
 20
34.400000
 40
0.000000
 41
0.000000
 42
0.000000
  0
VERTEX
  8
ETCH_TOP
 10
-134.975000
 20
35.400000
 40
0.000000
 41
0.000000
 42
0.000000
  0
VERTEX
  8
ETCH_TOP
 10
-134.025000
 20
35.400000
 40
0.000000
 41
0.000000
 42
0.000000
  0
SEQEND
  0
POLYLINE
  8
ETCH_TOP
 66
1
 70
1
 40
0.000000
 41
0.000000
 39
0.000000
  0
VERTEX
  8
ETCH_TOP
 10
-135.625000
 20
29.400000
 40
0.000000
 41
0.000000
 42
0.000000
  0
VERTEX
  8
ETCH_TOP
 10
-136.575000
 20
29.400000
 40
0.000000
 41
0.000000
 42
0.000000
  0
VERTEX
  8
ETCH_TOP
 10
-136.575000
 20
30.400000
 40
0.000000
 41
0.000000
 42
0.000000
  0
VERTEX
  8
ETCH_TOP
 10
-135.625000
 20
30.400000
 40
0.000000
 41
0.000000
 42
0.000000
  0
SEQEND
  0
POLYLINE
  8
ETCH_TOP
 66
1
 70
1
 40
0.000000
 41
0.000000
 39
0.000000
  0
VERTEX
  8
ETCH_TOP
 10
-134.025000
 20
29.400000
 40
0.000000
 41
0.000000
 42
0.000000
  0
VERTEX
  8
ETCH_TOP
 10
-134.975000
 20
29.400000
 40
0.000000
 41
0.000000
 42
0.000000
  0
VERTEX
  8
ETCH_TOP
 10
-134.975000
 20
30.400000
 40
0.000000
 41
0.000000
 42
0.000000
  0
VERTEX
  8
ETCH_TOP
 10
-134.025000
 20
30.400000
 40
0.000000
 41
0.000000
 42
0.000000
  0
SEQEND
  0
POLYLINE
  8
ETCH_TOP
 66
1
 70
1
 40
0.000000
 41
0.000000
 39
0.000000
  0
VERTEX
  8
ETCH_TOP
 10
-130.625000
 20
35.900000
 40
0.000000
 41
0.000000
 42
0.000000
  0
VERTEX
  8
ETCH_TOP
 10
-131.575000
 20
35.900000
 40
0.000000
 41
0.000000
 42
0.000000
  0
VERTEX
  8
ETCH_TOP
 10
-131.575000
 20
36.900000
 40
0.000000
 41
0.000000
 42
0.000000
  0
VERTEX
  8
ETCH_TOP
 10
-130.625000
 20
36.900000
 40
0.000000
 41
0.000000
 42
0.000000
  0
SEQEND
  0
POLYLINE
  8
ETCH_TOP
 66
1
 70
1
 40
0.000000
 41
0.000000
 39
0.000000
  0
VERTEX
  8
ETCH_TOP
 10
-129.025000
 20
35.900000
 40
0.000000
 41
0.000000
 42
0.000000
  0
VERTEX
  8
ETCH_TOP
 10
-129.975000
 20
35.900000
 40
0.000000
 41
0.000000
 42
0.000000
  0
VERTEX
  8
ETCH_TOP
 10
-129.975000
 20
36.900000
 40
0.000000
 41
0.000000
 42
0.000000
  0
VERTEX
  8
ETCH_TOP
 10
-129.025000
 20
36.900000
 40
0.000000
 41
0.000000
 42
0.000000
  0
SEQEND
  0
POLYLINE
  8
ETCH_TOP
 66
1
 70
1
 40
0.000000
 41
0.000000
 39
0.000000
  0
VERTEX
  8
ETCH_TOP
 10
-130.625000
 20
27.900000
 40
0.000000
 41
0.000000
 42
0.000000
  0
VERTEX
  8
ETCH_TOP
 10
-131.575000
 20
27.900000
 40
0.000000
 41
0.000000
 42
0.000000
  0
VERTEX
  8
ETCH_TOP
 10
-131.575000
 20
28.900000
 40
0.000000
 41
0.000000
 42
0.000000
  0
VERTEX
  8
ETCH_TOP
 10
-130.625000
 20
28.900000
 40
0.000000
 41
0.000000
 42
0.000000
  0
SEQEND
  0
POLYLINE
  8
ETCH_TOP
 66
1
 70
1
 40
0.000000
 41
0.000000
 39
0.000000
  0
VERTEX
  8
ETCH_TOP
 10
-129.025000
 20
27.900000
 40
0.000000
 41
0.000000
 42
0.000000
  0
VERTEX
  8
ETCH_TOP
 10
-129.975000
 20
27.900000
 40
0.000000
 41
0.000000
 42
0.000000
  0
VERTEX
  8
ETCH_TOP
 10
-129.975000
 20
28.900000
 40
0.000000
 41
0.000000
 42
0.000000
  0
VERTEX
  8
ETCH_TOP
 10
-129.025000
 20
28.900000
 40
0.000000
 41
0.000000
 42
0.000000
  0
SEQEND
  0
POLYLINE
  8
ETCH_TOP
 66
1
 70
1
 40
0.000000
 41
0.000000
 39
0.000000
  0
VERTEX
  8
ETCH_TOP
 10
-134.975000
 20
32.000000
 40
0.000000
 41
0.000000
 42
0.000000
  0
VERTEX
  8
ETCH_TOP
 10
-134.025000
 20
32.000000
 40
0.000000
 41
0.000000
 42
0.000000
  0
VERTEX
  8
ETCH_TOP
 10
-134.025000
 20
31.000000
 40
0.000000
 41
0.000000
 42
0.000000
  0
VERTEX
  8
ETCH_TOP
 10
-134.975000
 20
31.000000
 40
0.000000
 41
0.000000
 42
0.000000
  0
SEQEND
  0
POLYLINE
  8
ETCH_TOP
 66
1
 70
1
 40
0.000000
 41
0.000000
 39
0.000000
  0
VERTEX
  8
ETCH_TOP
 10
-136.575000
 20
32.000000
 40
0.000000
 41
0.000000
 42
0.000000
  0
VERTEX
  8
ETCH_TOP
 10
-135.625000
 20
32.000000
 40
0.000000
 41
0.000000
 42
0.000000
  0
VERTEX
  8
ETCH_TOP
 10
-135.625000
 20
31.000000
 40
0.000000
 41
0.000000
 42
0.000000
  0
VERTEX
  8
ETCH_TOP
 10
-136.575000
 20
31.000000
 40
0.000000
 41
0.000000
 42
0.000000
  0
SEQEND
  0
POLYLINE
  8
ETCH_TOP
 66
1
 70
1
 40
0.000000
 41
0.000000
 39
0.000000
  0
VERTEX
  8
ETCH_TOP
 10
-134.975000
 20
33.800000
 40
0.000000
 41
0.000000
 42
0.000000
  0
VERTEX
  8
ETCH_TOP
 10
-134.025000
 20
33.800000
 40
0.000000
 41
0.000000
 42
0.000000
  0
VERTEX
  8
ETCH_TOP
 10
-134.025000
 20
32.800000
 40
0.000000
 41
0.000000
 42
0.000000
  0
VERTEX
  8
ETCH_TOP
 10
-134.975000
 20
32.800000
 40
0.000000
 41
0.000000
 42
0.000000
  0
SEQEND
  0
POLYLINE
  8
ETCH_TOP
 66
1
 70
1
 40
0.000000
 41
0.000000
 39
0.000000
  0
VERTEX
  8
ETCH_TOP
 10
-136.575000
 20
33.800000
 40
0.000000
 41
0.000000
 42
0.000000
  0
VERTEX
  8
ETCH_TOP
 10
-135.625000
 20
33.800000
 40
0.000000
 41
0.000000
 42
0.000000
  0
VERTEX
  8
ETCH_TOP
 10
-135.625000
 20
32.800000
 40
0.000000
 41
0.000000
 42
0.000000
  0
VERTEX
  8
ETCH_TOP
 10
-136.575000
 20
32.800000
 40
0.000000
 41
0.000000
 42
0.000000
  0
SEQEND
  0
POLYLINE
  8
ETCH_TOP
 66
1
 70
1
 40
0.000000
 41
0.000000
 39
0.000000
  0
VERTEX
  8
ETCH_TOP
 10
-141.225000
 20
35.800000
 40
0.000000
 41
0.000000
 42
0.000000
  0
VERTEX
  8
ETCH_TOP
 10
-142.175000
 20
35.800000
 40
0.000000
 41
0.000000
 42
0.000000
  0
VERTEX
  8
ETCH_TOP
 10
-142.175000
 20
36.800000
 40
0.000000
 41
0.000000
 42
0.000000
  0
VERTEX
  8
ETCH_TOP
 10
-141.225000
 20
36.800000
 40
0.000000
 41
0.000000
 42
0.000000
  0
SEQEND
  0
POLYLINE
  8
ETCH_TOP
 66
1
 70
1
 40
0.000000
 41
0.000000
 39
0.000000
  0
VERTEX
  8
ETCH_TOP
 10
-139.625000
 20
35.800000
 40
0.000000
 41
0.000000
 42
0.000000
  0
VERTEX
  8
ETCH_TOP
 10
-140.575000
 20
35.800000
 40
0.000000
 41
0.000000
 42
0.000000
  0
VERTEX
  8
ETCH_TOP
 10
-140.575000
 20
36.800000
 40
0.000000
 41
0.000000
 42
0.000000
  0
VERTEX
  8
ETCH_TOP
 10
-139.625000
 20
36.800000
 40
0.000000
 41
0.000000
 42
0.000000
  0
SEQEND
  0
POLYLINE
  8
ETCH_TOP
 66
1
 70
1
 40
0.000000
 41
0.000000
 39
0.000000
  0
VERTEX
  8
ETCH_TOP
 10
-144.275000
 20
34.105000
 40
0.000000
 41
0.000000
 42
0.000000
  0
VERTEX
  8
ETCH_TOP
 10
-144.275000
 20
34.705000
 40
0.000000
 41
0.000000
 42
0.000000
  0
VERTEX
  8
ETCH_TOP
 10
-142.725000
 20
34.705000
 40
0.000000
 41
0.000000
 42
0.000000
  0
VERTEX
  8
ETCH_TOP
 10
-142.725000
 20
34.105000
 40
0.000000
 41
0.000000
 42
0.000000
  0
SEQEND
  0
POLYLINE
  8
ETCH_TOP
 66
1
 70
1
 40
0.000000
 41
0.000000
 39
0.000000
  0
VERTEX
  8
ETCH_TOP
 10
-144.275000
 20
32.835000
 40
0.000000
 41
0.000000
 42
0.000000
  0
VERTEX
  8
ETCH_TOP
 10
-144.275000
 20
33.435000
 40
0.000000
 41
0.000000
 42
0.000000
  0
VERTEX
  8
ETCH_TOP
 10
-142.725000
 20
33.435000
 40
0.000000
 41
0.000000
 42
0.000000
  0
VERTEX
  8
ETCH_TOP
 10
-142.725000
 20
32.835000
 40
0.000000
 41
0.000000
 42
0.000000
  0
SEQEND
  0
POLYLINE
  8
ETCH_TOP
 66
1
 70
1
 40
0.000000
 41
0.000000
 39
0.000000
  0
VERTEX
  8
ETCH_TOP
 10
-144.275000
 20
31.565000
 40
0.000000
 41
0.000000
 42
0.000000
  0
VERTEX
  8
ETCH_TOP
 10
-144.275000
 20
32.165000
 40
0.000000
 41
0.000000
 42
0.000000
  0
VERTEX
  8
ETCH_TOP
 10
-142.725000
 20
32.165000
 40
0.000000
 41
0.000000
 42
0.000000
  0
VERTEX
  8
ETCH_TOP
 10
-142.725000
 20
31.565000
 40
0.000000
 41
0.000000
 42
0.000000
  0
SEQEND
  0
POLYLINE
  8
ETCH_TOP
 66
1
 70
1
 40
0.000000
 41
0.000000
 39
0.000000
  0
VERTEX
  8
ETCH_TOP
 10
-144.275000
 20
30.295000
 40
0.000000
 41
0.000000
 42
0.000000
  0
VERTEX
  8
ETCH_TOP
 10
-144.275000
 20
30.895000
 40
0.000000
 41
0.000000
 42
0.000000
  0
VERTEX
  8
ETCH_TOP
 10
-142.725000
 20
30.895000
 40
0.000000
 41
0.000000
 42
0.000000
  0
VERTEX
  8
ETCH_TOP
 10
-142.725000
 20
30.295000
 40
0.000000
 41
0.000000
 42
0.000000
  0
SEQEND
  0
POLYLINE
  8
ETCH_TOP
 66
1
 70
1
 40
0.000000
 41
0.000000
 39
0.000000
  0
VERTEX
  8
ETCH_TOP
 10
-138.875000
 20
30.295000
 40
0.000000
 41
0.000000
 42
0.000000
  0
VERTEX
  8
ETCH_TOP
 10
-138.875000
 20
30.895000
 40
0.000000
 41
0.000000
 42
0.000000
  0
VERTEX
  8
ETCH_TOP
 10
-137.325000
 20
30.895000
 40
0.000000
 41
0.000000
 42
0.000000
  0
VERTEX
  8
ETCH_TOP
 10
-137.325000
 20
30.295000
 40
0.000000
 41
0.000000
 42
0.000000
  0
SEQEND
  0
POLYLINE
  8
ETCH_TOP
 66
1
 70
1
 40
0.000000
 41
0.000000
 39
0.000000
  0
VERTEX
  8
ETCH_TOP
 10
-138.875000
 20
31.565000
 40
0.000000
 41
0.000000
 42
0.000000
  0
VERTEX
  8
ETCH_TOP
 10
-138.875000
 20
32.165000
 40
0.000000
 41
0.000000
 42
0.000000
  0
VERTEX
  8
ETCH_TOP
 10
-137.325000
 20
32.165000
 40
0.000000
 41
0.000000
 42
0.000000
  0
VERTEX
  8
ETCH_TOP
 10
-137.325000
 20
31.565000
 40
0.000000
 41
0.000000
 42
0.000000
  0
SEQEND
  0
POLYLINE
  8
ETCH_TOP
 66
1
 70
1
 40
0.000000
 41
0.000000
 39
0.000000
  0
VERTEX
  8
ETCH_TOP
 10
-138.875000
 20
32.835000
 40
0.000000
 41
0.000000
 42
0.000000
  0
VERTEX
  8
ETCH_TOP
 10
-138.875000
 20
33.435000
 40
0.000000
 41
0.000000
 42
0.000000
  0
VERTEX
  8
ETCH_TOP
 10
-137.325000
 20
33.435000
 40
0.000000
 41
0.000000
 42
0.000000
  0
VERTEX
  8
ETCH_TOP
 10
-137.325000
 20
32.835000
 40
0.000000
 41
0.000000
 42
0.000000
  0
SEQEND
  0
POLYLINE
  8
ETCH_TOP
 66
1
 70
1
 40
0.000000
 41
0.000000
 39
0.000000
  0
VERTEX
  8
ETCH_TOP
 10
-138.875000
 20
34.105000
 40
0.000000
 41
0.000000
 42
0.000000
  0
VERTEX
  8
ETCH_TOP
 10
-138.875000
 20
34.705000
 40
0.000000
 41
0.000000
 42
0.000000
  0
VERTEX
  8
ETCH_TOP
 10
-137.325000
 20
34.705000
 40
0.000000
 41
0.000000
 42
0.000000
  0
VERTEX
  8
ETCH_TOP
 10
-137.325000
 20
34.105000
 40
0.000000
 41
0.000000
 42
0.000000
  0
SEQEND
  0
ENDSEC
  0
EOF
