  0
SECTION
  2
HEADER
  9
$ACADVER
  1
AC1009
  9
$INSBASE
 10
0.000000
 20
0.000000
  9
$LIMMIN
 10
-284.570000
 20
-231.370000
  9
$LIMMAX
 10
579.030000
 20
327.430000
  9
$EXTMIN
 10
-284.570000
 20
-231.370000
  9
$EXTMAX
 10
579.030000
 20
327.430000
  9
$ATTMODE
 70
0
  9
$LUNITS
 70
2
  9
$LUPREC
 70
4
  9
$THICKNESS
 40
0.396000
  0
ENDSEC
  0
SECTION
  2
TABLES
  0
TABLE
  2
LTYPE
 70
1
  0
LTYPE
  3
Solid Line
  2
CONTINUOUS
 70
0
 72
65
 73
0
 40
0.000000
  0
ENDTAB
  0
TABLE
  2
LAYER
 70
9
  0
LAYER
  2
BG_SILKSCREEN_TOP
 70
0
 62
85
  6
CONTINUOUS
  0
LAYER
  2
BG_OUTLINE
 70
0
 62
12
  6
CONTINUOUS
  0
LAYER
  2
CV_SILKSCREEN_TOP
 70
0
 62
85
  6
CONTINUOUS
  0
LAYER
  2
MA_AUTOSILK_TOP
 70
0
 62
1
  6
CONTINUOUS
  0
LAYER
  2
PG_BODY_CENTER
 70
0
 62
85
  6
CONTINUOUS
  0
LAYER
  2
PG_SILKSCREEN_TOP
 70
0
 62
85
  6
CONTINUOUS
  0
LAYER
  2
PG_ASSEMBLY_TOP
 70
0
 62
111
  6
CONTINUOUS
  0
LAYER
  2
PIN_TOP
 70
0
 62
12
  6
CONTINUOUS
  0
LAYER
  2
RD_SILKSCREEN_TOP
 70
0
 62
142
  6
CONTINUOUS
  0
ENDTAB
  0
TABLE
  2
STYLE
 70
1
  0
STYLE
  2
STANDARD
 70
0
 40
0.000000
 41
1.000000
 50
0.000000
 71
0
 42
0.200000
  3
txt
  0
ENDTAB
  0
ENDSEC
  0
SECTION
  2
BLOCKS
  0
BLOCK
  8
0
  2
FIGURE_CIRCLE
 70
0
 10
0.000000
 20
0.000000
  0
CIRCLE
  8
0
 10
0.000000
 20
0.000000
 40
0.500000
  0
ENDBLK
  0
BLOCK
  8
0
  2
FIGURE_SQUARE
 70
0
 10
0.000000
 20
0.000000
  0
POLYLINE
  8
0
 66
1
 70
1
 40
0.000000
 41
0.000000
 39
0.000000
  0
VERTEX
  8
0
 10
-0.500000
 20
-0.500000
 40
0.000000
 41
0.000000
 42
0.000000
  0
VERTEX
  8
0
 10
-0.500000
 20
0.500000
 40
0.000000
 41
0.000000
 42
0.000000
  0
VERTEX
  8
0
 10
0.500000
 20
0.500000
 40
0.000000
 41
0.000000
 42
0.000000
  0
VERTEX
  8
0
 10
0.500000
 20
-0.500000
 40
0.000000
 41
0.000000
 42
0.000000
  0
SEQEND
  0
ENDBLK
  0
BLOCK
  8
0
  2
FIGURE_HEX
 70
0
 10
0.000000
 20
0.000000
  0
POLYLINE
  8
0
 66
1
 70
1
 40
0.000000
 41
0.000000
 39
0.000000
  0
VERTEX
  8
0
 10
-0.500000
 20
0.000000
 40
0.000000
 41
0.000000
 42
0.000000
  0
VERTEX
  8
0
 10
-0.250000
 20
0.500000
 40
0.000000
 41
0.000000
 42
0.000000
  0
VERTEX
  8
0
 10
0.250000
 20
0.500000
 40
0.000000
 41
0.000000
 42
0.000000
  0
VERTEX
  8
0
 10
0.500000
 20
0.000000
 40
0.000000
 41
0.000000
 42
0.000000
  0
VERTEX
  8
0
 10
0.250000
 20
-0.500000
 40
0.000000
 41
0.000000
 42
0.000000
  0
VERTEX
  8
0
 10
-0.250000
 20
-0.500000
 40
0.000000
 41
0.000000
 42
0.000000
  0
SEQEND
  0
ENDBLK
  0
BLOCK
  8
0
  2
FIGURE_OCT
 70
0
 10
0.000000
 20
0.000000
  0
POLYLINE
  8
0
 66
1
 70
1
 40
0.000000
 41
0.000000
 39
0.000000
  0
VERTEX
  8
0
 10
-0.500000
 20
-0.207100
 40
0.000000
 41
0.000000
 42
0.000000
  0
VERTEX
  8
0
 10
-0.500000
 20
0.207100
 40
0.000000
 41
0.000000
 42
0.000000
  0
VERTEX
  8
0
 10
-0.207100
 20
0.500000
 40
0.000000
 41
0.000000
 42
0.000000
  0
VERTEX
  8
0
 10
0.207100
 20
0.500000
 40
0.000000
 41
0.000000
 42
0.000000
  0
VERTEX
  8
0
 10
0.500000
 20
0.207100
 40
0.000000
 41
0.000000
 42
0.000000
  0
VERTEX
  8
0
 10
0.500000
 20
-0.207100
 40
0.000000
 41
0.000000
 42
0.000000
  0
VERTEX
  8
0
 10
0.207100
 20
-0.500000
 40
0.000000
 41
0.000000
 42
0.000000
  0
VERTEX
  8
0
 10
-0.207100
 20
-0.500000
 40
0.000000
 41
0.000000
 42
0.000000
  0
SEQEND
  0
ENDBLK
  0
BLOCK
  8
0
  2
FIGURE_OBLONG
 70
0
 10
0.000000
 20
0.000000
  0
POLYLINE
  8
0
 66
1
 70
1
 40
0.000000
 41
0.000000
 39
0.000000
  0
VERTEX
  8
0
 10
-0.500000
 20
-0.125000
 40
0.000000
 41
0.000000
 42
0.000000
  0
VERTEX
  8
0
 10
-0.500000
 20
0.125000
 40
0.000000
 41
0.000000
 42
0.000000
  0
VERTEX
  8
0
 10
-0.416000
 20
0.375000
 40
0.000000
 41
0.000000
 42
0.000000
  0
VERTEX
  8
0
 10
-0.250000
 20
0.500000
 40
0.000000
 41
0.000000
 42
0.000000
  0
VERTEX
  8
0
 10
0.250000
 20
0.500000
 40
0.000000
 41
0.000000
 42
0.000000
  0
VERTEX
  8
0
 10
0.416000
 20
0.375000
 40
0.000000
 41
0.000000
 42
0.000000
  0
VERTEX
  8
0
 10
0.500000
 20
0.125000
 40
0.000000
 41
0.000000
 42
0.000000
  0
VERTEX
  8
0
 10
0.500000
 20
-0.125000
 40
0.000000
 41
0.000000
 42
0.000000
  0
VERTEX
  8
0
 10
0.416000
 20
-0.375000
 40
0.000000
 41
0.000000
 42
0.000000
  0
VERTEX
  8
0
 10
0.250000
 20
-0.500000
 40
0.000000
 41
0.000000
 42
0.000000
  0
VERTEX
  8
0
 10
-0.250000
 20
-0.500000
 40
0.000000
 41
0.000000
 42
0.000000
  0
VERTEX
  8
0
 10
-0.416000
 20
-0.375000
 40
0.000000
 41
0.000000
 42
0.000000
  0
SEQEND
  0
ENDBLK
  0
BLOCK
  8
0
  2
FIGURE_TRI
 70
0
 10
0.000000
 20
0.000000
  0
POLYLINE
  8
0
 66
1
 70
1
 40
0.000000
 41
0.000000
 39
0.000000
  0
VERTEX
  8
0
 10
-0.500000
 20
-0.500000
 40
0.000000
 41
0.000000
 42
0.000000
  0
VERTEX
  8
0
 10
0.000000
 20
0.500000
 40
0.000000
 41
0.000000
 42
0.000000
  0
VERTEX
  8
0
 10
0.500000
 20
-0.500000
 40
0.000000
 41
0.000000
 42
0.000000
  0
SEQEND
  0
ENDBLK
  0
BLOCK
  8
0
  2
FIGURE_CROSS
 70
0
 10
0.000000
 20
0.000000
  0
POLYLINE
  8
0
 66
1
 70
0
 40
0.000000
 41
0.000000
 39
0.000000
  0
VERTEX
  8
0
 10
-0.500000
 20
0.000000
 40
0.000000
 41
0.000000
 42
0.000000
  0
VERTEX
  8
0
 10
0.500000
 20
0.000000
 40
0.000000
 41
0.000000
 42
0.000000
  0
SEQEND
  0
POLYLINE
  8
0
 66
1
 70
0
 40
0.000000
 41
0.000000
 39
0.000000
  0
VERTEX
  8
0
 10
0.000000
 20
0.500000
 40
0.000000
 41
0.000000
 42
0.000000
  0
VERTEX
  8
0
 10
0.000000
 20
-0.500000
 40
0.000000
 41
0.000000
 42
0.000000
  0
SEQEND
  0
ENDBLK
  0
BLOCK
  8
0
  2
FIGURE_DIAMOND
 70
0
 10
0.000000
 20
0.000000
  0
POLYLINE
  8
0
 66
1
 70
1
 40
0.000000
 41
0.000000
 39
0.000000
  0
VERTEX
  8
0
 10
-0.500000
 20
0.000000
 40
0.000000
 41
0.000000
 42
0.000000
  0
VERTEX
  8
0
 10
0.000000
 20
0.500000
 40
0.000000
 41
0.000000
 42
0.000000
  0
VERTEX
  8
0
 10
0.500000
 20
0.000000
 40
0.000000
 41
0.000000
 42
0.000000
  0
VERTEX
  8
0
 10
0.000000
 20
-0.500000
 40
0.000000
 41
0.000000
 42
0.000000
  0
SEQEND
  0
ENDBLK
  0
ENDSEC
  0
SECTION
  2
ENTITIES
  0
CIRCLE
  8
PIN_TOP
 10
-0.966000
 20
2.103000
 40
0.361500
  0
CIRCLE
  8
PIN_TOP
 10
1.015000
 20
-0.634000
 40
0.281000
  0
CIRCLE
  8
PIN_TOP
 10
-1.015000
 20
-0.634000
 40
0.281000
  0
CIRCLE
  8
PIN_TOP
 10
0.966000
 20
2.103000
 40
0.361500
  0
CIRCLE
  8
PIN_TOP
 10
0.000000
 20
2.103000
 40
0.306000
  0
POLYLINE
  8
PIN_TOP
 66
1
 70
1
 40
0.000000
 41
0.000000
 39
0.000000
  0
VERTEX
  8
PIN_TOP
 10
-0.005000
 20
-0.612000
 40
0.000000
 41
0.000000
 42
-2.400335
  0
VERTEX
  8
PIN_TOP
 10
0.612000
 20
0.000000
 40
0.000000
 41
0.000000
 42
-0.411813
  0
VERTEX
  8
PIN_TOP
 10
0.005000
 20
-0.612000
 40
0.000000
 41
0.000000
 42
0.000000
  0
VERTEX
  8
PIN_TOP
 10
0.005000
 20
-0.305000
 40
0.000000
 41
0.000000
 42
2.386505
  0
VERTEX
  8
PIN_TOP
 10
-0.305000
 20
0.000000
 40
0.000000
 41
0.000000
 42
0.409381
  0
VERTEX
  8
PIN_TOP
 10
-0.005000
 20
-0.305000
 40
0.000000
 41
0.000000
 42
0.000000
  0
SEQEND
  0
POLYLINE
  8
PG_ASSEMBLY_TOP
 66
1
 70
0
 40
0.000000
 41
0.000000
 39
0.000000
  0
VERTEX
  8
PG_ASSEMBLY_TOP
 10
1.500000
 20
2.550000
 40
0.100000
 41
0.100000
 42
0.000000
  0
VERTEX
  8
PG_ASSEMBLY_TOP
 10
1.400000
 20
2.650000
 40
0.100000
 41
0.100000
 42
0.000000
  0
SEQEND
  0
POLYLINE
  8
PG_ASSEMBLY_TOP
 66
1
 70
0
 40
0.000000
 41
0.000000
 39
0.000000
  0
VERTEX
  8
PG_ASSEMBLY_TOP
 10
1.500000
 20
2.450000
 40
0.100000
 41
0.100000
 42
0.000000
  0
VERTEX
  8
PG_ASSEMBLY_TOP
 10
1.300000
 20
2.650000
 40
0.100000
 41
0.100000
 42
0.000000
  0
SEQEND
  0
POLYLINE
  8
PG_ASSEMBLY_TOP
 66
1
 70
0
 40
0.000000
 41
0.000000
 39
0.000000
  0
VERTEX
  8
PG_ASSEMBLY_TOP
 10
1.500000
 20
2.350000
 40
0.100000
 41
0.100000
 42
0.000000
  0
VERTEX
  8
PG_ASSEMBLY_TOP
 10
1.200000
 20
2.650000
 40
0.100000
 41
0.100000
 42
0.000000
  0
SEQEND
  0
POLYLINE
  8
PG_ASSEMBLY_TOP
 66
1
 70
0
 40
0.000000
 41
0.000000
 39
0.000000
  0
VERTEX
  8
PG_ASSEMBLY_TOP
 10
1.500000
 20
2.250000
 40
0.100000
 41
0.100000
 42
0.000000
  0
VERTEX
  8
PG_ASSEMBLY_TOP
 10
1.100000
 20
2.650000
 40
0.100000
 41
0.100000
 42
0.000000
  0
SEQEND
  0
POLYLINE
  8
PG_ASSEMBLY_TOP
 66
1
 70
0
 40
0.000000
 41
0.000000
 39
0.000000
  0
VERTEX
  8
PG_ASSEMBLY_TOP
 10
1.500000
 20
2.150000
 40
0.100000
 41
0.100000
 42
0.000000
  0
VERTEX
  8
PG_ASSEMBLY_TOP
 10
1.000000
 20
2.650000
 40
0.100000
 41
0.100000
 42
0.000000
  0
SEQEND
  0
POLYLINE
  8
PG_ASSEMBLY_TOP
 66
1
 70
0
 40
0.000000
 41
0.000000
 39
0.000000
  0
VERTEX
  8
PG_ASSEMBLY_TOP
 10
1.500000
 20
2.050000
 40
0.100000
 41
0.100000
 42
0.000000
  0
VERTEX
  8
PG_ASSEMBLY_TOP
 10
0.900000
 20
2.650000
 40
0.100000
 41
0.100000
 42
0.000000
  0
SEQEND
  0
POLYLINE
  8
PG_ASSEMBLY_TOP
 66
1
 70
0
 40
0.000000
 41
0.000000
 39
0.000000
  0
VERTEX
  8
PG_ASSEMBLY_TOP
 10
1.500000
 20
1.950000
 40
0.100000
 41
0.100000
 42
0.000000
  0
VERTEX
  8
PG_ASSEMBLY_TOP
 10
0.800000
 20
2.650000
 40
0.100000
 41
0.100000
 42
0.000000
  0
SEQEND
  0
POLYLINE
  8
PG_ASSEMBLY_TOP
 66
1
 70
0
 40
0.000000
 41
0.000000
 39
0.000000
  0
VERTEX
  8
PG_ASSEMBLY_TOP
 10
1.500000
 20
1.850000
 40
0.100000
 41
0.100000
 42
0.000000
  0
VERTEX
  8
PG_ASSEMBLY_TOP
 10
0.700000
 20
2.650000
 40
0.100000
 41
0.100000
 42
0.000000
  0
SEQEND
  0
POLYLINE
  8
PG_ASSEMBLY_TOP
 66
1
 70
0
 40
0.000000
 41
0.000000
 39
0.000000
  0
VERTEX
  8
PG_ASSEMBLY_TOP
 10
1.500000
 20
1.750000
 40
0.100000
 41
0.100000
 42
0.000000
  0
VERTEX
  8
PG_ASSEMBLY_TOP
 10
0.600000
 20
2.650000
 40
0.100000
 41
0.100000
 42
0.000000
  0
SEQEND
  0
POLYLINE
  8
PG_ASSEMBLY_TOP
 66
1
 70
0
 40
0.000000
 41
0.000000
 39
0.000000
  0
VERTEX
  8
PG_ASSEMBLY_TOP
 10
1.500000
 20
1.650000
 40
0.100000
 41
0.100000
 42
0.000000
  0
VERTEX
  8
PG_ASSEMBLY_TOP
 10
0.500000
 20
2.650000
 40
0.100000
 41
0.100000
 42
0.000000
  0
SEQEND
  0
POLYLINE
  8
PG_ASSEMBLY_TOP
 66
1
 70
0
 40
0.000000
 41
0.000000
 39
0.000000
  0
VERTEX
  8
PG_ASSEMBLY_TOP
 10
-1.500000
 20
2.650000
 40
0.100000
 41
0.100000
 42
0.000000
  0
VERTEX
  8
PG_ASSEMBLY_TOP
 10
1.500000
 20
2.650000
 40
0.100000
 41
0.100000
 42
0.000000
  0
VERTEX
  8
PG_ASSEMBLY_TOP
 10
1.500000
 20
-1.110000
 40
0.100000
 41
0.100000
 42
0.000000
  0
VERTEX
  8
PG_ASSEMBLY_TOP
 10
-1.500000
 20
-1.110000
 40
0.100000
 41
0.100000
 42
0.000000
  0
VERTEX
  8
PG_ASSEMBLY_TOP
 10
-1.500000
 20
2.650000
 40
0.100000
 41
0.100000
 42
0.000000
  0
SEQEND
  0
POLYLINE
  8
PG_SILKSCREEN_TOP
 66
1
 70
0
 40
0.000000
 41
0.000000
 39
0.000000
  0
VERTEX
  8
PG_SILKSCREEN_TOP
 10
-1.015000
 20
3.250000
 40
0.250000
 41
0.250000
 42
1.000000
  0
VERTEX
  8
PG_SILKSCREEN_TOP
 10
-1.265000
 20
3.250000
 40
0.250000
 41
0.250000
 42
1.000000
  0
VERTEX
  8
PG_SILKSCREEN_TOP
 10
-1.015000
 20
3.250000
 40
0.250000
 41
0.250000
 42
0.000000
  0
SEQEND
  0
TEXT
  8
MA_AUTOSILK_TOP
 10
-0.200000
 20
0.900000
 11
0.000000
 21
0.900000
 40
0.600000
 41
1.033333
 50
0.000000
  7
STANDARD
 71
0
 72
1
  1
U2
 73
0
  0
TEXT
  8
RD_SILKSCREEN_TOP
 10
-0.200000
 20
0.900000
 11
0.000000
 21
0.900000
 40
0.600000
 41
1.033333
 50
0.000000
  7
STANDARD
 71
0
 72
1
  1
U2
 73
0
  0
POLYLINE
  8
PIN_TOP
 66
1
 70
1
 40
0.000000
 41
0.000000
 39
0.000000
  0
VERTEX
  8
PIN_TOP
 10
-4.550000
 20
2.125000
 40
0.000000
 41
0.000000
 42
0.000000
  0
VERTEX
  8
PIN_TOP
 10
-4.550000
 20
3.175000
 40
0.000000
 41
0.000000
 42
-1.000000
  0
VERTEX
  8
PIN_TOP
 10
-4.100000
 20
3.175000
 40
0.000000
 41
0.000000
 42
0.000000
  0
VERTEX
  8
PIN_TOP
 10
-4.100000
 20
2.125000
 40
0.000000
 41
0.000000
 42
-1.000000
  0
SEQEND
  0
POLYLINE
  8
PIN_TOP
 66
1
 70
1
 40
0.000000
 41
0.000000
 39
0.000000
  0
VERTEX
  8
PIN_TOP
 10
-5.200000
 20
2.125000
 40
0.000000
 41
0.000000
 42
0.000000
  0
VERTEX
  8
PIN_TOP
 10
-5.200000
 20
3.175000
 40
0.000000
 41
0.000000
 42
-1.000000
  0
VERTEX
  8
PIN_TOP
 10
-4.750000
 20
3.175000
 40
0.000000
 41
0.000000
 42
0.000000
  0
VERTEX
  8
PIN_TOP
 10
-4.750000
 20
2.125000
 40
0.000000
 41
0.000000
 42
-1.000000
  0
SEQEND
  0
POLYLINE
  8
PIN_TOP
 66
1
 70
1
 40
0.000000
 41
0.000000
 39
0.000000
  0
VERTEX
  8
PIN_TOP
 10
-5.850000
 20
2.125000
 40
0.000000
 41
0.000000
 42
0.000000
  0
VERTEX
  8
PIN_TOP
 10
-5.850000
 20
3.175000
 40
0.000000
 41
0.000000
 42
-1.000000
  0
VERTEX
  8
PIN_TOP
 10
-5.400000
 20
3.175000
 40
0.000000
 41
0.000000
 42
0.000000
  0
VERTEX
  8
PIN_TOP
 10
-5.400000
 20
2.125000
 40
0.000000
 41
0.000000
 42
-1.000000
  0
SEQEND
  0
POLYLINE
  8
PIN_TOP
 66
1
 70
1
 40
0.000000
 41
0.000000
 39
0.000000
  0
VERTEX
  8
PIN_TOP
 10
-6.500000
 20
2.125000
 40
0.000000
 41
0.000000
 42
0.000000
  0
VERTEX
  8
PIN_TOP
 10
-6.500000
 20
3.175000
 40
0.000000
 41
0.000000
 42
-1.000000
  0
VERTEX
  8
PIN_TOP
 10
-6.050000
 20
3.175000
 40
0.000000
 41
0.000000
 42
0.000000
  0
VERTEX
  8
PIN_TOP
 10
-6.050000
 20
2.125000
 40
0.000000
 41
0.000000
 42
-1.000000
  0
SEQEND
  0
POLYLINE
  8
PIN_TOP
 66
1
 70
1
 40
0.000000
 41
0.000000
 39
0.000000
  0
VERTEX
  8
PIN_TOP
 10
-6.500000
 20
-2.175000
 40
0.000000
 41
0.000000
 42
0.000000
  0
VERTEX
  8
PIN_TOP
 10
-6.500000
 20
-1.125000
 40
0.000000
 41
0.000000
 42
-1.000000
  0
VERTEX
  8
PIN_TOP
 10
-6.050000
 20
-1.125000
 40
0.000000
 41
0.000000
 42
0.000000
  0
VERTEX
  8
PIN_TOP
 10
-6.050000
 20
-2.175000
 40
0.000000
 41
0.000000
 42
-1.000000
  0
SEQEND
  0
POLYLINE
  8
PIN_TOP
 66
1
 70
1
 40
0.000000
 41
0.000000
 39
0.000000
  0
VERTEX
  8
PIN_TOP
 10
-5.850000
 20
-2.175000
 40
0.000000
 41
0.000000
 42
0.000000
  0
VERTEX
  8
PIN_TOP
 10
-5.850000
 20
-1.125000
 40
0.000000
 41
0.000000
 42
-1.000000
  0
VERTEX
  8
PIN_TOP
 10
-5.400000
 20
-1.125000
 40
0.000000
 41
0.000000
 42
0.000000
  0
VERTEX
  8
PIN_TOP
 10
-5.400000
 20
-2.175000
 40
0.000000
 41
0.000000
 42
-1.000000
  0
SEQEND
  0
POLYLINE
  8
PIN_TOP
 66
1
 70
1
 40
0.000000
 41
0.000000
 39
0.000000
  0
VERTEX
  8
PIN_TOP
 10
-5.200000
 20
-2.175000
 40
0.000000
 41
0.000000
 42
0.000000
  0
VERTEX
  8
PIN_TOP
 10
-5.200000
 20
-1.125000
 40
0.000000
 41
0.000000
 42
-1.000000
  0
VERTEX
  8
PIN_TOP
 10
-4.750000
 20
-1.125000
 40
0.000000
 41
0.000000
 42
0.000000
  0
VERTEX
  8
PIN_TOP
 10
-4.750000
 20
-2.175000
 40
0.000000
 41
0.000000
 42
-1.000000
  0
SEQEND
  0
POLYLINE
  8
PIN_TOP
 66
1
 70
1
 40
0.000000
 41
0.000000
 39
0.000000
  0
VERTEX
  8
PIN_TOP
 10
-4.550000
 20
-2.175000
 40
0.000000
 41
0.000000
 42
0.000000
  0
VERTEX
  8
PIN_TOP
 10
-4.550000
 20
-1.125000
 40
0.000000
 41
0.000000
 42
-1.000000
  0
VERTEX
  8
PIN_TOP
 10
-4.100000
 20
-1.125000
 40
0.000000
 41
0.000000
 42
0.000000
  0
VERTEX
  8
PIN_TOP
 10
-4.100000
 20
-2.175000
 40
0.000000
 41
0.000000
 42
-1.000000
  0
SEQEND
  0
POLYLINE
  8
MA_AUTOSILK_TOP
 66
1
 70
0
 40
0.000000
 41
0.000000
 39
0.000000
  0
VERTEX
  8
MA_AUTOSILK_TOP
 10
-3.600000
 20
3.025000
 40
0.250000
 41
0.250000
 42
0.414214
  0
VERTEX
  8
MA_AUTOSILK_TOP
 10
-3.475000
 20
3.150000
 40
0.250000
 41
0.250000
 42
0.000000
  0
SEQEND
  0
POLYLINE
  8
MA_AUTOSILK_TOP
 66
1
 70
0
 40
0.000000
 41
0.000000
 39
0.000000
  0
VERTEX
  8
MA_AUTOSILK_TOP
 10
-3.725000
 20
3.150000
 40
0.250000
 41
0.250000
 42
0.414214
  0
VERTEX
  8
MA_AUTOSILK_TOP
 10
-3.600000
 20
3.025000
 40
0.250000
 41
0.250000
 42
0.000000
  0
SEQEND
  0
POLYLINE
  8
MA_AUTOSILK_TOP
 66
1
 70
0
 40
0.000000
 41
0.000000
 39
0.000000
  0
VERTEX
  8
MA_AUTOSILK_TOP
 10
-3.600000
 20
3.275000
 40
0.250000
 41
0.250000
 42
0.414214
  0
VERTEX
  8
MA_AUTOSILK_TOP
 10
-3.725000
 20
3.150000
 40
0.250000
 41
0.250000
 42
0.000000
  0
SEQEND
  0
POLYLINE
  8
MA_AUTOSILK_TOP
 66
1
 70
0
 40
0.000000
 41
0.000000
 39
0.000000
  0
VERTEX
  8
MA_AUTOSILK_TOP
 10
-3.475000
 20
3.150000
 40
0.250000
 41
0.250000
 42
0.414214
  0
VERTEX
  8
MA_AUTOSILK_TOP
 10
-3.600000
 20
3.275000
 40
0.250000
 41
0.250000
 42
0.000000
  0
SEQEND
  0
POLYLINE
  8
MA_AUTOSILK_TOP
 66
1
 70
0
 40
0.000000
 41
0.000000
 39
0.000000
  0
VERTEX
  8
MA_AUTOSILK_TOP
 10
-3.800000
 20
0.575000
 40
0.200000
 41
0.200000
 42
0.000000
  0
VERTEX
  8
MA_AUTOSILK_TOP
 10
-4.800000
 20
1.575000
 40
0.200000
 41
0.200000
 42
0.000000
  0
SEQEND
  0
POLYLINE
  8
MA_AUTOSILK_TOP
 66
1
 70
0
 40
0.000000
 41
0.000000
 39
0.000000
  0
VERTEX
  8
MA_AUTOSILK_TOP
 10
-3.800000
 20
0.775000
 40
0.200000
 41
0.200000
 42
0.000000
  0
VERTEX
  8
MA_AUTOSILK_TOP
 10
-4.600000
 20
1.575000
 40
0.200000
 41
0.200000
 42
0.000000
  0
SEQEND
  0
POLYLINE
  8
MA_AUTOSILK_TOP
 66
1
 70
0
 40
0.000000
 41
0.000000
 39
0.000000
  0
VERTEX
  8
MA_AUTOSILK_TOP
 10
-3.800000
 20
0.975000
 40
0.200000
 41
0.200000
 42
0.000000
  0
VERTEX
  8
MA_AUTOSILK_TOP
 10
-4.400000
 20
1.575000
 40
0.200000
 41
0.200000
 42
0.000000
  0
SEQEND
  0
POLYLINE
  8
MA_AUTOSILK_TOP
 66
1
 70
0
 40
0.000000
 41
0.000000
 39
0.000000
  0
VERTEX
  8
MA_AUTOSILK_TOP
 10
-3.800000
 20
1.175000
 40
0.200000
 41
0.200000
 42
0.000000
  0
VERTEX
  8
MA_AUTOSILK_TOP
 10
-4.200000
 20
1.575000
 40
0.200000
 41
0.200000
 42
0.000000
  0
SEQEND
  0
POLYLINE
  8
MA_AUTOSILK_TOP
 66
1
 70
0
 40
0.000000
 41
0.000000
 39
0.000000
  0
VERTEX
  8
MA_AUTOSILK_TOP
 10
-3.800000
 20
1.375000
 40
0.200000
 41
0.200000
 42
0.000000
  0
VERTEX
  8
MA_AUTOSILK_TOP
 10
-4.000000
 20
1.575000
 40
0.200000
 41
0.200000
 42
0.000000
  0
SEQEND
  0
POLYLINE
  8
MA_AUTOSILK_TOP
 66
1
 70
0
 40
0.000000
 41
0.000000
 39
0.000000
  0
VERTEX
  8
MA_AUTOSILK_TOP
 10
-6.800000
 20
1.575000
 40
0.200000
 41
0.200000
 42
0.000000
  0
VERTEX
  8
MA_AUTOSILK_TOP
 10
-3.800000
 20
1.575000
 40
0.200000
 41
0.200000
 42
0.000000
  0
VERTEX
  8
MA_AUTOSILK_TOP
 10
-3.800000
 20
-0.575000
 40
0.200000
 41
0.200000
 42
0.000000
  0
VERTEX
  8
MA_AUTOSILK_TOP
 10
-6.800000
 20
-0.575000
 40
0.200000
 41
0.200000
 42
0.000000
  0
VERTEX
  8
MA_AUTOSILK_TOP
 10
-6.800000
 20
1.575000
 40
0.200000
 41
0.200000
 42
0.000000
  0
SEQEND
  0
POLYLINE
  8
PG_ASSEMBLY_TOP
 66
1
 70
0
 40
0.000000
 41
0.000000
 39
0.000000
  0
VERTEX
  8
PG_ASSEMBLY_TOP
 10
-3.800000
 20
1.900000
 40
0.100000
 41
0.100000
 42
0.000000
  0
VERTEX
  8
PG_ASSEMBLY_TOP
 10
-3.900000
 20
2.000000
 40
0.100000
 41
0.100000
 42
0.000000
  0
SEQEND
  0
POLYLINE
  8
PG_ASSEMBLY_TOP
 66
1
 70
0
 40
0.000000
 41
0.000000
 39
0.000000
  0
VERTEX
  8
PG_ASSEMBLY_TOP
 10
-3.800000
 20
1.800000
 40
0.100000
 41
0.100000
 42
0.000000
  0
VERTEX
  8
PG_ASSEMBLY_TOP
 10
-4.000000
 20
2.000000
 40
0.100000
 41
0.100000
 42
0.000000
  0
SEQEND
  0
POLYLINE
  8
PG_ASSEMBLY_TOP
 66
1
 70
0
 40
0.000000
 41
0.000000
 39
0.000000
  0
VERTEX
  8
PG_ASSEMBLY_TOP
 10
-3.800000
 20
1.700000
 40
0.100000
 41
0.100000
 42
0.000000
  0
VERTEX
  8
PG_ASSEMBLY_TOP
 10
-4.100000
 20
2.000000
 40
0.100000
 41
0.100000
 42
0.000000
  0
SEQEND
  0
POLYLINE
  8
PG_ASSEMBLY_TOP
 66
1
 70
0
 40
0.000000
 41
0.000000
 39
0.000000
  0
VERTEX
  8
PG_ASSEMBLY_TOP
 10
-3.800000
 20
1.600000
 40
0.100000
 41
0.100000
 42
0.000000
  0
VERTEX
  8
PG_ASSEMBLY_TOP
 10
-4.200000
 20
2.000000
 40
0.100000
 41
0.100000
 42
0.000000
  0
SEQEND
  0
POLYLINE
  8
PG_ASSEMBLY_TOP
 66
1
 70
0
 40
0.000000
 41
0.000000
 39
0.000000
  0
VERTEX
  8
PG_ASSEMBLY_TOP
 10
-3.800000
 20
1.500000
 40
0.100000
 41
0.100000
 42
0.000000
  0
VERTEX
  8
PG_ASSEMBLY_TOP
 10
-4.300000
 20
2.000000
 40
0.100000
 41
0.100000
 42
0.000000
  0
SEQEND
  0
POLYLINE
  8
PG_ASSEMBLY_TOP
 66
1
 70
0
 40
0.000000
 41
0.000000
 39
0.000000
  0
VERTEX
  8
PG_ASSEMBLY_TOP
 10
-3.800000
 20
1.400000
 40
0.100000
 41
0.100000
 42
0.000000
  0
VERTEX
  8
PG_ASSEMBLY_TOP
 10
-4.400000
 20
2.000000
 40
0.100000
 41
0.100000
 42
0.000000
  0
SEQEND
  0
POLYLINE
  8
PG_ASSEMBLY_TOP
 66
1
 70
0
 40
0.000000
 41
0.000000
 39
0.000000
  0
VERTEX
  8
PG_ASSEMBLY_TOP
 10
-3.800000
 20
1.300000
 40
0.100000
 41
0.100000
 42
0.000000
  0
VERTEX
  8
PG_ASSEMBLY_TOP
 10
-4.500000
 20
2.000000
 40
0.100000
 41
0.100000
 42
0.000000
  0
SEQEND
  0
POLYLINE
  8
PG_ASSEMBLY_TOP
 66
1
 70
0
 40
0.000000
 41
0.000000
 39
0.000000
  0
VERTEX
  8
PG_ASSEMBLY_TOP
 10
-3.800000
 20
1.200000
 40
0.100000
 41
0.100000
 42
0.000000
  0
VERTEX
  8
PG_ASSEMBLY_TOP
 10
-4.600000
 20
2.000000
 40
0.100000
 41
0.100000
 42
0.000000
  0
SEQEND
  0
POLYLINE
  8
PG_ASSEMBLY_TOP
 66
1
 70
0
 40
0.000000
 41
0.000000
 39
0.000000
  0
VERTEX
  8
PG_ASSEMBLY_TOP
 10
-3.800000
 20
1.100000
 40
0.100000
 41
0.100000
 42
0.000000
  0
VERTEX
  8
PG_ASSEMBLY_TOP
 10
-4.700000
 20
2.000000
 40
0.100000
 41
0.100000
 42
0.000000
  0
SEQEND
  0
POLYLINE
  8
PG_ASSEMBLY_TOP
 66
1
 70
0
 40
0.000000
 41
0.000000
 39
0.000000
  0
VERTEX
  8
PG_ASSEMBLY_TOP
 10
-3.800000
 20
1.000000
 40
0.100000
 41
0.100000
 42
0.000000
  0
VERTEX
  8
PG_ASSEMBLY_TOP
 10
-4.800000
 20
2.000000
 40
0.100000
 41
0.100000
 42
0.000000
  0
SEQEND
  0
POLYLINE
  8
PG_ASSEMBLY_TOP
 66
1
 70
0
 40
0.000000
 41
0.000000
 39
0.000000
  0
VERTEX
  8
PG_ASSEMBLY_TOP
 10
-6.800000
 20
2.000000
 40
0.100000
 41
0.100000
 42
0.000000
  0
VERTEX
  8
PG_ASSEMBLY_TOP
 10
-3.800000
 20
2.000000
 40
0.100000
 41
0.100000
 42
0.000000
  0
VERTEX
  8
PG_ASSEMBLY_TOP
 10
-3.800000
 20
-1.000000
 40
0.100000
 41
0.100000
 42
0.000000
  0
VERTEX
  8
PG_ASSEMBLY_TOP
 10
-6.800000
 20
-1.000000
 40
0.100000
 41
0.100000
 42
0.000000
  0
VERTEX
  8
PG_ASSEMBLY_TOP
 10
-6.800000
 20
2.000000
 40
0.100000
 41
0.100000
 42
0.000000
  0
SEQEND
  0
POLYLINE
  8
PG_SILKSCREEN_TOP
 66
1
 70
0
 40
0.000000
 41
0.000000
 39
0.000000
  0
VERTEX
  8
PG_SILKSCREEN_TOP
 10
-6.800000
 20
1.575000
 40
0.200000
 41
0.200000
 42
0.000000
  0
VERTEX
  8
PG_SILKSCREEN_TOP
 10
-3.800000
 20
1.575000
 40
0.200000
 41
0.200000
 42
0.000000
  0
VERTEX
  8
PG_SILKSCREEN_TOP
 10
-3.800000
 20
-0.575000
 40
0.200000
 41
0.200000
 42
0.000000
  0
VERTEX
  8
PG_SILKSCREEN_TOP
 10
-6.800000
 20
-0.575000
 40
0.200000
 41
0.200000
 42
0.000000
  0
VERTEX
  8
PG_SILKSCREEN_TOP
 10
-6.800000
 20
1.575000
 40
0.200000
 41
0.200000
 42
0.000000
  0
SEQEND
  0
POLYLINE
  8
PG_SILKSCREEN_TOP
 66
1
 70
0
 40
0.000000
 41
0.000000
 39
0.000000
  0
VERTEX
  8
PG_SILKSCREEN_TOP
 10
-3.800000
 20
1.375000
 40
0.200000
 41
0.200000
 42
0.000000
  0
VERTEX
  8
PG_SILKSCREEN_TOP
 10
-4.000000
 20
1.575000
 40
0.200000
 41
0.200000
 42
0.000000
  0
SEQEND
  0
POLYLINE
  8
PG_SILKSCREEN_TOP
 66
1
 70
0
 40
0.000000
 41
0.000000
 39
0.000000
  0
VERTEX
  8
PG_SILKSCREEN_TOP
 10
-3.800000
 20
1.175000
 40
0.200000
 41
0.200000
 42
0.000000
  0
VERTEX
  8
PG_SILKSCREEN_TOP
 10
-4.200000
 20
1.575000
 40
0.200000
 41
0.200000
 42
0.000000
  0
SEQEND
  0
POLYLINE
  8
PG_SILKSCREEN_TOP
 66
1
 70
0
 40
0.000000
 41
0.000000
 39
0.000000
  0
VERTEX
  8
PG_SILKSCREEN_TOP
 10
-3.800000
 20
0.975000
 40
0.200000
 41
0.200000
 42
0.000000
  0
VERTEX
  8
PG_SILKSCREEN_TOP
 10
-4.400000
 20
1.575000
 40
0.200000
 41
0.200000
 42
0.000000
  0
SEQEND
  0
POLYLINE
  8
PG_SILKSCREEN_TOP
 66
1
 70
0
 40
0.000000
 41
0.000000
 39
0.000000
  0
VERTEX
  8
PG_SILKSCREEN_TOP
 10
-3.800000
 20
0.775000
 40
0.200000
 41
0.200000
 42
0.000000
  0
VERTEX
  8
PG_SILKSCREEN_TOP
 10
-4.600000
 20
1.575000
 40
0.200000
 41
0.200000
 42
0.000000
  0
SEQEND
  0
POLYLINE
  8
PG_SILKSCREEN_TOP
 66
1
 70
0
 40
0.000000
 41
0.000000
 39
0.000000
  0
VERTEX
  8
PG_SILKSCREEN_TOP
 10
-3.800000
 20
0.575000
 40
0.200000
 41
0.200000
 42
0.000000
  0
VERTEX
  8
PG_SILKSCREEN_TOP
 10
-4.800000
 20
1.575000
 40
0.200000
 41
0.200000
 42
0.000000
  0
SEQEND
  0
POLYLINE
  8
PG_SILKSCREEN_TOP
 66
1
 70
0
 40
0.000000
 41
0.000000
 39
0.000000
  0
VERTEX
  8
PG_SILKSCREEN_TOP
 10
-3.475000
 20
3.150000
 40
0.250000
 41
0.250000
 42
1.000000
  0
VERTEX
  8
PG_SILKSCREEN_TOP
 10
-3.725000
 20
3.150000
 40
0.250000
 41
0.250000
 42
1.000000
  0
VERTEX
  8
PG_SILKSCREEN_TOP
 10
-3.475000
 20
3.150000
 40
0.250000
 41
0.250000
 42
0.000000
  0
SEQEND
  0
TEXT
  8
MA_AUTOSILK_TOP
 10
-8.300000
 20
0.400000
 11
-8.100000
 21
0.400000
 40
0.600000
 41
1.033333
 50
0.000000
  7
STANDARD
 71
0
 72
1
  1
U3
 73
0
  0
TEXT
  8
RD_SILKSCREEN_TOP
 10
-8.300000
 20
0.400000
 11
-8.100000
 21
0.400000
 40
0.600000
 41
1.033333
 50
0.000000
  7
STANDARD
 71
0
 72
1
  1
U3
 73
0
  0
POLYLINE
  8
PIN_TOP
 66
1
 70
1
 40
0.000000
 41
0.000000
 39
0.000000
  0
VERTEX
  8
PIN_TOP
 10
4.775000
 20
-1.150000
 40
0.000000
 41
0.000000
 42
0.000000
  0
VERTEX
  8
PIN_TOP
 10
4.125000
 20
-1.150000
 40
0.000000
 41
0.000000
 42
0.000000
  0
VERTEX
  8
PIN_TOP
 10
4.125000
 20
-0.050000
 40
0.000000
 41
0.000000
 42
0.000000
  0
VERTEX
  8
PIN_TOP
 10
4.775000
 20
-0.050000
 40
0.000000
 41
0.000000
 42
0.000000
  0
SEQEND
  0
POLYLINE
  8
PIN_TOP
 66
1
 70
1
 40
0.000000
 41
0.000000
 39
0.000000
  0
VERTEX
  8
PIN_TOP
 10
6.675000
 20
-1.150000
 40
0.000000
 41
0.000000
 42
0.000000
  0
VERTEX
  8
PIN_TOP
 10
6.025000
 20
-1.150000
 40
0.000000
 41
0.000000
 42
0.000000
  0
VERTEX
  8
PIN_TOP
 10
6.025000
 20
-0.050000
 40
0.000000
 41
0.000000
 42
0.000000
  0
VERTEX
  8
PIN_TOP
 10
6.675000
 20
-0.050000
 40
0.000000
 41
0.000000
 42
0.000000
  0
SEQEND
  0
POLYLINE
  8
PIN_TOP
 66
1
 70
1
 40
0.000000
 41
0.000000
 39
0.000000
  0
VERTEX
  8
PIN_TOP
 10
5.725000
 20
1.450000
 40
0.000000
 41
0.000000
 42
0.000000
  0
VERTEX
  8
PIN_TOP
 10
5.075000
 20
1.450000
 40
0.000000
 41
0.000000
 42
0.000000
  0
VERTEX
  8
PIN_TOP
 10
5.075000
 20
2.550000
 40
0.000000
 41
0.000000
 42
0.000000
  0
VERTEX
  8
PIN_TOP
 10
5.725000
 20
2.550000
 40
0.000000
 41
0.000000
 42
0.000000
  0
SEQEND
  0
POLYLINE
  8
MA_AUTOSILK_TOP
 66
1
 70
0
 40
0.000000
 41
0.000000
 39
0.000000
  0
VERTEX
  8
MA_AUTOSILK_TOP
 10
3.600000
 20
-1.025000
 40
0.250000
 41
0.250000
 42
0.414214
  0
VERTEX
  8
MA_AUTOSILK_TOP
 10
3.725000
 20
-0.900000
 40
0.250000
 41
0.250000
 42
0.000000
  0
SEQEND
  0
POLYLINE
  8
MA_AUTOSILK_TOP
 66
1
 70
0
 40
0.000000
 41
0.000000
 39
0.000000
  0
VERTEX
  8
MA_AUTOSILK_TOP
 10
3.475000
 20
-0.900000
 40
0.250000
 41
0.250000
 42
0.414214
  0
VERTEX
  8
MA_AUTOSILK_TOP
 10
3.600000
 20
-1.025000
 40
0.250000
 41
0.250000
 42
0.000000
  0
SEQEND
  0
POLYLINE
  8
MA_AUTOSILK_TOP
 66
1
 70
0
 40
0.000000
 41
0.000000
 39
0.000000
  0
VERTEX
  8
MA_AUTOSILK_TOP
 10
3.600000
 20
-0.775000
 40
0.250000
 41
0.250000
 42
0.414214
  0
VERTEX
  8
MA_AUTOSILK_TOP
 10
3.475000
 20
-0.900000
 40
0.250000
 41
0.250000
 42
0.000000
  0
SEQEND
  0
POLYLINE
  8
MA_AUTOSILK_TOP
 66
1
 70
0
 40
0.000000
 41
0.000000
 39
0.000000
  0
VERTEX
  8
MA_AUTOSILK_TOP
 10
3.725000
 20
-0.900000
 40
0.250000
 41
0.250000
 42
0.414214
  0
VERTEX
  8
MA_AUTOSILK_TOP
 10
3.600000
 20
-0.775000
 40
0.250000
 41
0.250000
 42
0.000000
  0
SEQEND
  0
POLYLINE
  8
MA_AUTOSILK_TOP
 66
1
 70
0
 40
0.000000
 41
0.000000
 39
0.000000
  0
VERTEX
  8
MA_AUTOSILK_TOP
 10
6.850000
 20
0.275000
 40
0.200000
 41
0.200000
 42
0.000000
  0
VERTEX
  8
MA_AUTOSILK_TOP
 10
3.950000
 20
0.275000
 40
0.200000
 41
0.200000
 42
0.000000
  0
VERTEX
  8
MA_AUTOSILK_TOP
 10
3.950000
 20
1.125000
 40
0.200000
 41
0.200000
 42
0.000000
  0
VERTEX
  8
MA_AUTOSILK_TOP
 10
6.850000
 20
1.125000
 40
0.200000
 41
0.200000
 42
0.000000
  0
VERTEX
  8
MA_AUTOSILK_TOP
 10
6.850000
 20
0.275000
 40
0.200000
 41
0.200000
 42
0.000000
  0
SEQEND
  0
POLYLINE
  8
PG_ASSEMBLY_TOP
 66
1
 70
0
 40
0.000000
 41
0.000000
 39
0.000000
  0
VERTEX
  8
PG_ASSEMBLY_TOP
 10
3.970000
 20
0.000000
 40
0.100000
 41
0.100000
 42
0.000000
  0
VERTEX
  8
PG_ASSEMBLY_TOP
 10
4.070000
 20
-0.100000
 40
0.100000
 41
0.100000
 42
0.000000
  0
SEQEND
  0
POLYLINE
  8
PG_ASSEMBLY_TOP
 66
1
 70
0
 40
0.000000
 41
0.000000
 39
0.000000
  0
VERTEX
  8
PG_ASSEMBLY_TOP
 10
3.970000
 20
0.100000
 40
0.100000
 41
0.100000
 42
0.000000
  0
VERTEX
  8
PG_ASSEMBLY_TOP
 10
4.170000
 20
-0.100000
 40
0.100000
 41
0.100000
 42
0.000000
  0
SEQEND
  0
POLYLINE
  8
PG_ASSEMBLY_TOP
 66
1
 70
0
 40
0.000000
 41
0.000000
 39
0.000000
  0
VERTEX
  8
PG_ASSEMBLY_TOP
 10
3.970000
 20
0.200000
 40
0.100000
 41
0.100000
 42
0.000000
  0
VERTEX
  8
PG_ASSEMBLY_TOP
 10
4.270000
 20
-0.100000
 40
0.100000
 41
0.100000
 42
0.000000
  0
SEQEND
  0
POLYLINE
  8
PG_ASSEMBLY_TOP
 66
1
 70
0
 40
0.000000
 41
0.000000
 39
0.000000
  0
VERTEX
  8
PG_ASSEMBLY_TOP
 10
3.970000
 20
0.300000
 40
0.100000
 41
0.100000
 42
0.000000
  0
VERTEX
  8
PG_ASSEMBLY_TOP
 10
4.370000
 20
-0.100000
 40
0.100000
 41
0.100000
 42
0.000000
  0
SEQEND
  0
POLYLINE
  8
PG_ASSEMBLY_TOP
 66
1
 70
0
 40
0.000000
 41
0.000000
 39
0.000000
  0
VERTEX
  8
PG_ASSEMBLY_TOP
 10
3.970000
 20
0.400000
 40
0.100000
 41
0.100000
 42
0.000000
  0
VERTEX
  8
PG_ASSEMBLY_TOP
 10
4.470000
 20
-0.100000
 40
0.100000
 41
0.100000
 42
0.000000
  0
SEQEND
  0
POLYLINE
  8
PG_ASSEMBLY_TOP
 66
1
 70
0
 40
0.000000
 41
0.000000
 39
0.000000
  0
VERTEX
  8
PG_ASSEMBLY_TOP
 10
3.970000
 20
0.500000
 40
0.100000
 41
0.100000
 42
0.000000
  0
VERTEX
  8
PG_ASSEMBLY_TOP
 10
4.570000
 20
-0.100000
 40
0.100000
 41
0.100000
 42
0.000000
  0
SEQEND
  0
POLYLINE
  8
PG_ASSEMBLY_TOP
 66
1
 70
0
 40
0.000000
 41
0.000000
 39
0.000000
  0
VERTEX
  8
PG_ASSEMBLY_TOP
 10
3.970000
 20
0.600000
 40
0.100000
 41
0.100000
 42
0.000000
  0
VERTEX
  8
PG_ASSEMBLY_TOP
 10
4.670000
 20
-0.100000
 40
0.100000
 41
0.100000
 42
0.000000
  0
SEQEND
  0
POLYLINE
  8
PG_ASSEMBLY_TOP
 66
1
 70
0
 40
0.000000
 41
0.000000
 39
0.000000
  0
VERTEX
  8
PG_ASSEMBLY_TOP
 10
3.970000
 20
0.700000
 40
0.100000
 41
0.100000
 42
0.000000
  0
VERTEX
  8
PG_ASSEMBLY_TOP
 10
4.770000
 20
-0.100000
 40
0.100000
 41
0.100000
 42
0.000000
  0
SEQEND
  0
POLYLINE
  8
PG_ASSEMBLY_TOP
 66
1
 70
0
 40
0.000000
 41
0.000000
 39
0.000000
  0
VERTEX
  8
PG_ASSEMBLY_TOP
 10
3.970000
 20
0.800000
 40
0.100000
 41
0.100000
 42
0.000000
  0
VERTEX
  8
PG_ASSEMBLY_TOP
 10
4.870000
 20
-0.100000
 40
0.100000
 41
0.100000
 42
0.000000
  0
SEQEND
  0
POLYLINE
  8
PG_ASSEMBLY_TOP
 66
1
 70
0
 40
0.000000
 41
0.000000
 39
0.000000
  0
VERTEX
  8
PG_ASSEMBLY_TOP
 10
3.970000
 20
0.900000
 40
0.100000
 41
0.100000
 42
0.000000
  0
VERTEX
  8
PG_ASSEMBLY_TOP
 10
4.970000
 20
-0.100000
 40
0.100000
 41
0.100000
 42
0.000000
  0
SEQEND
  0
POLYLINE
  8
PG_ASSEMBLY_TOP
 66
1
 70
0
 40
0.000000
 41
0.000000
 39
0.000000
  0
VERTEX
  8
PG_ASSEMBLY_TOP
 10
6.830000
 20
-0.100000
 40
0.100000
 41
0.100000
 42
0.000000
  0
VERTEX
  8
PG_ASSEMBLY_TOP
 10
3.970000
 20
-0.100000
 40
0.100000
 41
0.100000
 42
0.000000
  0
VERTEX
  8
PG_ASSEMBLY_TOP
 10
3.970000
 20
1.500000
 40
0.100000
 41
0.100000
 42
0.000000
  0
VERTEX
  8
PG_ASSEMBLY_TOP
 10
6.830000
 20
1.500000
 40
0.100000
 41
0.100000
 42
0.000000
  0
VERTEX
  8
PG_ASSEMBLY_TOP
 10
6.830000
 20
-0.100000
 40
0.100000
 41
0.100000
 42
0.000000
  0
SEQEND
  0
POLYLINE
  8
PG_SILKSCREEN_TOP
 66
1
 70
0
 40
0.000000
 41
0.000000
 39
0.000000
  0
VERTEX
  8
PG_SILKSCREEN_TOP
 10
6.850000
 20
0.275000
 40
0.200000
 41
0.200000
 42
0.000000
  0
VERTEX
  8
PG_SILKSCREEN_TOP
 10
3.950000
 20
0.275000
 40
0.200000
 41
0.200000
 42
0.000000
  0
VERTEX
  8
PG_SILKSCREEN_TOP
 10
3.950000
 20
1.125000
 40
0.200000
 41
0.200000
 42
0.000000
  0
VERTEX
  8
PG_SILKSCREEN_TOP
 10
6.850000
 20
1.125000
 40
0.200000
 41
0.200000
 42
0.000000
  0
VERTEX
  8
PG_SILKSCREEN_TOP
 10
6.850000
 20
0.275000
 40
0.200000
 41
0.200000
 42
0.000000
  0
SEQEND
  0
POLYLINE
  8
PG_SILKSCREEN_TOP
 66
1
 70
0
 40
0.000000
 41
0.000000
 39
0.000000
  0
VERTEX
  8
PG_SILKSCREEN_TOP
 10
3.725000
 20
-0.900000
 40
0.250000
 41
0.250000
 42
1.000000
  0
VERTEX
  8
PG_SILKSCREEN_TOP
 10
3.475000
 20
-0.900000
 40
0.250000
 41
0.250000
 42
1.000000
  0
VERTEX
  8
PG_SILKSCREEN_TOP
 10
3.725000
 20
-0.900000
 40
0.250000
 41
0.250000
 42
0.000000
  0
SEQEND
  0
TEXT
  8
MA_AUTOSILK_TOP
 10
6.600000
 20
1.800000
 11
6.800000
 21
1.800000
 40
0.600000
 41
1.033333
 50
0.000000
  7
STANDARD
 71
0
 72
1
  1
U1
 73
0
  0
TEXT
  8
RD_SILKSCREEN_TOP
 10
6.600000
 20
1.800000
 11
6.800000
 21
1.800000
 40
0.600000
 41
1.033333
 50
0.000000
  7
STANDARD
 71
0
 72
1
  1
U1
 73
0
  0
POLYLINE
  8
PIN_TOP
 66
1
 70
1
 40
0.000000
 41
0.000000
 39
0.000000
  0
VERTEX
  8
PIN_TOP
 10
5.700000
 20
-5.225000
 40
0.000000
 41
0.000000
 42
0.000000
  0
VERTEX
  8
PIN_TOP
 10
5.700000
 20
-6.175000
 40
0.000000
 41
0.000000
 42
0.000000
  0
VERTEX
  8
PIN_TOP
 10
4.700000
 20
-6.175000
 40
0.000000
 41
0.000000
 42
0.000000
  0
VERTEX
  8
PIN_TOP
 10
4.700000
 20
-5.225000
 40
0.000000
 41
0.000000
 42
0.000000
  0
SEQEND
  0
POLYLINE
  8
PIN_TOP
 66
1
 70
1
 40
0.000000
 41
0.000000
 39
0.000000
  0
VERTEX
  8
PIN_TOP
 10
5.700000
 20
-3.625000
 40
0.000000
 41
0.000000
 42
0.000000
  0
VERTEX
  8
PIN_TOP
 10
5.700000
 20
-4.575000
 40
0.000000
 41
0.000000
 42
0.000000
  0
VERTEX
  8
PIN_TOP
 10
4.700000
 20
-4.575000
 40
0.000000
 41
0.000000
 42
0.000000
  0
VERTEX
  8
PIN_TOP
 10
4.700000
 20
-3.625000
 40
0.000000
 41
0.000000
 42
0.000000
  0
SEQEND
  0
POLYLINE
  8
PG_ASSEMBLY_TOP
 66
1
 70
0
 40
0.000000
 41
0.000000
 39
0.000000
  0
VERTEX
  8
PG_ASSEMBLY_TOP
 10
5.600000
 20
-5.700000
 40
0.100000
 41
0.100000
 42
0.000000
  0
VERTEX
  8
PG_ASSEMBLY_TOP
 10
4.800000
 20
-5.700000
 40
0.100000
 41
0.100000
 42
0.000000
  0
VERTEX
  8
PG_ASSEMBLY_TOP
 10
4.800000
 20
-4.100000
 40
0.100000
 41
0.100000
 42
0.000000
  0
VERTEX
  8
PG_ASSEMBLY_TOP
 10
5.600000
 20
-4.100000
 40
0.100000
 41
0.100000
 42
0.000000
  0
VERTEX
  8
PG_ASSEMBLY_TOP
 10
5.600000
 20
-5.700000
 40
0.100000
 41
0.100000
 42
0.000000
  0
SEQEND
  0
TEXT
  8
MA_AUTOSILK_TOP
 10
6.400000
 20
-4.200000
 11
6.600000
 21
-4.200000
 40
0.600000
 41
1.033333
 50
0.000000
  7
STANDARD
 71
0
 72
1
  1
C1
 73
0
  0
TEXT
  8
RD_SILKSCREEN_TOP
 10
6.400000
 20
-4.200000
 11
6.600000
 21
-4.200000
 40
0.600000
 41
1.033333
 50
0.000000
  7
STANDARD
 71
0
 72
1
  1
C1
 73
0
  0
POLYLINE
  8
PIN_TOP
 66
1
 70
1
 40
0.000000
 41
0.000000
 39
0.000000
  0
VERTEX
  8
PIN_TOP
 10
4.975000
 20
3.200000
 40
0.000000
 41
0.000000
 42
0.000000
  0
VERTEX
  8
PIN_TOP
 10
4.025000
 20
3.200000
 40
0.000000
 41
0.000000
 42
0.000000
  0
VERTEX
  8
PIN_TOP
 10
4.025000
 20
4.200000
 40
0.000000
 41
0.000000
 42
0.000000
  0
VERTEX
  8
PIN_TOP
 10
4.975000
 20
4.200000
 40
0.000000
 41
0.000000
 42
0.000000
  0
SEQEND
  0
POLYLINE
  8
PIN_TOP
 66
1
 70
1
 40
0.000000
 41
0.000000
 39
0.000000
  0
VERTEX
  8
PIN_TOP
 10
6.575000
 20
3.200000
 40
0.000000
 41
0.000000
 42
0.000000
  0
VERTEX
  8
PIN_TOP
 10
5.625000
 20
3.200000
 40
0.000000
 41
0.000000
 42
0.000000
  0
VERTEX
  8
PIN_TOP
 10
5.625000
 20
4.200000
 40
0.000000
 41
0.000000
 42
0.000000
  0
VERTEX
  8
PIN_TOP
 10
6.575000
 20
4.200000
 40
0.000000
 41
0.000000
 42
0.000000
  0
SEQEND
  0
POLYLINE
  8
PG_ASSEMBLY_TOP
 66
1
 70
0
 40
0.000000
 41
0.000000
 39
0.000000
  0
VERTEX
  8
PG_ASSEMBLY_TOP
 10
4.500000
 20
3.300000
 40
0.100000
 41
0.100000
 42
0.000000
  0
VERTEX
  8
PG_ASSEMBLY_TOP
 10
4.500000
 20
4.100000
 40
0.100000
 41
0.100000
 42
0.000000
  0
VERTEX
  8
PG_ASSEMBLY_TOP
 10
6.100000
 20
4.100000
 40
0.100000
 41
0.100000
 42
0.000000
  0
VERTEX
  8
PG_ASSEMBLY_TOP
 10
6.100000
 20
3.300000
 40
0.100000
 41
0.100000
 42
0.000000
  0
VERTEX
  8
PG_ASSEMBLY_TOP
 10
4.500000
 20
3.300000
 40
0.100000
 41
0.100000
 42
0.000000
  0
SEQEND
  0
TEXT
  8
MA_AUTOSILK_TOP
 10
5.100000
 20
4.450000
 11
5.300000
 21
4.450000
 40
0.600000
 41
1.033333
 50
0.000000
  7
STANDARD
 71
0
 72
1
  1
C6
 73
0
  0
TEXT
  8
RD_SILKSCREEN_TOP
 10
5.100000
 20
4.450000
 11
5.300000
 21
4.450000
 40
0.600000
 41
1.033333
 50
0.000000
  7
STANDARD
 71
0
 72
1
  1
C6
 73
0
  0
POLYLINE
  8
PIN_TOP
 66
1
 70
1
 40
0.000000
 41
0.000000
 39
0.000000
  0
VERTEX
  8
PIN_TOP
 10
5.100000
 20
6.425000
 40
0.000000
 41
0.000000
 42
0.000000
  0
VERTEX
  8
PIN_TOP
 10
5.100000
 20
7.375000
 40
0.000000
 41
0.000000
 42
0.000000
  0
VERTEX
  8
PIN_TOP
 10
6.100000
 20
7.375000
 40
0.000000
 41
0.000000
 42
0.000000
  0
VERTEX
  8
PIN_TOP
 10
6.100000
 20
6.425000
 40
0.000000
 41
0.000000
 42
0.000000
  0
SEQEND
  0
POLYLINE
  8
PIN_TOP
 66
1
 70
1
 40
0.000000
 41
0.000000
 39
0.000000
  0
VERTEX
  8
PIN_TOP
 10
5.100000
 20
4.825000
 40
0.000000
 41
0.000000
 42
0.000000
  0
VERTEX
  8
PIN_TOP
 10
5.100000
 20
5.775000
 40
0.000000
 41
0.000000
 42
0.000000
  0
VERTEX
  8
PIN_TOP
 10
6.100000
 20
5.775000
 40
0.000000
 41
0.000000
 42
0.000000
  0
VERTEX
  8
PIN_TOP
 10
6.100000
 20
4.825000
 40
0.000000
 41
0.000000
 42
0.000000
  0
SEQEND
  0
POLYLINE
  8
PG_ASSEMBLY_TOP
 66
1
 70
0
 40
0.000000
 41
0.000000
 39
0.000000
  0
VERTEX
  8
PG_ASSEMBLY_TOP
 10
5.200000
 20
6.900000
 40
0.100000
 41
0.100000
 42
0.000000
  0
VERTEX
  8
PG_ASSEMBLY_TOP
 10
6.000000
 20
6.900000
 40
0.100000
 41
0.100000
 42
0.000000
  0
VERTEX
  8
PG_ASSEMBLY_TOP
 10
6.000000
 20
5.300000
 40
0.100000
 41
0.100000
 42
0.000000
  0
VERTEX
  8
PG_ASSEMBLY_TOP
 10
5.200000
 20
5.300000
 40
0.100000
 41
0.100000
 42
0.000000
  0
VERTEX
  8
PG_ASSEMBLY_TOP
 10
5.200000
 20
6.900000
 40
0.100000
 41
0.100000
 42
0.000000
  0
SEQEND
  0
TEXT
  8
MA_AUTOSILK_TOP
 10
4.100000
 20
6.900000
 11
4.300000
 21
6.900000
 40
0.600000
 41
1.033333
 50
270.000000
  7
STANDARD
 71
0
 72
1
  1
C2
 73
0
  0
TEXT
  8
RD_SILKSCREEN_TOP
 10
4.100000
 20
6.900000
 11
4.300000
 21
6.900000
 40
0.600000
 41
1.033333
 50
270.000000
  7
STANDARD
 71
0
 72
1
  1
C2
 73
0
  0
POLYLINE
  8
PIN_TOP
 66
1
 70
1
 40
0.000000
 41
0.000000
 39
0.000000
  0
VERTEX
  8
PIN_TOP
 10
5.525000
 20
-2.000000
 40
0.000000
 41
0.000000
 42
0.000000
  0
VERTEX
  8
PIN_TOP
 10
6.475000
 20
-2.000000
 40
0.000000
 41
0.000000
 42
0.000000
  0
VERTEX
  8
PIN_TOP
 10
6.475000
 20
-3.000000
 40
0.000000
 41
0.000000
 42
0.000000
  0
VERTEX
  8
PIN_TOP
 10
5.525000
 20
-3.000000
 40
0.000000
 41
0.000000
 42
0.000000
  0
SEQEND
  0
POLYLINE
  8
PIN_TOP
 66
1
 70
1
 40
0.000000
 41
0.000000
 39
0.000000
  0
VERTEX
  8
PIN_TOP
 10
3.925000
 20
-2.000000
 40
0.000000
 41
0.000000
 42
0.000000
  0
VERTEX
  8
PIN_TOP
 10
4.875000
 20
-2.000000
 40
0.000000
 41
0.000000
 42
0.000000
  0
VERTEX
  8
PIN_TOP
 10
4.875000
 20
-3.000000
 40
0.000000
 41
0.000000
 42
0.000000
  0
VERTEX
  8
PIN_TOP
 10
3.925000
 20
-3.000000
 40
0.000000
 41
0.000000
 42
0.000000
  0
SEQEND
  0
POLYLINE
  8
PG_ASSEMBLY_TOP
 66
1
 70
0
 40
0.000000
 41
0.000000
 39
0.000000
  0
VERTEX
  8
PG_ASSEMBLY_TOP
 10
6.000000
 20
-2.100000
 40
0.100000
 41
0.100000
 42
0.000000
  0
VERTEX
  8
PG_ASSEMBLY_TOP
 10
6.000000
 20
-2.900000
 40
0.100000
 41
0.100000
 42
0.000000
  0
VERTEX
  8
PG_ASSEMBLY_TOP
 10
4.400000
 20
-2.900000
 40
0.100000
 41
0.100000
 42
0.000000
  0
VERTEX
  8
PG_ASSEMBLY_TOP
 10
4.400000
 20
-2.100000
 40
0.100000
 41
0.100000
 42
0.000000
  0
VERTEX
  8
PG_ASSEMBLY_TOP
 10
6.000000
 20
-2.100000
 40
0.100000
 41
0.100000
 42
0.000000
  0
SEQEND
  0
TEXT
  8
MA_AUTOSILK_TOP
 10
7.200000
 20
-2.500000
 11
7.400000
 21
-2.500000
 40
0.600000
 41
1.033333
 50
0.000000
  7
STANDARD
 71
0
 72
1
  1
C3
 73
0
  0
TEXT
  8
RD_SILKSCREEN_TOP
 10
7.200000
 20
-2.500000
 11
7.400000
 21
-2.500000
 40
0.600000
 41
1.033333
 50
0.000000
  7
STANDARD
 71
0
 72
1
  1
C3
 73
0
  0
POLYLINE
  8
PIN_TOP
 66
1
 70
1
 40
0.000000
 41
0.000000
 39
0.000000
  0
VERTEX
  8
PIN_TOP
 10
-2.100000
 20
3.675000
 40
0.000000
 41
0.000000
 42
0.000000
  0
VERTEX
  8
PIN_TOP
 10
-2.100000
 20
2.725000
 40
0.000000
 41
0.000000
 42
0.000000
  0
VERTEX
  8
PIN_TOP
 10
-3.100000
 20
2.725000
 40
0.000000
 41
0.000000
 42
0.000000
  0
VERTEX
  8
PIN_TOP
 10
-3.100000
 20
3.675000
 40
0.000000
 41
0.000000
 42
0.000000
  0
SEQEND
  0
POLYLINE
  8
PIN_TOP
 66
1
 70
1
 40
0.000000
 41
0.000000
 39
0.000000
  0
VERTEX
  8
PIN_TOP
 10
-2.100000
 20
5.275000
 40
0.000000
 41
0.000000
 42
0.000000
  0
VERTEX
  8
PIN_TOP
 10
-2.100000
 20
4.325000
 40
0.000000
 41
0.000000
 42
0.000000
  0
VERTEX
  8
PIN_TOP
 10
-3.100000
 20
4.325000
 40
0.000000
 41
0.000000
 42
0.000000
  0
VERTEX
  8
PIN_TOP
 10
-3.100000
 20
5.275000
 40
0.000000
 41
0.000000
 42
0.000000
  0
SEQEND
  0
POLYLINE
  8
PG_ASSEMBLY_TOP
 66
1
 70
0
 40
0.000000
 41
0.000000
 39
0.000000
  0
VERTEX
  8
PG_ASSEMBLY_TOP
 10
-2.200000
 20
3.200000
 40
0.100000
 41
0.100000
 42
0.000000
  0
VERTEX
  8
PG_ASSEMBLY_TOP
 10
-3.000000
 20
3.200000
 40
0.100000
 41
0.100000
 42
0.000000
  0
VERTEX
  8
PG_ASSEMBLY_TOP
 10
-3.000000
 20
4.800000
 40
0.100000
 41
0.100000
 42
0.000000
  0
VERTEX
  8
PG_ASSEMBLY_TOP
 10
-2.200000
 20
4.800000
 40
0.100000
 41
0.100000
 42
0.000000
  0
VERTEX
  8
PG_ASSEMBLY_TOP
 10
-2.200000
 20
3.200000
 40
0.100000
 41
0.100000
 42
0.000000
  0
SEQEND
  0
TEXT
  8
MA_AUTOSILK_TOP
 10
-2.800000
 20
5.700000
 11
-2.600000
 21
5.700000
 40
0.600000
 41
1.033333
 50
0.000000
  7
STANDARD
 71
0
 72
1
  1
R6
 73
0
  0
TEXT
  8
RD_SILKSCREEN_TOP
 10
-2.800000
 20
5.700000
 11
-2.600000
 21
5.700000
 40
0.600000
 41
1.033333
 50
0.000000
  7
STANDARD
 71
0
 72
1
  1
R6
 73
0
  0
POLYLINE
  8
PIN_TOP
 66
1
 70
1
 40
0.000000
 41
0.000000
 39
0.000000
  0
VERTEX
  8
PIN_TOP
 10
0.525000
 20
4.300000
 40
0.000000
 41
0.000000
 42
0.000000
  0
VERTEX
  8
PIN_TOP
 10
1.475000
 20
4.300000
 40
0.000000
 41
0.000000
 42
0.000000
  0
VERTEX
  8
PIN_TOP
 10
1.475000
 20
3.300000
 40
0.000000
 41
0.000000
 42
0.000000
  0
VERTEX
  8
PIN_TOP
 10
0.525000
 20
3.300000
 40
0.000000
 41
0.000000
 42
0.000000
  0
SEQEND
  0
POLYLINE
  8
PIN_TOP
 66
1
 70
1
 40
0.000000
 41
0.000000
 39
0.000000
  0
VERTEX
  8
PIN_TOP
 10
-1.075000
 20
4.300000
 40
0.000000
 41
0.000000
 42
0.000000
  0
VERTEX
  8
PIN_TOP
 10
-0.125000
 20
4.300000
 40
0.000000
 41
0.000000
 42
0.000000
  0
VERTEX
  8
PIN_TOP
 10
-0.125000
 20
3.300000
 40
0.000000
 41
0.000000
 42
0.000000
  0
VERTEX
  8
PIN_TOP
 10
-1.075000
 20
3.300000
 40
0.000000
 41
0.000000
 42
0.000000
  0
SEQEND
  0
POLYLINE
  8
PG_ASSEMBLY_TOP
 66
1
 70
0
 40
0.000000
 41
0.000000
 39
0.000000
  0
VERTEX
  8
PG_ASSEMBLY_TOP
 10
1.000000
 20
4.200000
 40
0.100000
 41
0.100000
 42
0.000000
  0
VERTEX
  8
PG_ASSEMBLY_TOP
 10
1.000000
 20
3.400000
 40
0.100000
 41
0.100000
 42
0.000000
  0
VERTEX
  8
PG_ASSEMBLY_TOP
 10
-0.600000
 20
3.400000
 40
0.100000
 41
0.100000
 42
0.000000
  0
VERTEX
  8
PG_ASSEMBLY_TOP
 10
-0.600000
 20
4.200000
 40
0.100000
 41
0.100000
 42
0.000000
  0
VERTEX
  8
PG_ASSEMBLY_TOP
 10
1.000000
 20
4.200000
 40
0.100000
 41
0.100000
 42
0.000000
  0
SEQEND
  0
TEXT
  8
MA_AUTOSILK_TOP
 10
0.000000
 20
4.400000
 11
0.200000
 21
4.400000
 40
0.600000
 41
1.033333
 50
0.000000
  7
STANDARD
 71
0
 72
1
  1
R5
 73
0
  0
TEXT
  8
RD_SILKSCREEN_TOP
 10
0.000000
 20
4.400000
 11
0.200000
 21
4.400000
 40
0.600000
 41
1.033333
 50
0.000000
  7
STANDARD
 71
0
 72
1
  1
R5
 73
0
  0
POLYLINE
  8
PIN_TOP
 66
1
 70
1
 40
0.000000
 41
0.000000
 39
0.000000
  0
VERTEX
  8
PIN_TOP
 10
-3.200000
 20
0.825000
 40
0.000000
 41
0.000000
 42
0.000000
  0
VERTEX
  8
PIN_TOP
 10
-3.200000
 20
1.775000
 40
0.000000
 41
0.000000
 42
0.000000
  0
VERTEX
  8
PIN_TOP
 10
-2.200000
 20
1.775000
 40
0.000000
 41
0.000000
 42
0.000000
  0
VERTEX
  8
PIN_TOP
 10
-2.200000
 20
0.825000
 40
0.000000
 41
0.000000
 42
0.000000
  0
SEQEND
  0
POLYLINE
  8
PIN_TOP
 66
1
 70
1
 40
0.000000
 41
0.000000
 39
0.000000
  0
VERTEX
  8
PIN_TOP
 10
-3.200000
 20
-0.775000
 40
0.000000
 41
0.000000
 42
0.000000
  0
VERTEX
  8
PIN_TOP
 10
-3.200000
 20
0.175000
 40
0.000000
 41
0.000000
 42
0.000000
  0
VERTEX
  8
PIN_TOP
 10
-2.200000
 20
0.175000
 40
0.000000
 41
0.000000
 42
0.000000
  0
VERTEX
  8
PIN_TOP
 10
-2.200000
 20
-0.775000
 40
0.000000
 41
0.000000
 42
0.000000
  0
SEQEND
  0
POLYLINE
  8
PG_ASSEMBLY_TOP
 66
1
 70
0
 40
0.000000
 41
0.000000
 39
0.000000
  0
VERTEX
  8
PG_ASSEMBLY_TOP
 10
-3.100000
 20
1.300000
 40
0.100000
 41
0.100000
 42
0.000000
  0
VERTEX
  8
PG_ASSEMBLY_TOP
 10
-2.300000
 20
1.300000
 40
0.100000
 41
0.100000
 42
0.000000
  0
VERTEX
  8
PG_ASSEMBLY_TOP
 10
-2.300000
 20
-0.300000
 40
0.100000
 41
0.100000
 42
0.000000
  0
VERTEX
  8
PG_ASSEMBLY_TOP
 10
-3.100000
 20
-0.300000
 40
0.100000
 41
0.100000
 42
0.000000
  0
VERTEX
  8
PG_ASSEMBLY_TOP
 10
-3.100000
 20
1.300000
 40
0.100000
 41
0.100000
 42
0.000000
  0
SEQEND
  0
TEXT
  8
MA_AUTOSILK_TOP
 10
-2.900000
 20
2.000000
 11
-2.700000
 21
2.000000
 40
0.600000
 41
1.033333
 50
0.000000
  7
STANDARD
 71
0
 72
1
  1
R4
 73
0
  0
TEXT
  8
RD_SILKSCREEN_TOP
 10
-2.900000
 20
2.000000
 11
-2.700000
 21
2.000000
 40
0.600000
 41
1.033333
 50
0.000000
  7
STANDARD
 71
0
 72
1
  1
R4
 73
0
  0
POLYLINE
  8
PIN_TOP
 66
1
 70
1
 40
0.000000
 41
0.000000
 39
0.000000
  0
VERTEX
  8
PIN_TOP
 10
2.200000
 20
1.025000
 40
0.000000
 41
0.000000
 42
0.000000
  0
VERTEX
  8
PIN_TOP
 10
2.200000
 20
1.975000
 40
0.000000
 41
0.000000
 42
0.000000
  0
VERTEX
  8
PIN_TOP
 10
3.200000
 20
1.975000
 40
0.000000
 41
0.000000
 42
0.000000
  0
VERTEX
  8
PIN_TOP
 10
3.200000
 20
1.025000
 40
0.000000
 41
0.000000
 42
0.000000
  0
SEQEND
  0
POLYLINE
  8
PIN_TOP
 66
1
 70
1
 40
0.000000
 41
0.000000
 39
0.000000
  0
VERTEX
  8
PIN_TOP
 10
2.200000
 20
-0.575000
 40
0.000000
 41
0.000000
 42
0.000000
  0
VERTEX
  8
PIN_TOP
 10
2.200000
 20
0.375000
 40
0.000000
 41
0.000000
 42
0.000000
  0
VERTEX
  8
PIN_TOP
 10
3.200000
 20
0.375000
 40
0.000000
 41
0.000000
 42
0.000000
  0
VERTEX
  8
PIN_TOP
 10
3.200000
 20
-0.575000
 40
0.000000
 41
0.000000
 42
0.000000
  0
SEQEND
  0
POLYLINE
  8
PG_ASSEMBLY_TOP
 66
1
 70
0
 40
0.000000
 41
0.000000
 39
0.000000
  0
VERTEX
  8
PG_ASSEMBLY_TOP
 10
2.300000
 20
1.500000
 40
0.100000
 41
0.100000
 42
0.000000
  0
VERTEX
  8
PG_ASSEMBLY_TOP
 10
3.100000
 20
1.500000
 40
0.100000
 41
0.100000
 42
0.000000
  0
VERTEX
  8
PG_ASSEMBLY_TOP
 10
3.100000
 20
-0.100000
 40
0.100000
 41
0.100000
 42
0.000000
  0
VERTEX
  8
PG_ASSEMBLY_TOP
 10
2.300000
 20
-0.100000
 40
0.100000
 41
0.100000
 42
0.000000
  0
VERTEX
  8
PG_ASSEMBLY_TOP
 10
2.300000
 20
1.500000
 40
0.100000
 41
0.100000
 42
0.000000
  0
SEQEND
  0
TEXT
  8
MA_AUTOSILK_TOP
 10
3.800000
 20
2.000000
 11
4.000000
 21
2.000000
 40
0.600000
 41
1.033333
 50
0.000000
  7
STANDARD
 71
0
 72
1
  1
R3
 73
0
  0
TEXT
  8
RD_SILKSCREEN_TOP
 10
3.800000
 20
2.000000
 11
4.000000
 21
2.000000
 40
0.600000
 41
1.033333
 50
0.000000
  7
STANDARD
 71
0
 72
1
  1
R3
 73
0
  0
POLYLINE
  8
PIN_TOP
 66
1
 70
1
 40
0.000000
 41
0.000000
 39
0.000000
  0
VERTEX
  8
PIN_TOP
 10
0.525000
 20
-1.800000
 40
0.000000
 41
0.000000
 42
0.000000
  0
VERTEX
  8
PIN_TOP
 10
1.475000
 20
-1.800000
 40
0.000000
 41
0.000000
 42
0.000000
  0
VERTEX
  8
PIN_TOP
 10
1.475000
 20
-2.800000
 40
0.000000
 41
0.000000
 42
0.000000
  0
VERTEX
  8
PIN_TOP
 10
0.525000
 20
-2.800000
 40
0.000000
 41
0.000000
 42
0.000000
  0
SEQEND
  0
POLYLINE
  8
PIN_TOP
 66
1
 70
1
 40
0.000000
 41
0.000000
 39
0.000000
  0
VERTEX
  8
PIN_TOP
 10
-1.075000
 20
-1.800000
 40
0.000000
 41
0.000000
 42
0.000000
  0
VERTEX
  8
PIN_TOP
 10
-0.125000
 20
-1.800000
 40
0.000000
 41
0.000000
 42
0.000000
  0
VERTEX
  8
PIN_TOP
 10
-0.125000
 20
-2.800000
 40
0.000000
 41
0.000000
 42
0.000000
  0
VERTEX
  8
PIN_TOP
 10
-1.075000
 20
-2.800000
 40
0.000000
 41
0.000000
 42
0.000000
  0
SEQEND
  0
POLYLINE
  8
PG_ASSEMBLY_TOP
 66
1
 70
0
 40
0.000000
 41
0.000000
 39
0.000000
  0
VERTEX
  8
PG_ASSEMBLY_TOP
 10
1.000000
 20
-1.900000
 40
0.100000
 41
0.100000
 42
0.000000
  0
VERTEX
  8
PG_ASSEMBLY_TOP
 10
1.000000
 20
-2.700000
 40
0.100000
 41
0.100000
 42
0.000000
  0
VERTEX
  8
PG_ASSEMBLY_TOP
 10
-0.600000
 20
-2.700000
 40
0.100000
 41
0.100000
 42
0.000000
  0
VERTEX
  8
PG_ASSEMBLY_TOP
 10
-0.600000
 20
-1.900000
 40
0.100000
 41
0.100000
 42
0.000000
  0
VERTEX
  8
PG_ASSEMBLY_TOP
 10
1.000000
 20
-1.900000
 40
0.100000
 41
0.100000
 42
0.000000
  0
SEQEND
  0
TEXT
  8
MA_AUTOSILK_TOP
 10
-1.700000
 20
-1.900000
 11
-1.500000
 21
-1.900000
 40
0.600000
 41
1.033333
 50
0.000000
  7
STANDARD
 71
0
 72
1
  1
R2
 73
0
  0
TEXT
  8
RD_SILKSCREEN_TOP
 10
-1.700000
 20
-1.900000
 11
-1.500000
 21
-1.900000
 40
0.600000
 41
1.033333
 50
0.000000
  7
STANDARD
 71
0
 72
1
  1
R2
 73
0
  0
POLYLINE
  8
PIN_TOP
 66
1
 70
1
 40
0.000000
 41
0.000000
 39
0.000000
  0
VERTEX
  8
PIN_TOP
 10
-3.200000
 20
-2.575000
 40
0.000000
 41
0.000000
 42
0.000000
  0
VERTEX
  8
PIN_TOP
 10
-3.200000
 20
-1.625000
 40
0.000000
 41
0.000000
 42
0.000000
  0
VERTEX
  8
PIN_TOP
 10
-2.200000
 20
-1.625000
 40
0.000000
 41
0.000000
 42
0.000000
  0
VERTEX
  8
PIN_TOP
 10
-2.200000
 20
-2.575000
 40
0.000000
 41
0.000000
 42
0.000000
  0
SEQEND
  0
POLYLINE
  8
PIN_TOP
 66
1
 70
1
 40
0.000000
 41
0.000000
 39
0.000000
  0
VERTEX
  8
PIN_TOP
 10
-3.200000
 20
-4.175000
 40
0.000000
 41
0.000000
 42
0.000000
  0
VERTEX
  8
PIN_TOP
 10
-3.200000
 20
-3.225000
 40
0.000000
 41
0.000000
 42
0.000000
  0
VERTEX
  8
PIN_TOP
 10
-2.200000
 20
-3.225000
 40
0.000000
 41
0.000000
 42
0.000000
  0
VERTEX
  8
PIN_TOP
 10
-2.200000
 20
-4.175000
 40
0.000000
 41
0.000000
 42
0.000000
  0
SEQEND
  0
POLYLINE
  8
PG_ASSEMBLY_TOP
 66
1
 70
0
 40
0.000000
 41
0.000000
 39
0.000000
  0
VERTEX
  8
PG_ASSEMBLY_TOP
 10
-3.100000
 20
-2.100000
 40
0.100000
 41
0.100000
 42
0.000000
  0
VERTEX
  8
PG_ASSEMBLY_TOP
 10
-2.300000
 20
-2.100000
 40
0.100000
 41
0.100000
 42
0.000000
  0
VERTEX
  8
PG_ASSEMBLY_TOP
 10
-2.300000
 20
-3.700000
 40
0.100000
 41
0.100000
 42
0.000000
  0
VERTEX
  8
PG_ASSEMBLY_TOP
 10
-3.100000
 20
-3.700000
 40
0.100000
 41
0.100000
 42
0.000000
  0
VERTEX
  8
PG_ASSEMBLY_TOP
 10
-3.100000
 20
-2.100000
 40
0.100000
 41
0.100000
 42
0.000000
  0
SEQEND
  0
TEXT
  8
MA_AUTOSILK_TOP
 10
-1.800000
 20
-3.500000
 11
-1.600000
 21
-3.500000
 40
0.600000
 41
1.033333
 50
0.000000
  7
STANDARD
 71
0
 72
1
  1
R1
 73
0
  0
TEXT
  8
RD_SILKSCREEN_TOP
 10
-1.800000
 20
-3.500000
 11
-1.600000
 21
-3.500000
 40
0.600000
 41
1.033333
 50
0.000000
  7
STANDARD
 71
0
 72
1
  1
R1
 73
0
  0
POLYLINE
  8
PIN_TOP
 66
1
 70
1
 40
0.000000
 41
0.000000
 39
0.000000
  0
VERTEX
  8
PIN_TOP
 10
-5.425000
 20
4.000000
 40
0.000000
 41
0.000000
 42
0.000000
  0
VERTEX
  8
PIN_TOP
 10
-6.375000
 20
4.000000
 40
0.000000
 41
0.000000
 42
0.000000
  0
VERTEX
  8
PIN_TOP
 10
-6.375000
 20
5.000000
 40
0.000000
 41
0.000000
 42
0.000000
  0
VERTEX
  8
PIN_TOP
 10
-5.425000
 20
5.000000
 40
0.000000
 41
0.000000
 42
0.000000
  0
SEQEND
  0
POLYLINE
  8
PIN_TOP
 66
1
 70
1
 40
0.000000
 41
0.000000
 39
0.000000
  0
VERTEX
  8
PIN_TOP
 10
-3.825000
 20
4.000000
 40
0.000000
 41
0.000000
 42
0.000000
  0
VERTEX
  8
PIN_TOP
 10
-4.775000
 20
4.000000
 40
0.000000
 41
0.000000
 42
0.000000
  0
VERTEX
  8
PIN_TOP
 10
-4.775000
 20
5.000000
 40
0.000000
 41
0.000000
 42
0.000000
  0
VERTEX
  8
PIN_TOP
 10
-3.825000
 20
5.000000
 40
0.000000
 41
0.000000
 42
0.000000
  0
SEQEND
  0
POLYLINE
  8
PG_ASSEMBLY_TOP
 66
1
 70
0
 40
0.000000
 41
0.000000
 39
0.000000
  0
VERTEX
  8
PG_ASSEMBLY_TOP
 10
-5.900000
 20
4.100000
 40
0.100000
 41
0.100000
 42
0.000000
  0
VERTEX
  8
PG_ASSEMBLY_TOP
 10
-5.900000
 20
4.900000
 40
0.100000
 41
0.100000
 42
0.000000
  0
VERTEX
  8
PG_ASSEMBLY_TOP
 10
-4.300000
 20
4.900000
 40
0.100000
 41
0.100000
 42
0.000000
  0
VERTEX
  8
PG_ASSEMBLY_TOP
 10
-4.300000
 20
4.100000
 40
0.100000
 41
0.100000
 42
0.000000
  0
VERTEX
  8
PG_ASSEMBLY_TOP
 10
-5.900000
 20
4.100000
 40
0.100000
 41
0.100000
 42
0.000000
  0
SEQEND
  0
TEXT
  8
MA_AUTOSILK_TOP
 10
-5.300000
 20
5.250000
 11
-5.100000
 21
5.250000
 40
0.600000
 41
1.033333
 50
0.000000
  7
STANDARD
 71
0
 72
1
  1
C12
 73
0
  0
TEXT
  8
RD_SILKSCREEN_TOP
 10
-5.300000
 20
5.250000
 11
-5.100000
 21
5.250000
 40
0.600000
 41
1.033333
 50
0.000000
  7
STANDARD
 71
0
 72
1
  1
C12
 73
0
  0
POLYLINE
  8
PIN_TOP
 66
1
 70
1
 40
0.000000
 41
0.000000
 39
0.000000
  0
VERTEX
  8
PIN_TOP
 10
3.200000
 20
3.575000
 40
0.000000
 41
0.000000
 42
0.000000
  0
VERTEX
  8
PIN_TOP
 10
3.200000
 20
2.625000
 40
0.000000
 41
0.000000
 42
0.000000
  0
VERTEX
  8
PIN_TOP
 10
2.200000
 20
2.625000
 40
0.000000
 41
0.000000
 42
0.000000
  0
VERTEX
  8
PIN_TOP
 10
2.200000
 20
3.575000
 40
0.000000
 41
0.000000
 42
0.000000
  0
SEQEND
  0
POLYLINE
  8
PIN_TOP
 66
1
 70
1
 40
0.000000
 41
0.000000
 39
0.000000
  0
VERTEX
  8
PIN_TOP
 10
3.200000
 20
5.175000
 40
0.000000
 41
0.000000
 42
0.000000
  0
VERTEX
  8
PIN_TOP
 10
3.200000
 20
4.225000
 40
0.000000
 41
0.000000
 42
0.000000
  0
VERTEX
  8
PIN_TOP
 10
2.200000
 20
4.225000
 40
0.000000
 41
0.000000
 42
0.000000
  0
VERTEX
  8
PIN_TOP
 10
2.200000
 20
5.175000
 40
0.000000
 41
0.000000
 42
0.000000
  0
SEQEND
  0
POLYLINE
  8
PG_ASSEMBLY_TOP
 66
1
 70
0
 40
0.000000
 41
0.000000
 39
0.000000
  0
VERTEX
  8
PG_ASSEMBLY_TOP
 10
3.100000
 20
3.100000
 40
0.100000
 41
0.100000
 42
0.000000
  0
VERTEX
  8
PG_ASSEMBLY_TOP
 10
2.300000
 20
3.100000
 40
0.100000
 41
0.100000
 42
0.000000
  0
VERTEX
  8
PG_ASSEMBLY_TOP
 10
2.300000
 20
4.700000
 40
0.100000
 41
0.100000
 42
0.000000
  0
VERTEX
  8
PG_ASSEMBLY_TOP
 10
3.100000
 20
4.700000
 40
0.100000
 41
0.100000
 42
0.000000
  0
VERTEX
  8
PG_ASSEMBLY_TOP
 10
3.100000
 20
3.100000
 40
0.100000
 41
0.100000
 42
0.000000
  0
SEQEND
  0
TEXT
  8
MA_AUTOSILK_TOP
 10
2.800000
 20
5.400000
 11
3.000000
 21
5.400000
 40
0.600000
 41
1.033333
 50
0.000000
  7
STANDARD
 71
0
 72
1
  1
C11
 73
0
  0
TEXT
  8
RD_SILKSCREEN_TOP
 10
2.800000
 20
5.400000
 11
3.000000
 21
5.400000
 40
0.600000
 41
1.033333
 50
0.000000
  7
STANDARD
 71
0
 72
1
  1
C11
 73
0
  0
POLYLINE
  8
PIN_TOP
 66
1
 70
1
 40
0.000000
 41
0.000000
 39
0.000000
  0
VERTEX
  8
PIN_TOP
 10
2.200000
 20
-2.175000
 40
0.000000
 41
0.000000
 42
0.000000
  0
VERTEX
  8
PIN_TOP
 10
2.200000
 20
-1.225000
 40
0.000000
 41
0.000000
 42
0.000000
  0
VERTEX
  8
PIN_TOP
 10
3.200000
 20
-1.225000
 40
0.000000
 41
0.000000
 42
0.000000
  0
VERTEX
  8
PIN_TOP
 10
3.200000
 20
-2.175000
 40
0.000000
 41
0.000000
 42
0.000000
  0
SEQEND
  0
POLYLINE
  8
PIN_TOP
 66
1
 70
1
 40
0.000000
 41
0.000000
 39
0.000000
  0
VERTEX
  8
PIN_TOP
 10
2.200000
 20
-3.775000
 40
0.000000
 41
0.000000
 42
0.000000
  0
VERTEX
  8
PIN_TOP
 10
2.200000
 20
-2.825000
 40
0.000000
 41
0.000000
 42
0.000000
  0
VERTEX
  8
PIN_TOP
 10
3.200000
 20
-2.825000
 40
0.000000
 41
0.000000
 42
0.000000
  0
VERTEX
  8
PIN_TOP
 10
3.200000
 20
-3.775000
 40
0.000000
 41
0.000000
 42
0.000000
  0
SEQEND
  0
POLYLINE
  8
PG_ASSEMBLY_TOP
 66
1
 70
0
 40
0.000000
 41
0.000000
 39
0.000000
  0
VERTEX
  8
PG_ASSEMBLY_TOP
 10
2.300000
 20
-1.700000
 40
0.100000
 41
0.100000
 42
0.000000
  0
VERTEX
  8
PG_ASSEMBLY_TOP
 10
3.100000
 20
-1.700000
 40
0.100000
 41
0.100000
 42
0.000000
  0
VERTEX
  8
PG_ASSEMBLY_TOP
 10
3.100000
 20
-3.300000
 40
0.100000
 41
0.100000
 42
0.000000
  0
VERTEX
  8
PG_ASSEMBLY_TOP
 10
2.300000
 20
-3.300000
 40
0.100000
 41
0.100000
 42
0.000000
  0
VERTEX
  8
PG_ASSEMBLY_TOP
 10
2.300000
 20
-1.700000
 40
0.100000
 41
0.100000
 42
0.000000
  0
SEQEND
  0
TEXT
  8
MA_AUTOSILK_TOP
 10
2.800000
 20
-4.600000
 11
3.000000
 21
-4.600000
 40
0.600000
 41
1.033333
 50
0.000000
  7
STANDARD
 71
0
 72
1
  1
C10
 73
0
  0
TEXT
  8
RD_SILKSCREEN_TOP
 10
2.800000
 20
-4.600000
 11
3.000000
 21
-4.600000
 40
0.600000
 41
1.033333
 50
0.000000
  7
STANDARD
 71
0
 72
1
  1
C10
 73
0
  0
POLYLINE
  8
PIN_TOP
 66
1
 70
1
 40
0.000000
 41
0.000000
 39
0.000000
  0
VERTEX
  8
PIN_TOP
 10
-0.125000
 20
-4.300000
 40
0.000000
 41
0.000000
 42
0.000000
  0
VERTEX
  8
PIN_TOP
 10
-1.075000
 20
-4.300000
 40
0.000000
 41
0.000000
 42
0.000000
  0
VERTEX
  8
PIN_TOP
 10
-1.075000
 20
-3.300000
 40
0.000000
 41
0.000000
 42
0.000000
  0
VERTEX
  8
PIN_TOP
 10
-0.125000
 20
-3.300000
 40
0.000000
 41
0.000000
 42
0.000000
  0
SEQEND
  0
POLYLINE
  8
PIN_TOP
 66
1
 70
1
 40
0.000000
 41
0.000000
 39
0.000000
  0
VERTEX
  8
PIN_TOP
 10
1.475000
 20
-4.300000
 40
0.000000
 41
0.000000
 42
0.000000
  0
VERTEX
  8
PIN_TOP
 10
0.525000
 20
-4.300000
 40
0.000000
 41
0.000000
 42
0.000000
  0
VERTEX
  8
PIN_TOP
 10
0.525000
 20
-3.300000
 40
0.000000
 41
0.000000
 42
0.000000
  0
VERTEX
  8
PIN_TOP
 10
1.475000
 20
-3.300000
 40
0.000000
 41
0.000000
 42
0.000000
  0
SEQEND
  0
POLYLINE
  8
PG_ASSEMBLY_TOP
 66
1
 70
0
 40
0.000000
 41
0.000000
 39
0.000000
  0
VERTEX
  8
PG_ASSEMBLY_TOP
 10
-0.600000
 20
-4.200000
 40
0.100000
 41
0.100000
 42
0.000000
  0
VERTEX
  8
PG_ASSEMBLY_TOP
 10
-0.600000
 20
-3.400000
 40
0.100000
 41
0.100000
 42
0.000000
  0
VERTEX
  8
PG_ASSEMBLY_TOP
 10
1.000000
 20
-3.400000
 40
0.100000
 41
0.100000
 42
0.000000
  0
VERTEX
  8
PG_ASSEMBLY_TOP
 10
1.000000
 20
-4.200000
 40
0.100000
 41
0.100000
 42
0.000000
  0
VERTEX
  8
PG_ASSEMBLY_TOP
 10
-0.600000
 20
-4.200000
 40
0.100000
 41
0.100000
 42
0.000000
  0
SEQEND
  0
TEXT
  8
MA_AUTOSILK_TOP
 10
0.300000
 20
-5.300000
 11
0.500000
 21
-5.300000
 40
0.600000
 41
1.033333
 50
0.000000
  7
STANDARD
 71
0
 72
1
  1
C9
 73
0
  0
TEXT
  8
RD_SILKSCREEN_TOP
 10
0.300000
 20
-5.300000
 11
0.500000
 21
-5.300000
 40
0.600000
 41
1.033333
 50
0.000000
  7
STANDARD
 71
0
 72
1
  1
C9
 73
0
  0
POLYLINE
  8
PIN_TOP
 66
1
 70
1
 40
0.000000
 41
0.000000
 39
0.000000
  0
VERTEX
  8
PIN_TOP
 10
-0.225000
 20
5.100000
 40
0.000000
 41
0.000000
 42
0.000000
  0
VERTEX
  8
PIN_TOP
 10
-1.175000
 20
5.100000
 40
0.000000
 41
0.000000
 42
0.000000
  0
VERTEX
  8
PIN_TOP
 10
-1.175000
 20
6.100000
 40
0.000000
 41
0.000000
 42
0.000000
  0
VERTEX
  8
PIN_TOP
 10
-0.225000
 20
6.100000
 40
0.000000
 41
0.000000
 42
0.000000
  0
SEQEND
  0
POLYLINE
  8
PIN_TOP
 66
1
 70
1
 40
0.000000
 41
0.000000
 39
0.000000
  0
VERTEX
  8
PIN_TOP
 10
1.375000
 20
5.100000
 40
0.000000
 41
0.000000
 42
0.000000
  0
VERTEX
  8
PIN_TOP
 10
0.425000
 20
5.100000
 40
0.000000
 41
0.000000
 42
0.000000
  0
VERTEX
  8
PIN_TOP
 10
0.425000
 20
6.100000
 40
0.000000
 41
0.000000
 42
0.000000
  0
VERTEX
  8
PIN_TOP
 10
1.375000
 20
6.100000
 40
0.000000
 41
0.000000
 42
0.000000
  0
SEQEND
  0
POLYLINE
  8
PG_ASSEMBLY_TOP
 66
1
 70
0
 40
0.000000
 41
0.000000
 39
0.000000
  0
VERTEX
  8
PG_ASSEMBLY_TOP
 10
-0.700000
 20
5.200000
 40
0.100000
 41
0.100000
 42
0.000000
  0
VERTEX
  8
PG_ASSEMBLY_TOP
 10
-0.700000
 20
6.000000
 40
0.100000
 41
0.100000
 42
0.000000
  0
VERTEX
  8
PG_ASSEMBLY_TOP
 10
0.900000
 20
6.000000
 40
0.100000
 41
0.100000
 42
0.000000
  0
VERTEX
  8
PG_ASSEMBLY_TOP
 10
0.900000
 20
5.200000
 40
0.100000
 41
0.100000
 42
0.000000
  0
VERTEX
  8
PG_ASSEMBLY_TOP
 10
-0.700000
 20
5.200000
 40
0.100000
 41
0.100000
 42
0.000000
  0
SEQEND
  0
TEXT
  8
MA_AUTOSILK_TOP
 10
-0.100000
 20
6.350000
 11
0.100000
 21
6.350000
 40
0.600000
 41
1.033333
 50
0.000000
  7
STANDARD
 71
0
 72
1
  1
C8
 73
0
  0
TEXT
  8
RD_SILKSCREEN_TOP
 10
-0.100000
 20
6.350000
 11
0.100000
 21
6.350000
 40
0.600000
 41
1.033333
 50
0.000000
  7
STANDARD
 71
0
 72
1
  1
C8
 73
0
  0
POLYLINE
  8
PIN_TOP
 66
1
 70
1
 40
0.000000
 41
0.000000
 39
0.000000
  0
VERTEX
  8
PIN_TOP
 10
-4.875000
 20
-3.200000
 40
0.000000
 41
0.000000
 42
0.000000
  0
VERTEX
  8
PIN_TOP
 10
-3.925000
 20
-3.200000
 40
0.000000
 41
0.000000
 42
0.000000
  0
VERTEX
  8
PIN_TOP
 10
-3.925000
 20
-4.200000
 40
0.000000
 41
0.000000
 42
0.000000
  0
VERTEX
  8
PIN_TOP
 10
-4.875000
 20
-4.200000
 40
0.000000
 41
0.000000
 42
0.000000
  0
SEQEND
  0
POLYLINE
  8
PIN_TOP
 66
1
 70
1
 40
0.000000
 41
0.000000
 39
0.000000
  0
VERTEX
  8
PIN_TOP
 10
-6.475000
 20
-3.200000
 40
0.000000
 41
0.000000
 42
0.000000
  0
VERTEX
  8
PIN_TOP
 10
-5.525000
 20
-3.200000
 40
0.000000
 41
0.000000
 42
0.000000
  0
VERTEX
  8
PIN_TOP
 10
-5.525000
 20
-4.200000
 40
0.000000
 41
0.000000
 42
0.000000
  0
VERTEX
  8
PIN_TOP
 10
-6.475000
 20
-4.200000
 40
0.000000
 41
0.000000
 42
0.000000
  0
SEQEND
  0
POLYLINE
  8
PG_ASSEMBLY_TOP
 66
1
 70
0
 40
0.000000
 41
0.000000
 39
0.000000
  0
VERTEX
  8
PG_ASSEMBLY_TOP
 10
-4.400000
 20
-3.300000
 40
0.100000
 41
0.100000
 42
0.000000
  0
VERTEX
  8
PG_ASSEMBLY_TOP
 10
-4.400000
 20
-4.100000
 40
0.100000
 41
0.100000
 42
0.000000
  0
VERTEX
  8
PG_ASSEMBLY_TOP
 10
-6.000000
 20
-4.100000
 40
0.100000
 41
0.100000
 42
0.000000
  0
VERTEX
  8
PG_ASSEMBLY_TOP
 10
-6.000000
 20
-3.300000
 40
0.100000
 41
0.100000
 42
0.000000
  0
VERTEX
  8
PG_ASSEMBLY_TOP
 10
-4.400000
 20
-3.300000
 40
0.100000
 41
0.100000
 42
0.000000
  0
SEQEND
  0
TEXT
  8
MA_AUTOSILK_TOP
 10
-5.600000
 20
-5.200000
 11
-5.400000
 21
-5.200000
 40
0.600000
 41
1.033333
 50
0.000000
  7
STANDARD
 71
0
 72
1
  1
C7
 73
0
  0
TEXT
  8
RD_SILKSCREEN_TOP
 10
-5.600000
 20
-5.200000
 11
-5.400000
 21
-5.200000
 40
0.600000
 41
1.033333
 50
0.000000
  7
STANDARD
 71
0
 72
1
  1
C7
 73
0
  0
CIRCLE
  8
PIN_TOP
 10
-1.900000
 20
7.800000
 40
0.698500
  0
POLYLINE
  8
MA_AUTOSILK_TOP
 66
1
 70
0
 40
0.000000
 41
0.000000
 39
0.000000
  0
VERTEX
  8
MA_AUTOSILK_TOP
 10
-3.200000
 20
8.950000
 40
0.200000
 41
0.200000
 42
0.000000
  0
VERTEX
  8
MA_AUTOSILK_TOP
 10
-0.600000
 20
8.950000
 40
0.200000
 41
0.200000
 42
0.000000
  0
VERTEX
  8
MA_AUTOSILK_TOP
 10
-0.600000
 20
6.650000
 40
0.200000
 41
0.200000
 42
0.000000
  0
VERTEX
  8
MA_AUTOSILK_TOP
 10
-3.200000
 20
6.650000
 40
0.200000
 41
0.200000
 42
0.000000
  0
VERTEX
  8
MA_AUTOSILK_TOP
 10
-3.200000
 20
8.950000
 40
0.200000
 41
0.200000
 42
0.000000
  0
SEQEND
  0
POLYLINE
  8
PG_SILKSCREEN_TOP
 66
1
 70
0
 40
0.000000
 41
0.000000
 39
0.000000
  0
VERTEX
  8
PG_SILKSCREEN_TOP
 10
-3.200000
 20
8.950000
 40
0.200000
 41
0.200000
 42
0.000000
  0
VERTEX
  8
PG_SILKSCREEN_TOP
 10
-0.600000
 20
8.950000
 40
0.200000
 41
0.200000
 42
0.000000
  0
VERTEX
  8
PG_SILKSCREEN_TOP
 10
-0.600000
 20
6.650000
 40
0.200000
 41
0.200000
 42
0.000000
  0
VERTEX
  8
PG_SILKSCREEN_TOP
 10
-3.200000
 20
6.650000
 40
0.200000
 41
0.200000
 42
0.000000
  0
VERTEX
  8
PG_SILKSCREEN_TOP
 10
-3.200000
 20
8.950000
 40
0.200000
 41
0.200000
 42
0.000000
  0
SEQEND
  0
POLYLINE
  8
PG_ASSEMBLY_TOP
 66
1
 70
0
 40
0.000000
 41
0.000000
 39
0.000000
  0
VERTEX
  8
PG_ASSEMBLY_TOP
 10
-3.195000
 20
8.945000
 40
0.100000
 41
0.100000
 42
0.000000
  0
VERTEX
  8
PG_ASSEMBLY_TOP
 10
-0.605000
 20
8.945000
 40
0.100000
 41
0.100000
 42
0.000000
  0
VERTEX
  8
PG_ASSEMBLY_TOP
 10
-0.605000
 20
6.655000
 40
0.100000
 41
0.100000
 42
0.000000
  0
VERTEX
  8
PG_ASSEMBLY_TOP
 10
-3.195000
 20
6.655000
 40
0.100000
 41
0.100000
 42
0.000000
  0
VERTEX
  8
PG_ASSEMBLY_TOP
 10
-3.195000
 20
8.945000
 40
0.100000
 41
0.100000
 42
0.000000
  0
SEQEND
  0
POLYLINE
  8
PG_ASSEMBLY_TOP
 66
1
 70
0
 40
0.000000
 41
0.000000
 39
0.000000
  0
VERTEX
  8
PG_ASSEMBLY_TOP
 10
-2.700000
 20
8.600000
 40
0.100000
 41
0.100000
 42
0.000000
  0
VERTEX
  8
PG_ASSEMBLY_TOP
 10
-1.100000
 20
8.600000
 40
0.100000
 41
0.100000
 42
0.000000
  0
VERTEX
  8
PG_ASSEMBLY_TOP
 10
-1.100000
 20
7.000000
 40
0.100000
 41
0.100000
 42
0.000000
  0
VERTEX
  8
PG_ASSEMBLY_TOP
 10
-2.700000
 20
7.000000
 40
0.100000
 41
0.100000
 42
0.000000
  0
VERTEX
  8
PG_ASSEMBLY_TOP
 10
-2.700000
 20
8.600000
 40
0.100000
 41
0.100000
 42
0.000000
  0
SEQEND
  0
TEXT
  8
MA_AUTOSILK_TOP
 10
-4.800000
 20
6.600000
 11
-4.600000
 21
6.600000
 40
0.600000
 41
1.033333
 50
0.000000
  7
STANDARD
 71
0
 72
1
  1
OUT-
 73
0
  0
TEXT
  8
RD_SILKSCREEN_TOP
 10
-4.800000
 20
6.600000
 11
-4.600000
 21
6.600000
 40
0.600000
 41
1.033333
 50
0.000000
  7
STANDARD
 71
0
 72
1
  1
OUT-
 73
0
  0
CIRCLE
  8
PIN_TOP
 10
-2.800000
 20
-5.900000
 40
0.698500
  0
POLYLINE
  8
MA_AUTOSILK_TOP
 66
1
 70
0
 40
0.000000
 41
0.000000
 39
0.000000
  0
VERTEX
  8
MA_AUTOSILK_TOP
 10
-1.500000
 20
-7.050000
 40
0.200000
 41
0.200000
 42
0.000000
  0
VERTEX
  8
MA_AUTOSILK_TOP
 10
-4.100000
 20
-7.050000
 40
0.200000
 41
0.200000
 42
0.000000
  0
VERTEX
  8
MA_AUTOSILK_TOP
 10
-4.100000
 20
-4.750000
 40
0.200000
 41
0.200000
 42
0.000000
  0
VERTEX
  8
MA_AUTOSILK_TOP
 10
-1.500000
 20
-4.750000
 40
0.200000
 41
0.200000
 42
0.000000
  0
VERTEX
  8
MA_AUTOSILK_TOP
 10
-1.500000
 20
-7.050000
 40
0.200000
 41
0.200000
 42
0.000000
  0
SEQEND
  0
POLYLINE
  8
PG_SILKSCREEN_TOP
 66
1
 70
0
 40
0.000000
 41
0.000000
 39
0.000000
  0
VERTEX
  8
PG_SILKSCREEN_TOP
 10
-1.500000
 20
-7.050000
 40
0.200000
 41
0.200000
 42
0.000000
  0
VERTEX
  8
PG_SILKSCREEN_TOP
 10
-4.100000
 20
-7.050000
 40
0.200000
 41
0.200000
 42
0.000000
  0
VERTEX
  8
PG_SILKSCREEN_TOP
 10
-4.100000
 20
-4.750000
 40
0.200000
 41
0.200000
 42
0.000000
  0
VERTEX
  8
PG_SILKSCREEN_TOP
 10
-1.500000
 20
-4.750000
 40
0.200000
 41
0.200000
 42
0.000000
  0
VERTEX
  8
PG_SILKSCREEN_TOP
 10
-1.500000
 20
-7.050000
 40
0.200000
 41
0.200000
 42
0.000000
  0
SEQEND
  0
POLYLINE
  8
PG_ASSEMBLY_TOP
 66
1
 70
0
 40
0.000000
 41
0.000000
 39
0.000000
  0
VERTEX
  8
PG_ASSEMBLY_TOP
 10
-1.505000
 20
-7.045000
 40
0.100000
 41
0.100000
 42
0.000000
  0
VERTEX
  8
PG_ASSEMBLY_TOP
 10
-4.095000
 20
-7.045000
 40
0.100000
 41
0.100000
 42
0.000000
  0
VERTEX
  8
PG_ASSEMBLY_TOP
 10
-4.095000
 20
-4.755000
 40
0.100000
 41
0.100000
 42
0.000000
  0
VERTEX
  8
PG_ASSEMBLY_TOP
 10
-1.505000
 20
-4.755000
 40
0.100000
 41
0.100000
 42
0.000000
  0
VERTEX
  8
PG_ASSEMBLY_TOP
 10
-1.505000
 20
-7.045000
 40
0.100000
 41
0.100000
 42
0.000000
  0
SEQEND
  0
POLYLINE
  8
PG_ASSEMBLY_TOP
 66
1
 70
0
 40
0.000000
 41
0.000000
 39
0.000000
  0
VERTEX
  8
PG_ASSEMBLY_TOP
 10
-2.000000
 20
-6.700000
 40
0.100000
 41
0.100000
 42
0.000000
  0
VERTEX
  8
PG_ASSEMBLY_TOP
 10
-3.600000
 20
-6.700000
 40
0.100000
 41
0.100000
 42
0.000000
  0
VERTEX
  8
PG_ASSEMBLY_TOP
 10
-3.600000
 20
-5.100000
 40
0.100000
 41
0.100000
 42
0.000000
  0
VERTEX
  8
PG_ASSEMBLY_TOP
 10
-2.000000
 20
-5.100000
 40
0.100000
 41
0.100000
 42
0.000000
  0
VERTEX
  8
PG_ASSEMBLY_TOP
 10
-2.000000
 20
-6.700000
 40
0.100000
 41
0.100000
 42
0.000000
  0
SEQEND
  0
TEXT
  8
MA_AUTOSILK_TOP
 10
-1.300000
 20
-8.000000
 11
-1.100000
 21
-8.000000
 40
0.600000
 41
1.033333
 50
0.000000
  7
STANDARD
 71
0
 72
1
  1
OUT+
 73
0
  0
TEXT
  8
RD_SILKSCREEN_TOP
 10
-1.300000
 20
-8.000000
 11
-1.100000
 21
-8.000000
 40
0.600000
 41
1.033333
 50
0.000000
  7
STANDARD
 71
0
 72
1
  1
OUT+
 73
0
  0
CIRCLE
  8
PIN_TOP
 10
2.900000
 20
-6.000000
 40
0.698500
  0
POLYLINE
  8
MA_AUTOSILK_TOP
 66
1
 70
0
 40
0.000000
 41
0.000000
 39
0.000000
  0
VERTEX
  8
MA_AUTOSILK_TOP
 10
4.200000
 20
-7.150000
 40
0.200000
 41
0.200000
 42
0.000000
  0
VERTEX
  8
MA_AUTOSILK_TOP
 10
1.600000
 20
-7.150000
 40
0.200000
 41
0.200000
 42
0.000000
  0
VERTEX
  8
MA_AUTOSILK_TOP
 10
1.600000
 20
-4.850000
 40
0.200000
 41
0.200000
 42
0.000000
  0
VERTEX
  8
MA_AUTOSILK_TOP
 10
4.200000
 20
-4.850000
 40
0.200000
 41
0.200000
 42
0.000000
  0
VERTEX
  8
MA_AUTOSILK_TOP
 10
4.200000
 20
-7.150000
 40
0.200000
 41
0.200000
 42
0.000000
  0
SEQEND
  0
POLYLINE
  8
PG_SILKSCREEN_TOP
 66
1
 70
0
 40
0.000000
 41
0.000000
 39
0.000000
  0
VERTEX
  8
PG_SILKSCREEN_TOP
 10
4.200000
 20
-7.150000
 40
0.200000
 41
0.200000
 42
0.000000
  0
VERTEX
  8
PG_SILKSCREEN_TOP
 10
1.600000
 20
-7.150000
 40
0.200000
 41
0.200000
 42
0.000000
  0
VERTEX
  8
PG_SILKSCREEN_TOP
 10
1.600000
 20
-4.850000
 40
0.200000
 41
0.200000
 42
0.000000
  0
VERTEX
  8
PG_SILKSCREEN_TOP
 10
4.200000
 20
-4.850000
 40
0.200000
 41
0.200000
 42
0.000000
  0
VERTEX
  8
PG_SILKSCREEN_TOP
 10
4.200000
 20
-7.150000
 40
0.200000
 41
0.200000
 42
0.000000
  0
SEQEND
  0
POLYLINE
  8
PG_ASSEMBLY_TOP
 66
1
 70
0
 40
0.000000
 41
0.000000
 39
0.000000
  0
VERTEX
  8
PG_ASSEMBLY_TOP
 10
4.195000
 20
-7.145000
 40
0.100000
 41
0.100000
 42
0.000000
  0
VERTEX
  8
PG_ASSEMBLY_TOP
 10
1.605000
 20
-7.145000
 40
0.100000
 41
0.100000
 42
0.000000
  0
VERTEX
  8
PG_ASSEMBLY_TOP
 10
1.605000
 20
-4.855000
 40
0.100000
 41
0.100000
 42
0.000000
  0
VERTEX
  8
PG_ASSEMBLY_TOP
 10
4.195000
 20
-4.855000
 40
0.100000
 41
0.100000
 42
0.000000
  0
VERTEX
  8
PG_ASSEMBLY_TOP
 10
4.195000
 20
-7.145000
 40
0.100000
 41
0.100000
 42
0.000000
  0
SEQEND
  0
POLYLINE
  8
PG_ASSEMBLY_TOP
 66
1
 70
0
 40
0.000000
 41
0.000000
 39
0.000000
  0
VERTEX
  8
PG_ASSEMBLY_TOP
 10
3.700000
 20
-6.800000
 40
0.100000
 41
0.100000
 42
0.000000
  0
VERTEX
  8
PG_ASSEMBLY_TOP
 10
2.100000
 20
-6.800000
 40
0.100000
 41
0.100000
 42
0.000000
  0
VERTEX
  8
PG_ASSEMBLY_TOP
 10
2.100000
 20
-5.200000
 40
0.100000
 41
0.100000
 42
0.000000
  0
VERTEX
  8
PG_ASSEMBLY_TOP
 10
3.700000
 20
-5.200000
 40
0.100000
 41
0.100000
 42
0.000000
  0
VERTEX
  8
PG_ASSEMBLY_TOP
 10
3.700000
 20
-6.800000
 40
0.100000
 41
0.100000
 42
0.000000
  0
SEQEND
  0
TEXT
  8
MA_AUTOSILK_TOP
 10
1.100000
 20
-8.100000
 11
1.300000
 21
-8.100000
 40
0.600000
 41
1.033333
 50
0.000000
  7
STANDARD
 71
0
 72
1
  1
GND
 73
0
  0
TEXT
  8
RD_SILKSCREEN_TOP
 10
1.100000
 20
-8.100000
 11
1.300000
 21
-8.100000
 40
0.600000
 41
1.033333
 50
0.000000
  7
STANDARD
 71
0
 72
1
  1
GND
 73
0
  0
CIRCLE
  8
PIN_TOP
 10
2.500000
 20
7.800000
 40
0.698500
  0
POLYLINE
  8
MA_AUTOSILK_TOP
 66
1
 70
0
 40
0.000000
 41
0.000000
 39
0.000000
  0
VERTEX
  8
MA_AUTOSILK_TOP
 10
1.200000
 20
8.950000
 40
0.200000
 41
0.200000
 42
0.000000
  0
VERTEX
  8
MA_AUTOSILK_TOP
 10
3.800000
 20
8.950000
 40
0.200000
 41
0.200000
 42
0.000000
  0
VERTEX
  8
MA_AUTOSILK_TOP
 10
3.800000
 20
6.650000
 40
0.200000
 41
0.200000
 42
0.000000
  0
VERTEX
  8
MA_AUTOSILK_TOP
 10
1.200000
 20
6.650000
 40
0.200000
 41
0.200000
 42
0.000000
  0
VERTEX
  8
MA_AUTOSILK_TOP
 10
1.200000
 20
8.950000
 40
0.200000
 41
0.200000
 42
0.000000
  0
SEQEND
  0
POLYLINE
  8
PG_SILKSCREEN_TOP
 66
1
 70
0
 40
0.000000
 41
0.000000
 39
0.000000
  0
VERTEX
  8
PG_SILKSCREEN_TOP
 10
1.200000
 20
8.950000
 40
0.200000
 41
0.200000
 42
0.000000
  0
VERTEX
  8
PG_SILKSCREEN_TOP
 10
3.800000
 20
8.950000
 40
0.200000
 41
0.200000
 42
0.000000
  0
VERTEX
  8
PG_SILKSCREEN_TOP
 10
3.800000
 20
6.650000
 40
0.200000
 41
0.200000
 42
0.000000
  0
VERTEX
  8
PG_SILKSCREEN_TOP
 10
1.200000
 20
6.650000
 40
0.200000
 41
0.200000
 42
0.000000
  0
VERTEX
  8
PG_SILKSCREEN_TOP
 10
1.200000
 20
8.950000
 40
0.200000
 41
0.200000
 42
0.000000
  0
SEQEND
  0
POLYLINE
  8
PG_ASSEMBLY_TOP
 66
1
 70
0
 40
0.000000
 41
0.000000
 39
0.000000
  0
VERTEX
  8
PG_ASSEMBLY_TOP
 10
1.205000
 20
8.945000
 40
0.100000
 41
0.100000
 42
0.000000
  0
VERTEX
  8
PG_ASSEMBLY_TOP
 10
3.795000
 20
8.945000
 40
0.100000
 41
0.100000
 42
0.000000
  0
VERTEX
  8
PG_ASSEMBLY_TOP
 10
3.795000
 20
6.655000
 40
0.100000
 41
0.100000
 42
0.000000
  0
VERTEX
  8
PG_ASSEMBLY_TOP
 10
1.205000
 20
6.655000
 40
0.100000
 41
0.100000
 42
0.000000
  0
VERTEX
  8
PG_ASSEMBLY_TOP
 10
1.205000
 20
8.945000
 40
0.100000
 41
0.100000
 42
0.000000
  0
SEQEND
  0
POLYLINE
  8
PG_ASSEMBLY_TOP
 66
1
 70
0
 40
0.000000
 41
0.000000
 39
0.000000
  0
VERTEX
  8
PG_ASSEMBLY_TOP
 10
1.700000
 20
8.600000
 40
0.100000
 41
0.100000
 42
0.000000
  0
VERTEX
  8
PG_ASSEMBLY_TOP
 10
3.300000
 20
8.600000
 40
0.100000
 41
0.100000
 42
0.000000
  0
VERTEX
  8
PG_ASSEMBLY_TOP
 10
3.300000
 20
7.000000
 40
0.100000
 41
0.100000
 42
0.000000
  0
VERTEX
  8
PG_ASSEMBLY_TOP
 10
1.700000
 20
7.000000
 40
0.100000
 41
0.100000
 42
0.000000
  0
VERTEX
  8
PG_ASSEMBLY_TOP
 10
1.700000
 20
8.600000
 40
0.100000
 41
0.100000
 42
0.000000
  0
SEQEND
  0
TEXT
  8
MA_AUTOSILK_TOP
 10
0.800000
 20
9.200000
 11
1.000000
 21
9.200000
 40
0.600000
 41
1.033333
 50
0.000000
  7
STANDARD
 71
0
 72
1
  1
ALIM
 73
0
  0
TEXT
  8
RD_SILKSCREEN_TOP
 10
0.800000
 20
9.200000
 11
1.000000
 21
9.200000
 40
0.600000
 41
1.033333
 50
0.000000
  7
STANDARD
 71
0
 72
1
  1
ALIM
 73
0
  0
ENDSEC
  0
EOF
