  0
SECTION
  2
HEADER
  9
$ACADVER
  1
AC1015
  9
$ACADMAINTVER
 70
     6
  9
$DWGCODEPAGE
  3
ANSI_1252
  9
$INSBASE
 10
0.0
 20
0.0
 30
0.0
  9
$EXTMIN
 10
-171.1773695199
 20
-85.3129532505
 30
0.0
  9
$EXTMAX
 10
38.8226304801
 20
39.6870467495
 30
0.0
  9
$LIMMIN
 10
0.0
 20
0.0
  9
$LIMMAX
 10
420.0
 20
297.0
  9
$ORTHOMODE
 70
     0
  9
$REGENMODE
 70
     1
  9
$FILLMODE
 70
     1
  9
$QTEXTMODE
 70
     0
  9
$MIRRTEXT
 70
     1
  9
$LTSCALE
 40
1.0
  9
$ATTMODE
 70
     1
  9
$TEXTSIZE
 40
3.5
  9
$TRACEWID
 40
1.0
  9
$TEXTSTYLE
  7
Standard
  9
$CLAYER
  8
0
  9
$CELTYPE
  6
ByLayer
  9
$CECOLOR
 62
   256
  9
$CELTSCALE
 40
1.0
  9
$DISPSILH
 70
     0
  9
$DIMSCALE
 40
1.0
  9
$DIMASZ
 40
3.302
  9
$DIMEXO
 40
0.0
  9
$DIMDLI
 40
3.75
  9
$DIMRND
 40
0.0
  9
$DIMDLE
 40
0.0
  9
$DIMEXE
 40
1.0
  9
$DIMTP
 40
0.0
  9
$DIMTM
 40
0.0
  9
$DIMTXT
 40
3.5
  9
$DIMCEN
 40
2.5
  9
$DIMTSZ
 40
0.0
  9
$DIMTOL
 70
     0
  9
$DIMLIM
 70
     0
  9
$DIMTIH
 70
     1
  9
$DIMTOH
 70
     1
  9
$DIMSE1
 70
     0
  9
$DIMSE2
 70
     0
  9
$DIMTAD
 70
     1
  9
$DIMZIN
 70
     1
  9
$DIMBLK
  1

  9
$DIMASO
 70
     1
  9
$DIMSHO
 70
     1
  9
$DIMPOST
  1

  9
$DIMAPOST
  1

  9
$DIMALT
 70
     0
  9
$DIMALTD
 70
     3
  9
$DIMALTF
 40
0.0393700787
  9
$DIMLFAC
 40
1.0
  9
$DIMTOFL
 70
     1
  9
$DIMTVP
 40
0.0
  9
$DIMTIX
 70
     0
  9
$DIMSOXD
 70
     0
  9
$DIMSAH
 70
     0
  9
$DIMBLK1
  1

  9
$DIMBLK2
  1

  9
$DIMSTYLE
  2
ISO-25
  9
$DIMCLRD
 70
     0
  9
$DIMCLRE
 70
     0
  9
$DIMCLRT
 70
     0
  9
$DIMTFAC
 40
1.0
  9
$DIMGAP
 40
1.524
  9
$DIMJUST
 70
     0
  9
$DIMSD1
 70
     0
  9
$DIMSD2
 70
     0
  9
$DIMTOLJ
 70
     0
  9
$DIMTZIN
 70
     1
  9
$DIMALTZ
 70
     0
  9
$DIMALTTZ
 70
     0
  9
$DIMUPT
 70
     0
  9
$DIMDEC
 70
     2
  9
$DIMTDEC
 70
     2
  9
$DIMALTU
 70
     2
  9
$DIMALTTD
 70
     3
  9
$DIMTXSTY
  7
Standard
  9
$DIMAUNIT
 70
     0
  9
$DIMADEC
 70
     2
  9
$DIMALTRND
 40
0.0
  9
$DIMAZIN
 70
     0
  9
$DIMDSEP
 70
    44
  9
$DIMATFIT
 70
     3
  9
$DIMFRAC
 70
     0
  9
$DIMLDRBLK
  1

  9
$DIMLUNIT
 70
     2
  9
$DIMLWD
 70
    -2
  9
$DIMLWE
 70
    -2
  9
$DIMTMOVE
 70
     0
  9
$LUNITS
 70
     2
  9
$LUPREC
 70
     2
  9
$SKETCHINC
 40
1.0
  9
$FILLETRAD
 40
0.0
  9
$AUNITS
 70
     0
  9
$AUPREC
 70
     2
  9
$MENU
  1
.
  9
$ELEVATION
 40
0.0
  9
$PELEVATION
 40
0.0
  9
$THICKNESS
 40
0.0
  9
$LIMCHECK
 70
     0
  9
$CHAMFERA
 40
0.0
  9
$CHAMFERB
 40
0.0
  9
$CHAMFERC
 40
0.0
  9
$CHAMFERD
 40
0.0
  9
$SKPOLY
 70
     0
  9
$TDCREATE
 40
2460732.562258357
  9
$TDUCREATE
 40
2460732.52059169
  9
$TDUPDATE
 40
2460732.56228448
  9
$TDUUPDATE
 40
2460732.520617813
  9
$TDINDWG
 40
0.0000000116
  9
$TDUSRTIMER
 40
0.0000000116
  9
$USRTIMER
 70
     1
  9
$ANGBASE
 50
0.0
  9
$ANGDIR
 70
     0
  9
$PDMODE
 70
     0
  9
$PDSIZE
 40
-1.0
  9
$PLINEWID
 40
0.0
  9
$SPLFRAME
 70
     0
  9
$SPLINETYPE
 70
     6
  9
$SPLINESEGS
 70
     8
  9
$HANDSEED
  5
C2
  9
$SURFTAB1
 70
     6
  9
$SURFTAB2
 70
     6
  9
$SURFTYPE
 70
     6
  9
$SURFU
 70
     6
  9
$SURFV
 70
     6
  9
$UCSBASE
  2

  9
$UCSNAME
  2

  9
$UCSORG
 10
0.0
 20
0.0
 30
0.0
  9
$UCSXDIR
 10
1.0
 20
0.0
 30
0.0
  9
$UCSYDIR
 10
0.0
 20
1.0
 30
0.0
  9
$UCSORTHOREF
  2

  9
$UCSORTHOVIEW
 70
     0
  9
$UCSORGTOP
 10
0.0
 20
0.0
 30
0.0
  9
$UCSORGBOTTOM
 10
0.0
 20
0.0
 30
0.0
  9
$UCSORGLEFT
 10
0.0
 20
0.0
 30
0.0
  9
$UCSORGRIGHT
 10
0.0
 20
0.0
 30
0.0
  9
$UCSORGFRONT
 10
0.0
 20
0.0
 30
0.0
  9
$UCSORGBACK
 10
0.0
 20
0.0
 30
0.0
  9
$PUCSBASE
  2

  9
$PUCSNAME
  2

  9
$PUCSORG
 10
0.0
 20
0.0
 30
0.0
  9
$PUCSXDIR
 10
1.0
 20
0.0
 30
0.0
  9
$PUCSYDIR
 10
0.0
 20
1.0
 30
0.0
  9
$PUCSORTHOREF
  2

  9
$PUCSORTHOVIEW
 70
     0
  9
$PUCSORGTOP
 10
0.0
 20
0.0
 30
0.0
  9
$PUCSORGBOTTOM
 10
0.0
 20
0.0
 30
0.0
  9
$PUCSORGLEFT
 10
0.0
 20
0.0
 30
0.0
  9
$PUCSORGRIGHT
 10
0.0
 20
0.0
 30
0.0
  9
$PUCSORGFRONT
 10
0.0
 20
0.0
 30
0.0
  9
$PUCSORGBACK
 10
0.0
 20
0.0
 30
0.0
  9
$USERI1
 70
     0
  9
$USERI2
 70
     0
  9
$USERI3
 70
     0
  9
$USERI4
 70
     0
  9
$USERI5
 70
     0
  9
$USERR1
 40
0.0
  9
$USERR2
 40
0.0
  9
$USERR3
 40
0.0
  9
$USERR4
 40
0.0
  9
$USERR5
 40
0.0
  9
$WORLDVIEW
 70
     1
  9
$SHADEDGE
 70
     3
  9
$SHADEDIF
 70
    70
  9
$TILEMODE
 70
     1
  9
$MAXACTVP
 70
    64
  9
$PINSBASE
 10
0.0
 20
0.0
 30
0.0
  9
$PLIMCHECK
 70
     0
  9
$PEXTMIN
 10
1.0000000000E+20
 20
1.0000000000E+20
 30
1.0000000000E+20
  9
$PEXTMAX
 10
-1.0000000000E+20
 20
-1.0000000000E+20
 30
-1.0000000000E+20
  9
$PLIMMIN
 10
0.0
 20
0.0
  9
$PLIMMAX
 10
420.0
 20
297.0
  9
$UNITMODE
 70
     0
  9
$VISRETAIN
 70
     1
  9
$PLINEGEN
 70
     0
  9
$PSLTSCALE
 70
     1
  9
$TREEDEPTH
 70
  3020
  9
$CMLSTYLE
  2
Standard
  9
$CMLJUST
 70
     0
  9
$CMLSCALE
 40
20.0
  9
$PROXYGRAPHICS
 70
     1
  9
$MEASUREMENT
 70
     1
  9
$CELWEIGHT
370
    -1
  9
$ENDCAPS
280
     0
  9
$JOINSTYLE
280
     0
  9
$LWDISPLAY
290
     1
  9
$INSUNITS
 70
     4
  9
$HYPERLINKBASE
  1

  9
$STYLESHEET
  1

  9
$XEDIT
290
     1
  9
$CEPSNTYPE
380
     0
  9
$PSTYLEMODE
290
     1
  9
$FINGERPRINTGUID
  2
{a35c75d6-4cc3-408c-a3b7-c7116e4799cb}
  9
$VERSIONGUID
  2
{FAEB1C32-E019-11D5-929B-00C0DF256EC4}
  9
$EXTNAMES
290
     1
  9
$PSVPSCALE
 40
0.0
  9
$OLESTARTUP
290
     0
  0
ENDSEC
  0
SECTION
  2
CLASSES
  0
CLASS
  1
ACDBDICTIONARYWDFLT
  2
AcDbDictionaryWithDefault
  3
ObjectDBX Classes
 90
        0
280
     0
281
     0
  0
CLASS
  1
VISUALSTYLE
  2
AcDbVisualStyle
  3
ObjectDBX Classes
 90
     4095
280
     0
281
     0
  0
CLASS
  1
MATERIAL
  2
AcDbMaterial
  3
ObjectDBX Classes
 90
     1153
280
     0
281
     0
  0
CLASS
  1
SCALE
  2
AcDbScale
  3
ObjectDBX Classes
 90
     1153
280
     0
281
     0
  0
CLASS
  1
TABLESTYLE
  2
AcDbTableStyle
  3
ObjectDBX Classes
 90
     4095
280
     0
281
     0
  0
CLASS
  1
MLEADERSTYLE
  2
AcDbMLeaderStyle
  3
ACDB_MLEADERSTYLE_CLASS
 90
     4095
280
     0
281
     0
  0
CLASS
  1
SUN
  2
AcDbSun
  3
SCENEOE
 90
     1153
280
     0
281
     0
  0
CLASS
  1
ACDBPLACEHOLDER
  2
AcDbPlaceHolder
  3
ObjectDBX Classes
 90
        0
280
     0
281
     0
  0
CLASS
  1
LAYOUT
  2
AcDbLayout
  3
ObjectDBX Classes
 90
        0
280
     0
281
     0
  0
ENDSEC
  0
SECTION
  2
TABLES
  0
TABLE
  2
VPORT
  5
8
330
0
100
AcDbSymbolTable
 70
     1
  0
VPORT
  5
29
330
8
100
AcDbSymbolTableRecord
100
AcDbViewportTableRecord
  2
*Active
 70
     0
 10
0.0
 20
0.0
 11
1.0
 21
1.0
 12
-66.1773695199
 22
-22.8129532505
 13
0.0
 23
0.0
 14
10.0
 24
10.0
 15
10.0
 25
10.0
 16
0.0
 26
0.0
 36
1.0
 17
0.0
 27
0.0
 37
0.0
 40
127.5
 41
1.68
 42
50.0
 43
0.0
 44
0.0
 50
0.0
 51
0.0
 71
     0
 72
   100
 73
     1
 74
     3
 75
     0
 76
     0
 77
     0
 78
     0
281
     0
 65
     1
110
0.0
120
0.0
130
0.0
111
1.0
121
0.0
131
0.0
112
0.0
122
1.0
132
0.0
 79
     0
146
0.0
  0
ENDTAB
  0
TABLE
  2
LTYPE
  5
5
330
0
100
AcDbSymbolTable
 70
     6
  0
LTYPE
  5
14
330
5
100
AcDbSymbolTableRecord
100
AcDbLinetypeTableRecord
  2
ByBlock
 70
     0
  3

 72
    65
 73
     0
 40
0.0
  0
LTYPE
  5
15
330
5
100
AcDbSymbolTableRecord
100
AcDbLinetypeTableRecord
  2
ByLayer
 70
     0
  3

 72
    65
 73
     0
 40
0.0
  0
LTYPE
  5
16
330
5
100
AcDbSymbolTableRecord
100
AcDbLinetypeTableRecord
  2
Continuous
 70
     0
  3
Solid line
 72
    65
 73
     0
 40
0.0
  0
LTYPE
  5
5E
330
5
100
AcDbSymbolTableRecord
100
AcDbLinetypeTableRecord
  2
HIDDEN
 70
     0
  3
Hidden __ __ __ __ __ __ __ __ __ __ __ __ __ __
 72
    65
 73
     2
 40
1.905
 49
1.27
 74
     0
 49
-0.635
 74
     0
  0
LTYPE
  5
5F
330
5
100
AcDbSymbolTableRecord
100
AcDbLinetypeTableRecord
  2
PHANTOM
 70
     0
  3
Phantom ______  __  __  ______  __  __  ______
 72
    65
 73
     6
 40
12.7
 49
6.35
 74
     0
 49
-1.27
 74
     0
 49
1.27
 74
     0
 49
-1.27
 74
     0
 49
1.27
 74
     0
 49
-1.27
 74
     0
  0
LTYPE
  5
60
330
5
100
AcDbSymbolTableRecord
100
AcDbLinetypeTableRecord
  2
CENTER
 70
     0
  3
Center ____ _ ____ _ ____ _ ____ _ ____ _ ____
 72
    65
 73
     4
 40
10.16
 49
6.35
 74
     0
 49
-1.27
 74
     0
 49
1.27
 74
     0
 49
-1.27
 74
     0
  0
LTYPE
  5
61
330
5
100
AcDbSymbolTableRecord
100
AcDbLinetypeTableRecord
  2
CENTERX2
 70
     0
  3
Center (2x) ________  __  ________  __  _____
 72
    65
 73
     4
 40
20.32
 49
12.7
 74
     0
 49
-2.54
 74
     0
 49
2.54
 74
     0
 49
-2.54
 74
     0
  0
LTYPE
  5
62
330
5
100
AcDbSymbolTableRecord
100
AcDbLinetypeTableRecord
  2
DOT2
 70
     0
  3
Dot (.5x) ........................................
 72
    65
 73
     2
 40
0.635
 49
0.0
 74
     0
 49
-0.635
 74
     0
  0
ENDTAB
  0
TABLE
  2
LAYER
  5
2
330
0
100
AcDbSymbolTable
 70
     1
  0
LAYER
  5
10
330
2
100
AcDbSymbolTableRecord
100
AcDbLayerTableRecord
  2
0
 70
     0
 62
     7
  6
Continuous
370
    -3
390
F
  0
ENDTAB
  0
TABLE
  2
STYLE
  5
3
330
0
100
AcDbSymbolTable
 70
     1
  0
STYLE
  5
11
330
3
100
AcDbSymbolTableRecord
100
AcDbTextStyleTableRecord
  2
Standard
 70
     0
 40
0.0
 41
1.0
 50
0.0
 71
     0
 42
3.5
  3
txt
  4

  0
ENDTAB
  0
TABLE
  2
VIEW
  5
6
330
0
100
AcDbSymbolTable
 70
     0
  0
ENDTAB
  0
TABLE
  2
UCS
  5
7
330
0
100
AcDbSymbolTable
 70
     0
  0
ENDTAB
  0
TABLE
  2
APPID
  5
9
330
0
100
AcDbSymbolTable
 70
     1
  0
APPID
  5
12
330
9
100
AcDbSymbolTableRecord
100
AcDbRegAppTableRecord
  2
ACAD
 70
     0
  0
ENDTAB
  0
TABLE
  2
DIMSTYLE
  5
A
330
0
100
AcDbSymbolTable
 70
     1
100
AcDbDimStyleTable
  0
DIMSTYLE
105
27
330
A
100
AcDbSymbolTableRecord
100
AcDbDimStyleTableRecord
  2
ISO-25
 70
     0
 41
2.5
 42
0.625
 43
3.75
 44
1.25
 73
     0
 74
     0
 77
     1
 78
     8
140
2.5
141
2.5
143
0.0393700787
147
0.625
171
     3
172
     1
178
     0
271
     2
272
     2
274
     3
278
    44
283
     0
284
     8
340
11
  0
ENDTAB
  0
TABLE
  2
BLOCK_RECORD
  5
1
330
0
100
AcDbSymbolTable
 70
     1
  0
BLOCK_RECORD
  5
1F
330
1
100
AcDbSymbolTableRecord
100
AcDbBlockTableRecord
  2
*Model_Space
340
22
  0
BLOCK_RECORD
  5
1B
330
1
100
AcDbSymbolTableRecord
100
AcDbBlockTableRecord
  2
*Paper_Space
340
1E
  0
BLOCK_RECORD
  5
23
330
1
100
AcDbSymbolTableRecord
100
AcDbBlockTableRecord
  2
*Paper_Space0
340
26
  0
ENDTAB
  0
ENDSEC
  0
SECTION
  2
BLOCKS
  0
BLOCK
  5
20
330
1F
100
AcDbEntity
  8
0
100
AcDbBlockBegin
  2
*Model_Space
 70
     0
 10
0.0
 20
0.0
 30
0.0
  3
*Model_Space
  1

  0
ENDBLK
  5
21
330
1F
100
AcDbEntity
  8
0
100
AcDbBlockEnd
  0
BLOCK
  5
1C
330
1B
100
AcDbEntity
 67
     1
  8
0
100
AcDbBlockBegin
  2
*Paper_Space
 70
     0
 10
0.0
 20
0.0
 30
0.0
  3
*Paper_Space
  1

  0
ENDBLK
  5
1D
330
1B
100
AcDbEntity
 67
     1
  8
0
100
AcDbBlockEnd
  0
BLOCK
  5
24
330
23
100
AcDbEntity
  8
0
100
AcDbBlockBegin
  2
*Paper_Space0
 70
     0
 10
0.0
 20
0.0
 30
0.0
  3
*Paper_Space0
  1

  0
ENDBLK
  5
25
330
23
100
AcDbEntity
  8
0
100
AcDbBlockEnd
  0
ENDSEC
  0
SECTION
  2
ENTITIES
  0
ARC
  5
63
330
1F
100
AcDbEntity
  8
0
  6
Continuous
 62
     7
370
    25
100
AcDbCircle
 10
-38.0450103793
 20
0.0
 30
0.0
 40
9.8
100
AcDbArc
 50
223.9378398857
 51
136.0621601143
  0
LINE
  5
64
330
1F
100
AcDbEntity
  8
0
  6
Continuous
 62
     7
370
    25
100
AcDbLine
 10
-54.9778304296
 20
6.8
 30
0.0
 11
-45.101921885
 21
6.8
 31
0.0
  0
ARC
  5
65
330
1F
100
AcDbEntity
  8
0
  6
Continuous
 62
     7
370
    25
100
AcDbCircle
 10
-57.9190298417
 20
7.0
 30
0.0
 40
2.947991516616111
100
AcDbArc
 50
356.109905846
 51
183.890094154
  0
LINE
  5
66
330
1F
100
AcDbEntity
  8
0
  6
Continuous
 62
     7
370
    25
100
AcDbLine
 10
-65.3366697162
 20
6.8
 30
0.0
 11
-60.8602292539
 21
6.8
 31
0.0
  0
SPLINE
  5
67
330
1F
100
AcDbEntity
  8
0
  6
Continuous
 62
     7
370
    25
100
AcDbSpline
210
0.0
220
0.0
230
1.0
 70
     8
 71
     3
 72
    26
 73
    22
 74
     0
 42
0.00000001
 43
0.00000001
 40
0.0
 40
0.0
 40
0.0
 40
0.0
 40
0.1250000000000013
 40
0.1250000000000013
 40
0.1875000000000023
 40
0.1875000000000023
 40
0.2500000000000033
 40
0.2500000000000033
 40
0.3125000000000043
 40
0.3125000000000043
 40
0.3750000000000053
 40
0.3750000000000053
 40
0.5000000000000042
 40
0.5000000000000042
 40
0.6250000000000032
 40
0.6250000000000032
 40
0.7500000000000022
 40
0.7500000000000022
 40
0.8750000000000011
 40
0.8750000000000011
 40
1.0
 40
1.0
 40
1.0
 40
1.0
 10
-70.53537120776085
 20
11.75138344546669
 30
0.0
 10
-70.61111029634321
 20
11.41307671698993
 30
0.0
 10
-70.63534517838573
 20
11.07211081261326
 30
0.0
 10
-70.59426281577807
 20
10.5566639826051
 30
0.0
 10
-70.5672978907785
 20
10.38496502285384
 30
0.0
 10
-70.48952176162993
 20
10.05137465646565
 30
0.0
 10
-70.43855251087858
 20
9.88809708055982
 30
0.0
 10
-70.31328867422657
 20
9.568333428168888
 30
0.0
 10
-70.23842038313313
 20
9.411069087017651
 30
0.0
 10
-70.07008338839394
 20
9.11139994834706
 30
0.0
 10
-69.97637050671285
 20
8.968051616057911
 30
0.0
 10
-69.66877884098132
 20
8.55598374135683
 30
0.0
 10
-69.4266854679017
 20
8.304856603046277
 30
0.0
 10
-68.90050161526949
 20
7.866428460591846
 30
0.0
 10
-68.61146761761914
 20
7.674351807678748
 30
0.0
 10
-68.00577241929938
 20
7.350284591848699
 30
0.0
 10
-67.69024278578686
 20
7.218020951329547
 30
0.0
 10
-67.03655234814667
 20
7.006618365636718
 30
0.0
 10
-66.6995805779379
 20
6.927641953411623
 30
0.0
 10
-66.0232914495853
 20
6.824730805131385
 30
0.0
 10
-65.6816148405087
 20
6.800000000000336
 30
0.0
 10
-65.33666971621629
 20
6.800000000000334
 30
0.0
  0
ARC
  5
68
330
1F
100
AcDbEntity
  8
0
  6
Continuous
 62
     7
370
    25
100
AcDbCircle
 10
-18.0450103793
 20
0.0
 30
0.0
 40
53.78971084499269
100
AcDbArc
 50
159.0872677806
 51
167.3808750714
  0
LINE
  5
69
330
1F
100
AcDbEntity
  8
0
  6
Continuous
 62
     7
370
    25
100
AcDbLine
 10
-29.8300464496
 20
19.2
 30
0.0
 11
-68.2913335561
 21
19.2
 31
0.0
  0
LINE
  5
6A
330
1F
100
AcDbEntity
  8
0
  6
Continuous
 62
     7
370
    25
100
AcDbLine
 10
-26.9076392612
 20
11.6
 30
0.0
 11
-29.8300464496
 21
19.2
 31
0.0
  0
LINE
  5
6B
330
1F
100
AcDbEntity
  8
0
  6
Continuous
 62
     7
370
    25
100
AcDbLine
 10
-4.5633093907
 20
11.6
 30
0.0
 11
-26.9076392612
 21
11.6
 31
0.0
  0
ARC
  5
6C
330
1F
100
AcDbEntity
  8
0
  6
Continuous
 62
     7
370
    25
100
AcDbCircle
 10
-4.5633093907
 20
6.4
 30
0.0
 40
5.199999999999999
100
AcDbArc
 50
20.2522467422
 51
90.0
  0
LINE
  5
6D
330
1F
100
AcDbEntity
  8
0
  6
Continuous
 62
     7
370
    25
100
AcDbLine
 10
3.8886892655
 20
8.2
 30
0.0
 11
0.3152149764
 21
8.2
 31
0.0
  0
ARC
  5
6E
330
1F
100
AcDbEntity
  8
0
  6
Continuous
 62
     7
370
    25
100
AcDbCircle
 10
9.9549896207
 20
0.0
 30
0.0
 40
10.2
100
AcDbArc
 50
53.5062334002
 51
126.4937665998
  0
LINE
  5
6F
330
1F
100
AcDbEntity
  8
0
  6
Continuous
 62
     7
370
    25
100
AcDbLine
 10
35.1159997013
 20
8.2
 30
0.0
 11
16.021289976
 21
8.2
 31
0.0
  0
ARC
  5
70
330
1F
100
AcDbEntity
  8
0
  6
Continuous
 62
     7
370
    25
100
AcDbCircle
 10
-18.0450103793
 20
0.0
 30
0.0
 40
53.78971084500165
100
AcDbArc
 50
351.2313257581
 51
8.7686742419
  0
LINE
  5
71
330
1F
100
AcDbEntity
  8
0
  6
Continuous
 62
     7
370
    25
100
AcDbLine
 10
16.021289976
 20
-8.2
 30
0.0
 11
35.1159997013
 21
-8.2
 31
0.0
  0
ARC
  5
72
330
1F
100
AcDbEntity
  8
0
  6
Continuous
 62
     7
370
    25
100
AcDbCircle
 10
9.9549896207
 20
0.0
 30
0.0
 40
10.20000000000001
100
AcDbArc
 50
233.5062334002
 51
306.4937665998
  0
LINE
  5
73
330
1F
100
AcDbEntity
  8
0
  6
Continuous
 62
     7
370
    25
100
AcDbLine
 10
0.3152149764
 20
-8.2
 30
0.0
 11
3.8886892655
 21
-8.2
 31
0.0
  0
ARC
  5
74
330
1F
100
AcDbEntity
  8
0
  6
Continuous
 62
     7
370
    25
100
AcDbCircle
 10
-4.5633093907
 20
-6.4
 30
0.0
 40
5.200000000000009
100
AcDbArc
 50
270.0
 51
339.7477532578
  0
LINE
  5
75
330
1F
100
AcDbEntity
  8
0
  6
Continuous
 62
     7
370
    25
100
AcDbLine
 10
-26.9076392612
 20
-11.6
 30
0.0
 11
-4.5633093907
 21
-11.6
 31
0.0
  0
LINE
  5
76
330
1F
100
AcDbEntity
  8
0
  6
Continuous
 62
     7
370
    25
100
AcDbLine
 10
-29.8300464496
 20
-19.2
 30
0.0
 11
-26.9076392612
 21
-11.6
 31
0.0
  0
LINE
  5
77
330
1F
100
AcDbEntity
  8
0
  6
Continuous
 62
     7
370
    25
100
AcDbLine
 10
-68.2913335561
 20
-19.2
 30
0.0
 11
-29.8300464496
 21
-19.2
 31
0.0
  0
ARC
  5
78
330
1F
100
AcDbEntity
  8
0
  6
Continuous
 62
     7
370
    25
100
AcDbCircle
 10
-18.0450103793
 20
0.0
 30
0.0
 40
53.78971084499268
100
AcDbArc
 50
192.6191249286
 51
200.9127322194
  0
SPLINE
  5
79
330
1F
100
AcDbEntity
  8
0
  6
Continuous
 62
     7
370
    25
100
AcDbSpline
210
0.0
220
0.0
230
1.0
 70
     8
 71
     3
 72
    24
 73
    20
 74
     0
 42
0.00000001
 43
0.00000001
 40
0.0
 40
0.0
 40
0.0
 40
0.0
 40
0.2499999999999997
 40
0.2499999999999997
 40
0.3749999999999996
 40
0.3749999999999996
 40
0.4999999999999994
 40
0.4999999999999994
 40
0.6249999999999993
 40
0.6249999999999993
 40
0.6874999999999993
 40
0.6874999999999993
 40
0.7499999999999992
 40
0.7499999999999992
 40
0.8124999999999991
 40
0.8124999999999991
 40
0.874999999999999
 40
0.874999999999999
 40
1.0
 40
1.0
 40
1.0
 40
1.0
 10
-65.33666971621629
 20
-6.799999999999682
 30
0.0
 10
-66.0282316324302
 20
-6.799999999999685
 30
0.0
 10
-66.70283597282506
 20
-6.899346347614373
 30
0.0
 10
-67.68606922675643
 20
-7.216348802085562
 30
0.0
 10
-68.00593217628587
 20
-7.350425408072853
 30
0.0
 10
-68.60920584294094
 20
-7.673090128423659
 30
0.0
 10
-68.89710975567628
 20
-7.863593205968138
 30
0.0
 10
-69.42852732603623
 20
-8.30641433260104
 30
0.0
 10
-69.66636607872547
 20
-8.553177444547273
 30
0.0
 10
-69.9754911727581
 20
-8.966652483059546
 30
0.0
 10
-70.0711015378741
 20
-9.112964668571053
 30
0.0
 10
-70.23952770291783
 20
-9.413304300416675
 30
0.0
 10
-70.31296068360551
 20
-9.567724807831468
 30
0.0
 10
-70.4375623995369
 20
-9.885344815675271
 30
0.0
 10
-70.48876127797345
 20
-10.04853243037108
 30
0.0
 10
-70.56724961003376
 20
-10.3843353618564
 30
0.0
 10
-70.59430863428271
 20
-10.55739817830075
 30
0.0
 10
-70.63525506968273
 20
-11.07063710519373
 30
0.0
 10
-70.61143767807138
 20
-11.41161438830978
 30
0.0
 10
-70.53537120776083
 20
-11.75138344546606
 30
0.0
  0
LINE
  5
7A
330
1F
100
AcDbEntity
  8
0
  6
Continuous
 62
     7
370
    25
100
AcDbLine
 10
-60.8602292539
 20
-6.8
 30
0.0
 11
-65.3366697162
 21
-6.8
 31
0.0
  0
ARC
  5
7B
330
1F
100
AcDbEntity
  8
0
  6
Continuous
 62
     7
370
    25
100
AcDbCircle
 10
-57.9190298417
 20
-7.0
 30
0.0
 40
2.947991516616113
100
AcDbArc
 50
176.109905846
 51
3.890094154
  0
LINE
  5
7C
330
1F
100
AcDbEntity
  8
0
  6
Continuous
 62
     7
370
    25
100
AcDbLine
 10
-45.101921885
 20
-6.8
 30
0.0
 11
-54.9778304296
 21
-6.8
 31
0.0
  0
SPLINE
  5
7D
330
1F
100
AcDbEntity
  8
0
  6
Continuous
 62
     7
370
    25
100
AcDbSpline
210
0.0
220
0.0
230
1.0
 70
     8
 71
     3
 72
    24
 73
    20
 74
     0
 42
0.00000001
 43
0.00000001
 40
0.0
 40
0.0
 40
0.0
 40
0.0
 40
0.1250000000000006
 40
0.1250000000000006
 40
0.2500000000000012
 40
0.2500000000000012
 40
0.3750000000000018
 40
0.3750000000000018
 40
0.5000000000000023
 40
0.5000000000000023
 40
0.6250000000000029
 40
0.6250000000000029
 40
0.7500000000000036
 40
0.7500000000000036
 40
0.8750000000000019
 40
0.8750000000000019
 40
0.9375000000000009
 40
0.9375000000000009
 40
1.0
 40
1.0
 40
1.0
 40
1.0
 10
-65.68324100447448
 20
-34.25113741794412
 30
0.0
 10
-65.7708223244483
 20
-34.61418666267532
 30
0.0
 10
-65.79460671892261
 20
-34.98287865336884
 30
0.0
 10
-65.71133665382789
 20
-35.72406449095462
 30
0.0
 10
-65.6059914984441
 20
-36.0793726785456
 30
0.0
 10
-65.28502665945122
 20
-36.75105034411516
 30
0.0
 10
-65.07475760291665
 20
-37.05665894437007
 30
0.0
 10
-64.57786845889464
 20
-37.60963299416346
 30
0.0
 10
-64.29910405837353
 20
-37.84885800802429
 30
0.0
 10
-63.69364906694427
 20
-38.26840842044925
 30
0.0
 10
-63.36542877052592
 20
-38.44809859132866
 30
0.0
 10
-62.69355723144797
 20
-38.74319217292871
 30
0.0
 10
-62.34657842770601
 20
-38.86103506596586
 30
0.0
 10
-61.63349287714084
 20
-39.04526991425959
 30
0.0
 10
-61.26716730982751
 20
-39.11132738425248
 30
0.0
 10
-60.71786277950756
 20
-39.17129988324857
 30
0.0
 10
-60.53420238017937
 20
-39.18495321907412
 30
0.0
 10
-60.16582279525171
 20
-39.20025383524424
 30
0.0
 10
-59.98093793499543
 20
-39.20002245586751
 30
0.0
 10
-59.79609581817264
 20
-39.2002757635784
 30
0.0
  0
ARC
  5
7E
330
1F
100
AcDbEntity
  8
0
  6
Continuous
 62
     7
370
    25
100
AcDbCircle
 10
-16.9808957083
 20
-46.0
 30
0.0
 40
50.09944320367327
100
AcDbArc
 50
157.4656162698
 51
166.437209685
  0
LINE
  5
7F
330
1F
100
AcDbEntity
  8
0
  6
Continuous
 62
     7
370
    25
100
AcDbLine
 10
-28.7659317786
 20
-26.8
 30
0.0
 11
-63.2552321089
 21
-26.8
 31
0.0
  0
LINE
  5
80
330
1F
100
AcDbEntity
  8
0
  6
Continuous
 62
     7
370
    25
100
AcDbLine
 10
-25.8435245903
 20
-34.4
 30
0.0
 11
-28.7659317786
 21
-26.8
 31
0.0
  0
LINE
  5
81
330
1F
100
AcDbEntity
  8
0
  6
Continuous
 62
     7
370
    25
100
AcDbLine
 10
-3.4991947197
 20
-34.4
 30
0.0
 11
-25.8435245903
 21
-34.4
 31
0.0
  0
ARC
  5
82
330
1F
100
AcDbEntity
  8
0
  6
Continuous
 62
     7
370
    25
100
AcDbCircle
 10
-3.4991947197
 20
-39.6
 30
0.0
 40
5.200000000000004
100
AcDbArc
 50
20.2522467422
 51
90.0
  0
LINE
  5
83
330
1F
100
AcDbEntity
  8
0
  6
Continuous
 62
     7
370
    25
100
AcDbLine
 10
4.9528039364
 20
-37.8
 30
0.0
 11
1.3793296473
 21
-37.8
 31
0.0
  0
ARC
  5
84
330
1F
100
AcDbEntity
  8
0
  6
Continuous
 62
     7
370
    25
100
AcDbCircle
 10
11.0191042917
 20
-46.0
 30
0.0
 40
10.2
100
AcDbArc
 50
53.5062334002
 51
126.4937665998
  0
LINE
  5
85
330
1F
100
AcDbEntity
  8
0
  6
Continuous
 62
     7
370
    25
100
AcDbLine
 10
32.4429265773
 20
-37.8
 30
0.0
 11
17.0854046469
 21
-37.8
 31
0.0
  0
ARC
  5
86
330
1F
100
AcDbEntity
  8
0
  6
Continuous
 62
     7
370
    25
100
AcDbCircle
 10
-16.9808957083
 20
-46.0
 30
0.0
 40
50.09944320367464
100
AcDbArc
 50
350.5797593913
 51
9.4202406087
  0
LINE
  5
87
330
1F
100
AcDbEntity
  8
0
  6
Continuous
 62
     7
370
    25
100
AcDbLine
 10
17.0854046469
 20
-54.2
 30
0.0
 11
32.4429265773
 21
-54.2
 31
0.0
  0
ARC
  5
88
330
1F
100
AcDbEntity
  8
0
  6
Continuous
 62
     7
370
    25
100
AcDbCircle
 10
11.0191042917
 20
-46.0
 30
0.0
 40
10.2
100
AcDbArc
 50
233.5062334002
 51
306.4937665998
  0
LINE
  5
89
330
1F
100
AcDbEntity
  8
0
  6
Continuous
 62
     7
370
    25
100
AcDbLine
 10
1.3793296473
 20
-54.2
 30
0.0
 11
4.9528039364
 21
-54.2
 31
0.0
  0
ARC
  5
8A
330
1F
100
AcDbEntity
  8
0
  6
Continuous
 62
     7
370
    25
100
AcDbCircle
 10
-3.4991947197
 20
-52.4
 30
0.0
 40
5.199999999999998
100
AcDbArc
 50
270.0
 51
339.7477532578
  0
LINE
  5
8B
330
1F
100
AcDbEntity
  8
0
  6
Continuous
 62
     7
370
    25
100
AcDbLine
 10
-25.8435245903
 20
-57.6
 30
0.0
 11
-3.4991947197
 21
-57.6
 31
0.0
  0
LINE
  5
8C
330
1F
100
AcDbEntity
  8
0
  6
Continuous
 62
     7
370
    25
100
AcDbLine
 10
-28.7659317786
 20
-65.2
 30
0.0
 11
-25.8435245903
 21
-57.6
 31
0.0
  0
LINE
  5
8D
330
1F
100
AcDbEntity
  8
0
  6
Continuous
 62
     7
370
    25
100
AcDbLine
 10
-63.2552321089
 20
-65.2
 30
0.0
 11
-28.7659317786
 21
-65.2
 31
0.0
  0
ARC
  5
8E
330
1F
100
AcDbEntity
  8
0
  6
Continuous
 62
     7
370
    25
100
AcDbCircle
 10
-16.9808957083
 20
-46.0
 30
0.0
 40
50.0994432036746
100
AcDbArc
 50
193.562790315
 51
202.5343837302
  0
SPLINE
  5
8F
330
1F
100
AcDbEntity
  8
0
  6
Continuous
 62
     7
370
    25
100
AcDbSpline
210
0.0
220
0.0
230
1.0
 70
     8
 71
     3
 72
    32
 73
    28
 74
     0
 42
0.00000001
 43
0.00000001
 40
0.0
 40
0.0
 40
0.0
 40
0.0
 40
0.0624999999999998
 40
0.0624999999999998
 40
0.1249999999999997
 40
0.1249999999999997
 40
0.2499999999999996
 40
0.2499999999999996
 40
0.3124999999999996
 40
0.3124999999999996
 40
0.3749999999999995
 40
0.3749999999999995
 40
0.4999999999999986
 40
0.4999999999999986
 40
0.6249999999999976
 40
0.6249999999999976
 40
0.687499999999998
 40
0.687499999999998
 40
0.7499999999999983
 40
0.7499999999999983
 40
0.8124999999999988
 40
0.8124999999999988
 40
0.8749999999999992
 40
0.8749999999999992
 40
0.9374999999999996
 40
0.9374999999999996
 40
1.0
 40
1.0
 40
1.0
 40
1.0
 10
-59.79609581817265
 20
-52.79972423642096
 30
0.0
 10
-59.98078667981856
 20
-52.7999773368517
 30
0.0
 10
-60.16555745892374
 20
-52.7997684272974
 30
0.0
 10
-60.53235548618269
 20
-52.81521120618002
 30
0.0
 10
-60.71471897050415
 20
-52.82891908323656
 30
0.0
 10
-61.25866581271374
 20
-52.88821620955068
 30
0.0
 10
-61.61714201315007
 20
-52.95176821414503
 30
0.0
 10
-62.14793472255793
 20
-53.08711055955401
 30
0.0
 10
-62.32370352218628
 20
-53.13894289908211
 30
0.0
 10
-62.67268123607277
 20
-53.25740650458852
 30
0.0
 10
-62.84677080346006
 20
-53.32449971167352
 30
0.0
 10
-63.3567305405236
 20
-53.54729114947205
 30
0.0
 10
-63.6804204761689
 20
-53.72376248783414
 30
0.0
 10
-64.28917580126206
 20
-54.14298892668388
 30
0.0
 10
-64.57473637749408
 20
-54.38774308847183
 30
0.0
 10
-64.94498831932987
 20
-54.79850334227891
 30
0.0
 10
-65.05974497421171
 20
-54.9431384256252
 30
0.0
 10
-65.26903098357339
 20
-55.25042726688443
 30
0.0
 10
-65.36300405321839
 20
-55.41281621996391
 30
0.0
 10
-65.52292623233006
 20
-55.74613334425896
 30
0.0
 10
-65.5897999658498
 20
-55.91825473012722
 30
0.0
 10
-65.694388955658
 20
-56.27466860965999
 30
0.0
 10
-65.73172607400872
 20
-56.4593186272399
 30
0.0
 10
-65.77338463829129
 20
-56.8263638152879
 30
0.0
 10
-65.77838021408894
 20
-57.01056851941318
 30
0.0
 10
-65.75546866982658
 20
-57.38039536340023
 30
0.0
 10
-65.7271856175256
 20
-57.56669978087293
 30
0.0
 10
-65.68324100447545
 20
-57.74886258205696
 30
0.0
  0
ARC
  5
90
330
1F
100
AcDbEntity
  8
0
  6
Continuous
 62
     7
370
    25
100
AcDbCircle
 10
-56.8549151708
 20
-53.0
 30
0.0
 40
2.947991516616121
100
AcDbArc
 50
176.1045338405
 51
3.890094154
  0
LINE
  5
91
330
1F
100
AcDbEntity
  8
0
  6
Continuous
 62
     7
370
    25
100
AcDbLine
 10
-44.0378072141
 20
-52.8
 30
0.0
 11
-53.9137157586
 21
-52.8
 31
0.0
  0
ARC
  5
92
330
1F
100
AcDbEntity
  8
0
  6
Continuous
 62
     7
370
    25
100
AcDbCircle
 10
-36.9808957083
 20
-46.0
 30
0.0
 40
9.800000000000002
100
AcDbArc
 50
223.9378398857
 51
136.0621601143
  0
LINE
  5
93
330
1F
100
AcDbEntity
  8
0
  6
Continuous
 62
     7
370
    25
100
AcDbLine
 10
-53.9137157586
 20
-39.2
 30
0.0
 11
-44.0378072141
 21
-39.2
 31
0.0
  0
ARC
  5
94
330
1F
100
AcDbEntity
  8
0
  6
Continuous
 62
     7
370
    25
100
AcDbCircle
 10
-56.8549151708
 20
-39.0
 30
0.0
 40
2.947991516616118
100
AcDbArc
 50
356.109905846
 51
183.8954661595
  0
ARC
  5
95
330
1F
100
AcDbEntity
  8
0
  6
Continuous
 62
     7
370
    25
100
AcDbCircle
 10
-131.0952538639
 20
-62.8
 30
0.0
 40
10.20000000000001
100
AcDbArc
 50
302.4731209262
 51
15.4606541259
  0
LINE
  5
96
330
1F
100
AcDbEntity
  8
0
  6
Continuous
 62
     7
370
    25
100
AcDbLine
 10
-129.6468608779
 20
-81.8804323394
 30
0.0
 11
-125.6188341817
 21
-71.4051628378
 31
0.0
  0
ARC
  5
97
330
1F
100
AcDbEntity
  8
0
  6
Continuous
 62
     7
370
    25
100
AcDbCircle
 10
-102.5267113679
 20
-22.8
 30
0.0
 40
65.00769181301017
100
AcDbArc
 50
230.5769202856
 51
245.3430899476
  0
LINE
  5
98
330
1F
100
AcDbEntity
  8
0
  6
Continuous
 62
     7
370
    25
100
AcDbLine
 10
-140.9261540383
 20
-65.5190810505
 30
0.0
 11
-143.8093085651
 21
-73.0170007418
 31
0.0
  0
ARC
  5
99
330
1F
100
AcDbEntity
  8
0
  6
Continuous
 62
     7
370
    25
100
AcDbCircle
 10
-131.0952538639
 20
-62.8
 30
0.0
 40
10.19999999999999
100
AcDbArc
 50
122.4731209262
 51
195.4606541259
  0
LINE
  5
9A
330
1F
100
AcDbEntity
  8
0
  6
Continuous
 62
     7
370
    25
100
AcDbLine
 10
-131.8824262061
 20
-42.0
 30
0.0
 11
-136.571673546
 21
-54.1948371622
 31
0.0
  0
LINE
  5
9B
330
1F
100
AcDbEntity
  8
0
  6
Continuous
 62
     7
370
    25
100
AcDbLine
 10
-164.6343598087
 20
-42.0
 30
0.0
 11
-131.8824262061
 21
-42.0
 31
0.0
  0
ARC
  5
9C
330
1F
100
AcDbEntity
  8
0
  6
Continuous
 62
     7
370
    25
100
AcDbCircle
 10
-102.5267113679
 20
-22.8
 30
0.0
 40
65.0076918130102
100
AcDbArc
 50
190.4198584158
 51
197.1785059947
  0
SPLINE
  5
9D
330
1F
100
AcDbEntity
  8
0
  6
Continuous
 62
     7
370
    25
100
AcDbSpline
210
0.0
220
0.0
230
1.0
 70
     8
 71
     3
 72
    24
 73
    20
 74
     0
 42
0.00000001
 43
0.00000001
 40
0.0
 40
0.0
 40
0.0
 40
0.0
 40
0.1250000000000005
 40
0.1250000000000005
 40
0.2500000000000009
 40
0.2500000000000009
 40
0.3750000000000014
 40
0.3750000000000014
 40
0.5000000000000019
 40
0.5000000000000019
 40
0.6250000000000023
 40
0.6250000000000023
 40
0.7500000000000029
 40
0.7500000000000029
 40
0.812500000000003
 40
0.812500000000003
 40
0.8750000000000031
 40
0.8750000000000031
 40
1.0
 40
1.0
 40
1.0
 40
1.0
 10
-162.3171710146337
 20
-29.59999999999969
 30
0.0
 10
-162.6270621454411
 20
-29.59999999999969
 30
0.0
 10
-162.9312248887458
 20
-29.6336403724188
 30
0.0
 10
-163.5285278340268
 20
-29.76565179323314
 30
0.0
 10
-163.8246378849294
 20
-29.86593999526364
 30
0.0
 10
-164.3798027905586
 20
-30.12460189452701
 30
0.0
 10
-164.6413724436419
 20
-30.28280378006162
 30
0.0
 10
-165.1315941468913
 20
-30.65855769725512
 30
0.0
 10
-165.3542266958362
 20
-30.87205944017206
 30
0.0
 10
-165.7470529796582
 20
-31.34042765495543
 30
0.0
 10
-165.9203662923189
 20
-31.60013489092067
 30
0.0
 10
-166.2026488597388
 20
-32.14488414375392
 30
0.0
 10
-166.3128841055862
 20
-32.4298818043525
 30
0.0
 10
-166.4312135586327
 20
-32.87658419238611
 30
0.0
 10
-166.4625133536209
 20
-33.02897742724945
 30
0.0
 10
-166.507926791555
 20
-33.33270450695714
 30
0.0
 10
-166.5223307440765
 20
-33.48498214773217
 30
0.0
 10
-166.540113566692
 20
-33.94308334453753
 30
0.0
 10
-166.5184224707743
 20
-34.25238057366334
 30
0.0
 10
-166.4623512428053
 20
-34.55729342305544
 30
0.0
  0
LINE
  5
9E
330
1F
100
AcDbEntity
  8
0
  6
Continuous
 62
     7
370
    25
100
AcDbLine
 10
-160.46791078
 20
-29.6
 30
0.0
 11
-162.3171710146
 21
-29.6
 31
0.0
  0
ARC
  5
9F
330
1F
100
AcDbEntity
  8
0
  6
Continuous
 62
     7
370
    25
100
AcDbCircle
 10
-157.5267113679
 20
-29.8
 30
0.0
 40
2.947991516616148
100
AcDbArc
 50
176.109905846
 51
3.890094154
  0
LINE
  5
A0
330
1F
100
AcDbEntity
  8
0
  6
Continuous
 62
     7
370
    25
100
AcDbLine
 10
-145.3419302425
 20
-29.6
 30
0.0
 11
-154.5855119557
 21
-29.6
 31
0.0
  0
ARC
  5
A1
330
1F
100
AcDbEntity
  8
0
  6
Continuous
 62
     7
370
    25
100
AcDbCircle
 10
-142.4007308303
 20
-29.8
 30
0.0
 40
2.947991516616119
100
AcDbArc
 50
176.109905846
 51
3.890094154
  0
LINE
  5
A2
330
1F
100
AcDbEntity
  8
0
  6
Continuous
 62
     7
370
    25
100
AcDbLine
 10
-129.5836228736
 20
-29.6
 30
0.0
 11
-139.4595314182
 21
-29.6
 31
0.0
  0
ARC
  5
A3
330
1F
100
AcDbEntity
  8
0
  6
Continuous
 62
     7
370
    25
100
AcDbCircle
 10
-122.5267113679
 20
-22.8
 30
0.0
 40
9.799999999999995
100
AcDbArc
 50
223.9378398857
 51
136.0621601143
  0
LINE
  5
A4
330
1F
100
AcDbEntity
  8
0
  6
Continuous
 62
     7
370
    25
100
AcDbLine
 10
-139.4595314182
 20
-16.0
 30
0.0
 11
-129.5836228736
 21
-16.0
 31
0.0
  0
ARC
  5
A5
330
1F
100
AcDbEntity
  8
0
  6
Continuous
 62
     7
370
    25
100
AcDbCircle
 10
-142.4007308303
 20
-15.8
 30
0.0
 40
2.947991516616119
100
AcDbArc
 50
356.109905846
 51
183.890094154
  0
LINE
  5
A6
330
1F
100
AcDbEntity
  8
0
  6
Continuous
 62
     7
370
    25
100
AcDbLine
 10
-154.5855119557
 20
-16.0
 30
0.0
 11
-145.3419302425
 21
-16.0
 31
0.0
  0
ARC
  5
A7
330
1F
100
AcDbEntity
  8
0
  6
Continuous
 62
     7
370
    25
100
AcDbCircle
 10
-157.5267113679
 20
-15.8
 30
0.0
 40
2.947991516616148
100
AcDbArc
 50
356.109905846
 51
183.890094154
  0
LINE
  5
A8
330
1F
100
AcDbEntity
  8
0
  6
Continuous
 62
     7
370
    25
100
AcDbLine
 10
-162.3171710146
 20
-16.0
 30
0.0
 11
-160.46791078
 21
-16.0
 31
0.0
  0
SPLINE
  5
A9
330
1F
100
AcDbEntity
  8
0
  6
Continuous
 62
     7
370
    25
100
AcDbSpline
210
0.0
220
0.0
230
1.0
 70
     8
 71
     3
 72
    22
 73
    18
 74
     0
 42
0.00000001
 43
0.00000001
 40
0.0
 40
0.0
 40
0.0
 40
0.0
 40
0.1250000000000001
 40
0.1250000000000001
 40
0.2500000000000002
 40
0.2500000000000002
 40
0.3750000000000002
 40
0.3750000000000002
 40
0.5000000000000003
 40
0.5000000000000003
 40
0.6250000000000004
 40
0.6250000000000004
 40
0.7500000000000004
 40
0.7500000000000004
 40
0.8750000000000002
 40
0.8750000000000002
 40
1.0
 40
1.0
 40
1.0
 40
1.0
 10
-166.4623512428053
 20
-11.04270657694392
 30
0.0
 10
-166.5183996307838
 20
-11.34749522348247
 30
0.0
 10
-166.5399799350452
 20
-11.6527336200101
 30
0.0
 10
-166.5168367806167
 20
-12.26407556463315
 30
0.0
 10
-166.4707330163213
 20
-12.57335093400556
 30
0.0
 10
-166.3143694269521
 20
-13.16537833241688
 30
0.0
 10
-166.2046854848671
 20
-13.4508014126562
 30
0.0
 10
-165.9205580418345
 20
-13.99987623787896
 30
0.0
 10
-165.7496914575728
 20
-14.25590277940191
 30
0.0
 10
-165.357260126462
 20
-14.72483994327635
 30
0.0
 10
-165.1317603902255
 20
-14.94107224826184
 30
0.0
 10
-164.6454156937916
 20
-15.31433762087571
 30
0.0
 10
-164.3842483208641
 20
-15.47309916087962
 30
0.0
 10
-163.8253312200692
 20
-15.73396257061519
 30
0.0
 10
-163.5322781093339
 20
-15.83320184150708
 30
0.0
 10
-162.9355485528633
 20
-15.96571727825818
 30
0.0
 10
-162.6271216058036
 20
-15.99999999999967
 30
0.0
 10
-162.3171710146352
 20
-15.99999999999967
 30
0.0
  0
ARC
  5
AA
330
1F
100
AcDbEntity
  8
0
  6
Continuous
 62
     7
370
    25
100
AcDbCircle
 10
-102.5267113679
 20
-22.8
 30
0.0
 40
65.0076918130102
100
AcDbArc
 50
162.8214940053
 51
169.5801415842
  0
LINE
  5
AB
330
1F
100
AcDbEntity
  8
0
  6
Continuous
 62
     7
370
    25
100
AcDbLine
 10
-131.8824262061
 20
-3.6
 30
0.0
 11
-164.6343598087
 21
-3.6
 31
0.0
  0
LINE
  5
AC
330
1F
100
AcDbEntity
  8
0
  6
Continuous
 62
     7
370
    25
100
AcDbLine
 10
-136.571673546
 20
8.5948371622
 30
0.0
 11
-131.8824262061
 21
-3.6
 31
0.0
  0
ARC
  5
AD
330
1F
100
AcDbEntity
  8
0
  6
Continuous
 62
     7
370
    25
100
AcDbCircle
 10
-131.0952538639
 20
17.2
 30
0.0
 40
10.2
100
AcDbArc
 50
164.5393458741
 51
237.5268790738
  0
LINE
  5
AE
330
1F
100
AcDbEntity
  8
0
  6
Continuous
 62
     7
370
    25
100
AcDbLine
 10
-143.8093085651
 20
27.4170007418
 30
0.0
 11
-140.9261540383
 21
19.9190810505
 31
0.0
  0
ARC
  5
AF
330
1F
100
AcDbEntity
  8
0
  6
Continuous
 62
     7
370
    25
100
AcDbCircle
 10
-102.5267113679
 20
-22.8
 30
0.0
 40
65.00769181301017
100
AcDbArc
 50
114.6569100524
 51
129.4230797144
  0
LINE
  5
B0
330
1F
100
AcDbEntity
  8
0
  6
Continuous
 62
     7
370
    25
100
AcDbLine
 10
-125.6188341817
 20
25.8051628378
 30
0.0
 11
-129.6468608779
 21
36.2804323394
 31
0.0
  0
ARC
  5
B1
330
1F
100
AcDbEntity
  8
0
  6
Continuous
 62
     7
370
    25
100
AcDbCircle
 10
-131.0952538639
 20
17.2
 30
0.0
 40
10.19999999999999
100
AcDbArc
 50
344.5393458741
 51
57.5268790738
  0
LINE
  5
B2
330
1F
100
AcDbEntity
  8
0
  6
Continuous
 62
     7
370
    25
100
AcDbLine
 10
-111.3893402498
 20
-11.2
 30
0.0
 11
-121.2643536894
 21
14.4809189495
 31
0.0
  0
LINE
  5
B3
330
1F
100
AcDbEntity
  8
0
  6
Continuous
 62
     7
370
    25
100
AcDbLine
 10
-89.0450103793
 20
-11.2
 30
0.0
 11
-111.3893402498
 21
-11.2
 31
0.0
  0
ARC
  5
B4
330
1F
100
AcDbEntity
  8
0
  6
Continuous
 62
     7
370
    25
100
AcDbCircle
 10
-89.0450103793
 20
-16.4
 30
0.0
 40
5.200000000000005
100
AcDbArc
 50
0.0
 51
90.0
  0
LINE
  5
B5
330
1F
100
AcDbEntity
  8
0
  6
Continuous
 62
     7
370
    25
100
AcDbLine
 10
-83.8450103793
 20
-29.2
 30
0.0
 11
-83.8450103793
 21
-16.4
 31
0.0
  0
ARC
  5
B6
330
1F
100
AcDbEntity
  8
0
  6
Continuous
 62
     7
370
    25
100
AcDbCircle
 10
-89.0450103793
 20
-29.2
 30
0.0
 40
5.200000000000006
100
AcDbArc
 50
270.0
 51
0.0
  0
LINE
  5
B7
330
1F
100
AcDbEntity
  8
0
  6
Continuous
 62
     7
370
    25
100
AcDbLine
 10
-111.3893402498
 20
-34.4
 30
0.0
 11
-89.0450103793
 21
-34.4
 31
0.0
  0
LINE
  5
B8
330
1F
100
AcDbEntity
  8
0
  6
Continuous
 62
     7
370
    25
100
AcDbLine
 10
-121.2643536894
 20
-60.0809189495
 30
0.0
 11
-111.3893402498
 21
-34.4
 31
0.0
  0
LINE
  5
B9
330
1F
100
AcDbEntity
  8
0
  6
Continuous
 62
     7
370
    25
100
AcDbLine
 10
-161.1773695199
 20
-85.3129532505
 30
0.0
 11
28.8226304801
 21
-85.3129532505
 31
0.0
  0
ARC
  5
BA
330
1F
100
AcDbEntity
  8
0
  6
Continuous
 62
     7
370
    25
100
AcDbCircle
 10
28.8226304801
 20
-75.3129532505
 30
0.0
 40
10.00000000000001
100
AcDbArc
 50
270.0
 51
0.0
  0
LINE
  5
BB
330
1F
100
AcDbEntity
  8
0
  6
Continuous
 62
     7
370
    25
100
AcDbLine
 10
38.8226304801
 20
-75.3129532505
 30
0.0
 11
38.8226304801
 21
29.6870467495
 31
0.0
  0
ARC
  5
BC
330
1F
100
AcDbEntity
  8
0
  6
Continuous
 62
     7
370
    25
100
AcDbCircle
 10
28.8226304801
 20
29.6870467495
 30
0.0
 40
10.0
100
AcDbArc
 50
0.0
 51
90.0
  0
LINE
  5
BD
330
1F
100
AcDbEntity
  8
0
  6
Continuous
 62
     7
370
    25
100
AcDbLine
 10
28.8226304801
 20
39.6870467495
 30
0.0
 11
-161.1773695199
 21
39.6870467495
 31
0.0
  0
ARC
  5
BE
330
1F
100
AcDbEntity
  8
0
  6
Continuous
 62
     7
370
    25
100
AcDbCircle
 10
-161.1773695199
 20
29.6870467495
 30
0.0
 40
10.0
100
AcDbArc
 50
90.0
 51
180.0
  0
LINE
  5
BF
330
1F
100
AcDbEntity
  8
0
  6
Continuous
 62
     7
370
    25
100
AcDbLine
 10
-171.1773695199
 20
29.6870467495
 30
0.0
 11
-171.1773695199
 21
-75.3129532505
 31
0.0
  0
ARC
  5
C0
330
1F
100
AcDbEntity
  8
0
  6
Continuous
 62
     7
370
    25
100
AcDbCircle
 10
-161.1773695199
 20
-75.3129532505
 30
0.0
 40
10.0
100
AcDbArc
 50
180.0
 51
270.0
  0
ENDSEC
  0
SECTION
  2
OBJECTS
  0
DICTIONARY
  5
C
330
0
100
AcDbDictionary
281
     1
  3
ACAD_GROUP
350
D
  3
ACAD_LAYOUT
350
1A
  3
ACAD_MLINESTYLE
350
17
  3
ACAD_PLOTSETTINGS
350
19
  3
ACAD_PLOTSTYLENAME
350
E
  3
ACAD_SCALELIST
350
47
  3
DWGPROPS
350
C1
  0
DICTIONARY
  5
D
102
{ACAD_REACTORS
330
C
102
}
330
C
100
AcDbDictionary
281
     1
  0
DICTIONARY
  5
1A
102
{ACAD_REACTORS
330
C
102
}
330
C
100
AcDbDictionary
281
     1
  3
Layout1
350
1E
  3
Layout2
350
26
  3
Model
350
22
  0
DICTIONARY
  5
17
102
{ACAD_REACTORS
330
C
102
}
330
C
100
AcDbDictionary
281
     1
  3
Standard
350
18
  0
DICTIONARY
  5
19
102
{ACAD_REACTORS
330
C
102
}
330
C
100
AcDbDictionary
281
     1
  0
ACDBDICTIONARYWDFLT
  5
E
102
{ACAD_REACTORS
330
C
102
}
330
C
100
AcDbDictionary
281
     1
  3
Normal
350
F
100
AcDbDictionaryWithDefault
340
F
  0
DICTIONARY
  5
47
102
{ACAD_REACTORS
330
C
102
}
330
C
100
AcDbDictionary
281
     1
  3
A0
350
48
  3
A1
350
49
  3
A2
350
4A
  3
A3
350
4B
  3
A4
350
4C
  3
A5
350
4D
  3
A6
350
4E
  3
A7
350
4F
  3
A8
350
50
  3
A9
350
51
  3
B0
350
52
  3
B1
350
53
  3
B2
350
54
  3
B3
350
55
  3
B4
350
56
  3
B5
350
57
  3
B6
350
58
  0
XRECORD
  5
C1
102
{ACAD_REACTORS
330
C
102
}
330
C
100
AcDbXrecord
280
     1
  1
DWGPROPS COOKIE
  2

  3

  4

  6

  7

  8
vgies
  9

300
=
301
=
302
=
303
=
304
=
305
=
306
=
307
=
308
=
309
=
 40
0.0
 41
2460732.52059169
 42
2460732.520617813
  1

 90
        0
  0
LAYOUT
  5
1E
102
{ACAD_REACTORS
330
1A
102
}
330
1A
100
AcDbPlotSettings
  1

  2
none_device
  4

  6

 40
0.0
 41
0.0
 42
0.0
 43
0.0
 44
0.0
 45
0.0
 46
0.0
 47
0.0
 48
0.0
 49
0.0
140
0.0
141
0.0
142
1.0
143
1.0
 70
   688
 72
     1
 73
     0
 74
     5
  7

 75
    16
147
1.0
148
0.0
149
0.0
100
AcDbLayout
  1
Layout1
 70
     1
 71
     1
 10
0.0
 20
0.0
 11
420.0
 21
297.0
 12
0.0
 22
0.0
 32
0.0
 14
1.0000000000E+20
 24
1.0000000000E+20
 34
1.0000000000E+20
 15
-1.0000000000E+20
 25
-1.0000000000E+20
 35
-1.0000000000E+20
146
0.0
 13
0.0
 23
0.0
 33
0.0
 16
1.0
 26
0.0
 36
0.0
 17
0.0
 27
1.0
 37
0.0
 76
     0
330
1B
  0
LAYOUT
  5
26
102
{ACAD_REACTORS
330
1A
102
}
330
1A
100
AcDbPlotSettings
  1

  2
none_device
  4

  6

 40
0.0
 41
0.0
 42
0.0
 43
0.0
 44
0.0
 45
0.0
 46
0.0
 47
0.0
 48
0.0
 49
0.0
140
0.0
141
0.0
142
1.0
143
1.0
 70
   688
 72
     1
 73
     0
 74
     5
  7

 75
    16
147
1.0
148
0.0
149
0.0
100
AcDbLayout
  1
Layout2
 70
     1
 71
     2
 10
0.0
 20
0.0
 11
0.0
 21
0.0
 12
0.0
 22
0.0
 32
0.0
 14
0.0
 24
0.0
 34
0.0
 15
0.0
 25
0.0
 35
0.0
146
0.0
 13
0.0
 23
0.0
 33
0.0
 16
1.0
 26
0.0
 36
0.0
 17
0.0
 27
1.0
 37
0.0
 76
     0
330
23
  0
LAYOUT
  5
22
102
{ACAD_REACTORS
330
1A
102
}
330
1A
100
AcDbPlotSettings
  1

  2
none_device
  4
ANSI_A_(11.00_x_8.50_Inches)
  6

 40
6.35
 41
19.05
 42
6.35000508
 43
19.05000254
 44
279.4
 45
215.9
 46
220.5169378096
 47
118.9485689529
 48
0.0
 49
0.0
140
0.0
141
0.0
142
0.0518571429
143
1.0
 70
  1696
 72
     0
 73
     0
 74
     0
  7

 75
     0
147
0.0179189148
148
-1300.4909072572
149
0.0
100
AcDbLayout
  1
Model
 70
     1
 71
     0
 10
0.0
 20
0.0
 11
420.0
 21
297.0
 12
0.0
 22
0.0
 32
0.0
 14
-171.1773695199
 24
-85.3129532505
 34
0.0
 15
38.8226304801
 25
39.6870467495
 35
0.0
146
0.0
 13
0.0
 23
0.0
 33
0.0
 16
1.0
 26
0.0
 36
0.0
 17
0.0
 27
1.0
 37
0.0
 76
     0
330
1F
331
29
  0
MLINESTYLE
  5
18
102
{ACAD_REACTORS
330
17
102
}
330
17
100
AcDbMlineStyle
  2
Standard
 70
     0
  3

 62
   256
 51
90.0
 52
90.0
 71
     2
 49
0.5
 62
   256
  6
BYLAYER
 49
-0.5
 62
   256
  6
BYLAYER
  0
ACDBPLACEHOLDER
  5
F
102
{ACAD_REACTORS
330
E
102
}
330
E
  0
SCALE
  5
48
102
{ACAD_REACTORS
330
47
102
}
330
47
100
AcDbScale
 70
     0
300
1:1
140
1.0
141
1.0
290
     1
  0
SCALE
  5
49
102
{ACAD_REACTORS
330
47
102
}
330
47
100
AcDbScale
 70
     0
300
1:2
140
1.0
141
2.0
290
     0
  0
SCALE
  5
4A
102
{ACAD_REACTORS
330
47
102
}
330
47
100
AcDbScale
 70
     0
300
1:4
140
1.0
141
4.0
290
     0
  0
SCALE
  5
4B
102
{ACAD_REACTORS
330
47
102
}
330
47
100
AcDbScale
 70
     0
300
1:5
140
1.0
141
5.0
290
     0
  0
SCALE
  5
4C
102
{ACAD_REACTORS
330
47
102
}
330
47
100
AcDbScale
 70
     0
300
1:8
140
1.0
141
8.0
290
     0
  0
SCALE
  5
4D
102
{ACAD_REACTORS
330
47
102
}
330
47
100
AcDbScale
 70
     0
300
1:10
140
1.0
141
10.0
290
     0
  0
SCALE
  5
4E
102
{ACAD_REACTORS
330
47
102
}
330
47
100
AcDbScale
 70
     0
300
1:16
140
1.0
141
16.0
290
     0
  0
SCALE
  5
4F
102
{ACAD_REACTORS
330
47
102
}
330
47
100
AcDbScale
 70
     0
300
1:20
140
1.0
141
20.0
290
     0
  0
SCALE
  5
50
102
{ACAD_REACTORS
330
47
102
}
330
47
100
AcDbScale
 70
     0
300
1:30
140
1.0
141
30.0
290
     0
  0
SCALE
  5
51
102
{ACAD_REACTORS
330
47
102
}
330
47
100
AcDbScale
 70
     0
300
1:40
140
1.0
141
40.0
290
     0
  0
SCALE
  5
52
102
{ACAD_REACTORS
330
47
102
}
330
47
100
AcDbScale
 70
     0
300
1:50
140
1.0
141
50.0
290
     0
  0
SCALE
  5
53
102
{ACAD_REACTORS
330
47
102
}
330
47
100
AcDbScale
 70
     0
300
1:100
140
1.0
141
100.0
290
     0
  0
SCALE
  5
54
102
{ACAD_REACTORS
330
47
102
}
330
47
100
AcDbScale
 70
     0
300
2:1
140
2.0
141
1.0
290
     0
  0
SCALE
  5
55
102
{ACAD_REACTORS
330
47
102
}
330
47
100
AcDbScale
 70
     0
300
4:1
140
4.0
141
1.0
290
     0
  0
SCALE
  5
56
102
{ACAD_REACTORS
330
47
102
}
330
47
100
AcDbScale
 70
     0
300
8:1
140
8.0
141
1.0
290
     0
  0
SCALE
  5
57
102
{ACAD_REACTORS
330
47
102
}
330
47
100
AcDbScale
 70
     0
300
10:1
140
10.0
141
1.0
290
     0
  0
SCALE
  5
58
102
{ACAD_REACTORS
330
47
102
}
330
47
100
AcDbScale
 70
     0
300
100:1
140
100.0
141
1.0
290
     0
  0
ENDSEC
  0
EOF
