  0
SECTION
  2
HEADER
  9
$ACADVER
  1
AC1015
  9
$ACADMAINTVER
 70
     6
  9
$DWGCODEPAGE
  3
ANSI_1252
  9
$INSBASE
 10
0.0
 20
0.0
 30
0.0
  9
$EXTMIN
 10
-90.0
 20
-93.0
 30
0.0
  9
$EXTMAX
 10
90.0
 20
93.0
 30
0.0
  9
$LIMMIN
 10
0.0
 20
0.0
  9
$LIMMAX
 10
420.0
 20
297.0
  9
$ORTHOMODE
 70
     0
  9
$REGENMODE
 70
     1
  9
$FILLMODE
 70
     1
  9
$QTEXTMODE
 70
     0
  9
$MIRRTEXT
 70
     1
  9
$LTSCALE
 40
1.0
  9
$ATTMODE
 70
     1
  9
$TEXTSIZE
 40
3.5
  9
$TRACEWID
 40
1.0
  9
$TEXTSTYLE
  7
Standard
  9
$CLAYER
  8
0
  9
$CELTYPE
  6
ByLayer
  9
$CECOLOR
 62
   256
  9
$CELTSCALE
 40
1.0
  9
$DISPSILH
 70
     0
  9
$DIMSCALE
 40
1.0
  9
$DIMASZ
 40
3.302
  9
$DIMEXO
 40
0.0
  9
$DIMDLI
 40
3.75
  9
$DIMRND
 40
0.0
  9
$DIMDLE
 40
0.0
  9
$DIMEXE
 40
1.0
  9
$DIMTP
 40
0.0
  9
$DIMTM
 40
0.0
  9
$DIMTXT
 40
3.5
  9
$DIMCEN
 40
2.5
  9
$DIMTSZ
 40
0.0
  9
$DIMTOL
 70
     0
  9
$DIMLIM
 70
     0
  9
$DIMTIH
 70
     1
  9
$DIMTOH
 70
     1
  9
$DIMSE1
 70
     0
  9
$DIMSE2
 70
     0
  9
$DIMTAD
 70
     1
  9
$DIMZIN
 70
     1
  9
$DIMBLK
  1

  9
$DIMASO
 70
     1
  9
$DIMSHO
 70
     1
  9
$DIMPOST
  1

  9
$DIMAPOST
  1

  9
$DIMALT
 70
     0
  9
$DIMALTD
 70
     3
  9
$DIMALTF
 40
0.0393700787
  9
$DIMLFAC
 40
1.0
  9
$DIMTOFL
 70
     1
  9
$DIMTVP
 40
0.0
  9
$DIMTIX
 70
     0
  9
$DIMSOXD
 70
     0
  9
$DIMSAH
 70
     0
  9
$DIMBLK1
  1

  9
$DIMBLK2
  1

  9
$DIMSTYLE
  2
ISO-25
  9
$DIMCLRD
 70
     0
  9
$DIMCLRE
 70
     0
  9
$DIMCLRT
 70
     0
  9
$DIMTFAC
 40
1.0
  9
$DIMGAP
 40
1.524
  9
$DIMJUST
 70
     0
  9
$DIMSD1
 70
     0
  9
$DIMSD2
 70
     0
  9
$DIMTOLJ
 70
     0
  9
$DIMTZIN
 70
     1
  9
$DIMALTZ
 70
     0
  9
$DIMALTTZ
 70
     0
  9
$DIMUPT
 70
     0
  9
$DIMDEC
 70
     2
  9
$DIMTDEC
 70
     2
  9
$DIMALTU
 70
     2
  9
$DIMALTTD
 70
     3
  9
$DIMTXSTY
  7
Standard
  9
$DIMAUNIT
 70
     0
  9
$DIMADEC
 70
     2
  9
$DIMALTRND
 40
0.0
  9
$DIMAZIN
 70
     0
  9
$DIMDSEP
 70
    44
  9
$DIMATFIT
 70
     3
  9
$DIMFRAC
 70
     0
  9
$DIMLDRBLK
  1

  9
$DIMLUNIT
 70
     2
  9
$DIMLWD
 70
    -2
  9
$DIMLWE
 70
    -2
  9
$DIMTMOVE
 70
     0
  9
$LUNITS
 70
     2
  9
$LUPREC
 70
     2
  9
$SKETCHINC
 40
1.0
  9
$FILLETRAD
 40
0.0
  9
$AUNITS
 70
     0
  9
$AUPREC
 70
     2
  9
$MENU
  1
.
  9
$ELEVATION
 40
0.0
  9
$PELEVATION
 40
0.0
  9
$THICKNESS
 40
0.0
  9
$LIMCHECK
 70
     0
  9
$CHAMFERA
 40
0.0
  9
$CHAMFERB
 40
0.0
  9
$CHAMFERC
 40
0.0
  9
$CHAMFERD
 40
0.0
  9
$SKPOLY
 70
     0
  9
$TDCREATE
 40
2460245.652529977
  9
$TDUCREATE
 40
2460245.569196643
  9
$TDUPDATE
 40
2460245.65255397
  9
$TDUUPDATE
 40
2460245.569220637
  9
$TDINDWG
 40
0.0000000116
  9
$TDUSRTIMER
 40
0.0000000116
  9
$USRTIMER
 70
     1
  9
$ANGBASE
 50
0.0
  9
$ANGDIR
 70
     0
  9
$PDMODE
 70
     0
  9
$PDSIZE
 40
-1.0
  9
$PLINEWID
 40
0.0
  9
$SPLFRAME
 70
     0
  9
$SPLINETYPE
 70
     6
  9
$SPLINESEGS
 70
     8
  9
$HANDSEED
  5
8C
  9
$SURFTAB1
 70
     6
  9
$SURFTAB2
 70
     6
  9
$SURFTYPE
 70
     6
  9
$SURFU
 70
     6
  9
$SURFV
 70
     6
  9
$UCSBASE
  2

  9
$UCSNAME
  2

  9
$UCSORG
 10
0.0
 20
0.0
 30
0.0
  9
$UCSXDIR
 10
1.0
 20
0.0
 30
0.0
  9
$UCSYDIR
 10
0.0
 20
1.0
 30
0.0
  9
$UCSORTHOREF
  2

  9
$UCSORTHOVIEW
 70
     0
  9
$UCSORGTOP
 10
0.0
 20
0.0
 30
0.0
  9
$UCSORGBOTTOM
 10
0.0
 20
0.0
 30
0.0
  9
$UCSORGLEFT
 10
0.0
 20
0.0
 30
0.0
  9
$UCSORGRIGHT
 10
0.0
 20
0.0
 30
0.0
  9
$UCSORGFRONT
 10
0.0
 20
0.0
 30
0.0
  9
$UCSORGBACK
 10
0.0
 20
0.0
 30
0.0
  9
$PUCSBASE
  2

  9
$PUCSNAME
  2

  9
$PUCSORG
 10
0.0
 20
0.0
 30
0.0
  9
$PUCSXDIR
 10
1.0
 20
0.0
 30
0.0
  9
$PUCSYDIR
 10
0.0
 20
1.0
 30
0.0
  9
$PUCSORTHOREF
  2

  9
$PUCSORTHOVIEW
 70
     0
  9
$PUCSORGTOP
 10
0.0
 20
0.0
 30
0.0
  9
$PUCSORGBOTTOM
 10
0.0
 20
0.0
 30
0.0
  9
$PUCSORGLEFT
 10
0.0
 20
0.0
 30
0.0
  9
$PUCSORGRIGHT
 10
0.0
 20
0.0
 30
0.0
  9
$PUCSORGFRONT
 10
0.0
 20
0.0
 30
0.0
  9
$PUCSORGBACK
 10
0.0
 20
0.0
 30
0.0
  9
$USERI1
 70
     0
  9
$USERI2
 70
     0
  9
$USERI3
 70
     0
  9
$USERI4
 70
     0
  9
$USERI5
 70
     0
  9
$USERR1
 40
0.0
  9
$USERR2
 40
0.0
  9
$USERR3
 40
0.0
  9
$USERR4
 40
0.0
  9
$USERR5
 40
0.0
  9
$WORLDVIEW
 70
     1
  9
$SHADEDGE
 70
     3
  9
$SHADEDIF
 70
    70
  9
$TILEMODE
 70
     1
  9
$MAXACTVP
 70
    64
  9
$PINSBASE
 10
0.0
 20
0.0
 30
0.0
  9
$PLIMCHECK
 70
     0
  9
$PEXTMIN
 10
1.0000000000E+20
 20
1.0000000000E+20
 30
1.0000000000E+20
  9
$PEXTMAX
 10
-1.0000000000E+20
 20
-1.0000000000E+20
 30
-1.0000000000E+20
  9
$PLIMMIN
 10
0.0
 20
0.0
  9
$PLIMMAX
 10
420.0
 20
297.0
  9
$UNITMODE
 70
     0
  9
$VISRETAIN
 70
     1
  9
$PLINEGEN
 70
     0
  9
$PSLTSCALE
 70
     1
  9
$TREEDEPTH
 70
  3020
  9
$CMLSTYLE
  2
Standard
  9
$CMLJUST
 70
     0
  9
$CMLSCALE
 40
20.0
  9
$PROXYGRAPHICS
 70
     1
  9
$MEASUREMENT
 70
     1
  9
$CELWEIGHT
370
    -1
  9
$ENDCAPS
280
     0
  9
$JOINSTYLE
280
     0
  9
$LWDISPLAY
290
     1
  9
$INSUNITS
 70
     4
  9
$HYPERLINKBASE
  1

  9
$STYLESHEET
  1

  9
$XEDIT
290
     1
  9
$CEPSNTYPE
380
     0
  9
$PSTYLEMODE
290
     1
  9
$FINGERPRINTGUID
  2
{58a0f269-78df-4f7f-a85e-92ded01a0f0e}
  9
$VERSIONGUID
  2
{FAEB1C32-E019-11D5-929B-00C0DF256EC4}
  9
$EXTNAMES
290
     1
  9
$PSVPSCALE
 40
0.0
  9
$OLESTARTUP
290
     0
  0
ENDSEC
  0
SECTION
  2
CLASSES
  0
CLASS
  1
ACDBDICTIONARYWDFLT
  2
AcDbDictionaryWithDefault
  3
ObjectDBX Classes
 90
        0
280
     0
281
     0
  0
CLASS
  1
VISUALSTYLE
  2
AcDbVisualStyle
  3
ObjectDBX Classes
 90
     4095
280
     0
281
     0
  0
CLASS
  1
MATERIAL
  2
AcDbMaterial
  3
ObjectDBX Classes
 90
     1153
280
     0
281
     0
  0
CLASS
  1
SCALE
  2
AcDbScale
  3
ObjectDBX Classes
 90
     1153
280
     0
281
     0
  0
CLASS
  1
TABLESTYLE
  2
AcDbTableStyle
  3
ObjectDBX Classes
 90
     4095
280
     0
281
     0
  0
CLASS
  1
MLEADERSTYLE
  2
AcDbMLeaderStyle
  3
ACDB_MLEADERSTYLE_CLASS
 90
     4095
280
     0
281
     0
  0
CLASS
  1
SUN
  2
AcDbSun
  3
SCENEOE
 90
     1153
280
     0
281
     0
  0
CLASS
  1
ACDBPLACEHOLDER
  2
AcDbPlaceHolder
  3
ObjectDBX Classes
 90
        0
280
     0
281
     0
  0
CLASS
  1
LAYOUT
  2
AcDbLayout
  3
ObjectDBX Classes
 90
        0
280
     0
281
     0
  0
ENDSEC
  0
SECTION
  2
TABLES
  0
TABLE
  2
VPORT
  5
8
330
0
100
AcDbSymbolTable
 70
     1
  0
VPORT
  5
29
330
8
100
AcDbSymbolTableRecord
100
AcDbViewportTableRecord
  2
*Active
 70
     0
 10
0.0
 20
0.0
 11
1.0
 21
1.0
 12
0.0
 22
0.0
 13
0.0
 23
0.0
 14
10.0
 24
10.0
 15
10.0
 25
10.0
 16
0.0
 26
0.0
 36
1.0
 17
0.0
 27
0.0
 37
0.0
 40
189.72
 41
0.9677419355
 42
50.0
 43
0.0
 44
0.0
 50
0.0
 51
0.0
 71
     0
 72
   100
 73
     1
 74
     3
 75
     0
 76
     0
 77
     0
 78
     0
281
     0
 65
     1
110
0.0
120
0.0
130
0.0
111
1.0
121
0.0
131
0.0
112
0.0
122
1.0
132
0.0
 79
     0
146
0.0
  0
ENDTAB
  0
TABLE
  2
LTYPE
  5
5
330
0
100
AcDbSymbolTable
 70
     6
  0
LTYPE
  5
14
330
5
100
AcDbSymbolTableRecord
100
AcDbLinetypeTableRecord
  2
ByBlock
 70
     0
  3

 72
    65
 73
     0
 40
0.0
  0
LTYPE
  5
15
330
5
100
AcDbSymbolTableRecord
100
AcDbLinetypeTableRecord
  2
ByLayer
 70
     0
  3

 72
    65
 73
     0
 40
0.0
  0
LTYPE
  5
16
330
5
100
AcDbSymbolTableRecord
100
AcDbLinetypeTableRecord
  2
Continuous
 70
     0
  3
Solid line
 72
    65
 73
     0
 40
0.0
  0
LTYPE
  5
5E
330
5
100
AcDbSymbolTableRecord
100
AcDbLinetypeTableRecord
  2
HIDDEN
 70
     0
  3
Hidden __ __ __ __ __ __ __ __ __ __ __ __ __ __
 72
    65
 73
     2
 40
1.905
 49
1.27
 74
     0
 49
-0.635
 74
     0
  0
LTYPE
  5
5F
330
5
100
AcDbSymbolTableRecord
100
AcDbLinetypeTableRecord
  2
PHANTOM
 70
     0
  3
Phantom ______  __  __  ______  __  __  ______
 72
    65
 73
     6
 40
12.7
 49
6.35
 74
     0
 49
-1.27
 74
     0
 49
1.27
 74
     0
 49
-1.27
 74
     0
 49
1.27
 74
     0
 49
-1.27
 74
     0
  0
LTYPE
  5
60
330
5
100
AcDbSymbolTableRecord
100
AcDbLinetypeTableRecord
  2
CENTER
 70
     0
  3
Center ____ _ ____ _ ____ _ ____ _ ____ _ ____
 72
    65
 73
     4
 40
10.16
 49
6.35
 74
     0
 49
-1.27
 74
     0
 49
1.27
 74
     0
 49
-1.27
 74
     0
  0
LTYPE
  5
61
330
5
100
AcDbSymbolTableRecord
100
AcDbLinetypeTableRecord
  2
CENTERX2
 70
     0
  3
Center (2x) ________  __  ________  __  _____
 72
    65
 73
     4
 40
20.32
 49
12.7
 74
     0
 49
-2.54
 74
     0
 49
2.54
 74
     0
 49
-2.54
 74
     0
  0
LTYPE
  5
62
330
5
100
AcDbSymbolTableRecord
100
AcDbLinetypeTableRecord
  2
DOT2
 70
     0
  3
Dot (.5x) ........................................
 72
    65
 73
     2
 40
0.635
 49
0.0
 74
     0
 49
-0.635
 74
     0
  0
ENDTAB
  0
TABLE
  2
LAYER
  5
2
330
0
100
AcDbSymbolTable
 70
     1
  0
LAYER
  5
10
330
2
100
AcDbSymbolTableRecord
100
AcDbLayerTableRecord
  2
0
 70
     0
 62
     7
  6
Continuous
370
    -3
390
F
  0
ENDTAB
  0
TABLE
  2
STYLE
  5
3
330
0
100
AcDbSymbolTable
 70
     2
  0
STYLE
  5
11
330
3
100
AcDbSymbolTableRecord
100
AcDbTextStyleTableRecord
  2
Standard
 70
     0
 40
0.0
 41
1.0
 50
0.0
 71
     0
 42
3.5
  3
txt
  4

  0
STYLE
  5
89
330
3
100
AcDbSymbolTableRecord
100
AcDbTextStyleTableRecord
  2
SLDTEXTSTYLE0
 70
     0
 40
0.0
 41
0.7
 50
0.0
 71
     0
 42
3.5
  3
TXT
  4
bigfont
  0
ENDTAB
  0
TABLE
  2
VIEW
  5
6
330
0
100
AcDbSymbolTable
 70
     0
  0
ENDTAB
  0
TABLE
  2
UCS
  5
7
330
0
100
AcDbSymbolTable
 70
     0
  0
ENDTAB
  0
TABLE
  2
APPID
  5
9
330
0
100
AcDbSymbolTable
 70
     1
  0
APPID
  5
12
330
9
100
AcDbSymbolTableRecord
100
AcDbRegAppTableRecord
  2
ACAD
 70
     0
  0
ENDTAB
  0
TABLE
  2
DIMSTYLE
  5
A
330
0
100
AcDbSymbolTable
 70
     1
100
AcDbDimStyleTable
  0
DIMSTYLE
105
27
330
A
100
AcDbSymbolTableRecord
100
AcDbDimStyleTableRecord
  2
ISO-25
 70
     0
 41
2.5
 42
0.625
 43
3.75
 44
1.25
 73
     0
 74
     0
 77
     1
 78
     8
140
2.5
141
2.5
143
0.0393700787
147
0.625
171
     3
172
     1
178
     0
271
     2
272
     2
274
     3
278
    44
283
     0
284
     8
340
11
  0
ENDTAB
  0
TABLE
  2
BLOCK_RECORD
  5
1
330
0
100
AcDbSymbolTable
 70
     1
  0
BLOCK_RECORD
  5
1F
330
1
100
AcDbSymbolTableRecord
100
AcDbBlockTableRecord
  2
*Model_Space
340
22
  0
BLOCK_RECORD
  5
1B
330
1
100
AcDbSymbolTableRecord
100
AcDbBlockTableRecord
  2
*Paper_Space
340
1E
  0
BLOCK_RECORD
  5
23
330
1
100
AcDbSymbolTableRecord
100
AcDbBlockTableRecord
  2
*Paper_Space0
340
26
  0
ENDTAB
  0
ENDSEC
  0
SECTION
  2
BLOCKS
  0
BLOCK
  5
20
330
1F
100
AcDbEntity
  8
0
100
AcDbBlockBegin
  2
*Model_Space
 70
     0
 10
0.0
 20
0.0
 30
0.0
  3
*Model_Space
  1

  0
ENDBLK
  5
21
330
1F
100
AcDbEntity
  8
0
100
AcDbBlockEnd
  0
BLOCK
  5
1C
330
1B
100
AcDbEntity
 67
     1
  8
0
100
AcDbBlockBegin
  2
*Paper_Space
 70
     0
 10
0.0
 20
0.0
 30
0.0
  3
*Paper_Space
  1

  0
ENDBLK
  5
1D
330
1B
100
AcDbEntity
 67
     1
  8
0
100
AcDbBlockEnd
  0
BLOCK
  5
24
330
23
100
AcDbEntity
  8
0
100
AcDbBlockBegin
  2
*Paper_Space0
 70
     0
 10
0.0
 20
0.0
 30
0.0
  3
*Paper_Space0
  1

  0
ENDBLK
  5
25
330
23
100
AcDbEntity
  8
0
100
AcDbBlockEnd
  0
ENDSEC
  0
SECTION
  2
ENTITIES
  0
LINE
  5
63
330
1F
100
AcDbEntity
  8
0
  6
Continuous
 62
     7
370
    25
100
AcDbLine
 10
-80.0
 20
45.0897435897
 30
0.0
 11
-80.0
 21
44.641025641
 31
0.0
  0
LINE
  5
64
330
1F
100
AcDbEntity
  8
0
  6
Continuous
 62
     7
370
    25
100
AcDbLine
 10
-80.0
 20
44.641025641
 30
0.0
 11
-85.0
 21
44.641025641
 31
0.0
  0
LINE
  5
65
330
1F
100
AcDbEntity
  8
0
  6
Continuous
 62
     7
370
    25
100
AcDbLine
 10
-85.0
 20
44.641025641
 30
0.0
 11
-85.0
 21
45.6215945513
 31
0.0
  0
SPLINE
  5
66
330
1F
100
AcDbEntity
  8
0
  6
Continuous
 62
     7
370
    25
100
AcDbSpline
210
0.0
220
0.0
230
1.0
 70
     8
 71
     3
 72
    15
 73
    11
 74
     0
 42
0.00000001
 43
0.00000001
 40
0.0
 40
0.0
 40
0.0
 40
0.0
 40
0.1769557521312513
 40
0.339055079642578
 40
0.4863182249420777
 40
0.6187809228353788
 40
0.7356188277673769
 40
0.8387424767201107
 40
0.9264570678763168
 40
1.0
 40
1.0
 40
1.0
 40
1.0
 10
-84.99999999999999
 20
45.62159455128176
 30
0.0
 10
-84.99992586251307
 20
45.68903870292699
 30
0.0
 10
-84.9997838117957
 20
45.81826469265655
 30
0.0
 10
-84.99547703204478
 20
46.00357191509782
 30
0.0
 10
-84.9897246147694
 20
46.17187153170686
 30
0.0
 10
-84.98175048163634
 20
46.32280064731648
 30
0.0
 10
-84.97232678128283
 20
46.45682364458303
 30
0.0
 10
-84.95910958217216
 20
46.57333407250667
 30
0.0
 10
-84.94530915995317
 20
46.67324772441216
 30
0.0
 10
-84.93127857921114
 20
46.73311408076433
 30
0.0
 10
-84.92487980769229
 20
46.76041666666637
 30
0.0
  0
SPLINE
  5
67
330
1F
100
AcDbEntity
  8
0
  6
Continuous
 62
     7
370
    25
100
AcDbSpline
210
0.0
220
0.0
230
1.0
 70
     8
 71
     3
 72
    23
 73
    19
 74
     0
 42
0.00000001
 43
0.00000001
 40
0.0
 40
0.0
 40
0.0
 40
0.0
 40
0.0624718514428997
 40
0.1234716318564936
 40
0.1833832449898885
 40
0.2431163005141087
 40
0.3020808603235938
 40
0.3612864676158216
 40
0.4214099579157617
 40
0.482490291795935
 40
0.5441012883206987
 40
0.6057205401879422
 40
0.6671855095049105
 40
0.730025386820366
 40
0.7945821167592421
 40
0.8603668248909667
 40
0.9289181510021445
 40
1.0
 40
1.0
 40
1.0
 40
1.0
 10
-84.92487980769229
 20
46.76041666666637
 30
0.0
 10
-84.91541950922635
 20
46.79497855634665
 30
0.0
 10
-84.89672183239337
 20
46.86328792801253
 30
0.0
 10
-84.85927901176272
 20
46.96172235137308
 30
0.0
 10
-84.81485603659237
 20
47.05535450990966
 30
0.0
 10
-84.76432390897908
 20
47.14460231028433
 30
0.0
 10
-84.70519520442807
 20
47.22784024482624
 30
0.0
 10
-84.64140350480173
 20
47.3078430964848
 30
0.0
 10
-84.56882631919709
 20
47.38178676967637
 30
0.0
 10
-84.48975275434285
 20
47.45067282212798
 30
0.0
 10
-84.40518570784386
 20
47.51434228937008
 30
0.0
 10
-84.31358870461239
 20
47.56783615435561
 30
0.0
 10
-84.21769641321264
 20
47.61460952375285
 30
0.0
 10
-84.11620557790833
 20
47.65290525487853
 30
0.0
 10
-84.00901766493287
 20
47.68138355162399
 30
0.0
 10
-83.89689441841466
 20
47.70252581776528
 30
0.0
 10
-83.77970976135022
 20
47.71600690727837
 30
0.0
 10
-83.69962315866546
 20
47.71729367451515
 30
0.0
 10
-83.65885416666666
 20
47.71794871794842
 30
0.0
  0
SPLINE
  5
68
330
1F
100
AcDbEntity
  8
0
  6
Continuous
 62
     7
370
    25
100
AcDbSpline
210
0.0
220
0.0
230
1.0
 70
     8
 71
     3
 72
    23
 73
    19
 74
     0
 42
0.00000001
 43
0.00000001
 40
0.0
 40
0.0
 40
0.0
 40
0.0
 40
0.0701188944197196
 40
0.1371923527859707
 40
0.2020161807247549
 40
0.2646314069747415
 40
0.3261165471458192
 40
0.3860103046676448
 40
0.4458118469576789
 40
0.5052976967309605
 40
0.5646332777264875
 40
0.6242826253338415
 40
0.683902031903751
 40
0.7439527709382726
 40
0.8053877310076349
 40
0.8683880308962793
 40
0.9330840282524748
 40
1.0
 40
1.0
 40
1.0
 40
1.0
 10
-83.65885416666666
 20
47.71794871794842
 30
0.0
 10
-83.61774305697026
 20
47.71734668262133
 30
0.0
 10
-83.53730639419098
 20
47.7161687598422
 30
0.0
 10
-83.41963098249289
 20
47.70203120937246
 30
0.0
 10
-83.30717613944773
 20
47.68298807848858
 30
0.0
 10
-83.20019121020576
 20
47.65370657516402
 30
0.0
 10
-83.09931153810456
 20
47.61535561359484
 30
0.0
 10
-83.00299549236072
 20
47.57036696667246
 30
0.0
 10
-82.91288167536268
 20
47.51610478042991
 30
0.0
 10
-82.8286429360175
 20
47.45375502370062
 30
0.0
 10
-82.75020020414009
 20
47.38439560313935
 30
0.0
 10
-82.6781219262934
 20
47.3083199772147
 30
0.0
 10
-82.6128300142612
 20
47.22583527364289
 30
0.0
 10
-82.55417809471778
 20
47.13720363353379
 30
0.0
 10
-82.50352626686393
 20
47.04156099233872
 30
0.0
 10
-82.45815868839892
 20
46.94035791580882
 30
0.0
 10
-82.42005717320109
 20
46.83271474949178
 30
0.0
 10
-82.4000142283062
 20
46.75822544381268
 30
0.0
 10
-82.3898237179487
 20
46.72035256410227
 30
0.0
  0
SPLINE
  5
69
330
1F
100
AcDbEntity
  8
0
  6
Continuous
 62
     7
370
    25
100
AcDbSpline
210
0.0
220
0.0
230
1.0
 70
     8
 71
     3
 72
    15
 73
    11
 74
     0
 42
0.00000001
 43
0.00000001
 40
0.0
 40
0.0
 40
0.0
 40
0.0
 40
0.0751715905611814
 40
0.1647429114078675
 40
0.2680114373901309
 40
0.3859639562109189
 40
0.5177992732835655
 40
0.6636978076578723
 40
0.8244167868186466
 40
1.0
 40
1.0
 40
1.0
 40
1.0
 10
-82.3898237179487
 20
46.72035256410227
 30
0.0
 10
-82.38316728094367
 20
46.68902744458504
 30
0.0
 10
-82.36857931222272
 20
46.62037662383027
 30
0.0
 10
-82.3521828438833
 20
46.50732268120588
 30
0.0
 10
-82.3387359483064
 20
46.37562750643956
 30
0.0
 10
-82.32618719769607
 20
46.22573918495296
 30
0.0
 10
-82.31953792871423
 20
46.057308180453
 30
0.0
 10
-82.31173060232551
 20
45.87072079307879
 30
0.0
 10
-82.3080467516206
 20
45.66534554824405
 30
0.0
 10
-82.30781388647368
 20
45.52210271802313
 30
0.0
 10
-82.30769230769229
 20
45.44731570512791
 30
0.0
  0
LINE
  5
6A
330
1F
100
AcDbEntity
  8
0
  6
Continuous
 62
     7
370
    25
100
AcDbLine
 10
-82.3076923077
 20
45.4473157051
 30
0.0
 11
-82.3076923077
 21
45.0897435897
 31
0.0
  0
LINE
  5
6B
330
1F
100
AcDbEntity
  8
0
  6
Continuous
 62
     7
370
    25
100
AcDbLine
 10
-82.3076923077
 20
45.0897435897
 30
0.0
 11
-80.0
 21
45.0897435897
 31
0.0
  0
LINE
  5
6C
330
1F
100
AcDbEntity
  8
0
  6
Continuous
 62
     7
370
    25
100
AcDbLine
 10
-21.6295400907
 20
23.7
 30
0.0
 11
-28.3704599093
 21
23.7
 31
0.0
  0
ARC
  5
6D
330
1F
100
AcDbEntity
  8
0
  6
Continuous
 62
     7
370
    25
100
AcDbCircle
 10
-25.0
 20
17.0
 30
0.0
 40
7.50000000000003
100
AcDbArc
 50
116.7048522476
 51
63.2951477524
  0
LINE
  5
6E
330
1F
100
AcDbEntity
  8
0
  6
Continuous
 62
     7
370
    25
100
AcDbLine
 10
-21.6295400907
 20
49.7
 30
0.0
 11
-28.3704599093
 21
49.7
 31
0.0
  0
ARC
  5
6F
330
1F
100
AcDbEntity
  8
0
  6
Continuous
 62
     7
370
    25
100
AcDbCircle
 10
-25.0
 20
43.0
 30
0.0
 40
7.500000000000176
100
AcDbArc
 50
116.7048522476
 51
63.2951477524
  0
LINE
  5
70
330
1F
100
AcDbEntity
  8
0
  6
Continuous
 62
     7
370
    25
100
AcDbLine
 10
2.3704599093
 20
23.7
 30
0.0
 11
-4.3704599093
 21
23.7
 31
0.0
  0
ARC
  5
71
330
1F
100
AcDbEntity
  8
0
  6
Continuous
 62
     7
370
    25
100
AcDbCircle
 10
-1.0
 20
17.0
 30
0.0
 40
7.500000000000004
100
AcDbArc
 50
116.7048522476
 51
63.2951477524
  0
LINE
  5
72
330
1F
100
AcDbEntity
  8
0
  6
Continuous
 62
     7
370
    25
100
AcDbLine
 10
2.3704599093
 20
49.7
 30
0.0
 11
-4.3704599093
 21
49.7
 31
0.0
  0
ARC
  5
73
330
1F
100
AcDbEntity
  8
0
  6
Continuous
 62
     7
370
    25
100
AcDbCircle
 10
-1.0
 20
43.0
 30
0.0
 40
7.499999999999992
100
AcDbArc
 50
116.7048522476
 51
63.2951477524
  0
ARC
  5
74
330
1F
100
AcDbEntity
  8
0
  6
Continuous
 62
     7
370
    25
100
AcDbCircle
 10
-80.0
 20
-83.0
 30
0.0
 40
10.00000000000114
100
AcDbArc
 50
180.0
 51
270.0
  0
LINE
  5
75
330
1F
100
AcDbEntity
  8
0
  6
Continuous
 62
     7
370
    25
100
AcDbLine
 10
-80.0
 20
-93.0
 30
0.0
 11
80.0
 21
-93.0
 31
0.0
  0
ARC
  5
76
330
1F
100
AcDbEntity
  8
0
  6
Continuous
 62
     7
370
    25
100
AcDbCircle
 10
80.0
 20
-83.0
 30
0.0
 40
10.00000000000057
100
AcDbArc
 50
270.0
 51
0.0
  0
LINE
  5
77
330
1F
100
AcDbEntity
  8
0
  6
Continuous
 62
     7
370
    25
100
AcDbLine
 10
90.0
 20
-83.0
 30
0.0
 11
90.0
 21
83.0
 31
0.0
  0
ARC
  5
78
330
1F
100
AcDbEntity
  8
0
  6
Continuous
 62
     7
370
    25
100
AcDbCircle
 10
80.0
 20
83.0
 30
0.0
 40
10.00000000000117
100
AcDbArc
 50
0.0
 51
90.0
  0
LINE
  5
79
330
1F
100
AcDbEntity
  8
0
  6
Continuous
 62
     7
370
    25
100
AcDbLine
 10
80.0
 20
93.0
 30
0.0
 11
-80.0
 21
93.0
 31
0.0
  0
ARC
  5
7A
330
1F
100
AcDbEntity
  8
0
  6
Continuous
 62
     7
370
    25
100
AcDbCircle
 10
-80.0
 20
83.0
 30
0.0
 40
10.00000000000058
100
AcDbArc
 50
90.0
 51
180.0
  0
LINE
  5
7B
330
1F
100
AcDbEntity
  8
0
  6
Continuous
 62
     7
370
    25
100
AcDbLine
 10
-90.0
 20
83.0
 30
0.0
 11
-90.0
 21
-83.0
 31
0.0
  0
CIRCLE
  5
7C
330
1F
100
AcDbEntity
  8
0
  6
Continuous
 62
     7
370
    25
100
AcDbCircle
 10
-80.0
 20
0.0
 30
0.0
 40
2.499999999999986
  0
SPLINE
  5
7D
330
1F
100
AcDbEntity
  8
0
  6
Continuous
 62
     7
370
    25
100
AcDbSpline
210
0.0
220
0.0
230
1.0
 70
     8
 71
     3
 72
    23
 73
    19
 74
     0
 42
0.00000001
 43
0.00000001
 40
0.0
 40
0.0
 40
0.0
 40
0.0
 40
0.065818876843307
 40
0.1297465269068314
 40
0.192071954488006
 40
0.2534594242982017
 40
0.3145695877964205
 40
0.3762798811880259
 40
0.4390256536685593
 40
0.5032670288290857
 40
0.567492822879295
 40
0.6297047956052444
 40
0.6909996492157545
 40
0.7514516509174477
 40
0.8120043642646928
 40
0.8731496810680434
 40
0.9356354837317867
 40
1.0
 40
1.0
 40
1.0
 40
1.0
 10
-79.87179487179486
 20
40.99519230769201
 30
0.0
 10
-79.87400828158674
 20
40.9045861377212
 30
0.0
 10
-79.87837150148485
 20
40.72597725780925
 30
0.0
 10
-79.91577350834481
 20
40.46378149298098
 30
0.0
 10
-79.97426108520376
 20
40.21195614462705
 30
0.0
 10
-80.05784599408734
 20
39.9712213571808
 30
0.0
 10
-80.16587060940861
 20
39.74144288632586
 30
0.0
 10
-80.29759115093002
 20
39.52217133961934
 30
0.0
 10
-80.45388706690237
 20
39.31428684355984
 30
0.0
 10
-80.63126788773232
 20
39.11951292001053
 30
0.0
 10
-80.82437010489775
 20
38.94129977974988
 30
0.0
 10
-81.03127618358089
 20
38.78592924304575
 30
0.0
 10
-81.24792683592867
 20
38.65417908116118
 30
0.0
 10
-81.47492329894683
 20
38.54651717759653
 30
0.0
 10
-81.71116821709218
 20
38.4612822356755
 30
0.0
 10
-81.95823747064857
 20
38.4031324954768
 30
0.0
 10
-82.21472247895542
 20
38.36550970680704
 30
0.0
 10
-82.3893551908487
 20
38.36117421183314
 30
0.0
 10
-82.47796474358974
 20
38.35897435897406
 30
0.0
  0
SPLINE
  5
7E
330
1F
100
AcDbEntity
  8
0
  6
Continuous
 62
     7
370
    25
100
AcDbSpline
210
0.0
220
0.0
230
1.0
 70
     8
 71
     3
 72
    31
 73
    27
 74
     0
 42
0.00000001
 43
0.00000001
 40
0.0
 40
0.0
 40
0.0
 40
0.0
 40
0.0432089861713361
 40
0.085872871630619
 40
0.1281200066967015
 40
0.1701519644541974
 40
0.2119176209878617
 40
0.2537530026191248
 40
0.2960064088559493
 40
0.3384433571447835
 40
0.3810153681620347
 40
0.4228204794407602
 40
0.4640890557943135
 40
0.5051258486836864
 40
0.5459749706852406
 40
0.58698521113386
 40
0.6283385916346638
 40
0.6700838015912066
 40
0.711991602363723
 40
0.7530391548630194
 40
0.7940493953116378
 40
0.8348855427015818
 40
0.8754983129295135
 40
0.9165472998303789
 40
0.9580037786449604
 40
1.0
 40
1.0
 40
1.0
 40
1.0
 10
-82.47796474358975
 20
38.35897435897407
 30
0.0
 10
-82.53743998521354
 20
38.35973812398137
 30
0.0
 10
-82.65564016165156
 20
38.36125601875835
 30
0.0
 10
-82.83116387615489
 20
38.37952986514238
 30
0.0
 10
-83.00386481582198
 20
38.40604658115197
 30
0.0
 10
-83.17325188434248
 20
38.44404931336542
 30
0.0
 10
-83.33891043391716
 20
38.49375169477467
 30
0.0
 10
-83.50198295225485
 20
38.55239744818935
 30
0.0
 10
-83.66081684331971
 20
38.62402579870009
 30
0.0
 10
-83.81616454576415
 20
38.70499815304129
 30
0.0
 10
-83.96560441124458
 20
38.79537216450247
 30
0.0
 10
-84.10686095860332
 20
38.89519466371959
 30
0.0
 10
-84.24111952543511
 20
39.00095947581655
 30
0.0
 10
-84.36490095949088
 20
39.11690718099946
 30
0.0
 10
-84.4818061829051
 20
39.2392163884216
 30
0.0
 10
-84.59003863579112
 20
39.36987121432761
 30
0.0
 10
-84.69057428001476
 20
39.50807442056412
 30
0.0
 10
-84.7811747672725
 20
39.65442067737211
 30
0.0
 10
-84.86311638815229
 20
39.80530392720004
 30
0.0
 10
-84.93343331812763
 20
39.96084218117059
 30
0.0
 10
-84.99378483457123
 20
40.11892299760721
 30
0.0
 10
-85.04270029913849
 20
40.28028678035793
 30
0.0
 10
-85.08131749341273
 20
40.44450502618696
 30
0.0
 10
-85.10761371299678
 20
40.61193614700536
 30
0.0
 10
-85.12593416712177
 20
40.782446755976
 30
0.0
 10
-85.12744488424939
 20
40.89732006876169
 30
0.0
 10
-85.12820512820511
 20
40.9551282051279
 30
0.0
  0
SPLINE
  5
7F
330
1F
100
AcDbEntity
  8
0
  6
Continuous
 62
     7
370
    25
100
AcDbSpline
210
0.0
220
0.0
230
1.0
 70
     8
 71
     3
 72
    23
 73
    19
 74
     0
 42
0.00000001
 43
0.00000001
 40
0.0
 40
0.0
 40
0.0
 40
0.0
 40
0.0665665108701521
 40
0.1307421193777703
 40
0.1933478019441162
 40
0.2549983247511641
 40
0.3161192457075422
 40
0.3772642104378194
 40
0.439399946925454
 40
0.502805225946982
 40
0.5663562482448945
 40
0.6282507846700169
 40
0.6891070707377762
 40
0.7493579391685867
 40
0.8101796433571221
 40
0.8716166215385844
 40
0.9348726322227683
 40
1.0
 40
1.0
 40
1.0
 40
1.0
 10
-85.12820512820511
 20
40.9551282051279
 30
0.0
 10
-85.12589963414769
 20
41.04772130799731
 30
0.0
 10
-85.12137145360555
 20
41.22958180136949
 30
0.0
 10
-85.0855646156238
 20
41.49661254718097
 30
0.0
 10
-85.02663030690977
 20
41.75230645953639
 30
0.0
 10
-84.94340247921652
 20
41.99681053415078
 30
0.0
 10
-84.83550805866986
 20
42.2291948614759
 30
0.0
 10
-84.7044472368924
 20
42.45011575617432
 30
0.0
 10
-84.5494235317817
 20
42.65891114045039
 30
0.0
 10
-84.37271331842594
 20
42.85414379146737
 30
0.0
 10
-84.17918679535491
 20
43.03224119880973
 30
0.0
 10
-83.97201298216531
 20
43.18852259842939
 30
0.0
 10
-83.75379660019493
 20
43.32036070732115
 30
0.0
 10
-83.5245262678615
 20
43.42828455876421
 30
0.0
 10
-83.28473726761193
 20
43.51301193489306
 30
0.0
 10
-83.03308570530533
 20
43.57146360048134
 30
0.0
 10
-82.77121982134041
 20
43.60880493827921
 30
0.0
 10
-82.59260990225793
 20
43.61317017996402
 30
0.0
 10
-82.50200320512819
 20
43.61538461538431
 30
0.0
  0
SPLINE
  5
80
330
1F
100
AcDbEntity
  8
0
  6
Continuous
 62
     7
370
    25
100
AcDbSpline
210
0.0
220
0.0
230
1.0
 70
     8
 71
     3
 72
    23
 73
    19
 74
     0
 42
0.00000001
 43
0.00000001
 40
0.0
 40
0.0
 40
0.0
 40
0.0
 40
0.0652342872258439
 40
0.1285843375588976
 40
0.1903430886116907
 40
0.2514079850000847
 40
0.3122055765445646
 40
0.3736140793532913
 40
0.4362640098418412
 40
0.5004072585291459
 40
0.5645349499057395
 40
0.6271370835563659
 40
0.6883383114031622
 40
0.74923959268876
 40
0.8100757871080414
 40
0.8716556124300366
 40
0.934765712774156
 40
1.0
 40
1.0
 40
1.0
 40
1.0
 10
-82.50200320512819
 20
43.61538461538431
 30
0.0
 10
-82.41206446229046
 20
43.61316943468377
 30
0.0
 10
-82.23478478069245
 20
43.6088030568928
 30
0.0
 10
-81.97457317622353
 20
43.5714333017642
 30
0.0
 10
-81.72446815044192
 20
43.51275112066786
 30
0.0
 10
-81.48502715584632
 20
43.42933359910811
 30
0.0
 10
-81.25622248051847
 20
43.32132693145511
 30
0.0
 10
-81.03784090162324
 20
43.18929473712304
 30
0.0
 10
-80.83011372646423
 20
43.03330994199349
 30
0.0
 10
-80.63525396351808
 20
42.8559688273992
 30
0.0
 10
-80.45700239635984
 20
42.66207363375816
 30
0.0
 10
-80.2997775710894
 20
42.45569604923801
 30
0.0
 10
-80.16788207139471
 20
42.23748548572591
 30
0.0
 10
-80.05875334778787
 20
42.00970325017325
 30
0.0
 10
-79.97579167763114
 20
41.77056072358145
 30
0.0
 10
-79.915392842535
 20
41.52179815005522
 30
0.0
 10
-79.87842219914293
 20
41.26206018929214
 30
0.0
 10
-79.87402822201392
 20
41.08512440407618
 30
0.0
 10
-79.87179487179486
 20
40.995192307692
 30
0.0
  0
LINE
  5
81
330
1F
100
AcDbEntity
  8
0
  6
Continuous
 62
     7
370
    25
100
AcDbLine
 10
-80.0
 20
36.1794871795
 30
0.0
 11
-84.4871794872
 21
36.1794871795
 31
0.0
  0
LINE
  5
82
330
1F
100
AcDbEntity
  8
0
  6
Continuous
 62
     7
370
    25
100
AcDbLine
 10
-84.4871794872
 20
36.1794871795
 30
0.0
 11
-84.4871794872
 21
35.0897435897
 31
0.0
  0
LINE
  5
83
330
1F
100
AcDbEntity
  8
0
  6
Continuous
 62
     7
370
    25
100
AcDbLine
 10
-84.4871794872
 20
35.0897435897
 30
0.0
 11
-85.0
 21
35.0897435897
 31
0.0
  0
LINE
  5
84
330
1F
100
AcDbEntity
  8
0
  6
Continuous
 62
     7
370
    25
100
AcDbLine
 10
-85.0
 20
35.0897435897
 30
0.0
 11
-85.0
 21
37.7179487179
 31
0.0
  0
LINE
  5
85
330
1F
100
AcDbEntity
  8
0
  6
Continuous
 62
     7
370
    25
100
AcDbLine
 10
-85.0
 20
37.7179487179
 30
0.0
 11
-84.4871794872
 21
37.7179487179
 31
0.0
  0
LINE
  5
86
330
1F
100
AcDbEntity
  8
0
  6
Continuous
 62
     7
370
    25
100
AcDbLine
 10
-84.4871794872
 20
37.7179487179
 30
0.0
 11
-84.4871794872
 21
36.6282051282
 31
0.0
  0
LINE
  5
87
330
1F
100
AcDbEntity
  8
0
  6
Continuous
 62
     7
370
    25
100
AcDbLine
 10
-84.4871794872
 20
36.6282051282
 30
0.0
 11
-80.0
 21
36.6282051282
 31
0.0
  0
LINE
  5
88
330
1F
100
AcDbEntity
  8
0
  6
Continuous
 62
     7
370
    25
100
AcDbLine
 10
-80.0
 20
36.6282051282
 30
0.0
 11
-80.0
 21
36.1794871795
 31
0.0
  0
MTEXT
  5
8A
330
1F
100
AcDbEntity
  8
0
  6
Continuous
 62
     7
100
AcDbMText
 10
-90.0
 20
-94.0195663917
 30
0.0
 40
4.83362
 41
0.0
 71
     1
 72
     1
  1
Produit d'éducation SOLIDWORKS – A titre éducatif uniquement.
  7
SLDTEXTSTYLE0
 73
     1
 44
1.0
  0
ENDSEC
  0
SECTION
  2
OBJECTS
  0
DICTIONARY
  5
C
330
0
100
AcDbDictionary
281
     1
  3
ACAD_GROUP
350
D
  3
ACAD_LAYOUT
350
1A
  3
ACAD_MLINESTYLE
350
17
  3
ACAD_PLOTSETTINGS
350
19
  3
ACAD_PLOTSTYLENAME
350
E
  3
ACAD_SCALELIST
350
47
  3
DWGPROPS
350
8B
  0
DICTIONARY
  5
D
102
{ACAD_REACTORS
330
C
102
}
330
C
100
AcDbDictionary
281
     1
  0
DICTIONARY
  5
1A
102
{ACAD_REACTORS
330
C
102
}
330
C
100
AcDbDictionary
281
     1
  3
Layout1
350
1E
  3
Layout2
350
26
  3
Model
350
22
  0
DICTIONARY
  5
17
102
{ACAD_REACTORS
330
C
102
}
330
C
100
AcDbDictionary
281
     1
  3
Standard
350
18
  0
DICTIONARY
  5
19
102
{ACAD_REACTORS
330
C
102
}
330
C
100
AcDbDictionary
281
     1
  0
ACDBDICTIONARYWDFLT
  5
E
102
{ACAD_REACTORS
330
C
102
}
330
C
100
AcDbDictionary
281
     1
  3
Normal
350
F
100
AcDbDictionaryWithDefault
340
F
  0
DICTIONARY
  5
47
102
{ACAD_REACTORS
330
C
102
}
330
C
100
AcDbDictionary
281
     1
  3
A0
350
48
  3
A1
350
49
  3
A2
350
4A
  3
A3
350
4B
  3
A4
350
4C
  3
A5
350
4D
  3
A6
350
4E
  3
A7
350
4F
  3
A8
350
50
  3
A9
350
51
  3
B0
350
52
  3
B1
350
53
  3
B2
350
54
  3
B3
350
55
  3
B4
350
56
  3
B5
350
57
  3
B6
350
58
  0
XRECORD
  5
8B
102
{ACAD_REACTORS
330
C
102
}
330
C
100
AcDbXrecord
280
     1
  1
DWGPROPS COOKIE
  2

  3

  4

  6

  7

  8
TROTEC
  9

300
=
301
=
302
=
303
=
304
=
305
=
306
=
307
=
308
=
309
=
 40
0.0
 41
2460245.569196643
 42
2460245.569220637
  1

 90
        0
  0
LAYOUT
  5
1E
102
{ACAD_REACTORS
330
1A
102
}
330
1A
100
AcDbPlotSettings
  1

  2
none_device
  4

  6

 40
0.0
 41
0.0
 42
0.0
 43
0.0
 44
0.0
 45
0.0
 46
0.0
 47
0.0
 48
0.0
 49
0.0
140
0.0
141
0.0
142
1.0
143
1.0
 70
   688
 72
     1
 73
     0
 74
     5
  7

 75
    16
147
1.0
148
0.0
149
0.0
100
AcDbLayout
  1
Layout1
 70
     1
 71
     1
 10
0.0
 20
0.0
 11
420.0
 21
297.0
 12
0.0
 22
0.0
 32
0.0
 14
1.0000000000E+20
 24
1.0000000000E+20
 34
1.0000000000E+20
 15
-1.0000000000E+20
 25
-1.0000000000E+20
 35
-1.0000000000E+20
146
0.0
 13
0.0
 23
0.0
 33
0.0
 16
1.0
 26
0.0
 36
0.0
 17
0.0
 27
1.0
 37
0.0
 76
     0
330
1B
  0
LAYOUT
  5
26
102
{ACAD_REACTORS
330
1A
102
}
330
1A
100
AcDbPlotSettings
  1

  2
none_device
  4

  6

 40
0.0
 41
0.0
 42
0.0
 43
0.0
 44
0.0
 45
0.0
 46
0.0
 47
0.0
 48
0.0
 49
0.0
140
0.0
141
0.0
142
1.0
143
1.0
 70
   688
 72
     1
 73
     0
 74
     5
  7

 75
    16
147
1.0
148
0.0
149
0.0
100
AcDbLayout
  1
Layout2
 70
     1
 71
     2
 10
0.0
 20
0.0
 11
0.0
 21
0.0
 12
0.0
 22
0.0
 32
0.0
 14
0.0
 24
0.0
 34
0.0
 15
0.0
 25
0.0
 35
0.0
146
0.0
 13
0.0
 23
0.0
 33
0.0
 16
1.0
 26
0.0
 36
0.0
 17
0.0
 27
1.0
 37
0.0
 76
     0
330
23
  0
LAYOUT
  5
22
102
{ACAD_REACTORS
330
1A
102
}
330
1A
100
AcDbPlotSettings
  1

  2
none_device
  4
ANSI_A_(11.00_x_8.50_Inches)
  6

 40
6.35
 41
19.05
 42
6.35000508
 43
19.05000254
 44
279.4
 45
215.9
 46
133.34999746
 47
88.89999873
 48
0.0
 49
0.0
140
0.0
141
0.0
142
0.0452419355
143
1.0
 70
  1696
 72
     0
 73
     0
 74
     0
  7

 75
     0
147
0.0179189148
148
-1300.4909072572
149
0.0
100
AcDbLayout
  1
Model
 70
     1
 71
     0
 10
0.0
 20
0.0
 11
420.0
 21
297.0
 12
0.0
 22
0.0
 32
0.0
 14
-90.0
 24
-93.0
 34
0.0
 15
90.0
 25
93.0
 35
0.0
146
0.0
 13
0.0
 23
0.0
 33
0.0
 16
1.0
 26
0.0
 36
0.0
 17
0.0
 27
1.0
 37
0.0
 76
     0
330
1F
331
29
  0
MLINESTYLE
  5
18
102
{ACAD_REACTORS
330
17
102
}
330
17
100
AcDbMlineStyle
  2
Standard
 70
     0
  3

 62
   256
 51
90.0
 52
90.0
 71
     2
 49
0.5
 62
   256
  6
BYLAYER
 49
-0.5
 62
   256
  6
BYLAYER
  0
ACDBPLACEHOLDER
  5
F
102
{ACAD_REACTORS
330
E
102
}
330
E
  0
SCALE
  5
48
102
{ACAD_REACTORS
330
47
102
}
330
47
100
AcDbScale
 70
     0
300
1:1
140
1.0
141
1.0
290
     1
  0
SCALE
  5
49
102
{ACAD_REACTORS
330
47
102
}
330
47
100
AcDbScale
 70
     0
300
1:2
140
1.0
141
2.0
290
     0
  0
SCALE
  5
4A
102
{ACAD_REACTORS
330
47
102
}
330
47
100
AcDbScale
 70
     0
300
1:4
140
1.0
141
4.0
290
     0
  0
SCALE
  5
4B
102
{ACAD_REACTORS
330
47
102
}
330
47
100
AcDbScale
 70
     0
300
1:5
140
1.0
141
5.0
290
     0
  0
SCALE
  5
4C
102
{ACAD_REACTORS
330
47
102
}
330
47
100
AcDbScale
 70
     0
300
1:8
140
1.0
141
8.0
290
     0
  0
SCALE
  5
4D
102
{ACAD_REACTORS
330
47
102
}
330
47
100
AcDbScale
 70
     0
300
1:10
140
1.0
141
10.0
290
     0
  0
SCALE
  5
4E
102
{ACAD_REACTORS
330
47
102
}
330
47
100
AcDbScale
 70
     0
300
1:16
140
1.0
141
16.0
290
     0
  0
SCALE
  5
4F
102
{ACAD_REACTORS
330
47
102
}
330
47
100
AcDbScale
 70
     0
300
1:20
140
1.0
141
20.0
290
     0
  0
SCALE
  5
50
102
{ACAD_REACTORS
330
47
102
}
330
47
100
AcDbScale
 70
     0
300
1:30
140
1.0
141
30.0
290
     0
  0
SCALE
  5
51
102
{ACAD_REACTORS
330
47
102
}
330
47
100
AcDbScale
 70
     0
300
1:40
140
1.0
141
40.0
290
     0
  0
SCALE
  5
52
102
{ACAD_REACTORS
330
47
102
}
330
47
100
AcDbScale
 70
     0
300
1:50
140
1.0
141
50.0
290
     0
  0
SCALE
  5
53
102
{ACAD_REACTORS
330
47
102
}
330
47
100
AcDbScale
 70
     0
300
1:100
140
1.0
141
100.0
290
     0
  0
SCALE
  5
54
102
{ACAD_REACTORS
330
47
102
}
330
47
100
AcDbScale
 70
     0
300
2:1
140
2.0
141
1.0
290
     0
  0
SCALE
  5
55
102
{ACAD_REACTORS
330
47
102
}
330
47
100
AcDbScale
 70
     0
300
4:1
140
4.0
141
1.0
290
     0
  0
SCALE
  5
56
102
{ACAD_REACTORS
330
47
102
}
330
47
100
AcDbScale
 70
     0
300
8:1
140
8.0
141
1.0
290
     0
  0
SCALE
  5
57
102
{ACAD_REACTORS
330
47
102
}
330
47
100
AcDbScale
 70
     0
300
10:1
140
10.0
141
1.0
290
     0
  0
SCALE
  5
58
102
{ACAD_REACTORS
330
47
102
}
330
47
100
AcDbScale
 70
     0
300
100:1
140
100.0
141
1.0
290
     0
  0
ENDSEC
  0
EOF
